<svg width="874" height="340" viewBox="0 0 874 340" fill="none" xmlns="http://www.w3.org/2000/svg">
<path opacity="0.06" d="M605.494 280.416V217.581L749.377 11.7734H836.344V213.028H873.681V280.416H836.344V339.608H758.484V280.416H605.494ZM763.948 97.3747L687.453 213.028H763.948V97.3747Z" fill="#2D5551"/>
<path opacity="0.06" d="M306.644 168.861C306.644 116.651 316.661 75.5194 336.695 45.4679C357.033 15.4164 389.665 0.390625 434.59 0.390625C479.516 0.390625 511.996 15.4164 532.03 45.4679C552.368 75.5194 562.537 116.651 562.537 168.861C562.537 221.679 552.368 263.114 532.03 293.165C511.996 323.217 479.516 338.243 434.59 338.243C389.665 338.243 357.033 323.217 336.695 293.165C316.661 263.114 306.644 221.679 306.644 168.861ZM486.042 168.861C486.042 138.203 482.703 114.677 476.025 98.2857C469.347 81.5904 455.535 73.2428 434.59 73.2428C413.645 73.2428 399.834 81.5904 393.155 98.2857C386.477 114.677 383.138 138.203 383.138 168.861C383.138 189.503 384.353 206.653 386.781 220.313C389.209 233.669 394.066 244.597 401.351 253.097C408.94 261.292 420.02 265.39 434.59 265.39C449.161 265.39 460.088 261.292 467.374 253.097C474.962 244.597 479.971 233.669 482.399 220.313C484.828 206.653 486.042 189.503 486.042 168.861Z" fill="#2D5551"/>
<path opacity="0.06" d="M0.319336 280.416V217.581L144.202 11.7734H231.17V213.028H268.506V280.416H231.17V339.608H153.309V280.416H0.319336ZM158.773 97.3747L82.278 213.028H158.773V97.3747Z" fill="#2D5551"/>
</svg>
