<svg width="240" height="240" viewBox="0 0 240 240" fill="none" xmlns="http://www.w3.org/2000/svg">
<circle cx="119.5" cy="119.5" r="86.5" fill="white"/>
<path d="M104.133 1.46662C59.9999 7.19996 20.7999 39.6 6.93323 81.7333C-8.13343 127.333 3.86657 174.267 39.0666 207.467C89.7332 255.333 170.8 248.667 214.8 193.067C227.467 177.067 236.133 155.067 238.667 132.533C244.933 77.7333 210.667 24.1333 158.267 6.93329C146.4 3.06662 127.067 -0.133378 117.333 0.133288C114.8 0.266622 108.8 0.799955 104.133 1.46662ZM127.333 53.3333C130.933 60.6666 134.4 66.6666 135.067 66.6666C135.733 66.6666 138.933 65.0666 142.133 63.2C145.467 61.2 148.533 60 148.933 60.5333C149.333 60.9333 148.133 69.2 146.133 78.9333C140.667 106.533 141.333 107.867 153.733 94C158 89.2 162 85.3333 162.667 85.3333C163.2 85.3333 164 86.6666 164.4 88.2666C164.933 90 166 92.4 166.933 93.7333C168.533 96 169.2 96 179.067 93.8666C184.8 92.6666 189.867 92.1333 190.267 92.4C190.667 92.8 189.333 97.8666 187.467 103.6C185.6 109.333 184 114.667 184 115.467C184 116.267 186.133 117.867 188.8 119.2C191.6 120.4 193.2 122 192.533 122.533C191.867 123.067 183.333 130 173.733 137.867C164 145.733 156 152.667 156 153.2C156 153.867 156.933 156.933 158 160C159.067 163.2 159.733 166 159.333 166.4C159.067 166.8 151.2 165.733 142 164.133C132.8 162.533 124.533 161.6 123.733 162.133C122.667 162.8 122.533 168.4 123.067 180.933L123.867 198.667H120H116L116.933 180.933C117.467 168.533 117.333 162.8 116.267 162.133C115.467 161.6 107.2 162.533 98.1332 164.133C88.9332 165.867 81.0666 166.8 80.6666 166.4C80.2666 166 80.9332 163.2 81.9999 160C83.0666 156.933 83.9999 153.867 83.9999 153.2C83.9999 152.667 75.7332 145.467 65.7332 137.2C55.5999 129.067 47.1999 122 46.9332 121.467C46.7999 120.933 48.7999 119.733 51.3332 118.8C53.8666 117.867 55.9999 116.4 55.9999 115.6C55.9999 114.667 54.3999 109.333 52.5332 103.6C50.6666 97.8666 49.3332 92.8 49.7332 92.4C50.1332 92.1333 55.0666 92.6666 60.6666 93.8666C66.3999 95.0666 71.3332 96 71.8666 96C72.5332 96 73.7332 93.6 74.6666 90.6666C75.5999 87.7333 76.9332 85.3333 77.4666 85.3333C77.9999 85.3333 82.2666 89.6 86.9332 94.6666C92.1332 100.4 95.8666 103.6 96.9332 103.067C97.9999 102.267 97.3332 96.5333 94.3999 81.6C92.1332 70.4 90.6666 60.9333 91.0666 60.5333C91.4666 60.1333 94.3999 61.3333 97.7332 63.2C100.933 65.0666 104.133 66.6666 104.8 66.6666C105.6 66.6666 109.067 60.6666 112.667 53.3333C116.267 46 119.6 40 120 40C120.4 40 123.733 46 127.333 53.3333Z" fill="#008081"/>
</svg>
