<svg width="375" height="316" viewBox="0 0 375 316" fill="none" xmlns="http://www.w3.org/2000/svg">
<g clip-path="url(#clip0_19_18468)">
<g clip-path="url(#clip1_19_18468)">
<path d="M-162.719 113.634C-236.9 100.546 -323.815 312.771 -358 323.678H1080.29V108.677C1008.5 116.163 947.514 11.6302 935.976 50.7274C926.567 82.6152 944.495 264.523 894.5 271.178C844.237 277.868 796.673 79.5649 746.25 50.7274C705.912 27.6573 637.976 57.6775 612.907 67.29C534.5 97.3546 479.782 269.87 436 241.178C373.484 200.208 278.93 -25.8916 216.84 18.8256C154.749 63.5428 158.843 268.357 81.5 292.204C4.15662 316.05 -69.9921 129.994 -162.719 113.634Z" fill="url(#paint0_linear_19_18468)" fill-opacity="0.25"/>
<path d="M-357 323.678C-322.815 312.757 -236.9 100.692 -162.719 113.797C-69.9921 130.178 6.65662 313.555 84 289.678C161.343 265.801 154.749 63.6413 216.84 18.8669C278.93 -25.9076 372.484 199.156 435 240.178C478.782 268.908 545.5 90.6777 612.907 67.3934C637.976 57.7686 705.912 27.7099 746.25 50.8095C796.673 79.684 843.737 277.877 894 271.178C943.995 264.515 926.567 82.7381 935.977 50.8095C947.514 11.6623 1008.21 118.174 1080 110.678" stroke="#6C8180"/>
<path d="M-162.719 218.382C-236.9 205.295 -323.815 310.769 -358 321.676V325.426H1080.29V110.833C1008.5 118.32 947.514 116.378 935.976 155.476C926.567 187.363 926.148 210.101 876.153 216.755C825.89 223.446 796.673 184.313 746.25 155.476C705.912 132.406 637.976 162.426 612.907 172.038C568.466 188.768 467.44 152.267 423.658 123.574C361.143 82.6039 278.93 78.8566 216.84 123.574C154.749 168.291 93.1616 131.629 15.8182 155.476C-61.5252 179.322 -69.9921 234.742 -162.719 218.382Z" fill="url(#paint1_linear_19_18468)" fill-opacity="0.25"/>
<path d="M-358 323.676C-323.815 312.755 -236.9 205.44 -162.719 218.545C-69.9921 234.926 -61.5252 179.435 15.8182 155.558C93.1616 131.681 154.749 168.389 216.84 123.615C278.93 78.8405 361.143 82.5926 423.659 123.615C467.44 152.344 568.466 188.892 612.907 172.141C637.976 162.517 705.912 132.458 746.25 155.558C796.673 184.432 825.89 223.615 876.153 216.916C926.148 210.253 926.567 187.486 935.977 155.558C947.514 116.41 1008.5 118.354 1080.29 110.858" stroke="#0075FF"/>
<path d="M885.206 245.472C959.962 232.375 1047.55 250.929 1082 261.844V325.677H-358V322.677C-285.656 330.169 -239.148 145.022 -227.522 184.147C-218.039 216.059 -217.617 238.813 -167.234 245.472C-116.582 252.167 -56.5277 230.863 -5.71436 202.004C34.9364 178.917 95.6253 192.384 120.888 202.004C165.673 218.746 239.445 230.099 298.699 213.006C372.766 191.639 413.675 197.744 507.12 213.006C600.565 228.268 591.091 237.98 669.034 261.844C746.976 285.708 791.761 261.844 885.206 245.472Z" fill="url(#paint2_linear_19_18468)" fill-opacity="0.25"/>
<path d="M1082 261.842C1047.55 250.928 959.962 232.373 885.206 245.471C791.761 261.842 746.976 285.706 669.034 261.842C591.091 237.978 600.565 228.266 507.12 213.005C413.675 197.743 372.766 191.638 298.699 213.005C239.445 230.098 165.673 218.744 120.888 202.002C95.6253 192.383 34.9364 178.915 -5.71436 202.002C-56.5278 230.861 -65.8478 249.87 -116.5 243.175C-166.883 236.515 -167.234 215.175 -227.522 184.146C-263.814 165.467 -285.656 330.167 -358 322.675" stroke="#2CD9FF"/>
<path d="M885.206 245.474C959.962 232.377 1047.55 250.932 1082 261.846V325.679H-358V322.679C-285.656 330.171 -262.93 163.846 -227.522 184.149C-183 209.678 -152.883 244.519 -102.5 251.179C-51.8478 257.874 -56.5277 230.865 -5.71436 202.006C34.9364 178.919 95.6253 192.386 120.888 202.006C165.673 218.748 239.445 230.101 298.699 213.008C372.766 191.642 413.675 197.746 507.12 213.008C600.565 228.27 591.091 237.982 669.034 261.846C746.976 285.71 791.761 261.846 885.206 245.474Z" fill="url(#paint3_linear_19_18468)" fill-opacity="0.25"/>
</g>
<mask id="path-8-inside-1_19_18468" fill="white">
<path d="M10 306H355V-7H10V306Z"/>
</mask>
<path d="M10 305H355V307H10V305Z" fill="#2D5551" fill-opacity="0.08" mask="url(#path-8-inside-1_19_18468)"/>
<rect width="44" height="22" transform="translate(70 134)" fill="#0175FF"/>
<path d="M80.6676 149L78.2472 140.273H79.6321L81.3324 147.031H81.4134L83.1818 140.273H84.554L86.3224 147.036H86.4034L88.0994 140.273H89.4886L87.0639 149H85.7386L83.902 142.463H83.8338L81.9972 149H80.6676ZM89.947 149V142.455H91.2212V149H89.947ZM90.5905 141.445C90.3689 141.445 90.1785 141.371 90.0194 141.223C89.8632 141.072 89.7851 140.893 89.7851 140.686C89.7851 140.476 89.8632 140.297 90.0194 140.149C90.1785 139.999 90.3689 139.923 90.5905 139.923C90.8121 139.923 91.001 139.999 91.1572 140.149C91.3163 140.297 91.3959 140.476 91.3959 140.686C91.3959 140.893 91.3163 141.072 91.1572 141.223C91.001 141.371 90.8121 141.445 90.5905 141.445ZM93.5694 145.114V149H92.2953V142.455H93.5183V143.52H93.5993C93.7498 143.173 93.9856 142.895 94.3066 142.685C94.6305 142.474 95.0382 142.369 95.5297 142.369C95.9757 142.369 96.3663 142.463 96.7015 142.651C97.0368 142.835 97.2967 143.111 97.4814 143.477C97.666 143.844 97.7584 144.297 97.7584 144.837V149H96.4842V144.99C96.4842 144.516 96.3606 144.145 96.1135 143.878C95.8663 143.608 95.5268 143.473 95.095 143.473C94.7995 143.473 94.5368 143.537 94.3066 143.665C94.0794 143.793 93.899 143.98 93.7655 144.227C93.6348 144.472 93.5694 144.767 93.5694 145.114ZM101.277 149.128C100.749 149.128 100.277 148.993 99.8627 148.723C99.4507 148.45 99.1269 148.062 98.8911 147.56C98.6581 147.054 98.5416 146.447 98.5416 145.74C98.5416 145.033 98.6595 144.428 98.8953 143.925C99.134 143.422 99.4607 143.037 99.8755 142.77C100.29 142.503 100.76 142.369 101.286 142.369C101.692 142.369 102.019 142.438 102.266 142.574C102.516 142.707 102.709 142.864 102.846 143.043C102.985 143.222 103.093 143.379 103.169 143.516H103.246V140.273H104.52V149H103.276V147.982H103.169C103.093 148.121 102.982 148.28 102.837 148.459C102.695 148.638 102.499 148.794 102.249 148.928C101.999 149.061 101.675 149.128 101.277 149.128ZM101.559 148.041C101.925 148.041 102.235 147.945 102.488 147.751C102.743 147.555 102.937 147.284 103.067 146.938C103.201 146.591 103.267 146.187 103.267 145.727C103.267 145.273 103.202 144.875 103.071 144.534C102.941 144.193 102.749 143.928 102.496 143.737C102.243 143.547 101.931 143.452 101.559 143.452C101.175 143.452 100.856 143.551 100.6 143.75C100.344 143.949 100.151 144.22 100.02 144.564C99.8925 144.908 99.8286 145.295 99.8286 145.727C99.8286 146.165 99.8939 146.558 100.025 146.908C100.155 147.257 100.348 147.534 100.604 147.739C100.863 147.94 101.181 148.041 101.559 148.041Z" fill="white"/>
<rect width="41" height="22" transform="translate(32 180)" fill="#2FD6FA"/>
<path d="M46.8651 189.03C46.7827 188.771 46.6719 188.54 46.5327 188.335C46.3963 188.128 46.233 187.952 46.0426 187.807C45.8523 187.659 45.6349 187.547 45.3906 187.47C45.1491 187.393 44.8835 187.355 44.5938 187.355C44.1023 187.355 43.6591 187.482 43.2642 187.734C42.8693 187.987 42.5568 188.358 42.3267 188.847C42.0994 189.332 41.9858 189.928 41.9858 190.632C41.9858 191.339 42.1009 191.937 42.331 192.426C42.5611 192.915 42.8764 193.286 43.277 193.538C43.6776 193.791 44.1335 193.918 44.6449 193.918C45.1193 193.918 45.5327 193.821 45.8849 193.628C46.2401 193.435 46.5142 193.162 46.7074 192.81C46.9034 192.455 47.0014 192.037 47.0014 191.557L47.3423 191.621H44.8452V190.534H48.2756V191.527C48.2756 192.26 48.1193 192.896 47.8068 193.436C47.4972 193.973 47.0682 194.388 46.5199 194.68C45.9744 194.973 45.3494 195.119 44.6449 195.119C43.8551 195.119 43.1619 194.938 42.5653 194.574C41.9716 194.21 41.5085 193.695 41.1761 193.027C40.8438 192.357 40.6776 191.561 40.6776 190.641C40.6776 189.945 40.7741 189.32 40.9673 188.766C41.1605 188.212 41.4318 187.741 41.7812 187.355C42.1335 186.966 42.5469 186.669 43.0213 186.464C43.4986 186.257 44.0199 186.153 44.5852 186.153C45.0568 186.153 45.4957 186.223 45.902 186.362C46.3111 186.501 46.6747 186.699 46.9929 186.955C47.3139 187.21 47.5795 187.514 47.7898 187.866C48 188.216 48.142 188.604 48.2159 189.03H46.8651ZM51.9619 195.132C51.3483 195.132 50.8128 194.991 50.3554 194.71C49.898 194.429 49.5429 194.036 49.29 193.53C49.0372 193.024 48.9108 192.433 48.9108 191.757C48.9108 191.078 49.0372 190.484 49.29 189.976C49.5429 189.467 49.898 189.072 50.3554 188.791C50.8128 188.51 51.3483 188.369 51.9619 188.369C52.5756 188.369 53.1111 188.51 53.5685 188.791C54.0258 189.072 54.381 189.467 54.6338 189.976C54.8866 190.484 55.0131 191.078 55.0131 191.757C55.0131 192.433 54.8866 193.024 54.6338 193.53C54.381 194.036 54.0258 194.429 53.5685 194.71C53.1111 194.991 52.5756 195.132 51.9619 195.132ZM51.9662 194.062C52.3639 194.062 52.6935 193.957 52.9548 193.747C53.2162 193.537 53.4094 193.257 53.5344 192.908C53.6622 192.558 53.7261 192.173 53.7261 191.753C53.7261 191.335 53.6622 190.952 53.5344 190.602C53.4094 190.25 53.2162 189.967 52.9548 189.754C52.6935 189.541 52.3639 189.435 51.9662 189.435C51.5656 189.435 51.2332 189.541 50.969 189.754C50.7077 189.967 50.5131 190.25 50.3852 190.602C50.2602 190.952 50.1977 191.335 50.1977 191.753C50.1977 192.173 50.2602 192.558 50.3852 192.908C50.5131 193.257 50.7077 193.537 50.969 193.747C51.2332 193.957 51.5656 194.062 51.9662 194.062ZM57.7001 195.145C57.2853 195.145 56.9103 195.068 56.5751 194.915C56.2399 194.759 55.9743 194.533 55.7782 194.237C55.5851 193.942 55.4885 193.58 55.4885 193.151C55.4885 192.781 55.5595 192.477 55.7015 192.239C55.8436 192 56.0353 191.811 56.2768 191.672C56.5183 191.533 56.7882 191.428 57.0865 191.357C57.3848 191.286 57.6888 191.232 57.9984 191.195C58.3905 191.149 58.7086 191.112 58.953 191.084C59.1973 191.053 59.3748 191.003 59.4856 190.935C59.5964 190.866 59.6518 190.756 59.6518 190.602V190.572C59.6518 190.2 59.5467 189.912 59.3365 189.707C59.1291 189.503 58.8194 189.401 58.4075 189.401C57.9785 189.401 57.6405 189.496 57.3933 189.686C57.149 189.874 56.9799 190.082 56.8862 190.312L55.6888 190.04C55.8308 189.642 56.0382 189.321 56.3109 189.077C56.5865 188.83 56.9032 188.651 57.2612 188.54C57.6191 188.426 57.9956 188.369 58.3905 188.369C58.6518 188.369 58.9288 188.401 59.2214 188.463C59.5169 188.523 59.7924 188.634 60.0481 188.795C60.3066 188.957 60.5183 189.189 60.6831 189.49C60.8478 189.788 60.9302 190.176 60.9302 190.653V195H59.6859V194.105H59.6348C59.5524 194.27 59.4288 194.432 59.264 194.591C59.0993 194.75 58.8876 194.882 58.6291 194.987C58.3706 195.092 58.0609 195.145 57.7001 195.145ZM57.9771 194.122C58.3294 194.122 58.6305 194.053 58.8805 193.913C59.1334 193.774 59.3251 193.592 59.4558 193.368C59.5893 193.141 59.6561 192.898 59.6561 192.639V191.795C59.6106 191.841 59.5226 191.884 59.3919 191.923C59.264 191.96 59.1177 191.993 58.953 192.021C58.7882 192.047 58.6277 192.071 58.4714 192.094C58.3152 192.114 58.1845 192.131 58.0794 192.145C57.8322 192.176 57.6064 192.229 57.4018 192.303C57.2001 192.376 57.0382 192.483 56.916 192.622C56.7967 192.759 56.737 192.94 56.737 193.168C56.737 193.483 56.8535 193.722 57.0865 193.884C57.3194 194.043 57.6163 194.122 57.9771 194.122ZM63.2615 186.273V195H61.9873V186.273H63.2615Z" fill="white"/>
<rect width="43" height="22" transform="translate(143 113)" fill="#6C8180"/>
<path d="M156.719 121.565C156.673 121.162 156.486 120.849 156.156 120.628C155.827 120.403 155.412 120.291 154.912 120.291C154.554 120.291 154.244 120.348 153.983 120.462C153.722 120.572 153.518 120.726 153.374 120.922C153.232 121.115 153.161 121.335 153.161 121.582C153.161 121.79 153.209 121.969 153.305 122.119C153.405 122.27 153.534 122.396 153.693 122.499C153.855 122.598 154.028 122.682 154.213 122.75C154.398 122.815 154.575 122.869 154.746 122.912L155.598 123.134C155.876 123.202 156.162 123.294 156.455 123.411C156.747 123.527 157.018 123.68 157.268 123.871C157.518 124.061 157.72 124.297 157.874 124.578C158.03 124.859 158.108 125.196 158.108 125.588C158.108 126.082 157.98 126.521 157.724 126.905C157.472 127.288 157.104 127.591 156.621 127.812C156.141 128.034 155.56 128.145 154.878 128.145C154.224 128.145 153.659 128.041 153.182 127.834C152.705 127.626 152.331 127.332 152.061 126.952C151.791 126.568 151.642 126.114 151.614 125.588H152.935C152.96 125.903 153.063 126.166 153.241 126.376C153.423 126.584 153.655 126.739 153.936 126.841C154.22 126.94 154.531 126.99 154.869 126.99C155.241 126.99 155.572 126.932 155.862 126.815C156.155 126.696 156.385 126.531 156.553 126.321C156.72 126.108 156.804 125.859 156.804 125.575C156.804 125.317 156.73 125.105 156.582 124.94C156.438 124.776 156.24 124.639 155.99 124.531C155.743 124.423 155.463 124.328 155.151 124.246L154.119 123.964C153.42 123.774 152.866 123.494 152.457 123.125C152.051 122.756 151.848 122.267 151.848 121.659C151.848 121.156 151.984 120.717 152.257 120.342C152.53 119.967 152.899 119.676 153.365 119.469C153.831 119.259 154.357 119.153 154.942 119.153C155.533 119.153 156.054 119.257 156.506 119.464C156.96 119.672 157.318 119.957 157.58 120.321C157.841 120.682 157.977 121.097 157.989 121.565H156.719ZM161.696 128.132C161.083 128.132 160.547 127.991 160.09 127.71C159.632 127.429 159.277 127.036 159.024 126.53C158.772 126.024 158.645 125.433 158.645 124.757C158.645 124.078 158.772 123.484 159.024 122.976C159.277 122.467 159.632 122.072 160.09 121.791C160.547 121.51 161.083 121.369 161.696 121.369C162.31 121.369 162.845 121.51 163.303 121.791C163.76 122.072 164.115 122.467 164.368 122.976C164.621 123.484 164.747 124.078 164.747 124.757C164.747 125.433 164.621 126.024 164.368 126.53C164.115 127.036 163.76 127.429 163.303 127.71C162.845 127.991 162.31 128.132 161.696 128.132ZM161.701 127.062C162.098 127.062 162.428 126.957 162.689 126.747C162.951 126.537 163.144 126.257 163.269 125.908C163.397 125.558 163.46 125.173 163.46 124.753C163.46 124.335 163.397 123.952 163.269 123.602C163.144 123.25 162.951 122.967 162.689 122.754C162.428 122.541 162.098 122.435 161.701 122.435C161.3 122.435 160.968 122.541 160.703 122.754C160.442 122.967 160.247 123.25 160.12 123.602C159.995 123.952 159.932 124.335 159.932 124.753C159.932 125.173 159.995 125.558 160.12 125.908C160.247 126.257 160.442 126.537 160.703 126.747C160.968 126.957 161.3 127.062 161.701 127.062ZM166.804 119.273V128H165.53V119.273H166.804ZM169.783 128.145C169.368 128.145 168.993 128.068 168.658 127.915C168.323 127.759 168.057 127.533 167.861 127.237C167.668 126.942 167.571 126.58 167.571 126.151C167.571 125.781 167.642 125.477 167.784 125.239C167.926 125 168.118 124.811 168.359 124.672C168.601 124.533 168.871 124.428 169.169 124.357C169.467 124.286 169.771 124.232 170.081 124.195C170.473 124.149 170.791 124.112 171.036 124.084C171.28 124.053 171.457 124.003 171.568 123.935C171.679 123.866 171.734 123.756 171.734 123.602V123.572C171.734 123.2 171.629 122.912 171.419 122.707C171.212 122.503 170.902 122.401 170.49 122.401C170.061 122.401 169.723 122.496 169.476 122.686C169.232 122.874 169.063 123.082 168.969 123.312L167.771 123.04C167.913 122.642 168.121 122.321 168.394 122.077C168.669 121.83 168.986 121.651 169.344 121.54C169.702 121.426 170.078 121.369 170.473 121.369C170.734 121.369 171.011 121.401 171.304 121.463C171.6 121.523 171.875 121.634 172.131 121.795C172.389 121.957 172.601 122.189 172.766 122.49C172.93 122.788 173.013 123.176 173.013 123.653V128H171.769V127.105H171.717C171.635 127.27 171.511 127.432 171.347 127.591C171.182 127.75 170.97 127.882 170.712 127.987C170.453 128.092 170.144 128.145 169.783 128.145ZM170.06 127.122C170.412 127.122 170.713 127.053 170.963 126.913C171.216 126.774 171.408 126.592 171.538 126.368C171.672 126.141 171.739 125.898 171.739 125.639V124.795C171.693 124.841 171.605 124.884 171.475 124.923C171.347 124.96 171.2 124.993 171.036 125.021C170.871 125.047 170.71 125.071 170.554 125.094C170.398 125.114 170.267 125.131 170.162 125.145C169.915 125.176 169.689 125.229 169.484 125.303C169.283 125.376 169.121 125.483 168.999 125.622C168.879 125.759 168.82 125.94 168.82 126.168C168.82 126.483 168.936 126.722 169.169 126.884C169.402 127.043 169.699 127.122 170.06 127.122ZM174.07 128V121.455H175.302V122.494H175.37C175.489 122.142 175.699 121.865 176 121.663C176.304 121.459 176.648 121.357 177.032 121.357C177.111 121.357 177.205 121.359 177.313 121.365C177.424 121.371 177.51 121.378 177.573 121.386V122.605C177.522 122.591 177.431 122.575 177.3 122.558C177.169 122.538 177.039 122.528 176.908 122.528C176.607 122.528 176.338 122.592 176.103 122.72C175.87 122.845 175.685 123.02 175.549 123.244C175.412 123.466 175.344 123.719 175.344 124.003V128H174.07Z" fill="white"/>
</g>
<defs>
<linearGradient id="paint0_linear_19_18468" x1="361.143" y1="220.678" x2="361.143" y2="-13.3223" gradientUnits="userSpaceOnUse">
<stop stop-color="#6C8180" stop-opacity="0"/>
<stop offset="1" stop-color="#6C8180"/>
</linearGradient>
<linearGradient id="paint1_linear_19_18468" x1="361.143" y1="325.426" x2="361.143" y2="91.4258" gradientUnits="userSpaceOnUse">
<stop stop-color="#0075FF" stop-opacity="0"/>
<stop offset="1" stop-color="#0075FF"/>
</linearGradient>
<linearGradient id="paint2_linear_19_18468" x1="362" y1="75.9268" x2="362" y2="325.677" gradientUnits="userSpaceOnUse">
<stop stop-color="#2CD9FF" stop-opacity="0.36"/>
<stop offset="1" stop-color="#2CD9FF" stop-opacity="0"/>
</linearGradient>
<linearGradient id="paint3_linear_19_18468" x1="362" y1="75.9287" x2="362" y2="325.679" gradientUnits="userSpaceOnUse">
<stop stop-color="#2CD9FF" stop-opacity="0.36"/>
<stop offset="1" stop-color="#2CD9FF" stop-opacity="0"/>
</linearGradient>
<clipPath id="clip0_19_18468">
<rect width="375" height="316" fill="white"/>
</clipPath>
<clipPath id="clip1_19_18468">
<rect width="375" height="307" fill="white" transform="translate(0 9)"/>
</clipPath>
</defs>
</svg>
