<svg width="1440" height="314" viewBox="0 0 1440 314" fill="none" xmlns="http://www.w3.org/2000/svg">
<mask id="path-1-inside-1_841_12415" fill="white">
<path d="M0 314H1440V1H0V314Z"/>
</mask>
<path d="M0 313H1440V315H0V313Z" fill="#2D5551" fill-opacity="0.08" mask="url(#path-1-inside-1_841_12415)"/>
<path d="M195.281 206.707C121.1 193.619 34.1849 299.093 0 310V313.75H1438.29V99.1574C1366.5 106.644 1305.51 104.703 1293.98 143.8C1284.57 175.688 1284.15 198.425 1234.15 205.08C1183.89 211.77 1154.67 172.637 1104.25 143.8C1063.91 120.73 995.976 150.75 970.907 160.363C926.466 177.092 825.44 140.591 781.658 111.898C719.143 70.9281 636.93 67.1808 574.84 111.898C512.749 156.615 451.162 119.953 373.818 143.8C296.475 167.646 288.008 223.067 195.281 206.707Z" fill="url(#paint0_linear_841_12415)" fill-opacity="0.25"/>
<path d="M0 312C34.1849 301.079 121.1 193.765 195.281 206.869C288.008 223.25 296.475 167.759 373.818 143.882C451.162 120.005 512.749 156.714 574.84 111.939C636.93 67.1647 719.143 70.9168 781.659 111.939C825.44 140.669 926.466 177.217 970.907 160.466C995.976 150.841 1063.91 120.782 1104.25 143.882C1154.67 172.756 1183.89 211.939 1234.15 205.24C1284.15 198.577 1284.57 175.81 1293.98 143.882C1305.51 104.735 1366.5 106.679 1438.29 99.1823" stroke="#0075FF"/>
<path d="M1243.21 233.796C1317.96 220.699 1405.55 239.254 1440 250.168V314.001H0V311.001C72.3445 318.493 118.852 133.346 130.478 172.472C139.961 204.383 140.383 227.137 190.766 233.796C241.418 240.492 301.472 219.187 352.286 190.328C392.936 167.241 453.625 180.708 478.888 190.328C523.673 207.07 597.445 218.424 656.699 201.33C730.766 179.964 771.675 186.068 865.12 201.33C958.565 216.592 949.091 226.304 1027.03 250.168C1104.98 274.032 1149.76 250.168 1243.21 233.796Z" fill="url(#paint1_linear_841_12415)" fill-opacity="0.25"/>
<path d="M1440 250.167C1405.55 239.252 1317.96 220.697 1243.21 233.795C1149.76 250.167 1104.98 274.031 1027.03 250.167C949.091 226.303 958.565 216.591 865.12 201.329C771.675 186.067 730.766 179.962 656.699 201.329C597.445 218.422 523.673 207.068 478.888 190.326C453.625 180.707 392.936 167.239 352.286 190.326C301.472 219.185 292.152 238.194 241.5 231.499C191.117 224.839 190.766 203.499 130.478 172.47C94.1864 153.791 72.3445 318.492 0 310.999" stroke="#2CD9FF"/>
<path d="M1243.21 233.798C1317.96 220.701 1405.55 239.256 1440 250.17V314.003H0V311.003C72.3445 318.495 95.0696 152.17 130.478 172.474C175 198.002 205.117 232.843 255.5 239.503C306.152 246.198 301.472 219.189 352.286 190.33C392.936 167.243 453.625 180.711 478.888 190.33C523.673 207.072 597.445 218.426 656.699 201.332C730.766 179.966 771.675 186.071 865.12 201.332C958.565 216.594 949.091 226.306 1027.03 250.17C1104.98 274.034 1149.76 250.17 1243.21 233.798Z" fill="url(#paint2_linear_841_12415)" fill-opacity="0.25"/>
<path d="M1 312.002C35.1849 301.081 121.1 89.0165 195.281 102.121C288.008 118.502 364.657 301.879 442 278.002C519.343 254.125 512.749 51.9655 574.84 7.19109C636.93 -37.5834 730.484 187.48 793 228.503C836.782 257.232 903.5 79.002 970.907 55.7176C995.976 46.0928 1063.91 16.0341 1104.25 39.1337C1154.67 68.0082 1201.74 266.201 1252 259.503C1302 252.839 1284.57 71.0624 1293.98 39.1337C1305.51 -0.013504 1366.21 106.498 1438 99.002" stroke="#6C8180"/>
<path d="M195.281 101.958C121.1 88.8706 34.1849 301.095 0 312.002H1438.29V97.001C1366.5 104.488 1305.51 -0.0456085 1293.98 39.0516C1284.57 70.9394 1302.5 252.847 1252.5 259.502C1202.24 266.192 1154.67 67.8891 1104.25 39.0516C1063.91 15.9815 995.976 46.0017 970.907 55.6143C892.5 85.6788 837.782 258.195 794 229.502C731.484 188.532 636.93 -37.5674 574.84 7.14977C512.749 51.867 516.843 256.681 439.5 280.528C362.157 304.374 288.008 118.318 195.281 101.958Z" fill="url(#paint3_linear_841_12415)" fill-opacity="0.25"/>
<rect width="44" height="22" transform="translate(137 199)" fill="#0175FF"/>
<path d="M147.668 214L145.247 205.273H146.632L148.332 212.031H148.413L150.182 205.273H151.554L153.322 212.036H153.403L155.099 205.273H156.489L154.064 214H152.739L150.902 207.463H150.834L148.997 214H147.668ZM156.947 214V207.455H158.221V214H156.947ZM157.59 206.445C157.369 206.445 157.179 206.371 157.019 206.223C156.863 206.072 156.785 205.893 156.785 205.686C156.785 205.476 156.863 205.297 157.019 205.149C157.179 204.999 157.369 204.923 157.59 204.923C157.812 204.923 158.001 204.999 158.157 205.149C158.316 205.297 158.396 205.476 158.396 205.686C158.396 205.893 158.316 206.072 158.157 206.223C158.001 206.371 157.812 206.445 157.59 206.445ZM160.569 210.114V214H159.295V207.455H160.518V208.52H160.599C160.75 208.173 160.986 207.895 161.307 207.685C161.631 207.474 162.038 207.369 162.53 207.369C162.976 207.369 163.366 207.463 163.702 207.651C164.037 207.835 164.297 208.111 164.481 208.477C164.666 208.844 164.758 209.297 164.758 209.837V214H163.484V209.99C163.484 209.516 163.361 209.145 163.113 208.878C162.866 208.608 162.527 208.473 162.095 208.473C161.8 208.473 161.537 208.537 161.307 208.665C161.079 208.793 160.899 208.98 160.765 209.227C160.635 209.472 160.569 209.767 160.569 210.114ZM168.277 214.128C167.749 214.128 167.277 213.993 166.863 213.723C166.451 213.45 166.127 213.062 165.891 212.56C165.658 212.054 165.542 211.447 165.542 210.74C165.542 210.033 165.66 209.428 165.895 208.925C166.134 208.422 166.461 208.037 166.875 207.77C167.29 207.503 167.76 207.369 168.286 207.369C168.692 207.369 169.019 207.438 169.266 207.574C169.516 207.707 169.709 207.864 169.846 208.043C169.985 208.222 170.093 208.379 170.169 208.516H170.246V205.273H171.52V214H170.276V212.982H170.169C170.093 213.121 169.982 213.28 169.837 213.459C169.695 213.638 169.499 213.794 169.249 213.928C168.999 214.061 168.675 214.128 168.277 214.128ZM168.559 213.041C168.925 213.041 169.235 212.945 169.488 212.751C169.743 212.555 169.937 212.284 170.067 211.938C170.201 211.591 170.267 211.187 170.267 210.727C170.267 210.273 170.202 209.875 170.071 209.534C169.941 209.193 169.749 208.928 169.496 208.737C169.243 208.547 168.931 208.452 168.559 208.452C168.175 208.452 167.856 208.551 167.6 208.75C167.344 208.949 167.151 209.22 167.02 209.564C166.892 209.908 166.829 210.295 166.829 210.727C166.829 211.165 166.894 211.558 167.025 211.908C167.155 212.257 167.348 212.534 167.604 212.739C167.863 212.94 168.181 213.041 168.559 213.041Z" fill="white"/>
<rect width="41" height="22" transform="translate(137 170)" fill="#2FD6FA"/>
<path d="M151.865 179.03C151.783 178.771 151.672 178.54 151.533 178.335C151.396 178.128 151.233 177.952 151.043 177.807C150.852 177.659 150.635 177.547 150.391 177.47C150.149 177.393 149.884 177.355 149.594 177.355C149.102 177.355 148.659 177.482 148.264 177.734C147.869 177.987 147.557 178.358 147.327 178.847C147.099 179.332 146.986 179.928 146.986 180.632C146.986 181.339 147.101 181.937 147.331 182.426C147.561 182.915 147.876 183.286 148.277 183.538C148.678 183.791 149.134 183.918 149.645 183.918C150.119 183.918 150.533 183.821 150.885 183.628C151.24 183.435 151.514 183.162 151.707 182.81C151.903 182.455 152.001 182.037 152.001 181.557L152.342 181.621H149.845V180.534H153.276V181.527C153.276 182.26 153.119 182.896 152.807 183.436C152.497 183.973 152.068 184.388 151.52 184.68C150.974 184.973 150.349 185.119 149.645 185.119C148.855 185.119 148.162 184.938 147.565 184.574C146.972 184.21 146.509 183.695 146.176 183.027C145.844 182.357 145.678 181.561 145.678 180.641C145.678 179.945 145.774 179.32 145.967 178.766C146.161 178.212 146.432 177.741 146.781 177.355C147.134 176.966 147.547 176.669 148.021 176.464C148.499 176.257 149.02 176.153 149.585 176.153C150.057 176.153 150.496 176.223 150.902 176.362C151.311 176.501 151.675 176.699 151.993 176.955C152.314 177.21 152.58 177.514 152.79 177.866C153 178.216 153.142 178.604 153.216 179.03H151.865ZM156.962 185.132C156.348 185.132 155.813 184.991 155.355 184.71C154.898 184.429 154.543 184.036 154.29 183.53C154.037 183.024 153.911 182.433 153.911 181.757C153.911 181.078 154.037 180.484 154.29 179.976C154.543 179.467 154.898 179.072 155.355 178.791C155.813 178.51 156.348 178.369 156.962 178.369C157.576 178.369 158.111 178.51 158.568 178.791C159.026 179.072 159.381 179.467 159.634 179.976C159.887 180.484 160.013 181.078 160.013 181.757C160.013 182.433 159.887 183.024 159.634 183.53C159.381 184.036 159.026 184.429 158.568 184.71C158.111 184.991 157.576 185.132 156.962 185.132ZM156.966 184.062C157.364 184.062 157.693 183.957 157.955 183.747C158.216 183.537 158.409 183.257 158.534 182.908C158.662 182.558 158.726 182.173 158.726 181.753C158.726 181.335 158.662 180.952 158.534 180.602C158.409 180.25 158.216 179.967 157.955 179.754C157.693 179.541 157.364 179.435 156.966 179.435C156.566 179.435 156.233 179.541 155.969 179.754C155.708 179.967 155.513 180.25 155.385 180.602C155.26 180.952 155.198 181.335 155.198 181.753C155.198 182.173 155.26 182.558 155.385 182.908C155.513 183.257 155.708 183.537 155.969 183.747C156.233 183.957 156.566 184.062 156.966 184.062ZM162.7 185.145C162.285 185.145 161.91 185.068 161.575 184.915C161.24 184.759 160.974 184.533 160.778 184.237C160.585 183.942 160.488 183.58 160.488 183.151C160.488 182.781 160.559 182.477 160.702 182.239C160.844 182 161.035 181.811 161.277 181.672C161.518 181.533 161.788 181.428 162.086 181.357C162.385 181.286 162.689 181.232 162.998 181.195C163.39 181.149 163.709 181.112 163.953 181.084C164.197 181.053 164.375 181.003 164.486 180.935C164.596 180.866 164.652 180.756 164.652 180.602V180.572C164.652 180.2 164.547 179.912 164.336 179.707C164.129 179.503 163.819 179.401 163.408 179.401C162.979 179.401 162.64 179.496 162.393 179.686C162.149 179.874 161.98 180.082 161.886 180.312L160.689 180.04C160.831 179.642 161.038 179.321 161.311 179.077C161.586 178.83 161.903 178.651 162.261 178.54C162.619 178.426 162.996 178.369 163.39 178.369C163.652 178.369 163.929 178.401 164.221 178.463C164.517 178.523 164.792 178.634 165.048 178.795C165.307 178.957 165.518 179.189 165.683 179.49C165.848 179.788 165.93 180.176 165.93 180.653V185H164.686V184.105H164.635C164.552 184.27 164.429 184.432 164.264 184.591C164.099 184.75 163.888 184.882 163.629 184.987C163.371 185.092 163.061 185.145 162.7 185.145ZM162.977 184.122C163.329 184.122 163.631 184.053 163.881 183.913C164.133 183.774 164.325 183.592 164.456 183.368C164.589 183.141 164.656 182.898 164.656 182.639V181.795C164.611 181.841 164.523 181.884 164.392 181.923C164.264 181.96 164.118 181.993 163.953 182.021C163.788 182.047 163.628 182.071 163.471 182.094C163.315 182.114 163.184 182.131 163.079 182.145C162.832 182.176 162.606 182.229 162.402 182.303C162.2 182.376 162.038 182.483 161.916 182.622C161.797 182.759 161.737 182.94 161.737 183.168C161.737 183.483 161.854 183.722 162.086 183.884C162.319 184.043 162.616 184.122 162.977 184.122ZM168.261 176.273V185H166.987V176.273H168.261Z" fill="white"/>
<rect width="43" height="22" transform="translate(137 107)" fill="#6C8180"/>
<path d="M150.719 115.565C150.673 115.162 150.486 114.849 150.156 114.628C149.827 114.403 149.412 114.291 148.912 114.291C148.554 114.291 148.244 114.348 147.983 114.462C147.722 114.572 147.518 114.726 147.374 114.922C147.232 115.115 147.161 115.335 147.161 115.582C147.161 115.79 147.209 115.969 147.305 116.119C147.405 116.27 147.534 116.396 147.693 116.499C147.855 116.598 148.028 116.682 148.213 116.75C148.398 116.815 148.575 116.869 148.746 116.912L149.598 117.134C149.876 117.202 150.162 117.294 150.455 117.411C150.747 117.527 151.018 117.68 151.268 117.871C151.518 118.061 151.72 118.297 151.874 118.578C152.03 118.859 152.108 119.196 152.108 119.588C152.108 120.082 151.98 120.521 151.724 120.905C151.472 121.288 151.104 121.591 150.621 121.812C150.141 122.034 149.56 122.145 148.878 122.145C148.224 122.145 147.659 122.041 147.182 121.834C146.705 121.626 146.331 121.332 146.061 120.952C145.791 120.568 145.642 120.114 145.614 119.588H146.935C146.96 119.903 147.063 120.166 147.241 120.376C147.423 120.584 147.655 120.739 147.936 120.841C148.22 120.94 148.531 120.99 148.869 120.99C149.241 120.99 149.572 120.932 149.862 120.815C150.155 120.696 150.385 120.531 150.553 120.321C150.72 120.108 150.804 119.859 150.804 119.575C150.804 119.317 150.73 119.105 150.582 118.94C150.438 118.776 150.24 118.639 149.99 118.531C149.743 118.423 149.463 118.328 149.151 118.246L148.119 117.964C147.42 117.774 146.866 117.494 146.457 117.125C146.051 116.756 145.848 116.267 145.848 115.659C145.848 115.156 145.984 114.717 146.257 114.342C146.53 113.967 146.899 113.676 147.365 113.469C147.831 113.259 148.357 113.153 148.942 113.153C149.533 113.153 150.054 113.257 150.506 113.464C150.96 113.672 151.318 113.957 151.58 114.321C151.841 114.682 151.977 115.097 151.989 115.565H150.719ZM155.696 122.132C155.083 122.132 154.547 121.991 154.09 121.71C153.632 121.429 153.277 121.036 153.024 120.53C152.772 120.024 152.645 119.433 152.645 118.757C152.645 118.078 152.772 117.484 153.024 116.976C153.277 116.467 153.632 116.072 154.09 115.791C154.547 115.51 155.083 115.369 155.696 115.369C156.31 115.369 156.845 115.51 157.303 115.791C157.76 116.072 158.115 116.467 158.368 116.976C158.621 117.484 158.747 118.078 158.747 118.757C158.747 119.433 158.621 120.024 158.368 120.53C158.115 121.036 157.76 121.429 157.303 121.71C156.845 121.991 156.31 122.132 155.696 122.132ZM155.701 121.062C156.098 121.062 156.428 120.957 156.689 120.747C156.951 120.537 157.144 120.257 157.269 119.908C157.397 119.558 157.46 119.173 157.46 118.753C157.46 118.335 157.397 117.952 157.269 117.602C157.144 117.25 156.951 116.967 156.689 116.754C156.428 116.541 156.098 116.435 155.701 116.435C155.3 116.435 154.968 116.541 154.703 116.754C154.442 116.967 154.247 117.25 154.12 117.602C153.995 117.952 153.932 118.335 153.932 118.753C153.932 119.173 153.995 119.558 154.12 119.908C154.247 120.257 154.442 120.537 154.703 120.747C154.968 120.957 155.3 121.062 155.701 121.062ZM160.804 113.273V122H159.53V113.273H160.804ZM163.783 122.145C163.368 122.145 162.993 122.068 162.658 121.915C162.323 121.759 162.057 121.533 161.861 121.237C161.668 120.942 161.571 120.58 161.571 120.151C161.571 119.781 161.642 119.477 161.784 119.239C161.926 119 162.118 118.811 162.359 118.672C162.601 118.533 162.871 118.428 163.169 118.357C163.467 118.286 163.771 118.232 164.081 118.195C164.473 118.149 164.791 118.112 165.036 118.084C165.28 118.053 165.457 118.003 165.568 117.935C165.679 117.866 165.734 117.756 165.734 117.602V117.572C165.734 117.2 165.629 116.912 165.419 116.707C165.212 116.503 164.902 116.401 164.49 116.401C164.061 116.401 163.723 116.496 163.476 116.686C163.232 116.874 163.063 117.082 162.969 117.312L161.771 117.04C161.913 116.642 162.121 116.321 162.394 116.077C162.669 115.83 162.986 115.651 163.344 115.54C163.702 115.426 164.078 115.369 164.473 115.369C164.734 115.369 165.011 115.401 165.304 115.463C165.6 115.523 165.875 115.634 166.131 115.795C166.389 115.957 166.601 116.189 166.766 116.49C166.93 116.788 167.013 117.176 167.013 117.653V122H165.769V121.105H165.717C165.635 121.27 165.511 121.432 165.347 121.591C165.182 121.75 164.97 121.882 164.712 121.987C164.453 122.092 164.144 122.145 163.783 122.145ZM164.06 121.122C164.412 121.122 164.713 121.053 164.963 120.913C165.216 120.774 165.408 120.592 165.538 120.368C165.672 120.141 165.739 119.898 165.739 119.639V118.795C165.693 118.841 165.605 118.884 165.475 118.923C165.347 118.96 165.2 118.993 165.036 119.021C164.871 119.047 164.71 119.071 164.554 119.094C164.398 119.114 164.267 119.131 164.162 119.145C163.915 119.176 163.689 119.229 163.484 119.303C163.283 119.376 163.121 119.483 162.999 119.622C162.879 119.759 162.82 119.94 162.82 120.168C162.82 120.483 162.936 120.722 163.169 120.884C163.402 121.043 163.699 121.122 164.06 121.122ZM168.07 122V115.455H169.302V116.494H169.37C169.489 116.142 169.699 115.865 170 115.663C170.304 115.459 170.648 115.357 171.032 115.357C171.111 115.357 171.205 115.359 171.313 115.365C171.424 115.371 171.51 115.378 171.573 115.386V116.605C171.522 116.591 171.431 116.575 171.3 116.558C171.169 116.538 171.039 116.528 170.908 116.528C170.607 116.528 170.338 116.592 170.103 116.72C169.87 116.845 169.685 117.02 169.549 117.244C169.412 117.466 169.344 117.719 169.344 118.003V122H168.07Z" fill="white"/>
<defs>
<linearGradient id="paint0_linear_841_12415" x1="719.143" y1="313.75" x2="719.143" y2="79.75" gradientUnits="userSpaceOnUse">
<stop stop-color="#0075FF" stop-opacity="0"/>
<stop offset="1" stop-color="#0075FF"/>
</linearGradient>
<linearGradient id="paint1_linear_841_12415" x1="720" y1="64.251" x2="720" y2="314.001" gradientUnits="userSpaceOnUse">
<stop stop-color="#2CD9FF" stop-opacity="0.36"/>
<stop offset="1" stop-color="#2CD9FF" stop-opacity="0"/>
</linearGradient>
<linearGradient id="paint2_linear_841_12415" x1="720" y1="64.2529" x2="720" y2="314.003" gradientUnits="userSpaceOnUse">
<stop stop-color="#2CD9FF" stop-opacity="0.36"/>
<stop offset="1" stop-color="#2CD9FF" stop-opacity="0"/>
</linearGradient>
<linearGradient id="paint3_linear_841_12415" x1="719.143" y1="209.002" x2="719.143" y2="-24.998" gradientUnits="userSpaceOnUse">
<stop stop-color="#6C8180" stop-opacity="0"/>
<stop offset="1" stop-color="#6C8180"/>
</linearGradient>
</defs>
</svg>
