<svg width="1440" height="551" viewBox="0 0 1440 551" fill="none" xmlns="http://www.w3.org/2000/svg">
<path d="M1444.5 550L1440.52 47.419C1440.51 45.6154 1439.52 43.9593 1437.95 43.0851L1363.65 1.91231C1362.59 1.32425 1361.35 1.14211 1360.16 1.39984L1295.07 15.5506C1293.75 15.8379 1292.6 16.6482 1291.88 17.7968L1261.97 65.9169C1260.23 68.7241 1256.29 69.0958 1254.05 66.6647L1228.87 39.3287C1226.38 36.6246 1221.92 37.4427 1220.55 40.8549L1186.85 124.892C1186.31 126.232 1185.22 127.274 1183.86 127.75L1158.95 136.469C1157.14 137.1 1155.14 136.649 1153.78 135.307L1118.86 100.804C1116.61 98.5808 1112.88 98.9799 1111.15 101.63L1087.74 137.529C1086.05 140.126 1082.42 140.572 1080.15 138.462L1060.33 120.054C1058.24 118.117 1054.96 118.31 1053.12 120.478L1025.16 153.341C1022.66 156.286 1017.9 155.394 1016.63 151.741L999.342 101.946C997.774 97.4295 991.37 97.4783 989.871 102.018L944.469 239.51C943.209 243.326 938.19 244.172 935.749 240.979L893.383 185.578C891.409 182.997 887.537 182.954 885.507 185.491L860.86 216.3C858.467 219.292 853.736 218.591 852.313 215.033L840.975 186.688C839.738 183.594 835.876 182.554 833.251 184.608L816.858 197.438C815.978 198.126 814.893 198.5 813.776 198.5H790.772C790.26 198.5 789.752 198.422 789.264 198.267L726.332 178.37C723.876 177.593 721.231 178.81 720.223 181.182L672.5 293.5L641.074 397.447C640.436 399.557 638.492 401 636.288 401H560.551C558.425 401 556.531 399.655 555.83 397.647L525.139 309.665C523.493 304.946 516.705 305.296 515.553 310.159L493.913 401.484C492.764 406.336 485.999 406.7 484.335 402L456.142 322.375C454.805 318.597 449.788 317.85 447.407 321.074L408.246 374.104C406.502 376.466 403.107 376.824 400.909 374.877L355.321 334.498C353.651 333.019 351.203 332.825 349.321 334.023L311.007 358.405C309.462 359.388 307.503 359.448 305.901 358.561L284.347 346.63C282.147 345.412 279.385 346.017 277.896 348.044L230.463 412.606C228.485 415.299 224.473 415.331 222.452 412.67L202.429 386.307C199.959 383.055 194.844 383.975 193.662 387.883L159.244 501.664C157.774 506.523 150.838 506.353 149.607 501.429L128.141 415.564C126.975 410.902 120.544 410.409 118.681 414.839L106.313 444.257C106.106 444.749 105.821 445.205 105.47 445.607L78.2679 476.758C76.4597 478.828 73.3191 479.051 71.237 477.256L65.2738 472.115C62.8342 470.012 59.0716 470.731 57.5786 473.585L47.3112 493.214C45.5737 496.535 40.9343 496.835 38.7846 493.764L33.8233 486.676C31.7714 483.745 27.3944 483.855 25.4922 486.885L0.765078 526.281C0.265174 527.078 0 527.999 0 528.939V550" stroke="#2D5551" stroke-opacity="0.4"/>
<path d="M25.4922 487.385L0.765078 526.781C0.265174 527.578 0 528.499 0 529.439V545.5C0 548.261 2.2386 550.5 5.00002 550.5H1439.45C1442.23 550.5 1444.48 548.231 1444.45 545.451L1439.53 46.4214C1439.51 44.6166 1438.52 42.9614 1436.94 42.0908L1362.19 0.929971C1361.1 0.331468 1359.83 0.158501 1358.62 0.444692L1294.97 15.5334C1293.71 15.8327 1292.61 16.6112 1291.91 17.7044L1261.05 65.9488C1259.27 68.7373 1255.32 69.0542 1253.11 66.5857L1229.3 39.9317C1226.84 37.1846 1222.36 37.9442 1220.95 41.3467L1185.85 125.953C1185.31 127.256 1184.24 128.271 1182.91 128.745L1160 136.929C1158.17 137.582 1156.13 137.116 1154.76 135.734L1119.72 100.268C1117.52 98.047 1113.85 98.3587 1112.06 100.918L1086.35 137.708C1084.59 140.225 1081 140.576 1078.79 138.448L1060.78 121.138C1058.72 119.158 1055.43 119.303 1053.55 121.456L1025.18 153.988C1022.65 156.886 1017.94 155.967 1016.68 152.332L999.337 102.027C997.776 97.4998 991.358 97.5449 989.861 102.093L944.464 239.997C943.206 243.816 938.185 244.665 935.743 241.471L893.383 186.078C891.409 183.497 887.537 183.454 885.507 185.991L860.86 216.8C858.467 219.792 853.736 219.09 852.313 215.533L840.975 187.188C839.737 184.094 835.876 183.054 833.251 185.108L816.858 197.938C815.978 198.626 814.893 199 813.776 199H790.806C790.272 199 789.742 198.915 789.235 198.747L726.354 177.941C723.891 177.126 721.214 178.33 720.189 180.713L671.5 294L641.053 397.906C640.429 400.036 638.475 401.5 636.255 401.5H560.551C558.425 401.5 556.531 400.155 555.83 398.147L525.139 310.165C523.493 305.446 516.705 305.796 515.553 310.659L493.913 401.984C492.764 406.836 485.999 407.2 484.335 402.5L456.142 322.875C454.805 319.097 449.788 318.35 447.407 321.574L408.246 374.604C406.502 376.966 403.107 377.324 400.909 375.377L355.321 334.998C353.651 333.519 351.203 333.325 349.321 334.523L311.007 358.905C309.462 359.888 307.503 359.948 305.901 359.061L284.347 347.13C282.147 345.912 279.385 346.517 277.896 348.544L230.463 413.106C228.485 415.799 224.473 415.831 222.452 413.17L202.429 386.807C199.959 383.555 194.844 384.475 193.662 388.383L159.244 502.164C157.774 507.023 150.838 506.853 149.607 501.929L128.141 416.064C126.975 411.402 120.544 410.909 118.681 415.339L106.313 444.757C106.106 445.249 105.821 445.705 105.47 446.107L78.2679 477.258C76.4597 479.328 73.3191 479.551 71.237 477.756L65.2738 472.615C62.8342 470.512 59.0716 471.231 57.5786 474.085L47.3112 493.714C45.5737 497.035 40.9343 497.335 38.7846 494.264L33.8233 487.176C31.7714 484.245 27.3944 484.355 25.4922 487.385Z" fill="url(#paint0_linear_6_18464)" fill-opacity="0.2"/>
<defs>
<linearGradient id="paint0_linear_6_18464" x1="722.25" y1="173.5" x2="722.25" y2="550.5" gradientUnits="userSpaceOnUse">
<stop stop-color="#2D5551"/>
<stop offset="1" stop-color="#2D5551" stop-opacity="0"/>
</linearGradient>
</defs>
</svg>
