<svg width="375" height="374" viewBox="0 0 375 374" fill="none" xmlns="http://www.w3.org/2000/svg">
<path d="M524 374L522.557 32.5592C522.552 31.2726 522.051 30.0376 521.158 29.1111L496.422 3.43866C495.003 1.96589 492.83 1.5058 490.936 2.27703L471.177 10.3223C469.822 10.8737 468.777 11.9904 468.317 13.3782L460.373 37.3131C458.964 41.559 453.115 41.959 451.141 37.9446L450.19 36.0114C448.097 31.755 441.807 32.5328 440.814 37.1709L430.658 84.598C430.382 85.8849 429.61 87.0112 428.51 87.7327L423.897 90.7564C421.448 92.3619 418.15 91.5283 416.757 88.952L409.682 75.8607C407.616 72.0369 401.991 72.4889 400.562 76.5937L396.953 86.9569C395.566 90.9411 390.138 91.4495 388.035 87.7921V87.7921C386.035 84.3154 380.941 84.5589 379.283 88.2104L376.401 94.5566C374.378 99.0103 367.824 98.2101 366.932 93.4006L365.8 87.2939C364.785 81.818 356.927 81.8526 355.96 87.3371L344.541 152.101C343.67 157.039 336.883 157.765 334.988 153.123L327.196 134.038C325.517 129.927 319.713 129.881 317.969 133.964L316.531 137.329C314.615 141.816 308.063 141.181 307.044 136.409L306.609 134.375C305.691 130.075 300.068 128.969 297.589 132.602L297.316 133.003C296.384 134.368 294.838 135.185 293.185 135.185H287.946C287.05 135.185 286.17 134.944 285.398 134.487L267.815 124.074C264.897 122.346 261.141 123.963 260.391 127.271L243.953 199.73L232.842 268.564C232.451 270.986 230.36 272.767 227.906 272.767H206.209C203.801 272.767 201.735 271.05 201.294 268.682L194.311 231.189C193.266 225.58 185.151 225.817 184.435 231.477L181.731 252.847C181.016 258.5 172.916 258.748 171.858 253.149L167.543 230.326C166.612 225.4 159.818 224.757 157.979 229.421L150.627 248.068C149.108 251.921 143.831 252.363 141.693 248.816L131.485 231.882C129.714 228.944 125.577 228.621 123.372 231.249L115.482 240.654C113.573 242.929 110.114 243.049 108.052 240.911L107.161 239.987C104.632 237.365 100.238 238.241 98.9078 241.633L86.5227 273.206C84.9516 277.211 79.2955 277.243 77.6788 273.256V273.256C75.869 268.793 69.335 269.532 68.5671 274.286L61.2704 319.465C60.3527 325.148 52.1398 325.035 51.3783 319.33L48.8665 300.512C48.128 294.98 40.2544 294.633 39.0319 300.078L38.5705 302.134C38.4918 302.484 38.3755 302.826 38.2236 303.151L29.0982 322.723C28.2856 324.466 25.8623 324.61 24.8497 322.975V322.975C23.7403 321.184 21.0304 321.569 20.4637 323.598L17.8125 333.091C17.1714 335.386 13.9687 335.523 13.1343 333.29V333.29C12.3221 331.117 9.23015 331.17 8.49299 333.37L0.259132 357.94C0.0875112 358.452 0 358.989 0 359.529V374" stroke="#2D5551" stroke-opacity="0.4"/>
<path d="M8.49299 333.372L0.259156 357.941C0.0875195 358.453 0 358.989 0 359.529V369C0 371.761 2.23858 374 5 374H518.974C521.745 374 523.988 371.745 523.974 368.974L522.197 31.564C522.19 30.2736 521.685 29.0359 520.786 28.1095L495.958 2.50497C494.498 1.0001 492.255 0.565242 490.339 1.41578L471.039 9.98368C469.766 10.5488 468.787 11.6194 468.336 12.9376L460.129 36.969C458.68 41.2101 452.814 41.5507 450.884 37.5057L450.266 36.2084C448.218 31.916 441.9 32.6365 440.871 37.2796L430.299 85.0019C430.02 86.2592 429.268 87.3605 428.197 88.0765L424.32 90.6695C421.854 92.319 418.503 91.4707 417.118 88.8466L409.859 75.0881C407.845 71.2692 402.262 71.6278 400.753 75.6731L396.43 87.256C395.027 91.0165 389.861 91.404 387.912 87.8948C386.047 84.5357 381.159 84.7096 379.537 88.1928L376.442 94.8388C374.386 99.2539 367.874 98.4233 366.992 93.6336L365.792 87.1129C364.782 81.6309 356.915 81.6627 355.95 87.1527L344.535 152.094C343.667 157.033 336.877 157.762 334.981 153.118L327.196 134.05C325.517 129.939 319.713 129.893 317.969 133.976L316.531 137.341C314.614 141.829 308.063 141.193 307.044 136.421L306.609 134.388C305.691 130.087 300.068 128.981 297.589 132.614L297.316 133.015C296.384 134.38 294.838 135.197 293.185 135.197H288C287.07 135.197 286.158 134.937 285.367 134.447L267.853 123.594C264.938 121.788 261.112 123.384 260.345 126.726L243.59 199.738L232.825 268.545C232.444 270.978 230.348 272.772 227.885 272.772H206.209C203.801 272.772 201.735 271.055 201.294 268.688L194.311 231.197C193.266 225.587 185.151 225.824 184.435 231.485L181.731 252.854C181.016 258.507 172.916 258.754 171.858 253.155L167.543 230.334C166.612 225.407 159.818 224.764 157.979 229.428L150.627 248.075C149.107 251.928 143.831 252.369 141.693 248.822L131.485 231.889C129.714 228.951 125.577 228.628 123.372 231.256L115.482 240.661C113.573 242.936 110.114 243.055 108.053 240.918L107.161 239.994C104.632 237.372 100.238 238.248 98.9078 241.639L86.5227 273.211C84.9516 277.216 79.2956 277.248 77.6788 273.261C75.8689 268.798 69.335 269.537 68.5671 274.291L61.2703 319.468C60.3526 325.15 52.1398 325.038 51.3783 319.333L48.8665 300.516C48.128 294.984 40.2544 294.636 39.0319 300.082L38.5705 302.137C38.4918 302.488 38.3754 302.829 38.2235 303.155L29.0982 322.726C28.2856 324.469 25.8623 324.612 24.8497 322.978C23.7403 321.186 21.0304 321.571 20.4637 323.601L17.8125 333.093C17.1714 335.388 13.9687 335.525 13.1343 333.292C12.3221 331.119 9.23017 331.172 8.49299 333.372Z" fill="url(#paint0_linear_841_12652)" fill-opacity="0.2"/>
<path d="M93.5 243L103 234L84 234L93.5 243Z" fill="#0C0C0C"/>
<rect width="143" height="70" transform="matrix(1 0 0 -1 22 234)" fill="#0C0C0C"/>
<path d="M38.5795 209.21V208.273H45.125V209.21H42.3807V217H41.3239V209.21H38.5795ZM47.6254 213.062V217H46.6197V208.273H47.6254V211.477H47.7106C47.864 211.139 48.0941 210.871 48.4009 210.672C48.7106 210.47 49.1225 210.369 49.6367 210.369C50.0827 210.369 50.4734 210.459 50.8086 210.638C51.1438 210.814 51.4038 211.085 51.5884 211.452C51.7759 211.815 51.8697 212.278 51.8697 212.841V217H50.864V212.909C50.864 212.389 50.729 211.987 50.4592 211.703C50.1921 211.416 49.8214 211.273 49.3469 211.273C49.0174 211.273 48.7219 211.342 48.4606 211.482C48.2021 211.621 47.9975 211.824 47.8469 212.091C47.6992 212.358 47.6254 212.682 47.6254 213.062ZM56.4538 217.136C55.8232 217.136 55.2791 216.997 54.8217 216.719C54.3672 216.438 54.0163 216.045 53.7692 215.543C53.5249 215.037 53.4027 214.449 53.4027 213.778C53.4027 213.108 53.5249 212.517 53.7692 212.006C54.0163 211.491 54.3601 211.091 54.8004 210.804C55.2436 210.514 55.7607 210.369 56.3516 210.369C56.6925 210.369 57.0291 210.426 57.3615 210.54C57.6939 210.653 57.9964 210.838 58.2692 211.094C58.5419 211.347 58.7592 211.682 58.9212 212.099C59.0831 212.517 59.1641 213.031 59.1641 213.642V214.068H54.1186V213.199H58.1413C58.1413 212.83 58.0675 212.5 57.9197 212.21C57.7749 211.92 57.5675 211.692 57.2976 211.524C57.0305 211.357 56.7152 211.273 56.3516 211.273C55.951 211.273 55.6044 211.372 55.3118 211.571C55.022 211.767 54.799 212.023 54.6428 212.338C54.4865 212.653 54.4084 212.991 54.4084 213.352V213.932C54.4084 214.426 54.4936 214.845 54.6641 215.189C54.8374 215.53 55.0774 215.79 55.3842 215.969C55.6911 216.145 56.0476 216.233 56.4538 216.233C56.718 216.233 56.9567 216.196 57.1697 216.122C57.3857 216.045 57.5717 215.932 57.728 215.781C57.8842 215.628 58.005 215.437 58.0902 215.21L59.0618 215.483C58.9595 215.812 58.7876 216.102 58.5462 216.352C58.3047 216.599 58.0064 216.793 57.6513 216.932C57.2962 217.068 56.897 217.136 56.4538 217.136ZM64.0689 219.455V210.455H65.0405V211.494H65.1598C65.2337 211.381 65.3359 211.236 65.4666 211.06C65.6001 210.881 65.7905 210.722 66.0376 210.582C66.2876 210.44 66.6257 210.369 67.0518 210.369C67.603 210.369 68.0888 210.507 68.5092 210.783C68.9297 211.058 69.2578 211.449 69.4936 211.955C69.7294 212.46 69.8473 213.057 69.8473 213.744C69.8473 214.438 69.7294 215.038 69.4936 215.547C69.2578 216.053 68.9311 216.445 68.5135 216.723C68.0959 216.999 67.6143 217.136 67.0689 217.136C66.6484 217.136 66.3118 217.067 66.0589 216.928C65.8061 216.786 65.6115 216.625 65.4751 216.446C65.3388 216.264 65.2337 216.114 65.1598 215.994H65.0746V219.455H64.0689ZM65.0575 213.727C65.0575 214.222 65.13 214.658 65.2749 215.036C65.4197 215.411 65.6314 215.705 65.9098 215.918C66.1882 216.128 66.5291 216.233 66.9325 216.233C67.353 216.233 67.7038 216.122 67.9851 215.901C68.2692 215.676 68.4822 215.375 68.6243 214.997C68.7692 214.616 68.8416 214.193 68.8416 213.727C68.8416 213.267 68.7706 212.852 68.6286 212.483C68.4893 212.111 68.2777 211.817 67.9936 211.601C67.7124 211.382 67.3587 211.273 66.9325 211.273C66.5234 211.273 66.1797 211.376 65.9013 211.584C65.6229 211.788 65.4126 212.075 65.2706 212.445C65.1286 212.811 65.0575 213.239 65.0575 213.727ZM71.3814 217V210.455H72.353V211.443H72.4212C72.5405 211.119 72.7564 210.857 73.0689 210.655C73.3814 210.453 73.7337 210.352 74.1257 210.352C74.1996 210.352 74.2919 210.354 74.4027 210.357C74.5135 210.359 74.5973 210.364 74.6541 210.369V211.392C74.62 211.384 74.5419 211.371 74.4197 211.354C74.3004 211.334 74.174 211.324 74.0405 211.324C73.7223 211.324 73.4382 211.391 73.1882 211.524C72.9411 211.655 72.745 211.837 72.6001 212.07C72.4581 212.3 72.3871 212.562 72.3871 212.858V217H71.3814ZM78.3061 217.136C77.7152 217.136 77.1967 216.996 76.7507 216.714C76.3075 216.433 75.9609 216.04 75.7109 215.534C75.4638 215.028 75.3402 214.437 75.3402 213.761C75.3402 213.08 75.4638 212.484 75.7109 211.976C75.9609 211.467 76.3075 211.072 76.7507 210.791C77.1967 210.51 77.7152 210.369 78.3061 210.369C78.897 210.369 79.4141 210.51 79.8572 210.791C80.3033 211.072 80.6499 211.467 80.897 211.976C81.147 212.484 81.272 213.08 81.272 213.761C81.272 214.437 81.147 215.028 80.897 215.534C80.6499 216.04 80.3033 216.433 79.8572 216.714C79.4141 216.996 78.897 217.136 78.3061 217.136ZM78.3061 216.233C78.755 216.233 79.1243 216.118 79.4141 215.888C79.7038 215.658 79.9183 215.355 80.0575 214.98C80.1967 214.605 80.2663 214.199 80.2663 213.761C80.2663 213.324 80.1967 212.916 80.0575 212.538C79.9183 212.161 79.7038 211.855 79.4141 211.622C79.1243 211.389 78.755 211.273 78.3061 211.273C77.8572 211.273 77.4879 211.389 77.1982 211.622C76.9084 211.855 76.6939 212.161 76.5547 212.538C76.4155 212.916 76.3459 213.324 76.3459 213.761C76.3459 214.199 76.4155 214.605 76.5547 214.98C76.6939 215.355 76.9084 215.658 77.1982 215.888C77.4879 216.118 77.8572 216.233 78.3061 216.233ZM85.7219 210.455V211.307H82.1935V210.455H85.7219ZM83.2504 217V209.551C83.2504 209.176 83.3384 208.864 83.5146 208.614C83.6907 208.364 83.9194 208.176 84.2006 208.051C84.4819 207.926 84.7788 207.864 85.0913 207.864C85.3384 207.864 85.5401 207.884 85.6964 207.923C85.8526 207.963 85.9691 208 86.0458 208.034L85.756 208.903C85.7049 208.886 85.6339 208.865 85.543 208.839C85.4549 208.814 85.3384 208.801 85.1935 208.801C84.8612 208.801 84.6211 208.885 84.4734 209.053C84.3285 209.22 84.256 209.466 84.256 209.79V217H83.2504ZM87.1314 217V210.455H88.1371V217H87.1314ZM87.6428 209.364C87.4467 209.364 87.2777 209.297 87.1357 209.163C86.9964 209.03 86.9268 208.869 86.9268 208.682C86.9268 208.494 86.9964 208.334 87.1357 208.2C87.2777 208.067 87.4467 208 87.6428 208C87.8388 208 88.0064 208.067 88.1456 208.2C88.2876 208.334 88.3587 208.494 88.3587 208.682C88.3587 208.869 88.2876 209.03 88.1456 209.163C88.0064 209.297 87.8388 209.364 87.6428 209.364ZM92.8256 210.455V211.307H89.4336V210.455H92.8256ZM90.4222 208.886H91.4279V215.125C91.4279 215.409 91.4691 215.622 91.5515 215.764C91.6367 215.903 91.7447 215.997 91.8754 216.045C92.0089 216.091 92.1495 216.114 92.2972 216.114C92.408 216.114 92.4989 216.108 92.57 216.097C92.641 216.082 92.6978 216.071 92.7404 216.062L92.945 216.966C92.8768 216.991 92.7816 217.017 92.6594 217.043C92.5373 217.071 92.3825 217.085 92.195 217.085C91.9109 217.085 91.6325 217.024 91.3597 216.902C91.0898 216.78 90.8654 216.594 90.6864 216.344C90.5103 216.094 90.4222 215.778 90.4222 215.398V208.886ZM97.7134 217V210.455H98.7191V217H97.7134ZM98.2248 209.364C98.0288 209.364 97.8597 209.297 97.7177 209.163C97.5785 209.03 97.5089 208.869 97.5089 208.682C97.5089 208.494 97.5785 208.334 97.7177 208.2C97.8597 208.067 98.0288 208 98.2248 208C98.4208 208 98.5884 208.067 98.7276 208.2C98.8697 208.334 98.9407 208.494 98.9407 208.682C98.9407 208.869 98.8697 209.03 98.7276 209.163C98.5884 209.297 98.4208 209.364 98.2248 209.364ZM105.197 211.92L104.294 212.176C104.237 212.026 104.153 211.879 104.043 211.737C103.935 211.592 103.787 211.473 103.599 211.379C103.412 211.286 103.172 211.239 102.879 211.239C102.479 211.239 102.145 211.331 101.878 211.516C101.614 211.697 101.482 211.929 101.482 212.21C101.482 212.46 101.572 212.658 101.754 212.803C101.936 212.947 102.22 213.068 102.607 213.165L103.578 213.403C104.163 213.545 104.599 213.763 104.886 214.055C105.173 214.345 105.317 214.719 105.317 215.176C105.317 215.551 105.209 215.886 104.993 216.182C104.78 216.477 104.482 216.71 104.098 216.881C103.714 217.051 103.268 217.136 102.76 217.136C102.092 217.136 101.54 216.991 101.102 216.702C100.665 216.412 100.388 215.989 100.271 215.432L101.226 215.193C101.317 215.545 101.489 215.81 101.741 215.986C101.997 216.162 102.331 216.25 102.743 216.25C103.212 216.25 103.584 216.151 103.859 215.952C104.138 215.75 104.277 215.509 104.277 215.227C104.277 215 104.197 214.81 104.038 214.656C103.879 214.5 103.635 214.384 103.305 214.307L102.214 214.051C101.615 213.909 101.175 213.689 100.893 213.391C100.615 213.089 100.476 212.713 100.476 212.261C100.476 211.892 100.58 211.565 100.787 211.281C100.997 210.997 101.283 210.774 101.643 210.612C102.007 210.45 102.419 210.369 102.879 210.369C103.527 210.369 104.036 210.511 104.405 210.795C104.777 211.08 105.041 211.455 105.197 211.92Z" fill="white"/>
<path d="M112.707 215.534V209.773H113.853V215.534H112.707ZM110.402 213.224V212.082H116.163V213.224H110.402ZM121.428 208.273V217H120.107V209.594H120.056L117.968 210.957V209.696L120.145 208.273H121.428ZM126.691 208.153C127.08 208.156 127.463 208.227 127.841 208.366C128.219 208.506 128.56 208.733 128.864 209.048C129.171 209.364 129.415 209.79 129.597 210.327C129.782 210.861 129.875 211.526 129.878 212.321C129.878 213.085 129.801 213.766 129.648 214.362C129.495 214.956 129.275 215.457 128.988 215.866C128.703 216.276 128.358 216.587 127.952 216.8C127.546 217.013 127.088 217.119 126.58 217.119C126.06 217.119 125.598 217.017 125.195 216.812C124.792 216.608 124.463 216.325 124.211 215.964C123.958 215.601 123.8 215.183 123.738 214.712H125.037C125.123 215.087 125.296 215.391 125.557 215.624C125.821 215.854 126.162 215.969 126.58 215.969C127.219 215.969 127.718 215.69 128.076 215.134C128.434 214.574 128.614 213.793 128.617 212.79H128.549C128.401 213.034 128.216 213.244 127.995 213.42C127.776 213.597 127.53 213.733 127.257 213.83C126.985 213.926 126.694 213.974 126.384 213.974C125.881 213.974 125.424 213.851 125.012 213.604C124.6 213.357 124.272 213.017 124.027 212.585C123.783 212.153 123.661 211.661 123.661 211.107C123.661 210.555 123.786 210.055 124.036 209.607C124.289 209.158 124.641 208.803 125.093 208.541C125.547 208.277 126.08 208.148 126.691 208.153ZM126.695 209.261C126.363 209.261 126.063 209.344 125.796 209.509C125.532 209.67 125.323 209.891 125.169 210.169C125.016 210.445 124.939 210.751 124.939 211.089C124.939 211.428 125.013 211.734 125.161 212.01C125.311 212.283 125.516 212.5 125.775 212.662C126.036 212.821 126.334 212.901 126.669 212.901C126.919 212.901 127.152 212.852 127.368 212.756C127.584 212.659 127.773 212.526 127.935 212.355C128.097 212.182 128.223 211.986 128.314 211.767C128.405 211.548 128.451 211.318 128.451 211.077C128.451 210.756 128.374 210.457 128.221 210.182C128.07 209.906 127.863 209.685 127.598 209.517C127.334 209.347 127.033 209.261 126.695 209.261ZM134.456 217.119C133.871 217.119 133.348 217.018 132.888 216.817C132.43 216.615 132.068 216.335 131.801 215.977C131.537 215.616 131.395 215.199 131.375 214.724H132.713C132.73 214.983 132.817 215.207 132.973 215.398C133.132 215.585 133.339 215.73 133.595 215.832C133.851 215.935 134.135 215.986 134.447 215.986C134.791 215.986 135.095 215.926 135.359 215.807C135.626 215.687 135.835 215.521 135.986 215.308C136.136 215.092 136.212 214.844 136.212 214.562C136.212 214.27 136.136 214.013 135.986 213.791C135.838 213.567 135.621 213.391 135.334 213.263C135.05 213.135 134.706 213.071 134.303 213.071H133.565V211.997H134.303C134.626 211.997 134.911 211.939 135.155 211.822C135.402 211.706 135.595 211.544 135.734 211.337C135.874 211.126 135.943 210.881 135.943 210.599C135.943 210.33 135.882 210.095 135.76 209.896C135.641 209.695 135.47 209.537 135.249 209.423C135.03 209.31 134.771 209.253 134.473 209.253C134.189 209.253 133.923 209.305 133.676 209.411C133.432 209.513 133.233 209.661 133.08 209.854C132.926 210.044 132.844 210.273 132.832 210.54H131.558C131.572 210.068 131.712 209.653 131.976 209.295C132.243 208.937 132.595 208.658 133.033 208.456C133.47 208.254 133.956 208.153 134.49 208.153C135.05 208.153 135.533 208.263 135.939 208.482C136.348 208.697 136.663 208.986 136.885 209.347C137.109 209.707 137.22 210.102 137.217 210.531C137.22 211.02 137.084 211.435 136.808 211.776C136.536 212.116 136.172 212.345 135.717 212.462V212.53C136.297 212.618 136.746 212.848 137.064 213.22C137.385 213.592 137.544 214.054 137.541 214.605C137.544 215.085 137.411 215.516 137.141 215.896C136.874 216.277 136.509 216.577 136.045 216.795C135.582 217.011 135.053 217.119 134.456 217.119ZM143.707 215.364V214.903C143.707 214.574 143.776 214.273 143.912 214C144.051 213.724 144.253 213.504 144.517 213.339C144.784 213.172 145.107 213.088 145.484 213.088C145.871 213.088 146.195 213.17 146.456 213.335C146.717 213.5 146.915 213.72 147.048 213.996C147.185 214.271 147.253 214.574 147.253 214.903V215.364C147.253 215.693 147.185 215.996 147.048 216.271C146.912 216.544 146.712 216.764 146.447 216.932C146.186 217.097 145.865 217.179 145.484 217.179C145.101 217.179 144.777 217.097 144.513 216.932C144.249 216.764 144.048 216.544 143.912 216.271C143.776 215.996 143.707 215.693 143.707 215.364ZM144.7 214.903V215.364C144.7 215.608 144.759 215.83 144.875 216.028C144.991 216.227 145.195 216.327 145.484 216.327C145.771 216.327 145.972 216.227 146.085 216.028C146.199 215.83 146.256 215.608 146.256 215.364V214.903C146.256 214.659 146.2 214.437 146.089 214.239C145.982 214.04 145.78 213.94 145.484 213.94C145.2 213.94 144.999 214.04 144.879 214.239C144.76 214.437 144.7 214.659 144.7 214.903ZM139.318 210.369V209.909C139.318 209.58 139.386 209.277 139.523 209.001C139.662 208.726 139.864 208.506 140.128 208.341C140.395 208.176 140.717 208.094 141.095 208.094C141.482 208.094 141.805 208.176 142.067 208.341C142.328 208.506 142.526 208.726 142.659 209.001C142.793 209.277 142.859 209.58 142.859 209.909V210.369C142.859 210.699 142.791 211.001 142.655 211.277C142.521 211.55 142.322 211.77 142.058 211.938C141.797 212.102 141.476 212.185 141.095 212.185C140.709 212.185 140.384 212.102 140.119 211.938C139.858 211.77 139.659 211.55 139.523 211.277C139.386 211.001 139.318 210.699 139.318 210.369ZM140.315 209.909V210.369C140.315 210.614 140.372 210.835 140.486 211.034C140.602 211.233 140.805 211.332 141.095 211.332C141.379 211.332 141.578 211.233 141.692 211.034C141.808 210.835 141.866 210.614 141.866 210.369V209.909C141.866 209.665 141.811 209.443 141.7 209.244C141.589 209.045 141.388 208.946 141.095 208.946C140.811 208.946 140.609 209.045 140.49 209.244C140.374 209.443 140.315 209.665 140.315 209.909ZM139.723 217L145.723 208.273H146.741L140.741 217H139.723Z" fill="#24FF54"/>
<path d="M39.0341 191V189.477L43.0739 185.517C43.4602 185.127 43.7822 184.78 44.0398 184.477C44.2973 184.174 44.4905 183.881 44.6193 183.597C44.7481 183.312 44.8125 183.009 44.8125 182.688C44.8125 182.32 44.7292 182.006 44.5625 181.744C44.3958 181.479 44.1667 181.275 43.875 181.131C43.5833 180.987 43.2519 180.915 42.8807 180.915C42.4981 180.915 42.1629 180.994 41.875 181.153C41.5871 181.309 41.3636 181.53 41.2045 181.818C41.0492 182.106 40.9716 182.449 40.9716 182.847H38.9659C38.9659 182.108 39.1345 181.466 39.4716 180.92C39.8087 180.375 40.2727 179.953 40.8636 179.653C41.4583 179.354 42.1402 179.205 42.9091 179.205C43.6894 179.205 44.375 179.35 44.9659 179.642C45.5568 179.934 46.0152 180.333 46.3409 180.841C46.6705 181.348 46.8352 181.928 46.8352 182.58C46.8352 183.015 46.7519 183.443 46.5852 183.864C46.4186 184.284 46.125 184.75 45.7045 185.261C45.2879 185.773 44.7027 186.392 43.9489 187.119L41.9432 189.159V189.239H47.0114V191H39.0341ZM53.2727 191.222C52.3371 191.222 51.5341 190.985 50.8636 190.511C50.197 190.034 49.6837 189.347 49.3239 188.449C48.9678 187.547 48.7898 186.462 48.7898 185.193C48.7936 183.924 48.9735 182.845 49.3295 181.955C49.6894 181.061 50.2027 180.379 50.8693 179.909C51.5398 179.439 52.3409 179.205 53.2727 179.205C54.2045 179.205 55.0057 179.439 55.6761 179.909C56.3466 180.379 56.8598 181.061 57.2159 181.955C57.5758 182.848 57.7557 183.928 57.7557 185.193C57.7557 186.466 57.5758 187.553 57.2159 188.455C56.8598 189.352 56.3466 190.038 55.6761 190.511C55.0095 190.985 54.2083 191.222 53.2727 191.222ZM53.2727 189.443C54 189.443 54.5739 189.085 54.9943 188.369C55.4186 187.65 55.6307 186.591 55.6307 185.193C55.6307 184.269 55.5341 183.492 55.3409 182.864C55.1477 182.235 54.875 181.761 54.5227 181.443C54.1705 181.121 53.7538 180.96 53.2727 180.96C52.5492 180.96 51.9773 181.32 51.5568 182.04C51.1364 182.756 50.9242 183.807 50.9205 185.193C50.9167 186.121 51.0095 186.902 51.1989 187.534C51.392 188.167 51.6648 188.644 52.017 188.966C52.3693 189.284 52.7879 189.443 53.2727 189.443ZM63.9446 191.222C63.009 191.222 62.206 190.985 61.5355 190.511C60.8688 190.034 60.3556 189.347 59.9957 188.449C59.6397 187.547 59.4616 186.462 59.4616 185.193C59.4654 183.924 59.6454 182.845 60.0014 181.955C60.3613 181.061 60.8745 180.379 61.5412 179.909C62.2116 179.439 63.0128 179.205 63.9446 179.205C64.8764 179.205 65.6776 179.439 66.348 179.909C67.0185 180.379 67.5317 181.061 67.8878 181.955C68.2476 182.848 68.4276 183.928 68.4276 185.193C68.4276 186.466 68.2476 187.553 67.8878 188.455C67.5317 189.352 67.0185 190.038 66.348 190.511C65.6813 190.985 64.8802 191.222 63.9446 191.222ZM63.9446 189.443C64.6719 189.443 65.2457 189.085 65.6662 188.369C66.0904 187.65 66.3026 186.591 66.3026 185.193C66.3026 184.269 66.206 183.492 66.0128 182.864C65.8196 182.235 65.5469 181.761 65.1946 181.443C64.8423 181.121 64.4257 180.96 63.9446 180.96C63.2211 180.96 62.6491 181.32 62.2287 182.04C61.8082 182.756 61.5961 183.807 61.5923 185.193C61.5885 186.121 61.6813 186.902 61.8707 187.534C62.0639 188.167 62.3366 188.644 62.6889 188.966C63.0412 189.284 63.4598 189.443 63.9446 189.443ZM74.3608 191.159C73.6032 191.159 72.9252 191.017 72.3267 190.733C71.7282 190.445 71.2528 190.051 70.9006 189.551C70.5521 189.051 70.3665 188.479 70.3438 187.835H72.3892C72.4271 188.312 72.6335 188.703 73.0085 189.006C73.3835 189.305 73.8343 189.455 74.3608 189.455C74.7737 189.455 75.1411 189.36 75.4631 189.17C75.785 188.981 76.0388 188.718 76.2244 188.381C76.41 188.044 76.5009 187.659 76.4972 187.227C76.5009 186.788 76.4081 186.398 76.2188 186.057C76.0294 185.716 75.7699 185.449 75.4403 185.256C75.1108 185.059 74.732 184.96 74.304 184.96C73.9555 184.956 73.6127 185.021 73.2756 185.153C72.9384 185.286 72.6714 185.46 72.4744 185.676L70.571 185.364L71.179 179.364H77.929V181.125H72.9233L72.5881 184.21H72.6562C72.8722 183.956 73.1771 183.746 73.571 183.58C73.965 183.409 74.3968 183.324 74.8665 183.324C75.571 183.324 76.1998 183.491 76.7528 183.824C77.3059 184.153 77.7415 184.608 78.0597 185.188C78.3778 185.767 78.5369 186.43 78.5369 187.176C78.5369 187.945 78.3589 188.631 78.0028 189.233C77.6506 189.831 77.16 190.303 76.5312 190.648C75.9062 190.989 75.1828 191.159 74.3608 191.159Z" fill="white"/>
<path opacity="0.7" d="M111.801 190.119C111.443 190.114 111.085 190.045 110.727 189.915C110.369 189.784 110.043 189.564 109.747 189.254C109.452 188.942 109.214 188.52 109.036 187.989C108.857 187.455 108.767 186.784 108.767 185.977C108.767 185.205 108.839 184.52 108.984 183.923C109.129 183.324 109.339 182.82 109.615 182.411C109.891 181.999 110.223 181.686 110.612 181.473C111.004 181.26 111.446 181.153 111.938 181.153C112.426 181.153 112.861 181.251 113.241 181.447C113.625 181.641 113.938 181.911 114.179 182.257C114.42 182.604 114.577 183.003 114.648 183.455H113.608C113.511 183.062 113.324 182.737 113.045 182.479C112.767 182.22 112.398 182.091 111.938 182.091C111.261 182.091 110.729 182.385 110.339 182.973C109.953 183.561 109.759 184.386 109.756 185.449H109.824C109.983 185.207 110.172 185.001 110.391 184.831C110.612 184.658 110.857 184.524 111.124 184.43C111.391 184.337 111.673 184.29 111.972 184.29C112.472 184.29 112.929 184.415 113.344 184.665C113.759 184.912 114.091 185.254 114.341 185.692C114.591 186.126 114.716 186.625 114.716 187.188C114.716 187.727 114.595 188.222 114.354 188.67C114.112 189.116 113.773 189.472 113.335 189.736C112.901 189.997 112.389 190.125 111.801 190.119ZM111.801 189.182C112.159 189.182 112.48 189.092 112.764 188.913C113.051 188.734 113.277 188.494 113.442 188.193C113.609 187.892 113.693 187.557 113.693 187.188C113.693 186.827 113.612 186.499 113.45 186.203C113.291 185.905 113.071 185.668 112.79 185.491C112.511 185.315 112.193 185.227 111.835 185.227C111.565 185.227 111.314 185.281 111.081 185.389C110.848 185.494 110.643 185.639 110.467 185.824C110.294 186.009 110.158 186.22 110.058 186.459C109.959 186.695 109.909 186.943 109.909 187.205C109.909 187.551 109.99 187.875 110.152 188.176C110.317 188.477 110.541 188.72 110.825 188.905C111.112 189.089 111.438 189.182 111.801 189.182ZM117.499 188.807L117.43 189.267C117.382 189.591 117.308 189.938 117.209 190.307C117.112 190.676 117.011 191.024 116.906 191.351C116.801 191.678 116.714 191.938 116.646 192.131H115.879C115.916 191.949 115.964 191.709 116.024 191.411C116.084 191.112 116.143 190.778 116.203 190.409C116.266 190.043 116.317 189.668 116.357 189.284L116.408 188.807H117.499ZM119.14 188.21V187.341L122.975 181.273H123.606V182.619H123.18L120.282 187.205V187.273H125.447V188.21H119.14ZM123.248 190V187.946V187.541V181.273H124.254V190H123.248ZM129.891 190.119C129.249 190.119 128.702 189.945 128.25 189.595C127.798 189.243 127.453 188.733 127.214 188.065C126.976 187.395 126.857 186.585 126.857 185.636C126.857 184.693 126.976 183.888 127.214 183.22C127.456 182.55 127.803 182.038 128.254 181.686C128.709 181.331 129.254 181.153 129.891 181.153C130.527 181.153 131.071 181.331 131.523 181.686C131.977 182.038 132.324 182.55 132.562 183.22C132.804 183.888 132.925 184.693 132.925 185.636C132.925 186.585 132.805 187.395 132.567 188.065C132.328 188.733 131.983 189.243 131.531 189.595C131.08 189.945 130.533 190.119 129.891 190.119ZM129.891 189.182C130.527 189.182 131.021 188.875 131.374 188.261C131.726 187.648 131.902 186.773 131.902 185.636C131.902 184.881 131.821 184.237 131.659 183.706C131.5 183.175 131.27 182.77 130.969 182.491C130.67 182.213 130.311 182.074 129.891 182.074C129.26 182.074 128.767 182.385 128.412 183.007C128.057 183.626 127.879 184.503 127.879 185.636C127.879 186.392 127.959 187.034 128.118 187.562C128.277 188.091 128.506 188.493 128.804 188.768C129.105 189.044 129.467 189.182 129.891 189.182ZM137.391 190.119C136.749 190.119 136.202 189.945 135.75 189.595C135.298 189.243 134.953 188.733 134.714 188.065C134.476 187.395 134.357 186.585 134.357 185.636C134.357 184.693 134.476 183.888 134.714 183.22C134.956 182.55 135.303 182.038 135.754 181.686C136.209 181.331 136.754 181.153 137.391 181.153C138.027 181.153 138.571 181.331 139.023 181.686C139.477 182.038 139.824 182.55 140.062 183.22C140.304 183.888 140.425 184.693 140.425 185.636C140.425 186.585 140.305 187.395 140.067 188.065C139.828 188.733 139.483 189.243 139.031 189.595C138.58 189.945 138.033 190.119 137.391 190.119ZM137.391 189.182C138.027 189.182 138.521 188.875 138.874 188.261C139.226 187.648 139.402 186.773 139.402 185.636C139.402 184.881 139.321 184.237 139.159 183.706C139 183.175 138.77 182.77 138.469 182.491C138.17 182.213 137.811 182.074 137.391 182.074C136.76 182.074 136.267 182.385 135.912 183.007C135.557 183.626 135.379 184.503 135.379 185.636C135.379 186.392 135.459 187.034 135.618 187.562C135.777 188.091 136.006 188.493 136.304 188.768C136.605 189.044 136.967 189.182 137.391 189.182ZM144.618 191.091V180.182H145.317V191.091H144.618ZM146.97 183.455C146.919 183.023 146.712 182.688 146.348 182.449C145.984 182.21 145.538 182.091 145.01 182.091C144.624 182.091 144.286 182.153 143.996 182.278C143.709 182.403 143.484 182.575 143.322 182.794C143.163 183.013 143.084 183.261 143.084 183.54C143.084 183.773 143.139 183.973 143.25 184.141C143.364 184.305 143.509 184.443 143.685 184.554C143.861 184.662 144.045 184.751 144.239 184.822C144.432 184.891 144.609 184.946 144.771 184.989L145.658 185.227C145.885 185.287 146.138 185.369 146.416 185.474C146.697 185.58 146.966 185.723 147.222 185.905C147.48 186.084 147.693 186.314 147.861 186.595C148.028 186.876 148.112 187.222 148.112 187.631C148.112 188.102 147.989 188.528 147.741 188.909C147.497 189.29 147.139 189.592 146.668 189.817C146.199 190.041 145.629 190.153 144.959 190.153C144.334 190.153 143.793 190.053 143.335 189.851C142.881 189.649 142.523 189.368 142.261 189.007C142.003 188.646 141.857 188.227 141.822 187.75H142.913C142.942 188.08 143.053 188.352 143.246 188.568C143.442 188.781 143.689 188.94 143.987 189.045C144.288 189.148 144.612 189.199 144.959 189.199C145.362 189.199 145.724 189.134 146.045 189.003C146.366 188.869 146.621 188.685 146.808 188.449C146.996 188.21 147.089 187.932 147.089 187.614C147.089 187.324 147.009 187.088 146.847 186.906C146.685 186.724 146.472 186.577 146.207 186.463C145.943 186.349 145.658 186.25 145.351 186.165L144.277 185.858C143.595 185.662 143.055 185.382 142.658 185.018C142.26 184.655 142.061 184.179 142.061 183.591C142.061 183.102 142.193 182.676 142.457 182.312C142.724 181.946 143.082 181.662 143.531 181.46C143.983 181.256 144.487 181.153 145.044 181.153C145.607 181.153 146.107 181.254 146.544 181.456C146.982 181.655 147.328 181.928 147.584 182.274C147.842 182.621 147.979 183.014 147.993 183.455H146.97Z" fill="white"/>
<circle cx="94" cy="255" r="6.56" fill="white" stroke="#6C8180" stroke-width="2.88"/>
<line x1="94.5" y1="263" x2="94.5" y2="374" stroke="#2D5551" stroke-dasharray="5 5"/>
<defs>
<linearGradient id="paint0_linear_841_12652" x1="262" y1="117.873" x2="262" y2="374" gradientUnits="userSpaceOnUse">
<stop stop-color="#2D5551"/>
<stop offset="1" stop-color="#2D5551" stop-opacity="0"/>
</linearGradient>
</defs>
</svg>
