<svg width="768" height="374" viewBox="0 0 768 374" fill="none" xmlns="http://www.w3.org/2000/svg">
<path d="M768 374L765.889 33.121C765.879 31.51 765.094 30.0025 763.779 29.0715L726.076 2.37294C724.849 1.50419 723.296 1.23352 721.848 1.6359L689.624 10.5879C688.243 10.9715 687.093 11.9294 686.466 13.2183L672.769 41.3747C671.115 44.7761 666.428 45.1796 664.217 42.1111L656.338 31.1798C653.931 27.8398 648.744 28.6779 647.511 32.6061L631.237 84.4587C630.808 85.8246 629.815 86.9412 628.508 87.5257L618.16 92.1537C616.073 93.0871 613.619 92.4861 612.2 90.6939L597.382 71.9872C595.121 69.1326 590.665 69.5752 589.009 72.8188L580.022 90.4293C578.396 93.6146 574.049 94.1131 571.745 91.3785L566.005 84.5677C563.858 82.0196 559.866 82.2454 558.019 85.0193L548.14 99.8621C545.76 103.437 540.279 102.547 539.153 98.4027L533.694 78.3135C532.349 73.3631 525.311 73.4069 524.028 78.3736L503.561 157.579C502.45 161.876 496.708 162.704 494.429 158.895L477.116 129.964C475.198 126.759 470.57 126.712 468.588 129.879L460.61 142.623C458.344 146.242 452.876 145.539 451.6 141.463L448.274 130.838C447.152 127.252 442.623 126.139 439.967 128.796L435.043 133.72C434.105 134.658 432.833 135.185 431.507 135.185H420.993C420.351 135.185 419.715 135.061 419.12 134.821L388.805 122.572C386.129 121.491 383.097 122.893 382.187 125.631L357.549 199.73L341.181 268.918C340.647 271.174 338.633 272.767 336.315 272.767H299.959C297.705 272.767 295.729 271.258 295.136 269.084L281.959 220.813C280.56 215.687 273.188 215.993 272.219 221.218L264.469 263.015C263.502 268.229 256.15 268.549 254.734 263.439L244.03 224.806C242.847 220.534 237.101 219.801 234.883 223.639L218.803 251.465C217.094 254.422 212.989 254.833 210.727 252.273L190.592 229.484C188.816 227.474 185.771 227.223 183.691 228.915L166.965 242.517C165.224 243.932 162.754 244.015 160.923 242.719L153.618 237.552C151.213 235.85 147.865 236.587 146.396 239.142L124.687 276.902C122.78 280.218 118.008 280.253 116.054 276.964L110.79 268.107C108.493 264.243 102.661 265.136 101.626 269.51L87.2074 330.421C85.9682 335.657 78.4678 335.51 77.4349 330.23L69.8678 291.55C68.8793 286.497 61.8205 286.057 60.2113 290.947L56.5787 301.988C56.4318 302.435 56.2226 302.858 55.9574 303.246L42.7498 322.574C41.2835 324.72 38.1979 324.932 36.4512 323.008V323.008C34.4634 320.818 30.8714 321.451 29.7511 324.188L26.1875 332.894C24.9601 335.892 20.8039 336.127 19.2474 333.285V333.285C17.7489 330.549 13.7898 330.638 12.4147 333.437L0.512124 357.67C0.175195 358.356 0 359.111 0 359.875V374" stroke="#2D5551" stroke-opacity="0.4"/>
<path d="M12.4147 333.439L0.512169 357.671C0.175211 358.357 0 359.111 0 359.876V369C0 371.761 2.23859 374 5.00002 374H762.961C765.738 374 767.983 371.738 767.961 368.961L765.362 32.1242C765.349 30.5106 764.559 29.0022 763.239 28.0736L725.333 1.40274C724.075 0.517389 722.479 0.260642 721.007 0.706649L689.511 10.2465C688.196 10.6446 687.104 11.5657 686.489 12.7937L672.336 41.0678C670.64 44.4562 665.938 44.8001 663.767 41.6946L656.519 31.3279C654.154 27.9449 648.94 28.7227 647.666 32.6486L630.71 84.8693C630.278 86.2021 629.305 87.2922 628.031 87.874L618.751 92.109C616.638 93.073 614.14 92.4558 612.719 90.6188L597.755 71.2663C595.55 68.4144 591.143 68.7627 589.413 71.9255L579.37 90.2862C577.666 93.4021 573.347 93.7975 571.105 91.043L566.207 85.0249C564.097 82.4316 560.084 82.6008 558.2 85.3626L548.165 100.065C545.758 103.593 540.321 102.673 539.208 98.5491L533.687 78.0898C532.349 73.1307 525.299 73.1711 524.018 78.1451L503.555 157.576C502.447 161.875 496.703 162.706 494.423 158.896L477.116 129.977C475.198 126.771 470.57 126.725 468.588 129.891L460.61 142.635C458.344 146.254 452.876 145.55 451.6 141.475L448.274 130.85C447.152 127.265 442.624 126.152 439.967 128.808L435.043 133.733C434.105 134.67 432.833 135.197 431.507 135.197H421.034C420.365 135.197 419.703 135.063 419.087 134.802L388.834 122.011C386.154 120.878 383.076 122.264 382.148 125.022L357.018 199.738L341.16 268.89C340.639 271.161 338.618 272.772 336.287 272.772H299.959C297.705 272.772 295.729 271.264 295.136 269.089L281.959 220.821C280.559 215.694 273.188 216.001 272.219 221.226L264.469 263.021C263.502 268.235 256.151 268.555 254.734 263.444L244.03 224.814C242.847 220.542 237.101 219.809 234.883 223.647L218.803 251.471C217.094 254.428 212.989 254.839 210.727 252.28L190.592 229.491C188.816 227.482 185.771 227.231 183.691 228.923L166.965 242.523C165.224 243.939 162.754 244.021 160.923 242.726L153.618 237.559C151.213 235.857 147.865 236.594 146.396 239.149L124.687 276.907C122.78 280.223 118.008 280.258 116.054 276.97L110.79 268.112C108.493 264.249 102.661 265.141 101.626 269.515L87.2074 330.424C85.9681 335.659 78.4679 335.512 77.4349 330.232L69.8678 291.554C68.8792 286.501 61.8206 286.061 60.2114 290.952L56.5787 301.992C56.4318 302.438 56.2226 302.862 55.9574 303.25L42.7498 322.577C41.2835 324.722 38.1979 324.935 36.4512 323.011C34.4633 320.821 30.8714 321.454 29.751 324.191L26.1875 332.896C24.9601 335.894 20.8039 336.129 19.2474 333.287C17.7488 330.552 13.7898 330.64 12.4147 333.439Z" fill="url(#paint0_linear_841_12796)" fill-opacity="0.2"/>
<path d="M241.5 209L251 200L232 200L241.5 209Z" fill="#0C0C0C"/>
<rect width="143" height="70" transform="matrix(1 0 0 -1 170 200)" fill="#0C0C0C"/>
<path d="M186.58 175.21V174.273H193.125V175.21H190.381V183H189.324V175.21H186.58ZM195.625 179.062V183H194.62V174.273H195.625V177.477H195.711C195.864 177.139 196.094 176.871 196.401 176.672C196.711 176.47 197.123 176.369 197.637 176.369C198.083 176.369 198.473 176.459 198.809 176.638C199.144 176.814 199.404 177.085 199.588 177.452C199.776 177.815 199.87 178.278 199.87 178.841V183H198.864V178.909C198.864 178.389 198.729 177.987 198.459 177.703C198.192 177.416 197.821 177.273 197.347 177.273C197.017 177.273 196.722 177.342 196.461 177.482C196.202 177.621 195.998 177.824 195.847 178.091C195.699 178.358 195.625 178.682 195.625 179.062ZM204.454 183.136C203.823 183.136 203.279 182.997 202.822 182.719C202.367 182.438 202.016 182.045 201.769 181.543C201.525 181.037 201.403 180.449 201.403 179.778C201.403 179.108 201.525 178.517 201.769 178.006C202.016 177.491 202.36 177.091 202.8 176.804C203.244 176.514 203.761 176.369 204.352 176.369C204.692 176.369 205.029 176.426 205.362 176.54C205.694 176.653 205.996 176.838 206.269 177.094C206.542 177.347 206.759 177.682 206.921 178.099C207.083 178.517 207.164 179.031 207.164 179.642V180.068H202.119V179.199H206.141C206.141 178.83 206.067 178.5 205.92 178.21C205.775 177.92 205.567 177.692 205.298 177.524C205.031 177.357 204.715 177.273 204.352 177.273C203.951 177.273 203.604 177.372 203.312 177.571C203.022 177.767 202.799 178.023 202.643 178.338C202.487 178.653 202.408 178.991 202.408 179.352V179.932C202.408 180.426 202.494 180.845 202.664 181.189C202.837 181.53 203.077 181.79 203.384 181.969C203.691 182.145 204.048 182.233 204.454 182.233C204.718 182.233 204.957 182.196 205.17 182.122C205.386 182.045 205.572 181.932 205.728 181.781C205.884 181.628 206.005 181.437 206.09 181.21L207.062 181.483C206.96 181.812 206.788 182.102 206.546 182.352C206.305 182.599 206.006 182.793 205.651 182.932C205.296 183.068 204.897 183.136 204.454 183.136ZM212.069 185.455V176.455H213.04V177.494H213.16C213.234 177.381 213.336 177.236 213.467 177.06C213.6 176.881 213.79 176.722 214.038 176.582C214.288 176.44 214.626 176.369 215.052 176.369C215.603 176.369 216.089 176.507 216.509 176.783C216.93 177.058 217.258 177.449 217.494 177.955C217.729 178.46 217.847 179.057 217.847 179.744C217.847 180.438 217.729 181.038 217.494 181.547C217.258 182.053 216.931 182.445 216.513 182.723C216.096 182.999 215.614 183.136 215.069 183.136C214.648 183.136 214.312 183.067 214.059 182.928C213.806 182.786 213.612 182.625 213.475 182.446C213.339 182.264 213.234 182.114 213.16 181.994H213.075V185.455H212.069ZM213.058 179.727C213.058 180.222 213.13 180.658 213.275 181.036C213.42 181.411 213.631 181.705 213.91 181.918C214.188 182.128 214.529 182.233 214.933 182.233C215.353 182.233 215.704 182.122 215.985 181.901C216.269 181.676 216.482 181.375 216.624 180.997C216.769 180.616 216.842 180.193 216.842 179.727C216.842 179.267 216.771 178.852 216.629 178.483C216.489 178.111 216.278 177.817 215.994 177.601C215.712 177.382 215.359 177.273 214.933 177.273C214.523 177.273 214.18 177.376 213.901 177.584C213.623 177.788 213.413 178.075 213.271 178.445C213.129 178.811 213.058 179.239 213.058 179.727ZM219.381 183V176.455H220.353V177.443H220.421C220.54 177.119 220.756 176.857 221.069 176.655C221.381 176.453 221.734 176.352 222.126 176.352C222.2 176.352 222.292 176.354 222.403 176.357C222.513 176.359 222.597 176.364 222.654 176.369V177.392C222.62 177.384 222.542 177.371 222.42 177.354C222.3 177.334 222.174 177.324 222.04 177.324C221.722 177.324 221.438 177.391 221.188 177.524C220.941 177.655 220.745 177.837 220.6 178.07C220.458 178.3 220.387 178.562 220.387 178.858V183H219.381ZM226.306 183.136C225.715 183.136 225.197 182.996 224.751 182.714C224.308 182.433 223.961 182.04 223.711 181.534C223.464 181.028 223.34 180.437 223.34 179.761C223.34 179.08 223.464 178.484 223.711 177.976C223.961 177.467 224.308 177.072 224.751 176.791C225.197 176.51 225.715 176.369 226.306 176.369C226.897 176.369 227.414 176.51 227.857 176.791C228.303 177.072 228.65 177.467 228.897 177.976C229.147 178.484 229.272 179.08 229.272 179.761C229.272 180.437 229.147 181.028 228.897 181.534C228.65 182.04 228.303 182.433 227.857 182.714C227.414 182.996 226.897 183.136 226.306 183.136ZM226.306 182.233C226.755 182.233 227.124 182.118 227.414 181.888C227.704 181.658 227.918 181.355 228.058 180.98C228.197 180.605 228.266 180.199 228.266 179.761C228.266 179.324 228.197 178.916 228.058 178.538C227.918 178.161 227.704 177.855 227.414 177.622C227.124 177.389 226.755 177.273 226.306 177.273C225.857 177.273 225.488 177.389 225.198 177.622C224.908 177.855 224.694 178.161 224.555 178.538C224.415 178.916 224.346 179.324 224.346 179.761C224.346 180.199 224.415 180.605 224.555 180.98C224.694 181.355 224.908 181.658 225.198 181.888C225.488 182.118 225.857 182.233 226.306 182.233ZM233.722 176.455V177.307H230.194V176.455H233.722ZM231.25 183V175.551C231.25 175.176 231.338 174.864 231.515 174.614C231.691 174.364 231.919 174.176 232.201 174.051C232.482 173.926 232.779 173.864 233.091 173.864C233.338 173.864 233.54 173.884 233.696 173.923C233.853 173.963 233.969 174 234.046 174.034L233.756 174.903C233.705 174.886 233.634 174.865 233.543 174.839C233.455 174.814 233.338 174.801 233.194 174.801C232.861 174.801 232.621 174.885 232.473 175.053C232.328 175.22 232.256 175.466 232.256 175.79V183H231.25ZM235.131 183V176.455H236.137V183H235.131ZM235.643 175.364C235.447 175.364 235.278 175.297 235.136 175.163C234.996 175.03 234.927 174.869 234.927 174.682C234.927 174.494 234.996 174.334 235.136 174.2C235.278 174.067 235.447 174 235.643 174C235.839 174 236.006 174.067 236.146 174.2C236.288 174.334 236.359 174.494 236.359 174.682C236.359 174.869 236.288 175.03 236.146 175.163C236.006 175.297 235.839 175.364 235.643 175.364ZM240.826 176.455V177.307H237.434V176.455H240.826ZM238.422 174.886H239.428V181.125C239.428 181.409 239.469 181.622 239.551 181.764C239.637 181.903 239.745 181.997 239.875 182.045C240.009 182.091 240.15 182.114 240.297 182.114C240.408 182.114 240.499 182.108 240.57 182.097C240.641 182.082 240.698 182.071 240.74 182.062L240.945 182.966C240.877 182.991 240.782 183.017 240.659 183.043C240.537 183.071 240.382 183.085 240.195 183.085C239.911 183.085 239.632 183.024 239.36 182.902C239.09 182.78 238.865 182.594 238.686 182.344C238.51 182.094 238.422 181.778 238.422 181.398V174.886ZM245.713 183V176.455H246.719V183H245.713ZM246.225 175.364C246.029 175.364 245.86 175.297 245.718 175.163C245.578 175.03 245.509 174.869 245.509 174.682C245.509 174.494 245.578 174.334 245.718 174.2C245.86 174.067 246.029 174 246.225 174C246.421 174 246.588 174.067 246.728 174.2C246.87 174.334 246.941 174.494 246.941 174.682C246.941 174.869 246.87 175.03 246.728 175.163C246.588 175.297 246.421 175.364 246.225 175.364ZM253.197 177.92L252.294 178.176C252.237 178.026 252.153 177.879 252.043 177.737C251.935 177.592 251.787 177.473 251.599 177.379C251.412 177.286 251.172 177.239 250.879 177.239C250.479 177.239 250.145 177.331 249.878 177.516C249.614 177.697 249.482 177.929 249.482 178.21C249.482 178.46 249.572 178.658 249.754 178.803C249.936 178.947 250.22 179.068 250.607 179.165L251.578 179.403C252.163 179.545 252.599 179.763 252.886 180.055C253.173 180.345 253.317 180.719 253.317 181.176C253.317 181.551 253.209 181.886 252.993 182.182C252.78 182.477 252.482 182.71 252.098 182.881C251.714 183.051 251.268 183.136 250.76 183.136C250.092 183.136 249.54 182.991 249.102 182.702C248.665 182.412 248.388 181.989 248.271 181.432L249.226 181.193C249.317 181.545 249.489 181.81 249.741 181.986C249.997 182.162 250.331 182.25 250.743 182.25C251.212 182.25 251.584 182.151 251.859 181.952C252.138 181.75 252.277 181.509 252.277 181.227C252.277 181 252.197 180.81 252.038 180.656C251.879 180.5 251.635 180.384 251.305 180.307L250.214 180.051C249.615 179.909 249.175 179.689 248.893 179.391C248.615 179.089 248.476 178.713 248.476 178.261C248.476 177.892 248.58 177.565 248.787 177.281C248.997 176.997 249.283 176.774 249.643 176.612C250.007 176.45 250.419 176.369 250.879 176.369C251.527 176.369 252.036 176.511 252.405 176.795C252.777 177.08 253.041 177.455 253.197 177.92Z" fill="white"/>
<path d="M260.707 181.534V175.773H261.853V181.534H260.707ZM258.402 179.224V178.082H264.163V179.224H258.402ZM269.428 174.273V183H268.107V175.594H268.056L265.968 176.957V175.696L268.145 174.273H269.428ZM274.691 174.153C275.08 174.156 275.463 174.227 275.841 174.366C276.219 174.506 276.56 174.733 276.864 175.048C277.171 175.364 277.415 175.79 277.597 176.327C277.782 176.861 277.875 177.526 277.878 178.321C277.878 179.085 277.801 179.766 277.648 180.362C277.495 180.956 277.275 181.457 276.988 181.866C276.703 182.276 276.358 182.587 275.952 182.8C275.546 183.013 275.088 183.119 274.58 183.119C274.06 183.119 273.598 183.017 273.195 182.812C272.792 182.608 272.463 182.325 272.211 181.964C271.958 181.601 271.8 181.183 271.738 180.712H273.037C273.123 181.087 273.296 181.391 273.557 181.624C273.821 181.854 274.162 181.969 274.58 181.969C275.219 181.969 275.718 181.69 276.076 181.134C276.434 180.574 276.614 179.793 276.617 178.79H276.549C276.401 179.034 276.216 179.244 275.995 179.42C275.776 179.597 275.53 179.733 275.257 179.83C274.985 179.926 274.694 179.974 274.384 179.974C273.881 179.974 273.424 179.851 273.012 179.604C272.6 179.357 272.272 179.017 272.027 178.585C271.783 178.153 271.661 177.661 271.661 177.107C271.661 176.555 271.786 176.055 272.036 175.607C272.289 175.158 272.641 174.803 273.093 174.541C273.547 174.277 274.08 174.148 274.691 174.153ZM274.695 175.261C274.363 175.261 274.063 175.344 273.796 175.509C273.532 175.67 273.323 175.891 273.169 176.169C273.016 176.445 272.939 176.751 272.939 177.089C272.939 177.428 273.013 177.734 273.161 178.01C273.311 178.283 273.516 178.5 273.775 178.662C274.036 178.821 274.334 178.901 274.669 178.901C274.919 178.901 275.152 178.852 275.368 178.756C275.584 178.659 275.773 178.526 275.935 178.355C276.097 178.182 276.223 177.986 276.314 177.767C276.405 177.548 276.451 177.318 276.451 177.077C276.451 176.756 276.374 176.457 276.221 176.182C276.07 175.906 275.863 175.685 275.598 175.517C275.334 175.347 275.033 175.261 274.695 175.261ZM282.456 183.119C281.871 183.119 281.348 183.018 280.888 182.817C280.43 182.615 280.068 182.335 279.801 181.977C279.537 181.616 279.395 181.199 279.375 180.724H280.713C280.73 180.983 280.817 181.207 280.973 181.398C281.132 181.585 281.339 181.73 281.595 181.832C281.851 181.935 282.135 181.986 282.447 181.986C282.791 181.986 283.095 181.926 283.359 181.807C283.626 181.687 283.835 181.521 283.986 181.308C284.136 181.092 284.212 180.844 284.212 180.562C284.212 180.27 284.136 180.013 283.986 179.791C283.838 179.567 283.621 179.391 283.334 179.263C283.05 179.135 282.706 179.071 282.303 179.071H281.565V177.997H282.303C282.626 177.997 282.911 177.939 283.155 177.822C283.402 177.706 283.595 177.544 283.734 177.337C283.874 177.126 283.943 176.881 283.943 176.599C283.943 176.33 283.882 176.095 283.76 175.896C283.641 175.695 283.47 175.537 283.249 175.423C283.03 175.31 282.771 175.253 282.473 175.253C282.189 175.253 281.923 175.305 281.676 175.411C281.432 175.513 281.233 175.661 281.08 175.854C280.926 176.044 280.844 176.273 280.832 176.54H279.558C279.572 176.068 279.712 175.653 279.976 175.295C280.243 174.937 280.595 174.658 281.033 174.456C281.47 174.254 281.956 174.153 282.49 174.153C283.05 174.153 283.533 174.263 283.939 174.482C284.348 174.697 284.663 174.986 284.885 175.347C285.109 175.707 285.22 176.102 285.217 176.531C285.22 177.02 285.084 177.435 284.808 177.776C284.536 178.116 284.172 178.345 283.717 178.462V178.53C284.297 178.618 284.746 178.848 285.064 179.22C285.385 179.592 285.544 180.054 285.541 180.605C285.544 181.085 285.411 181.516 285.141 181.896C284.874 182.277 284.509 182.577 284.045 182.795C283.582 183.011 283.053 183.119 282.456 183.119ZM291.707 181.364V180.903C291.707 180.574 291.776 180.273 291.912 180C292.051 179.724 292.253 179.504 292.517 179.339C292.784 179.172 293.107 179.088 293.484 179.088C293.871 179.088 294.195 179.17 294.456 179.335C294.717 179.5 294.915 179.72 295.048 179.996C295.185 180.271 295.253 180.574 295.253 180.903V181.364C295.253 181.693 295.185 181.996 295.048 182.271C294.912 182.544 294.712 182.764 294.447 182.932C294.186 183.097 293.865 183.179 293.484 183.179C293.101 183.179 292.777 183.097 292.513 182.932C292.249 182.764 292.048 182.544 291.912 182.271C291.776 181.996 291.707 181.693 291.707 181.364ZM292.7 180.903V181.364C292.7 181.608 292.759 181.83 292.875 182.028C292.991 182.227 293.195 182.327 293.484 182.327C293.771 182.327 293.972 182.227 294.085 182.028C294.199 181.83 294.256 181.608 294.256 181.364V180.903C294.256 180.659 294.2 180.437 294.089 180.239C293.982 180.04 293.78 179.94 293.484 179.94C293.2 179.94 292.999 180.04 292.879 180.239C292.76 180.437 292.7 180.659 292.7 180.903ZM287.318 176.369V175.909C287.318 175.58 287.386 175.277 287.523 175.001C287.662 174.726 287.864 174.506 288.128 174.341C288.395 174.176 288.717 174.094 289.095 174.094C289.482 174.094 289.805 174.176 290.067 174.341C290.328 174.506 290.526 174.726 290.659 175.001C290.793 175.277 290.859 175.58 290.859 175.909V176.369C290.859 176.699 290.791 177.001 290.655 177.277C290.521 177.55 290.322 177.77 290.058 177.938C289.797 178.102 289.476 178.185 289.095 178.185C288.709 178.185 288.384 178.102 288.119 177.938C287.858 177.77 287.659 177.55 287.523 177.277C287.386 177.001 287.318 176.699 287.318 176.369ZM288.315 175.909V176.369C288.315 176.614 288.372 176.835 288.486 177.034C288.602 177.233 288.805 177.332 289.095 177.332C289.379 177.332 289.578 177.233 289.692 177.034C289.808 176.835 289.866 176.614 289.866 176.369V175.909C289.866 175.665 289.811 175.443 289.7 175.244C289.589 175.045 289.388 174.946 289.095 174.946C288.811 174.946 288.609 175.045 288.49 175.244C288.374 175.443 288.315 175.665 288.315 175.909ZM287.723 183L293.723 174.273H294.741L288.741 183H287.723Z" fill="#24FF54"/>
<path d="M187.034 157V155.477L191.074 151.517C191.46 151.127 191.782 150.78 192.04 150.477C192.297 150.174 192.491 149.881 192.619 149.597C192.748 149.312 192.812 149.009 192.812 148.688C192.812 148.32 192.729 148.006 192.562 147.744C192.396 147.479 192.167 147.275 191.875 147.131C191.583 146.987 191.252 146.915 190.881 146.915C190.498 146.915 190.163 146.994 189.875 147.153C189.587 147.309 189.364 147.53 189.205 147.818C189.049 148.106 188.972 148.449 188.972 148.847H186.966C186.966 148.108 187.134 147.466 187.472 146.92C187.809 146.375 188.273 145.953 188.864 145.653C189.458 145.354 190.14 145.205 190.909 145.205C191.689 145.205 192.375 145.35 192.966 145.642C193.557 145.934 194.015 146.333 194.341 146.841C194.67 147.348 194.835 147.928 194.835 148.58C194.835 149.015 194.752 149.443 194.585 149.864C194.419 150.284 194.125 150.75 193.705 151.261C193.288 151.773 192.703 152.392 191.949 153.119L189.943 155.159V155.239H195.011V157H187.034ZM201.273 157.222C200.337 157.222 199.534 156.985 198.864 156.511C198.197 156.034 197.684 155.347 197.324 154.449C196.968 153.547 196.79 152.462 196.79 151.193C196.794 149.924 196.973 148.845 197.33 147.955C197.689 147.061 198.203 146.379 198.869 145.909C199.54 145.439 200.341 145.205 201.273 145.205C202.205 145.205 203.006 145.439 203.676 145.909C204.347 146.379 204.86 147.061 205.216 147.955C205.576 148.848 205.756 149.928 205.756 151.193C205.756 152.466 205.576 153.553 205.216 154.455C204.86 155.352 204.347 156.038 203.676 156.511C203.009 156.985 202.208 157.222 201.273 157.222ZM201.273 155.443C202 155.443 202.574 155.085 202.994 154.369C203.419 153.65 203.631 152.591 203.631 151.193C203.631 150.269 203.534 149.492 203.341 148.864C203.148 148.235 202.875 147.761 202.523 147.443C202.17 147.121 201.754 146.96 201.273 146.96C200.549 146.96 199.977 147.32 199.557 148.04C199.136 148.756 198.924 149.807 198.92 151.193C198.917 152.121 199.009 152.902 199.199 153.534C199.392 154.167 199.665 154.644 200.017 154.966C200.369 155.284 200.788 155.443 201.273 155.443ZM211.945 157.222C211.009 157.222 210.206 156.985 209.536 156.511C208.869 156.034 208.356 155.347 207.996 154.449C207.64 153.547 207.462 152.462 207.462 151.193C207.465 149.924 207.645 148.845 208.001 147.955C208.361 147.061 208.875 146.379 209.541 145.909C210.212 145.439 211.013 145.205 211.945 145.205C212.876 145.205 213.678 145.439 214.348 145.909C215.018 146.379 215.532 147.061 215.888 147.955C216.248 148.848 216.428 149.928 216.428 151.193C216.428 152.466 216.248 153.553 215.888 154.455C215.532 155.352 215.018 156.038 214.348 156.511C213.681 156.985 212.88 157.222 211.945 157.222ZM211.945 155.443C212.672 155.443 213.246 155.085 213.666 154.369C214.09 153.65 214.303 152.591 214.303 151.193C214.303 150.269 214.206 149.492 214.013 148.864C213.82 148.235 213.547 147.761 213.195 147.443C212.842 147.121 212.426 146.96 211.945 146.96C211.221 146.96 210.649 147.32 210.229 148.04C209.808 148.756 209.596 149.807 209.592 151.193C209.589 152.121 209.681 152.902 209.871 153.534C210.064 154.167 210.337 154.644 210.689 154.966C211.041 155.284 211.46 155.443 211.945 155.443ZM222.361 157.159C221.603 157.159 220.925 157.017 220.327 156.733C219.728 156.445 219.253 156.051 218.901 155.551C218.552 155.051 218.366 154.479 218.344 153.835H220.389C220.427 154.312 220.634 154.703 221.009 155.006C221.384 155.305 221.834 155.455 222.361 155.455C222.774 155.455 223.141 155.36 223.463 155.17C223.785 154.981 224.039 154.718 224.224 154.381C224.41 154.044 224.501 153.659 224.497 153.227C224.501 152.788 224.408 152.398 224.219 152.057C224.029 151.716 223.77 151.449 223.44 151.256C223.111 151.059 222.732 150.96 222.304 150.96C221.955 150.956 221.613 151.021 221.276 151.153C220.938 151.286 220.671 151.46 220.474 151.676L218.571 151.364L219.179 145.364H225.929V147.125H220.923L220.588 150.21H220.656C220.872 149.956 221.177 149.746 221.571 149.58C221.965 149.409 222.397 149.324 222.866 149.324C223.571 149.324 224.2 149.491 224.753 149.824C225.306 150.153 225.741 150.608 226.06 151.188C226.378 151.767 226.537 152.43 226.537 153.176C226.537 153.945 226.359 154.631 226.003 155.233C225.651 155.831 225.16 156.303 224.531 156.648C223.906 156.989 223.183 157.159 222.361 157.159Z" fill="white"/>
<path opacity="0.7" d="M259.801 156.119C259.443 156.114 259.085 156.045 258.727 155.915C258.369 155.784 258.043 155.564 257.747 155.254C257.452 154.942 257.214 154.52 257.036 153.989C256.857 153.455 256.767 152.784 256.767 151.977C256.767 151.205 256.839 150.52 256.984 149.923C257.129 149.324 257.339 148.82 257.615 148.411C257.891 147.999 258.223 147.686 258.612 147.473C259.004 147.26 259.446 147.153 259.938 147.153C260.426 147.153 260.861 147.251 261.241 147.447C261.625 147.641 261.938 147.911 262.179 148.257C262.42 148.604 262.577 149.003 262.648 149.455H261.608C261.511 149.062 261.324 148.737 261.045 148.479C260.767 148.22 260.398 148.091 259.938 148.091C259.261 148.091 258.729 148.385 258.339 148.973C257.953 149.561 257.759 150.386 257.756 151.449H257.824C257.983 151.207 258.172 151.001 258.391 150.831C258.612 150.658 258.857 150.524 259.124 150.43C259.391 150.337 259.673 150.29 259.972 150.29C260.472 150.29 260.929 150.415 261.344 150.665C261.759 150.912 262.091 151.254 262.341 151.692C262.591 152.126 262.716 152.625 262.716 153.188C262.716 153.727 262.595 154.222 262.354 154.67C262.112 155.116 261.773 155.472 261.335 155.736C260.901 155.997 260.389 156.125 259.801 156.119ZM259.801 155.182C260.159 155.182 260.48 155.092 260.764 154.913C261.051 154.734 261.277 154.494 261.442 154.193C261.609 153.892 261.693 153.557 261.693 153.188C261.693 152.827 261.612 152.499 261.45 152.203C261.291 151.905 261.071 151.668 260.79 151.491C260.511 151.315 260.193 151.227 259.835 151.227C259.565 151.227 259.314 151.281 259.081 151.389C258.848 151.494 258.643 151.639 258.467 151.824C258.294 152.009 258.158 152.22 258.058 152.459C257.959 152.695 257.909 152.943 257.909 153.205C257.909 153.551 257.99 153.875 258.152 154.176C258.317 154.477 258.541 154.72 258.825 154.905C259.112 155.089 259.438 155.182 259.801 155.182ZM265.499 154.807L265.43 155.267C265.382 155.591 265.308 155.938 265.209 156.307C265.112 156.676 265.011 157.024 264.906 157.351C264.801 157.678 264.714 157.938 264.646 158.131H263.879C263.916 157.949 263.964 157.709 264.024 157.411C264.084 157.112 264.143 156.778 264.203 156.409C264.266 156.043 264.317 155.668 264.357 155.284L264.408 154.807H265.499ZM267.14 154.21V153.341L270.975 147.273H271.606V148.619H271.18L268.282 153.205V153.273H273.447V154.21H267.14ZM271.248 156V153.946V153.541V147.273H272.254V156H271.248ZM277.891 156.119C277.249 156.119 276.702 155.945 276.25 155.595C275.798 155.243 275.453 154.733 275.214 154.065C274.976 153.395 274.857 152.585 274.857 151.636C274.857 150.693 274.976 149.888 275.214 149.22C275.456 148.55 275.803 148.038 276.254 147.686C276.709 147.331 277.254 147.153 277.891 147.153C278.527 147.153 279.071 147.331 279.523 147.686C279.977 148.038 280.324 148.55 280.562 149.22C280.804 149.888 280.925 150.693 280.925 151.636C280.925 152.585 280.805 153.395 280.567 154.065C280.328 154.733 279.983 155.243 279.531 155.595C279.08 155.945 278.533 156.119 277.891 156.119ZM277.891 155.182C278.527 155.182 279.021 154.875 279.374 154.261C279.726 153.648 279.902 152.773 279.902 151.636C279.902 150.881 279.821 150.237 279.659 149.706C279.5 149.175 279.27 148.77 278.969 148.491C278.67 148.213 278.311 148.074 277.891 148.074C277.26 148.074 276.767 148.385 276.412 149.007C276.057 149.626 275.879 150.503 275.879 151.636C275.879 152.392 275.959 153.034 276.118 153.562C276.277 154.091 276.506 154.493 276.804 154.768C277.105 155.044 277.467 155.182 277.891 155.182ZM285.391 156.119C284.749 156.119 284.202 155.945 283.75 155.595C283.298 155.243 282.953 154.733 282.714 154.065C282.476 153.395 282.357 152.585 282.357 151.636C282.357 150.693 282.476 149.888 282.714 149.22C282.956 148.55 283.303 148.038 283.754 147.686C284.209 147.331 284.754 147.153 285.391 147.153C286.027 147.153 286.571 147.331 287.023 147.686C287.477 148.038 287.824 148.55 288.062 149.22C288.304 149.888 288.425 150.693 288.425 151.636C288.425 152.585 288.305 153.395 288.067 154.065C287.828 154.733 287.483 155.243 287.031 155.595C286.58 155.945 286.033 156.119 285.391 156.119ZM285.391 155.182C286.027 155.182 286.521 154.875 286.874 154.261C287.226 153.648 287.402 152.773 287.402 151.636C287.402 150.881 287.321 150.237 287.159 149.706C287 149.175 286.77 148.77 286.469 148.491C286.17 148.213 285.811 148.074 285.391 148.074C284.76 148.074 284.267 148.385 283.912 149.007C283.557 149.626 283.379 150.503 283.379 151.636C283.379 152.392 283.459 153.034 283.618 153.562C283.777 154.091 284.006 154.493 284.304 154.768C284.605 155.044 284.967 155.182 285.391 155.182ZM292.618 157.091V146.182H293.317V157.091H292.618ZM294.97 149.455C294.919 149.023 294.712 148.688 294.348 148.449C293.984 148.21 293.538 148.091 293.01 148.091C292.624 148.091 292.286 148.153 291.996 148.278C291.709 148.403 291.484 148.575 291.322 148.794C291.163 149.013 291.084 149.261 291.084 149.54C291.084 149.773 291.139 149.973 291.25 150.141C291.364 150.305 291.509 150.443 291.685 150.554C291.861 150.662 292.045 150.751 292.239 150.822C292.432 150.891 292.609 150.946 292.771 150.989L293.658 151.227C293.885 151.287 294.138 151.369 294.416 151.474C294.697 151.58 294.966 151.723 295.222 151.905C295.48 152.084 295.693 152.314 295.861 152.595C296.028 152.876 296.112 153.222 296.112 153.631C296.112 154.102 295.989 154.528 295.741 154.909C295.497 155.29 295.139 155.592 294.668 155.817C294.199 156.041 293.629 156.153 292.959 156.153C292.334 156.153 291.793 156.053 291.335 155.851C290.881 155.649 290.523 155.368 290.261 155.007C290.003 154.646 289.857 154.227 289.822 153.75H290.913C290.942 154.08 291.053 154.352 291.246 154.568C291.442 154.781 291.689 154.94 291.987 155.045C292.288 155.148 292.612 155.199 292.959 155.199C293.362 155.199 293.724 155.134 294.045 155.003C294.366 154.869 294.621 154.685 294.808 154.449C294.996 154.21 295.089 153.932 295.089 153.614C295.089 153.324 295.009 153.088 294.847 152.906C294.685 152.724 294.472 152.577 294.207 152.463C293.943 152.349 293.658 152.25 293.351 152.165L292.277 151.858C291.595 151.662 291.055 151.382 290.658 151.018C290.26 150.655 290.061 150.179 290.061 149.591C290.061 149.102 290.193 148.676 290.457 148.312C290.724 147.946 291.082 147.662 291.531 147.46C291.983 147.256 292.487 147.153 293.044 147.153C293.607 147.153 294.107 147.254 294.544 147.456C294.982 147.655 295.328 147.928 295.584 148.274C295.842 148.621 295.979 149.014 295.993 149.455H294.97Z" fill="white"/>
<circle cx="241" cy="222" r="6.56" fill="white" stroke="#6C8180" stroke-width="2.88"/>
<line x1="241.5" y1="230" x2="241.5" y2="374" stroke="#2D5551" stroke-dasharray="5 5"/>
<defs>
<linearGradient id="paint0_linear_841_12796" x1="384" y1="117.873" x2="384" y2="374" gradientUnits="userSpaceOnUse">
<stop stop-color="#2D5551"/>
<stop offset="1" stop-color="#2D5551" stop-opacity="0"/>
</linearGradient>
</defs>
</svg>
