<svg width="768" height="374" viewBox="0 0 768 374" fill="none" xmlns="http://www.w3.org/2000/svg">
<path d="M768 374L765.889 33.121C765.879 31.51 765.094 30.0025 763.779 29.0715L726.076 2.37294C724.849 1.50419 723.296 1.23352 721.848 1.6359L689.624 10.5879C688.243 10.9715 687.093 11.9294 686.466 13.2183L672.769 41.3747C671.115 44.7761 666.428 45.1796 664.217 42.1111L656.338 31.1798C653.931 27.8398 648.744 28.6779 647.511 32.6061L631.237 84.4587C630.808 85.8246 629.815 86.9412 628.508 87.5257L618.16 92.1537C616.073 93.0871 613.619 92.4861 612.2 90.6939L597.382 71.9872C595.121 69.1326 590.665 69.5752 589.009 72.8188L580.022 90.4293C578.396 93.6146 574.049 94.1131 571.745 91.3785L566.005 84.5677C563.858 82.0196 559.866 82.2454 558.019 85.0193L548.14 99.8621C545.76 103.437 540.279 102.547 539.153 98.4027L533.694 78.3135C532.349 73.3631 525.311 73.4069 524.028 78.3736L503.561 157.579C502.45 161.876 496.708 162.704 494.429 158.895L477.116 129.964C475.198 126.759 470.57 126.712 468.588 129.879L460.61 142.623C458.344 146.242 452.876 145.539 451.6 141.463L448.274 130.838C447.152 127.252 442.623 126.139 439.967 128.796L435.043 133.72C434.105 134.658 432.833 135.185 431.507 135.185H420.993C420.351 135.185 419.715 135.061 419.12 134.821L388.805 122.572C386.129 121.491 383.097 122.893 382.187 125.631L357.549 199.73L341.181 268.918C340.647 271.174 338.633 272.767 336.315 272.767H299.959C297.705 272.767 295.729 271.258 295.136 269.084L281.959 220.813C280.56 215.687 273.188 215.993 272.219 221.218L264.469 263.015C263.502 268.229 256.15 268.549 254.734 263.439L244.03 224.806C242.847 220.534 237.101 219.801 234.883 223.639L218.803 251.465C217.094 254.422 212.989 254.833 210.727 252.273L190.592 229.484C188.816 227.474 185.771 227.223 183.691 228.915L166.965 242.517C165.224 243.932 162.754 244.015 160.923 242.719L153.618 237.552C151.213 235.85 147.865 236.587 146.396 239.142L124.687 276.902C122.78 280.218 118.008 280.253 116.054 276.964L110.79 268.107C108.493 264.243 102.661 265.136 101.626 269.51L87.2074 330.421C85.9682 335.657 78.4678 335.51 77.4349 330.23L69.8678 291.55C68.8793 286.497 61.8205 286.057 60.2113 290.947L56.5787 301.988C56.4318 302.435 56.2226 302.858 55.9574 303.246L42.7498 322.574C41.2835 324.72 38.1979 324.932 36.4512 323.008V323.008C34.4634 320.818 30.8714 321.451 29.7511 324.188L26.1875 332.894C24.9601 335.892 20.8039 336.127 19.2474 333.285V333.285C17.7489 330.549 13.7898 330.638 12.4147 333.437L0.512124 357.67C0.175195 358.356 0 359.111 0 359.875V374" stroke="#2D5551" stroke-opacity="0.4"/>
<path d="M12.4147 333.439L0.512169 357.671C0.175211 358.357 0 359.111 0 359.876V369C0 371.761 2.23859 374 5.00002 374H762.961C765.738 374 767.983 371.738 767.961 368.961L765.362 32.1242C765.349 30.5106 764.559 29.0022 763.239 28.0736L725.333 1.40274C724.075 0.517389 722.479 0.260642 721.007 0.706649L689.511 10.2465C688.196 10.6446 687.104 11.5657 686.489 12.7937L672.336 41.0678C670.64 44.4562 665.938 44.8001 663.767 41.6946L656.519 31.3279C654.154 27.9449 648.94 28.7227 647.666 32.6486L630.71 84.8693C630.278 86.2021 629.305 87.2922 628.031 87.874L618.751 92.109C616.638 93.073 614.14 92.4558 612.719 90.6188L597.755 71.2663C595.55 68.4144 591.143 68.7627 589.413 71.9255L579.37 90.2862C577.666 93.4021 573.347 93.7975 571.105 91.043L566.207 85.0249C564.097 82.4316 560.084 82.6008 558.2 85.3626L548.165 100.065C545.758 103.593 540.321 102.673 539.208 98.5491L533.687 78.0898C532.349 73.1307 525.299 73.1711 524.018 78.1451L503.555 157.576C502.447 161.875 496.703 162.706 494.423 158.896L477.116 129.977C475.198 126.771 470.57 126.725 468.588 129.891L460.61 142.635C458.344 146.254 452.876 145.55 451.6 141.475L448.274 130.85C447.152 127.265 442.624 126.152 439.967 128.808L435.043 133.733C434.105 134.67 432.833 135.197 431.507 135.197H421.034C420.365 135.197 419.703 135.063 419.087 134.802L388.834 122.011C386.154 120.878 383.076 122.264 382.148 125.022L357.018 199.738L341.16 268.89C340.639 271.161 338.618 272.772 336.287 272.772H299.959C297.705 272.772 295.729 271.264 295.136 269.089L281.959 220.821C280.559 215.694 273.188 216.001 272.219 221.226L264.469 263.021C263.502 268.235 256.151 268.555 254.734 263.444L244.03 224.814C242.847 220.542 237.101 219.809 234.883 223.647L218.803 251.471C217.094 254.428 212.989 254.839 210.727 252.28L190.592 229.491C188.816 227.482 185.771 227.231 183.691 228.923L166.965 242.523C165.224 243.939 162.754 244.021 160.923 242.726L153.618 237.559C151.213 235.857 147.865 236.594 146.396 239.149L124.687 276.907C122.78 280.223 118.008 280.258 116.054 276.97L110.79 268.112C108.493 264.249 102.661 265.141 101.626 269.515L87.2074 330.424C85.9681 335.659 78.4679 335.512 77.4349 330.232L69.8678 291.554C68.8792 286.501 61.8206 286.061 60.2114 290.952L56.5787 301.992C56.4318 302.438 56.2226 302.862 55.9574 303.25L42.7498 322.577C41.2835 324.722 38.1979 324.935 36.4512 323.011C34.4633 320.821 30.8714 321.454 29.751 324.191L26.1875 332.896C24.9601 335.894 20.8039 336.129 19.2474 333.287C17.7488 330.552 13.7898 330.64 12.4147 333.439Z" fill="url(#paint0_linear_841_12796)" fill-opacity="0.2"/>
<defs>
<linearGradient id="paint0_linear_841_12796" x1="384" y1="117.873" x2="384" y2="374" gradientUnits="userSpaceOnUse">
<stop stop-color="#2D5551"/>
<stop offset="1" stop-color="#2D5551" stop-opacity="0"/>
</linearGradient>
</defs>
</svg>
