<svg width="768" height="351" viewBox="0 0 768 351" fill="none" xmlns="http://www.w3.org/2000/svg">
<mask id="path-1-inside-1_841_12711" fill="white">
<path d="M0 351H768V0H0V351Z"/>
</mask>
<path d="M0 350H768V352H0V350Z" fill="#2D5551" fill-opacity="0.08" mask="url(#path-1-inside-1_841_12711)"/>
<path d="M195.281 243.707C121.1 230.619 34.1849 336.093 0 347V350.75H1438.29V136.157C1366.5 143.644 1305.51 141.703 1293.98 180.8C1284.57 212.688 1284.15 235.425 1234.15 242.08C1183.89 248.77 1154.67 209.637 1104.25 180.8C1063.91 157.73 995.976 187.75 970.907 197.363C926.466 214.092 825.44 177.591 781.658 148.898C719.143 107.928 636.93 104.181 574.84 148.898C512.749 193.615 451.162 156.953 373.818 180.8C296.475 204.646 288.008 260.067 195.281 243.707Z" fill="url(#paint0_linear_841_12711)" fill-opacity="0.25"/>
<path d="M0 349C34.1849 338.079 121.1 230.765 195.281 243.869C288.008 260.25 296.475 204.759 373.818 180.882C451.162 157.005 512.749 193.714 574.84 148.939C636.93 104.165 719.143 107.917 781.659 148.939C825.44 177.669 926.466 214.217 970.907 197.466C995.976 187.841 1063.91 157.782 1104.25 180.882C1154.67 209.756 1183.89 248.939 1234.15 242.24C1284.15 235.577 1284.57 212.81 1293.98 180.882C1305.51 141.735 1366.5 143.679 1438.29 136.182" stroke="#0075FF"/>
<path d="M1243.21 270.796C1317.96 257.699 1405.55 276.254 1440 287.168V351.001H0V348.001C72.3445 355.493 118.852 170.346 130.478 209.472C139.961 241.383 140.383 264.137 190.766 270.796C241.418 277.492 301.472 256.187 352.286 227.328C392.936 204.241 453.625 217.708 478.888 227.328C523.673 244.07 597.445 255.424 656.699 238.33C730.766 216.964 771.675 223.068 865.12 238.33C958.565 253.592 949.091 263.304 1027.03 287.168C1104.98 311.032 1149.76 287.168 1243.21 270.796Z" fill="url(#paint1_linear_841_12711)" fill-opacity="0.25"/>
<path d="M1440 287.167C1405.55 276.252 1317.96 257.697 1243.21 270.795C1149.76 287.167 1104.98 311.031 1027.03 287.167C949.091 263.303 958.565 253.591 865.12 238.329C771.675 223.067 730.766 216.962 656.699 238.329C597.445 255.422 523.673 244.068 478.888 227.326C453.625 217.707 392.936 204.239 352.286 227.326C301.472 256.185 292.152 275.194 241.5 268.499C191.117 261.839 190.766 240.499 130.478 209.47C94.1864 190.791 72.3445 355.492 0 347.999" stroke="#2CD9FF"/>
<path d="M1243.21 270.798C1317.96 257.701 1405.55 276.256 1440 287.17V351.003H0V348.003C72.3445 355.495 95.0696 189.17 130.478 209.474C175 235.002 205.117 269.843 255.5 276.503C306.152 283.198 301.472 256.189 352.286 227.33C392.936 204.243 453.625 217.711 478.888 227.33C523.673 244.072 597.445 255.426 656.699 238.332C730.766 216.966 771.675 223.071 865.12 238.332C958.565 253.594 949.091 263.306 1027.03 287.17C1104.98 311.034 1149.76 287.17 1243.21 270.798Z" fill="url(#paint2_linear_841_12711)" fill-opacity="0.25"/>
<path d="M1 349.002C35.1849 338.081 121.1 126.017 195.281 139.121C288.008 155.502 364.657 338.879 442 315.002C519.343 291.125 512.749 88.9655 574.84 44.1911C636.93 -0.583362 730.484 224.48 793 265.503C836.782 294.232 903.5 116.002 970.907 92.7176C995.976 83.0928 1063.91 53.0341 1104.25 76.1337C1154.67 105.008 1201.74 303.201 1252 296.503C1302 289.839 1284.57 108.062 1293.98 76.1337C1305.51 36.9865 1366.21 143.498 1438 136.002" stroke="#6C8180"/>
<path d="M195.281 138.958C121.1 125.871 34.1849 338.095 0 349.002H1438.29V134.001C1366.5 141.488 1305.51 36.9544 1293.98 76.0516C1284.57 107.939 1302.5 289.847 1252.5 296.502C1202.24 303.192 1154.67 104.889 1104.25 76.0516C1063.91 52.9815 995.976 83.0017 970.907 92.6143C892.5 122.679 837.782 295.195 794 266.502C731.484 225.532 636.93 -0.567429 574.84 44.1498C512.749 88.867 516.843 293.681 439.5 317.528C362.157 341.374 288.008 155.318 195.281 138.958Z" fill="url(#paint3_linear_841_12711)" fill-opacity="0.25"/>
<line x1="201.5" y1="149.002" x2="200.5" y2="350.002" stroke="#2D5551" stroke-dasharray="5 5"/>
<circle cx="201" cy="245" r="6.56" fill="white" stroke="#0075FF" stroke-width="2.88"/>
<circle cx="201" cy="141" r="6.56" fill="white" stroke="#6C8180" stroke-width="2.88"/>
<circle cx="201" cy="256" r="6.56" fill="white" stroke="#2CD9FF" stroke-width="2.88"/>
<rect width="44" height="22" transform="translate(77 266)" fill="#0175FF"/>
<path d="M87.6676 281L85.2472 272.273H86.6321L88.3324 279.031H88.4134L90.1818 272.273H91.554L93.3224 279.036H93.4034L95.0994 272.273H96.4886L94.0639 281H92.7386L90.902 274.463H90.8338L88.9972 281H87.6676ZM96.947 281V274.455H98.2212V281H96.947ZM97.5905 273.445C97.3689 273.445 97.1785 273.371 97.0194 273.223C96.8632 273.072 96.7851 272.893 96.7851 272.686C96.7851 272.476 96.8632 272.297 97.0194 272.149C97.1785 271.999 97.3689 271.923 97.5905 271.923C97.8121 271.923 98.001 271.999 98.1572 272.149C98.3163 272.297 98.3959 272.476 98.3959 272.686C98.3959 272.893 98.3163 273.072 98.1572 273.223C98.001 273.371 97.8121 273.445 97.5905 273.445ZM100.569 277.114V281H99.2953V274.455H100.518V275.52H100.599C100.75 275.173 100.986 274.895 101.307 274.685C101.631 274.474 102.038 274.369 102.53 274.369C102.976 274.369 103.366 274.463 103.702 274.651C104.037 274.835 104.297 275.111 104.481 275.477C104.666 275.844 104.758 276.297 104.758 276.837V281H103.484V276.99C103.484 276.516 103.361 276.145 103.113 275.878C102.866 275.608 102.527 275.473 102.095 275.473C101.8 275.473 101.537 275.537 101.307 275.665C101.079 275.793 100.899 275.98 100.765 276.227C100.635 276.472 100.569 276.767 100.569 277.114ZM108.277 281.128C107.749 281.128 107.277 280.993 106.863 280.723C106.451 280.45 106.127 280.062 105.891 279.56C105.658 279.054 105.542 278.447 105.542 277.74C105.542 277.033 105.66 276.428 105.895 275.925C106.134 275.422 106.461 275.037 106.875 274.77C107.29 274.503 107.76 274.369 108.286 274.369C108.692 274.369 109.019 274.438 109.266 274.574C109.516 274.707 109.709 274.864 109.846 275.043C109.985 275.222 110.093 275.379 110.169 275.516H110.246V272.273H111.52V281H110.276V279.982H110.169C110.093 280.121 109.982 280.28 109.837 280.459C109.695 280.638 109.499 280.794 109.249 280.928C108.999 281.061 108.675 281.128 108.277 281.128ZM108.559 280.041C108.925 280.041 109.235 279.945 109.488 279.751C109.743 279.555 109.937 279.284 110.067 278.938C110.201 278.591 110.267 278.187 110.267 277.727C110.267 277.273 110.202 276.875 110.071 276.534C109.941 276.193 109.749 275.928 109.496 275.737C109.243 275.547 108.931 275.452 108.559 275.452C108.175 275.452 107.856 275.551 107.6 275.75C107.344 275.949 107.151 276.22 107.02 276.564C106.892 276.908 106.829 277.295 106.829 277.727C106.829 278.165 106.894 278.558 107.025 278.908C107.155 279.257 107.348 279.534 107.604 279.739C107.863 279.94 108.181 280.041 108.559 280.041Z" fill="white"/>
<rect width="44" height="22" transform="translate(77 237)" fill="#2FD6FA"/>
<path d="M93.3651 246.03C93.2827 245.771 93.1719 245.54 93.0327 245.335C92.8963 245.128 92.733 244.952 92.5426 244.807C92.3523 244.659 92.1349 244.547 91.8906 244.47C91.6491 244.393 91.3835 244.355 91.0938 244.355C90.6023 244.355 90.1591 244.482 89.7642 244.734C89.3693 244.987 89.0568 245.358 88.8267 245.847C88.5994 246.332 88.4858 246.928 88.4858 247.632C88.4858 248.339 88.6009 248.937 88.831 249.426C89.0611 249.915 89.3764 250.286 89.777 250.538C90.1776 250.791 90.6335 250.918 91.1449 250.918C91.6193 250.918 92.0327 250.821 92.3849 250.628C92.7401 250.435 93.0142 250.162 93.2074 249.81C93.4034 249.455 93.5014 249.037 93.5014 248.557L93.8423 248.621H91.3452V247.534H94.7756V248.527C94.7756 249.26 94.6193 249.896 94.3068 250.436C93.9972 250.973 93.5682 251.388 93.0199 251.68C92.4744 251.973 91.8494 252.119 91.1449 252.119C90.3551 252.119 89.6619 251.938 89.0653 251.574C88.4716 251.21 88.0085 250.695 87.6761 250.027C87.3438 249.357 87.1776 248.561 87.1776 247.641C87.1776 246.945 87.2741 246.32 87.4673 245.766C87.6605 245.212 87.9318 244.741 88.2812 244.355C88.6335 243.966 89.0469 243.669 89.5213 243.464C89.9986 243.257 90.5199 243.153 91.0852 243.153C91.5568 243.153 91.9957 243.223 92.402 243.362C92.8111 243.501 93.1747 243.699 93.4929 243.955C93.8139 244.21 94.0795 244.514 94.2898 244.866C94.5 245.216 94.642 245.604 94.7159 246.03H93.3651ZM98.4619 252.132C97.8483 252.132 97.3128 251.991 96.8554 251.71C96.398 251.429 96.0429 251.036 95.79 250.53C95.5372 250.024 95.4108 249.433 95.4108 248.757C95.4108 248.078 95.5372 247.484 95.79 246.976C96.0429 246.467 96.398 246.072 96.8554 245.791C97.3128 245.51 97.8483 245.369 98.4619 245.369C99.0756 245.369 99.6111 245.51 100.068 245.791C100.526 246.072 100.881 246.467 101.134 246.976C101.387 247.484 101.513 248.078 101.513 248.757C101.513 249.433 101.387 250.024 101.134 250.53C100.881 251.036 100.526 251.429 100.068 251.71C99.6111 251.991 99.0756 252.132 98.4619 252.132ZM98.4662 251.062C98.8639 251.062 99.1935 250.957 99.4548 250.747C99.7162 250.537 99.9094 250.257 100.034 249.908C100.162 249.558 100.226 249.173 100.226 248.753C100.226 248.335 100.162 247.952 100.034 247.602C99.9094 247.25 99.7162 246.967 99.4548 246.754C99.1935 246.541 98.8639 246.435 98.4662 246.435C98.0656 246.435 97.7332 246.541 97.469 246.754C97.2077 246.967 97.0131 247.25 96.8852 247.602C96.7602 247.952 96.6977 248.335 96.6977 248.753C96.6977 249.173 96.7602 249.558 96.8852 249.908C97.0131 250.257 97.2077 250.537 97.469 250.747C97.7332 250.957 98.0656 251.062 98.4662 251.062ZM104.2 252.145C103.785 252.145 103.41 252.068 103.075 251.915C102.74 251.759 102.474 251.533 102.278 251.237C102.085 250.942 101.988 250.58 101.988 250.151C101.988 249.781 102.059 249.477 102.202 249.239C102.344 249 102.535 248.811 102.777 248.672C103.018 248.533 103.288 248.428 103.586 248.357C103.885 248.286 104.189 248.232 104.498 248.195C104.89 248.149 105.209 248.112 105.453 248.084C105.697 248.053 105.875 248.003 105.986 247.935C106.096 247.866 106.152 247.756 106.152 247.602V247.572C106.152 247.2 106.047 246.912 105.836 246.707C105.629 246.503 105.319 246.401 104.908 246.401C104.479 246.401 104.14 246.496 103.893 246.686C103.649 246.874 103.48 247.082 103.386 247.312L102.189 247.04C102.331 246.642 102.538 246.321 102.811 246.077C103.086 245.83 103.403 245.651 103.761 245.54C104.119 245.426 104.496 245.369 104.89 245.369C105.152 245.369 105.429 245.401 105.721 245.463C106.017 245.523 106.292 245.634 106.548 245.795C106.807 245.957 107.018 246.189 107.183 246.49C107.348 246.788 107.43 247.176 107.43 247.653V252H106.186V251.105H106.135C106.052 251.27 105.929 251.432 105.764 251.591C105.599 251.75 105.388 251.882 105.129 251.987C104.871 252.092 104.561 252.145 104.2 252.145ZM104.477 251.122C104.829 251.122 105.131 251.053 105.381 250.913C105.633 250.774 105.825 250.592 105.956 250.368C106.089 250.141 106.156 249.898 106.156 249.639V248.795C106.111 248.841 106.023 248.884 105.892 248.923C105.764 248.96 105.618 248.993 105.453 249.021C105.288 249.047 105.128 249.071 104.971 249.094C104.815 249.114 104.684 249.131 104.579 249.145C104.332 249.176 104.106 249.229 103.902 249.303C103.7 249.376 103.538 249.483 103.416 249.622C103.297 249.759 103.237 249.94 103.237 250.168C103.237 250.483 103.354 250.722 103.586 250.884C103.819 251.043 104.116 251.122 104.477 251.122ZM109.761 243.273V252H108.487V243.273H109.761Z" fill="white"/>
<rect width="44" height="22" transform="translate(77 184)" fill="#6C8180"/>
<path d="M91.2188 192.565C91.1733 192.162 90.9858 191.849 90.6562 191.628C90.3267 191.403 89.9119 191.291 89.4119 191.291C89.054 191.291 88.7443 191.348 88.483 191.462C88.2216 191.572 88.0185 191.726 87.8736 191.922C87.7315 192.115 87.6605 192.335 87.6605 192.582C87.6605 192.79 87.7088 192.969 87.8054 193.119C87.9048 193.27 88.0341 193.396 88.1932 193.499C88.3551 193.598 88.5284 193.682 88.7131 193.75C88.8977 193.815 89.0753 193.869 89.2457 193.912L90.098 194.134C90.3764 194.202 90.6619 194.294 90.9545 194.411C91.2472 194.527 91.5185 194.68 91.7685 194.871C92.0185 195.061 92.2202 195.297 92.3736 195.578C92.5298 195.859 92.608 196.196 92.608 196.588C92.608 197.082 92.4801 197.521 92.2244 197.905C91.9716 198.288 91.6037 198.591 91.1207 198.812C90.6406 199.034 90.0597 199.145 89.3778 199.145C88.7244 199.145 88.1591 199.041 87.6818 198.834C87.2045 198.626 86.831 198.332 86.5611 197.952C86.2912 197.568 86.142 197.114 86.1136 196.588H87.4347C87.4602 196.903 87.5625 197.166 87.7415 197.376C87.9233 197.584 88.1548 197.739 88.4361 197.841C88.7202 197.94 89.0312 197.99 89.3693 197.99C89.7415 197.99 90.0724 197.932 90.3622 197.815C90.6548 197.696 90.8849 197.531 91.0526 197.321C91.2202 197.108 91.304 196.859 91.304 196.575C91.304 196.317 91.2301 196.105 91.0824 195.94C90.9375 195.776 90.7401 195.639 90.4901 195.531C90.2429 195.423 89.9631 195.328 89.6506 195.246L88.6193 194.964C87.9205 194.774 87.3665 194.494 86.9574 194.125C86.5511 193.756 86.348 193.267 86.348 192.659C86.348 192.156 86.4844 191.717 86.7571 191.342C87.0298 190.967 87.3991 190.676 87.8651 190.469C88.331 190.259 88.8565 190.153 89.4418 190.153C90.0327 190.153 90.554 190.257 91.0057 190.464C91.4602 190.672 91.8182 190.957 92.0795 191.321C92.3409 191.682 92.4773 192.097 92.4886 192.565H91.2188ZM96.1963 199.132C95.5827 199.132 95.0471 198.991 94.5898 198.71C94.1324 198.429 93.7773 198.036 93.5244 197.53C93.2716 197.024 93.1452 196.433 93.1452 195.757C93.1452 195.078 93.2716 194.484 93.5244 193.976C93.7773 193.467 94.1324 193.072 94.5898 192.791C95.0471 192.51 95.5827 192.369 96.1963 192.369C96.8099 192.369 97.3454 192.51 97.8028 192.791C98.2602 193.072 98.6153 193.467 98.8682 193.976C99.121 194.484 99.2474 195.078 99.2474 195.757C99.2474 196.433 99.121 197.024 98.8682 197.53C98.6153 198.036 98.2602 198.429 97.8028 198.71C97.3454 198.991 96.8099 199.132 96.1963 199.132ZM96.2006 198.062C96.5983 198.062 96.9278 197.957 97.1892 197.747C97.4506 197.537 97.6437 197.257 97.7687 196.908C97.8966 196.558 97.9605 196.173 97.9605 195.753C97.9605 195.335 97.8966 194.952 97.7687 194.602C97.6437 194.25 97.4506 193.967 97.1892 193.754C96.9278 193.541 96.5983 193.435 96.2006 193.435C95.8 193.435 95.4676 193.541 95.2034 193.754C94.942 193.967 94.7474 194.25 94.6196 194.602C94.4946 194.952 94.4321 195.335 94.4321 195.753C94.4321 196.173 94.4946 196.558 94.6196 196.908C94.7474 197.257 94.942 197.537 95.2034 197.747C95.4676 197.957 95.8 198.062 96.2006 198.062ZM101.304 190.273V199H100.03V190.273H101.304ZM104.283 199.145C103.868 199.145 103.493 199.068 103.158 198.915C102.823 198.759 102.557 198.533 102.361 198.237C102.168 197.942 102.071 197.58 102.071 197.151C102.071 196.781 102.142 196.477 102.284 196.239C102.426 196 102.618 195.811 102.859 195.672C103.101 195.533 103.371 195.428 103.669 195.357C103.967 195.286 104.271 195.232 104.581 195.195C104.973 195.149 105.291 195.112 105.536 195.084C105.78 195.053 105.957 195.003 106.068 194.935C106.179 194.866 106.234 194.756 106.234 194.602V194.572C106.234 194.2 106.129 193.912 105.919 193.707C105.712 193.503 105.402 193.401 104.99 193.401C104.561 193.401 104.223 193.496 103.976 193.686C103.732 193.874 103.563 194.082 103.469 194.312L102.271 194.04C102.413 193.642 102.621 193.321 102.894 193.077C103.169 192.83 103.486 192.651 103.844 192.54C104.202 192.426 104.578 192.369 104.973 192.369C105.234 192.369 105.511 192.401 105.804 192.463C106.1 192.523 106.375 192.634 106.631 192.795C106.889 192.957 107.101 193.189 107.266 193.49C107.43 193.788 107.513 194.176 107.513 194.653V199H106.269V198.105H106.217C106.135 198.27 106.011 198.432 105.847 198.591C105.682 198.75 105.47 198.882 105.212 198.987C104.953 199.092 104.644 199.145 104.283 199.145ZM104.56 198.122C104.912 198.122 105.213 198.053 105.463 197.913C105.716 197.774 105.908 197.592 106.038 197.368C106.172 197.141 106.239 196.898 106.239 196.639V195.795C106.193 195.841 106.105 195.884 105.975 195.923C105.847 195.96 105.7 195.993 105.536 196.021C105.371 196.047 105.21 196.071 105.054 196.094C104.898 196.114 104.767 196.131 104.662 196.145C104.415 196.176 104.189 196.229 103.984 196.303C103.783 196.376 103.621 196.483 103.499 196.622C103.379 196.759 103.32 196.94 103.32 197.168C103.32 197.483 103.436 197.722 103.669 197.884C103.902 198.043 104.199 198.122 104.56 198.122ZM108.57 199V192.455H109.802V193.494H109.87C109.989 193.142 110.199 192.865 110.5 192.663C110.804 192.459 111.148 192.357 111.532 192.357C111.611 192.357 111.705 192.359 111.813 192.365C111.924 192.371 112.01 192.378 112.073 192.386V193.605C112.022 193.591 111.931 193.575 111.8 193.558C111.669 193.538 111.539 193.528 111.408 193.528C111.107 193.528 110.838 193.592 110.603 193.72C110.37 193.845 110.185 194.02 110.049 194.244C109.912 194.466 109.844 194.719 109.844 195.003V199H108.57Z" fill="white"/>
<path d="M201.5 130L211 121L192 121L201.5 130Z" fill="#0C0C0C"/>
<rect width="179" height="121" transform="matrix(1 0 0 -1 112 121)" fill="#0C0C0C"/>
<circle cx="132" cy="102" r="4" fill="#6C8180"/>
<path d="M150.538 99.6172C150.491 99.183 150.296 98.8449 149.951 98.603C149.61 98.361 149.165 98.2401 148.619 98.2401C148.234 98.2401 147.904 98.2981 147.629 98.4141C147.354 98.5301 147.144 98.6875 146.998 98.8864C146.852 99.0852 146.777 99.3123 146.774 99.5675C146.774 99.7796 146.822 99.9635 146.918 100.119C147.018 100.275 147.152 100.408 147.321 100.517C147.49 100.623 147.677 100.713 147.883 100.786C148.088 100.858 148.295 100.92 148.504 100.969L149.459 101.208C149.843 101.298 150.213 101.419 150.567 101.571C150.925 101.723 151.245 101.916 151.527 102.148C151.812 102.38 152.037 102.66 152.203 102.988C152.369 103.316 152.452 103.701 152.452 104.141C152.452 104.738 152.299 105.263 151.994 105.717C151.689 106.168 151.249 106.521 150.672 106.776C150.098 107.028 149.404 107.154 148.589 107.154C147.797 107.154 147.109 107.031 146.526 106.786C145.946 106.541 145.491 106.183 145.163 105.712C144.839 105.242 144.663 104.668 144.636 103.992H146.451C146.478 104.347 146.587 104.642 146.779 104.877C146.971 105.112 147.222 105.288 147.53 105.404C147.841 105.52 148.189 105.578 148.574 105.578C148.975 105.578 149.326 105.518 149.628 105.399C149.933 105.277 150.171 105.107 150.344 104.892C150.516 104.673 150.604 104.418 150.607 104.126C150.604 103.861 150.526 103.643 150.374 103.47C150.221 103.295 150.007 103.149 149.732 103.033C149.46 102.913 149.142 102.807 148.778 102.714L147.619 102.416C146.781 102.201 146.118 101.874 145.631 101.437C145.147 100.996 144.905 100.411 144.905 99.6818C144.905 99.0819 145.067 98.5566 145.392 98.1058C145.72 97.6551 146.166 97.3054 146.729 97.0568C147.293 96.8049 147.931 96.679 148.643 96.679C149.366 96.679 149.999 96.8049 150.543 97.0568C151.089 97.3054 151.519 97.6518 151.83 98.0959C152.142 98.5367 152.303 99.0438 152.312 99.6172H150.538ZM157.347 107.149C156.602 107.149 155.955 106.985 155.409 106.657C154.862 106.329 154.437 105.87 154.136 105.28C153.838 104.69 153.688 104 153.688 103.212C153.688 102.423 153.838 101.732 154.136 101.138C154.437 100.545 154.862 100.085 155.409 99.7564C155.955 99.4283 156.602 99.2642 157.347 99.2642C158.093 99.2642 158.74 99.4283 159.286 99.7564C159.833 100.085 160.256 100.545 160.554 101.138C160.856 101.732 161.007 102.423 161.007 103.212C161.007 104 160.856 104.69 160.554 105.28C160.256 105.87 159.833 106.329 159.286 106.657C158.74 106.985 158.093 107.149 157.347 107.149ZM157.357 105.707C157.762 105.707 158.1 105.596 158.372 105.374C158.643 105.149 158.846 104.847 158.978 104.469C159.114 104.092 159.182 103.671 159.182 103.207C159.182 102.739 159.114 102.317 158.978 101.939C158.846 101.558 158.643 101.254 158.372 101.029C158.1 100.804 157.762 100.691 157.357 100.691C156.943 100.691 156.598 100.804 156.323 101.029C156.052 101.254 155.848 101.558 155.712 101.939C155.579 102.317 155.513 102.739 155.513 103.207C155.513 103.671 155.579 104.092 155.712 104.469C155.848 104.847 156.052 105.149 156.323 105.374C156.598 105.596 156.943 105.707 157.357 105.707ZM164.334 96.8182V107H162.534V96.8182H164.334ZM168.382 107.154C167.898 107.154 167.462 107.068 167.074 106.896C166.69 106.72 166.385 106.461 166.16 106.12C165.938 105.779 165.827 105.358 165.827 104.857C165.827 104.426 165.906 104.07 166.065 103.788C166.224 103.507 166.441 103.281 166.716 103.112C166.992 102.943 167.301 102.816 167.646 102.729C167.994 102.64 168.354 102.575 168.725 102.536C169.172 102.489 169.535 102.448 169.814 102.411C170.092 102.371 170.294 102.312 170.42 102.232C170.55 102.149 170.614 102.022 170.614 101.849V101.82C170.614 101.445 170.503 101.155 170.281 100.95C170.059 100.744 169.739 100.641 169.322 100.641C168.881 100.641 168.531 100.737 168.273 100.93C168.017 101.122 167.845 101.349 167.756 101.611L166.075 101.372C166.208 100.908 166.426 100.52 166.731 100.209C167.036 99.8939 167.409 99.6586 167.85 99.5028C168.291 99.3438 168.778 99.2642 169.312 99.2642C169.68 99.2642 170.046 99.3073 170.41 99.3935C170.775 99.4796 171.108 99.6222 171.41 99.821C171.711 100.017 171.953 100.283 172.135 100.621C172.321 100.96 172.414 101.382 172.414 101.889V107H170.684V105.951H170.624C170.515 106.163 170.361 106.362 170.162 106.548C169.966 106.73 169.719 106.877 169.421 106.99C169.126 107.099 168.78 107.154 168.382 107.154ZM168.849 105.832C169.211 105.832 169.524 105.76 169.789 105.618C170.054 105.472 170.258 105.28 170.4 105.041C170.546 104.803 170.619 104.542 170.619 104.261V103.361C170.563 103.407 170.467 103.45 170.331 103.49C170.198 103.53 170.049 103.565 169.883 103.594C169.718 103.624 169.554 103.651 169.391 103.674C169.229 103.697 169.088 103.717 168.969 103.734C168.7 103.77 168.46 103.83 168.248 103.913C168.036 103.996 167.868 104.112 167.746 104.261C167.623 104.406 167.562 104.595 167.562 104.827C167.562 105.159 167.683 105.409 167.925 105.578C168.166 105.747 168.475 105.832 168.849 105.832ZM174.224 107V99.3636H175.969V100.636H176.048C176.187 100.196 176.426 99.8558 176.764 99.6172C177.105 99.3752 177.495 99.2543 177.932 99.2543C178.032 99.2543 178.143 99.2592 178.265 99.2692C178.391 99.2758 178.496 99.2874 178.579 99.304V100.96C178.502 100.933 178.381 100.91 178.216 100.89C178.053 100.867 177.896 100.855 177.743 100.855C177.415 100.855 177.12 100.926 176.858 101.069C176.6 101.208 176.396 101.402 176.247 101.651C176.098 101.899 176.023 102.186 176.023 102.511V107H174.224Z" fill="white"/>
<g opacity="0.1">
<rect x="187" y="96" width="1" height="12" rx="0.5" fill="white"/>
</g>
<path d="M196.776 106V104.858L199.805 101.888C200.095 101.595 200.337 101.335 200.53 101.108C200.723 100.881 200.868 100.661 200.964 100.447C201.061 100.234 201.109 100.007 201.109 99.7656C201.109 99.4901 201.047 99.2543 200.922 99.0582C200.797 98.8594 200.625 98.706 200.406 98.598C200.188 98.4901 199.939 98.4361 199.661 98.4361C199.374 98.4361 199.122 98.4957 198.906 98.6151C198.69 98.7315 198.523 98.8977 198.403 99.1136C198.287 99.3295 198.229 99.5866 198.229 99.8849H196.724C196.724 99.331 196.851 98.8494 197.104 98.4403C197.357 98.0312 197.705 97.7145 198.148 97.4901C198.594 97.2656 199.105 97.1534 199.682 97.1534C200.267 97.1534 200.781 97.2628 201.224 97.4815C201.668 97.7003 202.011 98 202.256 98.3807C202.503 98.7614 202.626 99.196 202.626 99.6847C202.626 100.011 202.564 100.332 202.439 100.648C202.314 100.963 202.094 101.312 201.778 101.696C201.466 102.08 201.027 102.544 200.462 103.089L198.957 104.619V104.679H202.759V106H196.776ZM206.057 104.807L206.001 105.276C205.962 105.634 205.891 105.997 205.788 106.366C205.689 106.739 205.584 107.081 205.473 107.393C205.362 107.706 205.273 107.952 205.205 108.131H204.165C204.205 107.957 204.259 107.722 204.327 107.423C204.398 107.125 204.466 106.79 204.531 106.418C204.597 106.045 204.641 105.668 204.663 105.284L204.693 104.807H206.057ZM210.696 106.119C210.128 106.119 209.62 106.013 209.171 105.8C208.722 105.584 208.365 105.288 208.101 104.913C207.84 104.538 207.701 104.109 207.684 103.626H209.218C209.246 103.984 209.401 104.277 209.682 104.504C209.963 104.729 210.301 104.841 210.696 104.841C211.006 104.841 211.282 104.77 211.523 104.628C211.765 104.486 211.955 104.288 212.094 104.036C212.233 103.783 212.301 103.494 212.299 103.17C212.301 102.841 212.232 102.548 212.09 102.293C211.948 102.037 211.753 101.837 211.506 101.692C211.259 101.544 210.975 101.47 210.654 101.47C210.392 101.467 210.135 101.516 209.882 101.615C209.63 101.714 209.429 101.845 209.282 102.007L207.854 101.773L208.31 97.2727H213.373V98.5938H209.618L209.367 100.908H209.418C209.58 100.717 209.809 100.56 210.104 100.435C210.4 100.307 210.723 100.243 211.076 100.243C211.604 100.243 212.076 100.368 212.49 100.618C212.905 100.865 213.232 101.206 213.471 101.641C213.709 102.075 213.828 102.572 213.828 103.132C213.828 103.709 213.695 104.223 213.428 104.675C213.164 105.124 212.796 105.477 212.324 105.736C211.855 105.991 211.313 106.119 210.696 106.119ZM218.482 106.166C217.78 106.166 217.178 105.989 216.675 105.634C216.175 105.276 215.79 104.76 215.52 104.087C215.253 103.411 215.12 102.597 215.12 101.645C215.123 100.693 215.257 99.8835 215.525 99.2159C215.794 98.5455 216.179 98.0341 216.679 97.6818C217.182 97.3295 217.783 97.1534 218.482 97.1534C219.181 97.1534 219.782 97.3295 220.284 97.6818C220.787 98.0341 221.172 98.5455 221.439 99.2159C221.709 99.8864 221.844 100.696 221.844 101.645C221.844 102.599 221.709 103.415 221.439 104.091C221.172 104.764 220.787 105.278 220.284 105.634C219.784 105.989 219.184 106.166 218.482 106.166ZM218.482 104.832C219.027 104.832 219.458 104.564 219.773 104.027C220.091 103.487 220.25 102.693 220.25 101.645C220.25 100.952 220.178 100.369 220.033 99.8977C219.888 99.4261 219.684 99.071 219.419 98.8324C219.155 98.5909 218.843 98.4702 218.482 98.4702C217.939 98.4702 217.51 98.7401 217.195 99.2798C216.88 99.8168 216.721 100.605 216.718 101.645C216.715 102.341 216.784 102.926 216.926 103.401C217.071 103.875 217.276 104.233 217.54 104.474C217.804 104.713 218.118 104.832 218.482 104.832ZM226.486 106.166C225.784 106.166 225.182 105.989 224.679 105.634C224.179 105.276 223.794 104.76 223.524 104.087C223.257 103.411 223.124 102.597 223.124 101.645C223.126 100.693 223.261 99.8835 223.528 99.2159C223.798 98.5455 224.183 98.0341 224.683 97.6818C225.186 97.3295 225.787 97.1534 226.486 97.1534C227.185 97.1534 227.786 97.3295 228.288 97.6818C228.791 98.0341 229.176 98.5455 229.443 99.2159C229.713 99.8864 229.848 100.696 229.848 101.645C229.848 102.599 229.713 103.415 229.443 104.091C229.176 104.764 228.791 105.278 228.288 105.634C227.788 105.989 227.188 106.166 226.486 106.166ZM226.486 104.832C227.031 104.832 227.462 104.564 227.777 104.027C228.095 103.487 228.254 102.693 228.254 101.645C228.254 100.952 228.182 100.369 228.037 99.8977C227.892 99.4261 227.688 99.071 227.423 98.8324C227.159 98.5909 226.847 98.4702 226.486 98.4702C225.943 98.4702 225.514 98.7401 225.199 99.2798C224.884 99.8168 224.724 100.605 224.722 101.645C224.719 102.341 224.788 102.926 224.93 103.401C225.075 103.875 225.28 104.233 225.544 104.474C225.808 104.713 226.122 104.832 226.486 104.832ZM234.076 107.091V96.1818H234.775V107.091H234.076ZM236.092 99.6719C236.052 99.2997 235.885 99.0099 235.589 98.8026C235.297 98.5952 234.916 98.4915 234.447 98.4915C234.118 98.4915 233.835 98.5412 233.599 98.6406C233.363 98.7401 233.183 98.875 233.058 99.0455C232.933 99.2159 232.869 99.4105 232.866 99.6293C232.866 99.8111 232.907 99.9687 232.99 100.102C233.075 100.236 233.19 100.349 233.335 100.443C233.48 100.534 233.64 100.611 233.816 100.673C233.993 100.736 234.17 100.788 234.349 100.831L235.167 101.036C235.497 101.112 235.814 101.216 236.118 101.347C236.424 101.477 236.699 101.642 236.94 101.841C237.184 102.04 237.377 102.28 237.52 102.561C237.662 102.842 237.733 103.172 237.733 103.55C237.733 104.061 237.602 104.511 237.341 104.901C237.079 105.287 236.701 105.589 236.207 105.808C235.716 106.024 235.12 106.132 234.422 106.132C233.743 106.132 233.153 106.027 232.653 105.817C232.156 105.607 231.767 105.3 231.485 104.896C231.207 104.493 231.056 104.001 231.034 103.422H232.589C232.612 103.726 232.706 103.979 232.87 104.18C233.035 104.382 233.25 104.533 233.514 104.632C233.781 104.732 234.079 104.781 234.409 104.781C234.752 104.781 235.054 104.73 235.312 104.628C235.574 104.523 235.778 104.378 235.926 104.193C236.074 104.006 236.149 103.787 236.152 103.537C236.149 103.31 236.082 103.122 235.951 102.974C235.821 102.824 235.637 102.699 235.402 102.599C235.169 102.497 234.896 102.406 234.583 102.327L233.591 102.071C232.872 101.886 232.304 101.607 231.886 101.232C231.471 100.854 231.264 100.352 231.264 99.7273C231.264 99.2131 231.403 98.7628 231.681 98.3764C231.963 97.9901 232.345 97.6903 232.828 97.4773C233.311 97.2614 233.858 97.1534 234.468 97.1534C235.088 97.1534 235.63 97.2614 236.096 97.4773C236.565 97.6903 236.933 97.9872 237.2 98.3679C237.467 98.7457 237.605 99.1804 237.613 99.6719H236.092Z" fill="white"/>
<path opacity="0.7" d="M247.67 101.168V102.105H243.852V101.168H247.67ZM252.218 106.119C251.633 106.119 251.116 106.016 250.667 105.808C250.221 105.598 249.873 105.31 249.623 104.943C249.373 104.574 249.25 104.153 249.252 103.682C249.25 103.312 249.322 102.972 249.47 102.659C249.618 102.344 249.819 102.081 250.075 101.871C250.333 101.658 250.622 101.523 250.94 101.466V101.415C250.522 101.307 250.19 101.072 249.943 100.712C249.696 100.348 249.574 99.9347 249.576 99.4716C249.574 99.0284 249.686 98.6321 249.913 98.2827C250.14 97.9332 250.453 97.6577 250.85 97.456C251.251 97.2543 251.707 97.1534 252.218 97.1534C252.724 97.1534 253.176 97.2543 253.574 97.456C253.971 97.6577 254.284 97.9332 254.511 98.2827C254.741 98.6321 254.858 99.0284 254.86 99.4716C254.858 99.9347 254.731 100.348 254.481 100.712C254.234 101.072 253.906 101.307 253.497 101.415V101.466C253.812 101.523 254.096 101.658 254.349 101.871C254.602 102.081 254.804 102.344 254.954 102.659C255.105 102.972 255.181 103.312 255.184 103.682C255.181 104.153 255.054 104.574 254.801 104.943C254.551 105.31 254.203 105.598 253.757 105.808C253.314 106.016 252.801 106.119 252.218 106.119ZM252.218 105.182C252.613 105.182 252.954 105.118 253.241 104.99C253.528 104.862 253.75 104.682 253.906 104.449C254.062 104.216 254.142 103.943 254.145 103.631C254.142 103.301 254.056 103.01 253.889 102.757C253.721 102.504 253.493 102.305 253.203 102.161C252.916 102.016 252.588 101.943 252.218 101.943C251.846 101.943 251.514 102.016 251.221 102.161C250.931 102.305 250.703 102.504 250.535 102.757C250.37 103.01 250.289 103.301 250.292 103.631C250.289 103.943 250.365 104.216 250.518 104.449C250.674 104.682 250.897 104.862 251.187 104.99C251.477 105.118 251.821 105.182 252.218 105.182ZM252.218 101.04C252.531 101.04 252.808 100.977 253.049 100.852C253.294 100.727 253.485 100.553 253.625 100.328C253.764 100.104 253.835 99.8409 253.838 99.5398C253.835 99.2443 253.765 98.9872 253.629 98.7685C253.493 98.5469 253.304 98.3764 253.062 98.2571C252.821 98.1349 252.539 98.0739 252.218 98.0739C251.892 98.0739 251.606 98.1349 251.362 98.2571C251.118 98.3764 250.929 98.5469 250.795 98.7685C250.662 98.9872 250.596 99.2443 250.599 99.5398C250.596 99.8409 250.663 100.104 250.799 100.328C250.939 100.553 251.13 100.727 251.375 100.852C251.619 100.977 251.9 101.04 252.218 101.04ZM261.266 104.364V103.903C261.266 103.585 261.332 103.294 261.462 103.03C261.596 102.763 261.789 102.55 262.042 102.391C262.298 102.229 262.607 102.148 262.971 102.148C263.34 102.148 263.65 102.229 263.9 102.391C264.15 102.55 264.339 102.763 264.467 103.03C264.594 103.294 264.658 103.585 264.658 103.903V104.364C264.658 104.682 264.593 104.974 264.462 105.241C264.335 105.506 264.144 105.719 263.891 105.881C263.641 106.04 263.335 106.119 262.971 106.119C262.602 106.119 262.29 106.04 262.038 105.881C261.785 105.719 261.593 105.506 261.462 105.241C261.332 104.974 261.266 104.682 261.266 104.364ZM262.136 103.903V104.364C262.136 104.628 262.198 104.865 262.323 105.075C262.448 105.283 262.664 105.386 262.971 105.386C263.269 105.386 263.479 105.283 263.602 105.075C263.727 104.865 263.789 104.628 263.789 104.364V103.903C263.789 103.639 263.729 103.403 263.61 103.196C263.491 102.986 263.278 102.881 262.971 102.881C262.673 102.881 262.458 102.986 262.327 103.196C262.2 103.403 262.136 103.639 262.136 103.903ZM256.92 99.3693V98.9091C256.92 98.5909 256.985 98.2997 257.116 98.0355C257.249 97.7685 257.442 97.5554 257.695 97.3963C257.951 97.2344 258.261 97.1534 258.624 97.1534C258.994 97.1534 259.303 97.2344 259.553 97.3963C259.803 97.5554 259.992 97.7685 260.12 98.0355C260.248 98.2997 260.312 98.5909 260.312 98.9091V99.3693C260.312 99.6875 260.246 99.9801 260.116 100.247C259.988 100.511 259.798 100.724 259.545 100.886C259.295 101.045 258.988 101.125 258.624 101.125C258.255 101.125 257.944 101.045 257.691 100.886C257.438 100.724 257.246 100.511 257.116 100.247C256.985 99.9801 256.92 99.6875 256.92 99.3693ZM257.789 98.9091V99.3693C257.789 99.6335 257.852 99.8707 257.977 100.081C258.102 100.288 258.317 100.392 258.624 100.392C258.923 100.392 259.133 100.288 259.255 100.081C259.38 99.8707 259.442 99.6335 259.442 99.3693V98.9091C259.442 98.6449 259.383 98.4091 259.263 98.2017C259.144 97.9915 258.931 97.8864 258.624 97.8864C258.326 97.8864 258.112 97.9915 257.981 98.2017C257.853 98.4091 257.789 98.6449 257.789 98.9091ZM257.244 106L263.244 97.2727H264.215L258.215 106H257.244Z" fill="#FF2424"/>
<circle cx="132" cy="76" r="4" fill="#2FD6FA"/>
<path d="M151.825 74.0696C151.742 73.8011 151.628 73.5608 151.482 73.3487C151.34 73.1333 151.167 72.9493 150.965 72.7969C150.766 72.6444 150.538 72.5301 150.279 72.4538C150.021 72.3743 149.739 72.3345 149.434 72.3345C148.887 72.3345 148.4 72.4721 147.972 72.7472C147.545 73.0223 147.208 73.4266 146.963 73.9602C146.721 74.4905 146.6 75.1368 146.6 75.8991C146.6 76.6681 146.721 77.3194 146.963 77.853C147.205 78.3866 147.541 78.7926 147.972 79.071C148.403 79.3461 148.904 79.4837 149.474 79.4837C149.991 79.4837 150.438 79.3842 150.816 79.1854C151.197 78.9865 151.491 78.7048 151.696 78.3402C151.902 77.9723 152.004 77.5414 152.004 77.0476L152.422 77.1122H149.658V75.6705H153.789V76.8935C153.789 77.7652 153.603 78.5192 153.232 79.1555C152.861 79.7919 152.351 80.2824 151.701 80.6271C151.051 80.9685 150.306 81.1392 149.464 81.1392C148.526 81.1392 147.702 80.9287 146.993 80.5078C146.287 80.0836 145.735 79.482 145.337 78.7031C144.943 77.9209 144.746 76.9929 144.746 75.919C144.746 75.0971 144.862 74.3629 145.094 73.7166C145.329 73.0703 145.657 72.5218 146.078 72.071C146.499 71.617 146.993 71.2723 147.56 71.0369C148.126 70.7983 148.743 70.679 149.409 70.679C149.973 70.679 150.498 70.7618 150.985 70.9276C151.472 71.09 151.905 71.322 152.283 71.6236C152.664 71.9252 152.977 72.2831 153.222 72.6974C153.468 73.1117 153.628 73.5691 153.705 74.0696H151.825ZM158.824 81.1491C158.078 81.1491 157.432 80.9851 156.885 80.657C156.338 80.3288 155.914 79.8698 155.612 79.2798C155.314 78.6899 155.165 78.0005 155.165 77.2116C155.165 76.4228 155.314 75.7318 155.612 75.1385C155.914 74.5452 156.338 74.0845 156.885 73.7564C157.432 73.4283 158.078 73.2642 158.824 73.2642C159.57 73.2642 160.216 73.4283 160.763 73.7564C161.31 74.0845 161.732 74.5452 162.031 75.1385C162.332 75.7318 162.483 76.4228 162.483 77.2116C162.483 78.0005 162.332 78.6899 162.031 79.2798C161.732 79.8698 161.31 80.3288 160.763 80.657C160.216 80.9851 159.57 81.1491 158.824 81.1491ZM158.834 79.7074C159.238 79.7074 159.576 79.5964 159.848 79.3743C160.12 79.1489 160.322 78.8473 160.455 78.4695C160.591 78.0916 160.659 77.6707 160.659 77.2067C160.659 76.7393 160.591 76.3168 160.455 75.9389C160.322 75.5578 160.12 75.2545 159.848 75.0291C159.576 74.8037 159.238 74.6911 158.834 74.6911C158.42 74.6911 158.075 74.8037 157.8 75.0291C157.528 75.2545 157.324 75.5578 157.188 75.9389C157.056 76.3168 156.99 76.7393 156.99 77.2067C156.99 77.6707 157.056 78.0916 157.188 78.4695C157.324 78.8473 157.528 79.1489 157.8 79.3743C158.075 79.5964 158.42 79.7074 158.834 79.7074ZM166.208 81.1541C165.724 81.1541 165.288 81.0679 164.901 80.8956C164.516 80.7199 164.211 80.4614 163.986 80.12C163.764 79.7786 163.653 79.3577 163.653 78.8572C163.653 78.4264 163.732 78.0701 163.891 77.7884C164.05 77.5066 164.268 77.2812 164.543 77.1122C164.818 76.9432 165.128 76.8156 165.472 76.7294C165.82 76.6399 166.18 76.5753 166.551 76.5355C166.999 76.4891 167.362 76.4477 167.64 76.4112C167.918 76.3714 168.121 76.3118 168.246 76.2322C168.376 76.1494 168.44 76.0218 168.44 75.8494V75.8196C168.44 75.4451 168.329 75.1551 168.107 74.9496C167.885 74.7441 167.565 74.6413 167.148 74.6413C166.707 74.6413 166.357 74.7375 166.099 74.9297C165.844 75.1219 165.671 75.349 165.582 75.6108L163.901 75.3722C164.034 74.9081 164.253 74.5204 164.558 74.2088C164.862 73.8939 165.235 73.6586 165.676 73.5028C166.117 73.3438 166.604 73.2642 167.138 73.2642C167.506 73.2642 167.872 73.3073 168.237 73.3935C168.601 73.4796 168.934 73.6222 169.236 73.821C169.537 74.0166 169.779 74.2834 169.962 74.6214C170.147 74.9595 170.24 75.3821 170.24 75.8892V81H168.51V79.951H168.45C168.341 80.1631 168.187 80.362 167.988 80.5476C167.792 80.7299 167.545 80.8774 167.247 80.9901C166.952 81.0994 166.606 81.1541 166.208 81.1541ZM166.675 79.8317C167.037 79.8317 167.35 79.7604 167.615 79.6179C167.88 79.4721 168.084 79.2798 168.227 79.0412C168.372 78.8026 168.445 78.5424 168.445 78.2607V77.3608C168.389 77.4072 168.293 77.4503 168.157 77.4901C168.024 77.5298 167.875 77.5646 167.71 77.5945C167.544 77.6243 167.38 77.6508 167.217 77.674C167.055 77.6972 166.914 77.7171 166.795 77.7337C166.526 77.7701 166.286 77.8298 166.074 77.9126C165.862 77.9955 165.694 78.1115 165.572 78.2607C165.449 78.4065 165.388 78.5954 165.388 78.8274C165.388 79.1589 165.509 79.4091 165.751 79.5781C165.993 79.7472 166.301 79.8317 166.675 79.8317ZM173.849 70.8182V81H172.05V70.8182H173.849Z" fill="white"/>
<g opacity="0.1">
<rect x="183" y="70" width="1" height="12" rx="0.5" fill="white"/>
</g>
<path d="M195.81 80.1193C195.241 80.1193 194.733 80.0128 194.284 79.7997C193.835 79.5838 193.479 79.2884 193.214 78.9134C192.953 78.5384 192.814 78.1094 192.797 77.6264H194.331C194.359 77.9844 194.514 78.277 194.795 78.5043C195.077 78.7287 195.415 78.8409 195.81 78.8409C196.119 78.8409 196.395 78.7699 196.636 78.6278C196.878 78.4858 197.068 78.2884 197.207 78.0355C197.347 77.7827 197.415 77.4943 197.412 77.1705C197.415 76.8409 197.345 76.5483 197.203 76.2926C197.061 76.0369 196.866 75.8366 196.619 75.6918C196.372 75.544 196.088 75.4702 195.767 75.4702C195.506 75.4673 195.249 75.5156 194.996 75.6151C194.743 75.7145 194.543 75.8452 194.395 76.0071L192.967 75.7727L193.423 71.2727H198.486V72.5938H194.732L194.48 74.9077H194.531C194.693 74.7173 194.922 74.5597 195.217 74.4347C195.513 74.3068 195.837 74.2429 196.189 74.2429C196.717 74.2429 197.189 74.3679 197.604 74.6179C198.018 74.8651 198.345 75.206 198.584 75.6406C198.822 76.0753 198.942 76.5724 198.942 77.1321C198.942 77.7088 198.808 78.223 198.541 78.6747C198.277 79.1236 197.909 79.4773 197.438 79.7358C196.969 79.9915 196.426 80.1193 195.81 80.1193ZM201.904 78.8068L201.849 79.2756C201.809 79.6335 201.738 79.9972 201.636 80.3665C201.537 80.7386 201.431 81.081 201.321 81.3935C201.21 81.706 201.12 81.9517 201.052 82.1307H200.012C200.052 81.9574 200.106 81.7216 200.174 81.4233C200.245 81.125 200.314 80.7898 200.379 80.4176C200.444 80.0455 200.488 79.6676 200.511 79.2841L200.541 78.8068H201.904ZM203.458 78.3807V77.1236L207.161 71.2727H208.209V73.0625H207.57L205.077 77.0128V77.081H210.246V78.3807H203.458ZM207.621 80V77.9972L207.638 77.4347V71.2727H209.13V80H207.621ZM214.833 80.1662C214.132 80.1662 213.529 79.9886 213.027 79.6335C212.527 79.2756 212.142 78.7599 211.872 78.0866C211.605 77.4105 211.471 76.5966 211.471 75.6449C211.474 74.6932 211.609 73.8835 211.876 73.2159C212.146 72.5455 212.531 72.0341 213.031 71.6818C213.534 71.3295 214.135 71.1534 214.833 71.1534C215.532 71.1534 216.133 71.3295 216.636 71.6818C217.139 72.0341 217.524 72.5455 217.791 73.2159C218.061 73.8864 218.196 74.696 218.196 75.6449C218.196 76.5994 218.061 77.4148 217.791 78.0909C217.524 78.7642 217.139 79.2784 216.636 79.6335C216.136 79.9886 215.535 80.1662 214.833 80.1662ZM214.833 78.8324C215.379 78.8324 215.809 78.5639 216.125 78.027C216.443 77.4872 216.602 76.6932 216.602 75.6449C216.602 74.9517 216.529 74.3693 216.385 73.8977C216.24 73.4261 216.035 73.071 215.771 72.8324C215.507 72.5909 215.194 72.4702 214.833 72.4702C214.291 72.4702 213.862 72.7401 213.547 73.2798C213.231 73.8168 213.072 74.6051 213.069 75.6449C213.066 76.3409 213.136 76.9261 213.278 77.4006C213.423 77.875 213.627 78.233 213.892 78.4744C214.156 78.7131 214.47 78.8324 214.833 78.8324ZM222.837 80.1662C222.136 80.1662 221.533 79.9886 221.031 79.6335C220.531 79.2756 220.146 78.7599 219.876 78.0866C219.609 77.4105 219.475 76.5966 219.475 75.6449C219.478 74.6932 219.613 73.8835 219.88 73.2159C220.15 72.5455 220.535 72.0341 221.035 71.6818C221.538 71.3295 222.138 71.1534 222.837 71.1534C223.536 71.1534 224.137 71.3295 224.64 71.6818C225.143 72.0341 225.528 72.5455 225.795 73.2159C226.065 73.8864 226.2 74.696 226.2 75.6449C226.2 76.5994 226.065 77.4148 225.795 78.0909C225.528 78.7642 225.143 79.2784 224.64 79.6335C224.14 79.9886 223.539 80.1662 222.837 80.1662ZM222.837 78.8324C223.383 78.8324 223.813 78.5639 224.129 78.027C224.447 77.4872 224.606 76.6932 224.606 75.6449C224.606 74.9517 224.533 74.3693 224.388 73.8977C224.244 73.4261 224.039 73.071 223.775 72.8324C223.511 72.5909 223.198 72.4702 222.837 72.4702C222.295 72.4702 221.866 72.7401 221.55 73.2798C221.235 73.8168 221.076 74.6051 221.073 75.6449C221.07 76.3409 221.14 76.9261 221.282 77.4006C221.427 77.875 221.631 78.233 221.896 78.4744C222.16 78.7131 222.474 78.8324 222.837 78.8324ZM230.428 81.0909V70.1818H231.127V81.0909H230.428ZM232.444 73.6719C232.404 73.2997 232.236 73.0099 231.941 72.8026C231.648 72.5952 231.267 72.4915 230.799 72.4915C230.469 72.4915 230.186 72.5412 229.951 72.6406C229.715 72.7401 229.534 72.875 229.409 73.0455C229.284 73.2159 229.221 73.4105 229.218 73.6293C229.218 73.8111 229.259 73.9687 229.341 74.1023C229.426 74.2358 229.542 74.3494 229.686 74.4432C229.831 74.5341 229.992 74.6108 230.168 74.6733C230.344 74.7358 230.522 74.7884 230.701 74.831L231.519 75.0355C231.848 75.1122 232.165 75.2159 232.469 75.3466C232.776 75.4773 233.05 75.642 233.292 75.8409C233.536 76.0398 233.729 76.2798 233.871 76.5611C234.013 76.8423 234.084 77.1719 234.084 77.5497C234.084 78.0611 233.953 78.5114 233.692 78.9006C233.431 79.2869 233.053 79.5895 232.559 79.8082C232.067 80.0241 231.472 80.1321 230.773 80.1321C230.094 80.1321 229.505 80.027 229.005 79.8168C228.507 79.6065 228.118 79.2997 227.837 78.8963C227.559 78.4929 227.408 78.0014 227.385 77.4219H228.941C228.963 77.7259 229.057 77.9787 229.222 78.1804C229.387 78.3821 229.601 78.5327 229.865 78.6321C230.132 78.7315 230.431 78.7812 230.76 78.7812C231.104 78.7812 231.405 78.7301 231.664 78.6278C231.925 78.5227 232.13 78.3778 232.277 78.1932C232.425 78.0057 232.5 77.7869 232.503 77.5369C232.5 77.3097 232.434 77.1222 232.303 76.9744C232.172 76.8239 231.989 76.6989 231.753 76.5994C231.52 76.4972 231.248 76.4062 230.935 76.3267L229.942 76.071C229.223 75.8864 228.655 75.6065 228.238 75.2315C227.823 74.8537 227.615 74.3523 227.615 73.7273C227.615 73.2131 227.755 72.7628 228.033 72.3764C228.314 71.9901 228.696 71.6903 229.179 71.4773C229.662 71.2614 230.209 71.1534 230.82 71.1534C231.439 71.1534 231.982 71.2614 232.448 71.4773C232.917 71.6903 233.284 71.9872 233.551 72.3679C233.819 72.7457 233.956 73.1804 233.965 73.6719H232.444Z" fill="white"/>
<path opacity="0.7" d="M242.477 78.4659V72.8409H243.432V78.4659H242.477ZM240.142 76.1307V75.1761H245.767V76.1307H240.142ZM247.609 78.2102V77.3409L251.444 71.2727H252.075V72.6193H251.649L248.751 77.2045V77.2727H253.916V78.2102H247.609ZM251.717 80V77.946V77.5412V71.2727H252.723V80H251.717ZM259.962 78.3636V77.9034C259.962 77.5852 260.027 77.294 260.158 77.0298C260.291 76.7628 260.484 76.5497 260.737 76.3906C260.993 76.2287 261.303 76.1477 261.666 76.1477C262.036 76.1477 262.345 76.2287 262.595 76.3906C262.845 76.5497 263.034 76.7628 263.162 77.0298C263.29 77.294 263.354 77.5852 263.354 77.9034V78.3636C263.354 78.6818 263.288 78.9744 263.158 79.2415C263.03 79.5057 262.839 79.7187 262.587 79.8807C262.337 80.0398 262.03 80.1193 261.666 80.1193C261.297 80.1193 260.986 80.0398 260.733 79.8807C260.48 79.7187 260.288 79.5057 260.158 79.2415C260.027 78.9744 259.962 78.6818 259.962 78.3636ZM260.831 77.9034V78.3636C260.831 78.6278 260.893 78.8651 261.018 79.0753C261.143 79.2827 261.359 79.3864 261.666 79.3864C261.964 79.3864 262.175 79.2827 262.297 79.0753C262.422 78.8651 262.484 78.6278 262.484 78.3636V77.9034C262.484 77.6392 262.425 77.4034 262.305 77.196C262.186 76.9858 261.973 76.8807 261.666 76.8807C261.368 76.8807 261.153 76.9858 261.023 77.196C260.895 77.4034 260.831 77.6392 260.831 77.9034ZM255.615 73.3693V72.9091C255.615 72.5909 255.68 72.2997 255.811 72.0355C255.945 71.7685 256.138 71.5554 256.391 71.3963C256.646 71.2344 256.956 71.1534 257.32 71.1534C257.689 71.1534 257.999 71.2344 258.249 71.3963C258.499 71.5554 258.688 71.7685 258.815 72.0355C258.943 72.2997 259.007 72.5909 259.007 72.9091V73.3693C259.007 73.6875 258.942 73.9801 258.811 74.2472C258.683 74.5114 258.493 74.7244 258.24 74.8864C257.99 75.0455 257.683 75.125 257.32 75.125C256.95 75.125 256.639 75.0455 256.386 74.8864C256.134 74.7244 255.942 74.5114 255.811 74.2472C255.68 73.9801 255.615 73.6875 255.615 73.3693ZM256.484 72.9091V73.3693C256.484 73.6335 256.547 73.8707 256.672 74.081C256.797 74.2884 257.013 74.392 257.32 74.392C257.618 74.392 257.828 74.2884 257.95 74.081C258.075 73.8707 258.138 73.6335 258.138 73.3693V72.9091C258.138 72.6449 258.078 72.4091 257.959 72.2017C257.839 71.9915 257.626 71.8864 257.32 71.8864C257.021 71.8864 256.807 71.9915 256.676 72.2017C256.548 72.4091 256.484 72.6449 256.484 72.9091ZM255.939 80L261.939 71.2727H262.911L256.911 80H255.939Z" fill="#24FF54"/>
<circle cx="132" cy="50" r="4" fill="#0075FF"/>
<path d="M147.147 55L144.273 44.8182H146.257L148.092 52.3004H148.186L150.145 44.8182H151.95L153.913 52.3054H154.003L155.837 44.8182H157.821L154.947 55H153.128L151.089 47.8558H151.01L148.967 55H147.147ZM159.02 55V47.3636H160.82V55H159.02ZM159.925 46.2798C159.64 46.2798 159.395 46.1854 159.189 45.9964C158.984 45.8042 158.881 45.5739 158.881 45.3054C158.881 45.0336 158.984 44.8033 159.189 44.6143C159.395 44.4221 159.64 44.326 159.925 44.326C160.214 44.326 160.459 44.4221 160.661 44.6143C160.867 44.8033 160.969 45.0336 160.969 45.3054C160.969 45.5739 160.867 45.8042 160.661 45.9964C160.459 46.1854 160.214 46.2798 159.925 46.2798ZM164.471 50.5256V55H162.671V47.3636H164.391V48.6612H164.48C164.656 48.2337 164.936 47.8939 165.321 47.642C165.708 47.3902 166.187 47.2642 166.757 47.2642C167.284 47.2642 167.743 47.3769 168.135 47.6023C168.529 47.8277 168.834 48.1541 169.049 48.5817C169.268 49.0092 169.376 49.5279 169.373 50.1378V55H167.573V50.4162C167.573 49.9058 167.44 49.5064 167.175 49.218C166.913 48.9297 166.55 48.7855 166.086 48.7855C165.771 48.7855 165.491 48.8551 165.246 48.9943C165.004 49.1302 164.814 49.3274 164.674 49.5859C164.538 49.8445 164.471 50.1577 164.471 50.5256ZM174.036 55.1342C173.436 55.1342 172.899 54.9801 172.425 54.6719C171.951 54.3636 171.577 53.9162 171.301 53.3295C171.026 52.7429 170.889 52.0303 170.889 51.1918C170.889 50.3433 171.028 49.6274 171.306 49.044C171.588 48.4574 171.968 48.0149 172.445 47.7166C172.922 47.415 173.454 47.2642 174.041 47.2642C174.488 47.2642 174.856 47.3404 175.145 47.4929C175.433 47.642 175.662 47.8227 175.831 48.0348C176 48.2436 176.131 48.4408 176.223 48.6264H176.298V44.8182H178.103V55H176.333V53.7969H176.223C176.131 53.9825 175.996 54.1797 175.821 54.3885C175.645 54.594 175.413 54.7696 175.125 54.9155C174.836 55.0613 174.473 55.1342 174.036 55.1342ZM174.538 53.6577C174.919 53.6577 175.244 53.5549 175.512 53.3494C175.781 53.1406 175.985 52.8506 176.124 52.4794C176.263 52.1082 176.333 51.6757 176.333 51.1818C176.333 50.688 176.263 50.2588 176.124 49.8942C175.988 49.5296 175.786 49.2462 175.517 49.044C175.252 48.8419 174.926 48.7408 174.538 48.7408C174.137 48.7408 173.802 48.8452 173.534 49.054C173.265 49.2628 173.063 49.5511 172.927 49.919C172.791 50.2869 172.723 50.7079 172.723 51.1818C172.723 51.6591 172.791 52.085 172.927 52.4595C173.066 52.8307 173.27 53.1241 173.539 53.3395C173.81 53.5516 174.144 53.6577 174.538 53.6577Z" fill="white"/>
<g opacity="0.1">
<rect x="188" y="44" width="1" height="12" rx="0.5" fill="white"/>
</g>
<path d="M200.972 54.1193C200.554 54.1165 200.146 54.044 199.749 53.902C199.351 53.7571 198.993 53.5227 198.675 53.1989C198.357 52.8722 198.104 52.4389 197.916 51.8991C197.729 51.3565 197.636 50.6847 197.639 49.8835C197.639 49.1364 197.719 48.4702 197.878 47.8849C198.037 47.2997 198.266 46.8054 198.564 46.402C198.862 45.9957 199.222 45.6861 199.642 45.473C200.065 45.2599 200.538 45.1534 201.061 45.1534C201.609 45.1534 202.095 45.2614 202.518 45.4773C202.945 45.6932 203.288 45.9886 203.55 46.3636C203.811 46.7358 203.973 47.1562 204.036 47.625H202.48C202.401 47.2898 202.237 47.0227 201.99 46.8239C201.746 46.6222 201.436 46.5213 201.061 46.5213C200.456 46.5213 199.99 46.7841 199.663 47.3097C199.339 47.8352 199.176 48.5568 199.173 49.4744H199.233C199.372 49.2244 199.553 49.0099 199.774 48.831C199.996 48.652 200.246 48.5142 200.524 48.4176C200.805 48.3182 201.102 48.2685 201.415 48.2685C201.926 48.2685 202.385 48.3906 202.791 48.6349C203.2 48.8793 203.524 49.2159 203.763 49.6449C204.001 50.071 204.119 50.5597 204.116 51.1108C204.119 51.6847 203.989 52.2003 203.724 52.6577C203.46 53.1122 203.092 53.4702 202.621 53.7315C202.149 53.9929 201.599 54.1222 200.972 54.1193ZM200.963 52.8409C201.273 52.8409 201.55 52.7656 201.794 52.6151C202.038 52.4645 202.232 52.2614 202.374 52.0057C202.516 51.75 202.585 51.4631 202.582 51.1449C202.585 50.8324 202.517 50.5497 202.378 50.2969C202.241 50.044 202.053 49.8437 201.811 49.696C201.57 49.5483 201.294 49.4744 200.984 49.4744C200.754 49.4744 200.54 49.5185 200.341 49.6065C200.142 49.6946 199.969 49.8168 199.821 49.973C199.673 50.1264 199.557 50.3054 199.472 50.5099C199.389 50.7116 199.347 50.9276 199.344 51.1577C199.347 51.4616 199.418 51.7415 199.557 51.9972C199.696 52.2528 199.888 52.4574 200.132 52.6108C200.376 52.7642 200.653 52.8409 200.963 52.8409ZM207.01 52.8068L206.955 53.2756C206.915 53.6335 206.844 53.9972 206.741 54.3665C206.642 54.7386 206.537 55.081 206.426 55.3935C206.315 55.706 206.226 55.9517 206.158 56.1307H205.118C205.158 55.9574 205.212 55.7216 205.28 55.4233C205.351 55.125 205.419 54.7898 205.484 54.4176C205.55 54.0455 205.594 53.6676 205.616 53.2841L205.646 52.8068H207.01ZM208.563 52.3807V51.1236L212.266 45.2727H213.315V47.0625H212.675L210.183 51.0128V51.081H215.352V52.3807H208.563ZM212.727 54V51.9972L212.744 51.4347V45.2727H214.235V54H212.727ZM219.939 54.1662C219.237 54.1662 218.635 53.9886 218.132 53.6335C217.632 53.2756 217.247 52.7599 216.977 52.0866C216.71 51.4105 216.577 50.5966 216.577 49.6449C216.58 48.6932 216.714 47.8835 216.982 47.2159C217.251 46.5455 217.636 46.0341 218.136 45.6818C218.639 45.3295 219.24 45.1534 219.939 45.1534C220.638 45.1534 221.239 45.3295 221.741 45.6818C222.244 46.0341 222.629 46.5455 222.896 47.2159C223.166 47.8864 223.301 48.696 223.301 49.6449C223.301 50.5994 223.166 51.4148 222.896 52.0909C222.629 52.7642 222.244 53.2784 221.741 53.6335C221.241 53.9886 220.641 54.1662 219.939 54.1662ZM219.939 52.8324C220.484 52.8324 220.915 52.5639 221.23 52.027C221.548 51.4872 221.707 50.6932 221.707 49.6449C221.707 48.9517 221.635 48.3693 221.49 47.8977C221.345 47.4261 221.141 47.071 220.876 46.8324C220.612 46.5909 220.3 46.4702 219.939 46.4702C219.396 46.4702 218.967 46.7401 218.652 47.2798C218.337 47.8168 218.178 48.6051 218.175 49.6449C218.172 50.3409 218.241 50.9261 218.384 51.4006C218.528 51.875 218.733 52.233 218.997 52.4744C219.261 52.7131 219.575 52.8324 219.939 52.8324ZM227.943 54.1662C227.241 54.1662 226.639 53.9886 226.136 53.6335C225.636 53.2756 225.251 52.7599 224.981 52.0866C224.714 51.4105 224.581 50.5966 224.581 49.6449C224.583 48.6932 224.718 47.8835 224.985 47.2159C225.255 46.5455 225.64 46.0341 226.14 45.6818C226.643 45.3295 227.244 45.1534 227.943 45.1534C228.642 45.1534 229.243 45.3295 229.745 45.6818C230.248 46.0341 230.633 46.5455 230.9 47.2159C231.17 47.8864 231.305 48.696 231.305 49.6449C231.305 50.5994 231.17 51.4148 230.9 52.0909C230.633 52.7642 230.248 53.2784 229.745 53.6335C229.245 53.9886 228.645 54.1662 227.943 54.1662ZM227.943 52.8324C228.488 52.8324 228.919 52.5639 229.234 52.027C229.552 51.4872 229.711 50.6932 229.711 49.6449C229.711 48.9517 229.639 48.3693 229.494 47.8977C229.349 47.4261 229.145 47.071 228.88 46.8324C228.616 46.5909 228.304 46.4702 227.943 46.4702C227.4 46.4702 226.971 46.7401 226.656 47.2798C226.341 47.8168 226.181 48.6051 226.179 49.6449C226.176 50.3409 226.245 50.9261 226.387 51.4006C226.532 51.875 226.737 52.233 227.001 52.4744C227.265 52.7131 227.579 52.8324 227.943 52.8324ZM235.533 55.0909V44.1818H236.232V55.0909H235.533ZM237.549 47.6719C237.509 47.2997 237.342 47.0099 237.046 46.8026C236.754 46.5952 236.373 46.4915 235.904 46.4915C235.575 46.4915 235.292 46.5412 235.056 46.6406C234.82 46.7401 234.64 46.875 234.515 47.0455C234.39 47.2159 234.326 47.4105 234.323 47.6293C234.323 47.8111 234.364 47.9687 234.447 48.1023C234.532 48.2358 234.647 48.3494 234.792 48.4432C234.937 48.5341 235.097 48.6108 235.273 48.6733C235.45 48.7358 235.627 48.7884 235.806 48.831L236.624 49.0355C236.954 49.1122 237.271 49.2159 237.575 49.3466C237.881 49.4773 238.156 49.642 238.397 49.8409C238.641 50.0398 238.835 50.2798 238.977 50.5611C239.119 50.8423 239.19 51.1719 239.19 51.5497C239.19 52.0611 239.059 52.5114 238.798 52.9006C238.536 53.2869 238.158 53.5895 237.664 53.8082C237.173 54.0241 236.577 54.1321 235.879 54.1321C235.2 54.1321 234.61 54.027 234.11 53.8168C233.613 53.6065 233.224 53.2997 232.942 52.8963C232.664 52.4929 232.513 52.0014 232.491 51.4219H234.046C234.069 51.7259 234.163 51.9787 234.327 52.1804C234.492 52.3821 234.707 52.5327 234.971 52.6321C235.238 52.7315 235.536 52.7812 235.866 52.7812C236.21 52.7812 236.511 52.7301 236.769 52.6278C237.031 52.5227 237.235 52.3778 237.383 52.1932C237.531 52.0057 237.606 51.7869 237.609 51.5369C237.606 51.3097 237.539 51.1222 237.408 50.9744C237.278 50.8239 237.094 50.6989 236.859 50.5994C236.626 50.4972 236.353 50.4062 236.04 50.3267L235.048 50.071C234.329 49.8864 233.761 49.6065 233.343 49.2315C232.928 48.8537 232.721 48.3523 232.721 47.7273C232.721 47.2131 232.86 46.7628 233.138 46.3764C233.42 45.9901 233.802 45.6903 234.285 45.4773C234.768 45.2614 235.315 45.1534 235.925 45.1534C236.545 45.1534 237.087 45.2614 237.553 45.4773C238.022 45.6903 238.39 45.9872 238.657 46.3679C238.924 46.7457 239.062 47.1804 239.07 47.6719H237.549Z" fill="white"/>
<path opacity="0.7" d="M247.477 52.4659V46.8409H248.432V52.4659H247.477ZM245.142 50.1307V49.1761H250.767V50.1307H245.142ZM255.882 45.2727V54H254.825V46.3807H254.774L252.643 47.7955V46.7216L254.825 45.2727H255.882ZM258.392 54V53.233L261.272 50.0795C261.61 49.7102 261.889 49.3892 262.108 49.1165C262.326 48.8409 262.488 48.5824 262.593 48.3409C262.701 48.0966 262.755 47.8409 262.755 47.5739C262.755 47.267 262.681 47.0014 262.534 46.777C262.389 46.5526 262.19 46.3793 261.937 46.2571C261.684 46.1349 261.4 46.0739 261.085 46.0739C260.75 46.0739 260.457 46.1435 260.207 46.2827C259.96 46.419 259.768 46.6108 259.632 46.858C259.498 47.1051 259.431 47.3949 259.431 47.7273H258.426C258.426 47.2159 258.544 46.767 258.779 46.3807C259.015 45.9943 259.336 45.6932 259.743 45.4773C260.152 45.2614 260.61 45.1534 261.119 45.1534C261.63 45.1534 262.083 45.2614 262.478 45.4773C262.873 45.6932 263.183 45.9844 263.407 46.3509C263.632 46.7173 263.744 47.125 263.744 47.5739C263.744 47.8949 263.686 48.2088 263.569 48.5156C263.456 48.8196 263.257 49.1591 262.973 49.5341C262.691 49.9062 262.301 50.3608 261.801 50.8977L259.841 52.9943V53.0625H263.897V54H258.392ZM270.106 52.3636V51.9034C270.106 51.5852 270.172 51.294 270.302 51.0298C270.436 50.7628 270.629 50.5497 270.882 50.3906C271.137 50.2287 271.447 50.1477 271.811 50.1477C272.18 50.1477 272.49 50.2287 272.74 50.3906C272.99 50.5497 273.179 50.7628 273.306 51.0298C273.434 51.294 273.498 51.5852 273.498 51.9034V52.3636C273.498 52.6818 273.433 52.9744 273.302 53.2415C273.174 53.5057 272.984 53.7187 272.731 53.8807C272.481 54.0398 272.174 54.1193 271.811 54.1193C271.441 54.1193 271.13 54.0398 270.877 53.8807C270.625 53.7187 270.433 53.5057 270.302 53.2415C270.172 52.9744 270.106 52.6818 270.106 52.3636ZM270.975 51.9034V52.3636C270.975 52.6278 271.038 52.8651 271.163 53.0753C271.288 53.2827 271.504 53.3864 271.811 53.3864C272.109 53.3864 272.319 53.2827 272.441 53.0753C272.566 52.8651 272.629 52.6278 272.629 52.3636V51.9034C272.629 51.6392 272.569 51.4034 272.45 51.196C272.331 50.9858 272.118 50.8807 271.811 50.8807C271.512 50.8807 271.298 50.9858 271.167 51.196C271.039 51.4034 270.975 51.6392 270.975 51.9034ZM265.76 47.3693V46.9091C265.76 46.5909 265.825 46.2997 265.956 46.0355C266.089 45.7685 266.282 45.5554 266.535 45.3963C266.791 45.2344 267.1 45.1534 267.464 45.1534C267.833 45.1534 268.143 45.2344 268.393 45.3963C268.643 45.5554 268.832 45.7685 268.96 46.0355C269.088 46.2997 269.152 46.5909 269.152 46.9091V47.3693C269.152 47.6875 269.086 47.9801 268.956 48.2472C268.828 48.5114 268.637 48.7244 268.385 48.8864C268.135 49.0455 267.828 49.125 267.464 49.125C267.095 49.125 266.784 49.0455 266.531 48.8864C266.278 48.7244 266.086 48.5114 265.956 48.2472C265.825 47.9801 265.76 47.6875 265.76 47.3693ZM266.629 46.9091V47.3693C266.629 47.6335 266.691 47.8707 266.816 48.081C266.941 48.2884 267.157 48.392 267.464 48.392C267.762 48.392 267.973 48.2884 268.095 48.081C268.22 47.8707 268.282 47.6335 268.282 47.3693V46.9091C268.282 46.6449 268.223 46.4091 268.103 46.2017C267.984 45.9915 267.771 45.8864 267.464 45.8864C267.166 45.8864 266.951 45.9915 266.821 46.2017C266.693 46.4091 266.629 46.6449 266.629 46.9091ZM266.083 54L272.083 45.2727H273.055L267.055 54H266.083Z" fill="#24FF54"/>
<path d="M129.034 27V25.4773L133.074 21.517C133.46 21.1269 133.782 20.7803 134.04 20.4773C134.297 20.1742 134.491 19.8807 134.619 19.5966C134.748 19.3125 134.812 19.0095 134.812 18.6875C134.812 18.3201 134.729 18.0057 134.562 17.7443C134.396 17.4792 134.167 17.2746 133.875 17.1307C133.583 16.9867 133.252 16.9148 132.881 16.9148C132.498 16.9148 132.163 16.9943 131.875 17.1534C131.587 17.3087 131.364 17.5303 131.205 17.8182C131.049 18.1061 130.972 18.4489 130.972 18.8466H128.966C128.966 18.108 129.134 17.4659 129.472 16.9205C129.809 16.375 130.273 15.9527 130.864 15.6534C131.458 15.3542 132.14 15.2045 132.909 15.2045C133.689 15.2045 134.375 15.3504 134.966 15.642C135.557 15.9337 136.015 16.3333 136.341 16.8409C136.67 17.3485 136.835 17.928 136.835 18.5795C136.835 19.0152 136.752 19.4432 136.585 19.8636C136.419 20.2841 136.125 20.75 135.705 21.2614C135.288 21.7727 134.703 22.392 133.949 23.1193L131.943 25.1591V25.2386H137.011V27H129.034ZM143.273 27.2216C142.337 27.2216 141.534 26.9848 140.864 26.5114C140.197 26.0341 139.684 25.3466 139.324 24.4489C138.968 23.5473 138.79 22.4621 138.79 21.1932C138.794 19.9242 138.973 18.8447 139.33 17.9545C139.689 17.0606 140.203 16.3788 140.869 15.9091C141.54 15.4394 142.341 15.2045 143.273 15.2045C144.205 15.2045 145.006 15.4394 145.676 15.9091C146.347 16.3788 146.86 17.0606 147.216 17.9545C147.576 18.8485 147.756 19.928 147.756 21.1932C147.756 22.4659 147.576 23.553 147.216 24.4545C146.86 25.3523 146.347 26.0379 145.676 26.5114C145.009 26.9848 144.208 27.2216 143.273 27.2216ZM143.273 25.4432C144 25.4432 144.574 25.0852 144.994 24.3693C145.419 23.6496 145.631 22.5909 145.631 21.1932C145.631 20.2689 145.534 19.4924 145.341 18.8636C145.148 18.2348 144.875 17.7614 144.523 17.4432C144.17 17.1212 143.754 16.9602 143.273 16.9602C142.549 16.9602 141.977 17.3201 141.557 18.0398C141.136 18.7557 140.924 19.8068 140.92 21.1932C140.917 22.1212 141.009 22.9015 141.199 23.5341C141.392 24.1667 141.665 24.6439 142.017 24.9659C142.369 25.2841 142.788 25.4432 143.273 25.4432ZM153.945 27.2216C153.009 27.2216 152.206 26.9848 151.536 26.5114C150.869 26.0341 150.356 25.3466 149.996 24.4489C149.64 23.5473 149.462 22.4621 149.462 21.1932C149.465 19.9242 149.645 18.8447 150.001 17.9545C150.361 17.0606 150.875 16.3788 151.541 15.9091C152.212 15.4394 153.013 15.2045 153.945 15.2045C154.876 15.2045 155.678 15.4394 156.348 15.9091C157.018 16.3788 157.532 17.0606 157.888 17.9545C158.248 18.8485 158.428 19.928 158.428 21.1932C158.428 22.4659 158.248 23.553 157.888 24.4545C157.532 25.3523 157.018 26.0379 156.348 26.5114C155.681 26.9848 154.88 27.2216 153.945 27.2216ZM153.945 25.4432C154.672 25.4432 155.246 25.0852 155.666 24.3693C156.09 23.6496 156.303 22.5909 156.303 21.1932C156.303 20.2689 156.206 19.4924 156.013 18.8636C155.82 18.2348 155.547 17.7614 155.195 17.4432C154.842 17.1212 154.426 16.9602 153.945 16.9602C153.221 16.9602 152.649 17.3201 152.229 18.0398C151.808 18.7557 151.596 19.8068 151.592 21.1932C151.589 22.1212 151.681 22.9015 151.871 23.5341C152.064 24.1667 152.337 24.6439 152.689 24.9659C153.041 25.2841 153.46 25.4432 153.945 25.4432ZM164.361 27.1591C163.603 27.1591 162.925 27.017 162.327 26.733C161.728 26.4451 161.253 26.0511 160.901 25.5511C160.552 25.0511 160.366 24.4792 160.344 23.8352H162.389C162.427 24.3125 162.634 24.7027 163.009 25.0057C163.384 25.3049 163.834 25.4545 164.361 25.4545C164.774 25.4545 165.141 25.3598 165.463 25.1705C165.785 24.9811 166.039 24.7178 166.224 24.3807C166.41 24.0436 166.501 23.6591 166.497 23.2273C166.501 22.7879 166.408 22.3977 166.219 22.0568C166.029 21.7159 165.77 21.4489 165.44 21.2557C165.111 21.0587 164.732 20.9602 164.304 20.9602C163.955 20.9564 163.613 21.0208 163.276 21.1534C162.938 21.286 162.671 21.4602 162.474 21.6761L160.571 21.3636L161.179 15.3636H167.929V17.125H162.923L162.588 20.2102H162.656C162.872 19.9564 163.177 19.7462 163.571 19.5795C163.965 19.4091 164.397 19.3239 164.866 19.3239C165.571 19.3239 166.2 19.4905 166.753 19.8239C167.306 20.1534 167.741 20.608 168.06 21.1875C168.378 21.767 168.537 22.4299 168.537 23.1761C168.537 23.9451 168.359 24.6307 168.003 25.233C167.651 25.8314 167.16 26.303 166.531 26.6477C165.906 26.9886 165.183 27.1591 164.361 27.1591Z" fill="white"/>
<defs>
<linearGradient id="paint0_linear_841_12711" x1="719.143" y1="350.75" x2="719.143" y2="116.75" gradientUnits="userSpaceOnUse">
<stop stop-color="#0075FF" stop-opacity="0"/>
<stop offset="1" stop-color="#0075FF"/>
</linearGradient>
<linearGradient id="paint1_linear_841_12711" x1="720" y1="101.251" x2="720" y2="351.001" gradientUnits="userSpaceOnUse">
<stop stop-color="#2CD9FF" stop-opacity="0.36"/>
<stop offset="1" stop-color="#2CD9FF" stop-opacity="0"/>
</linearGradient>
<linearGradient id="paint2_linear_841_12711" x1="720" y1="101.253" x2="720" y2="351.003" gradientUnits="userSpaceOnUse">
<stop stop-color="#2CD9FF" stop-opacity="0.36"/>
<stop offset="1" stop-color="#2CD9FF" stop-opacity="0"/>
</linearGradient>
<linearGradient id="paint3_linear_841_12711" x1="719.143" y1="246.002" x2="719.143" y2="12.002" gradientUnits="userSpaceOnUse">
<stop stop-color="#6C8180" stop-opacity="0"/>
<stop offset="1" stop-color="#6C8180"/>
</linearGradient>
</defs>
</svg>
