<svg width="380" height="299" viewBox="0 0 380 299" fill="none" xmlns="http://www.w3.org/2000/svg">
<g clip-path="url(#clip0_19_18481)">
<path d="M524 299L522.557 -42.4408C522.552 -43.7274 522.051 -44.9624 521.158 -45.8889L496.422 -71.5613C495.003 -73.0341 492.83 -73.4942 490.936 -72.723L471.177 -64.6777C469.822 -64.1263 468.777 -63.0096 468.317 -61.6218L460.373 -37.6869C458.964 -33.441 453.115 -33.041 451.141 -37.0554L450.19 -38.9886C448.097 -43.245 441.807 -42.4672 440.814 -37.8291L430.658 9.59801C430.382 10.8849 429.61 12.0112 428.51 12.7327L423.897 15.7564C421.448 17.3619 418.15 16.5283 416.757 13.952L409.682 0.8607C407.616 -2.96311 401.991 -2.51105 400.562 1.5937L396.953 11.9569C395.566 15.9411 390.138 16.4495 388.035 12.7921V12.7921C386.035 9.31541 380.941 9.55895 379.283 13.2104L376.401 19.5566C374.378 24.0103 367.824 23.2101 366.932 18.4006L365.8 12.2939C364.785 6.81801 356.927 6.85257 355.96 12.3371L344.541 77.1009C343.67 82.039 336.883 82.7649 334.988 78.1228L327.196 59.038C325.517 54.9272 319.713 54.8806 317.969 58.964L316.531 62.3288C314.615 66.8165 308.063 66.1814 307.044 61.409L306.609 59.3754C305.691 55.0748 300.068 53.9691 297.589 57.6018L297.316 58.0027C296.384 59.3681 294.838 60.1849 293.185 60.1849H287.946C287.05 60.1849 286.17 59.9439 285.398 59.4871L267.815 49.0745C264.897 47.3464 261.141 48.9632 260.391 52.2705L243.953 124.73L232.842 193.564C232.451 195.986 230.36 197.767 227.906 197.767H206.209C203.801 197.767 201.735 196.05 201.294 193.682L194.311 156.189C193.266 150.58 185.151 150.817 184.435 156.477L181.731 177.847C181.016 183.5 172.916 183.748 171.858 178.149L167.543 155.326C166.612 150.4 159.818 149.757 157.979 154.421L150.627 173.068C149.108 176.921 143.831 177.363 141.693 173.816L131.485 156.882C129.714 153.944 125.577 153.621 123.372 156.249L115.482 165.654C113.573 167.929 110.114 168.049 108.052 165.911L107.161 164.987C104.632 162.365 100.238 163.241 98.9078 166.633L86.5227 198.206C84.9516 202.211 79.2955 202.243 77.6788 198.256V198.256C75.869 193.793 69.335 194.532 68.5671 199.286L61.2704 244.465C60.3527 250.148 52.1398 250.035 51.3783 244.33L48.8665 225.512C48.128 219.98 40.2544 219.633 39.0319 225.078L38.5705 227.134C38.4918 227.484 38.3755 227.826 38.2236 228.151L29.0982 247.723C28.2856 249.466 25.8623 249.61 24.8497 247.975V247.975C23.7403 246.184 21.0304 246.569 20.4637 248.598L17.8125 258.091C17.1714 260.386 13.9687 260.523 13.1343 258.29V258.29C12.3221 256.117 9.23015 256.17 8.49299 258.37L0.259132 282.94C0.0875112 283.452 0 283.989 0 284.529V299" stroke="#2D5551" stroke-opacity="0.4"/>
<path d="M8.49299 258.372L0.259156 282.941C0.0875195 283.453 0 283.989 0 284.529V294C0 296.761 2.23858 299 5 299H518.974C521.745 299 523.988 296.745 523.974 293.974L522.197 -43.436C522.19 -44.7264 521.685 -45.9641 520.786 -46.8905L495.958 -72.495C494.498 -73.9999 492.255 -74.4348 490.339 -73.5842L471.039 -65.0163C469.766 -64.4512 468.787 -63.3806 468.336 -62.0624L460.129 -38.031C458.68 -33.7899 452.814 -33.4493 450.884 -37.4943L450.266 -38.7916C448.218 -43.084 441.9 -42.3635 440.871 -37.7204L430.299 10.0019C430.02 11.2592 429.268 12.3605 428.197 13.0765L424.32 15.6695C421.854 17.319 418.503 16.4707 417.118 13.8466L409.859 0.0881195C407.845 -3.73075 402.262 -3.37218 400.753 0.673088L396.43 12.256C395.027 16.0165 389.861 16.404 387.912 12.8948C386.047 9.53573 381.159 9.7096 379.537 13.1928L376.442 19.8388C374.386 24.2539 367.874 23.4233 366.992 18.6336L365.792 12.1129C364.782 6.63091 356.915 6.66273 355.95 12.1527L344.535 77.0937C343.667 82.0334 336.877 82.7615 334.981 78.1182L327.196 59.0502C325.517 54.9395 319.713 54.8929 317.969 58.9762L316.531 62.341C314.614 66.8286 308.063 66.1934 307.044 61.4212L306.609 59.3876C305.691 55.0871 300.068 53.9815 297.589 57.614L297.316 58.015C296.384 59.3803 294.838 60.1971 293.185 60.1971H288C287.07 60.1971 286.158 59.9374 285.367 59.4472L267.853 48.5939C264.938 46.788 261.112 48.3841 260.345 51.7257L243.59 124.738L232.825 193.545C232.444 195.978 230.348 197.772 227.885 197.772H206.209C203.801 197.772 201.735 196.055 201.294 193.688L194.311 156.197C193.266 150.587 185.151 150.824 184.435 156.485L181.731 177.854C181.016 183.507 172.916 183.754 171.858 178.155L167.543 155.334C166.612 150.407 159.818 149.764 157.979 154.428L150.627 173.075C149.107 176.928 143.831 177.369 141.693 173.822L131.485 156.889C129.714 153.951 125.577 153.628 123.372 156.256L115.482 165.661C113.573 167.936 110.114 168.055 108.053 165.918L107.161 164.994C104.632 162.372 100.238 163.248 98.9078 166.639L86.5227 198.211C84.9516 202.216 79.2956 202.248 77.6788 198.261C75.8689 193.798 69.335 194.537 68.5671 199.291L61.2703 244.468C60.3526 250.15 52.1398 250.038 51.3783 244.333L48.8665 225.516C48.128 219.984 40.2544 219.636 39.0319 225.082L38.5705 227.137C38.4918 227.488 38.3754 227.829 38.2235 228.155L29.0982 247.726C28.2856 249.469 25.8623 249.612 24.8497 247.978C23.7403 246.186 21.0304 246.571 20.4637 248.601L17.8125 258.093C17.1714 260.388 13.9687 260.525 13.1343 258.292C12.3221 256.119 9.23017 256.172 8.49299 258.372Z" fill="url(#paint0_linear_19_18481)" fill-opacity="0.2"/>
</g>
<defs>
<linearGradient id="paint0_linear_19_18481" x1="262" y1="42.8729" x2="262" y2="299" gradientUnits="userSpaceOnUse">
<stop stop-color="#2D5551"/>
<stop offset="1" stop-color="#2D5551" stop-opacity="0"/>
</linearGradient>
<clipPath id="clip0_19_18481">
<rect width="380" height="299" fill="white"/>
</clipPath>
</defs>
</svg>
