<svg width="375" height="307" viewBox="0 0 375 307" fill="none" xmlns="http://www.w3.org/2000/svg">
<g clip-path="url(#clip0_10_18467)">
<path d="M-162.719 104.634C-236.9 91.5464 -323.815 303.771 -358 314.678H1080.29V99.6768C1008.5 107.163 947.514 2.63017 935.976 41.7274C926.567 73.6152 944.495 255.523 894.5 262.178C844.237 268.868 796.673 70.5649 746.25 41.7274C705.912 18.6573 637.976 48.6775 612.907 58.29C534.5 88.3546 479.782 260.87 436 232.178C373.484 191.208 278.93 -34.8916 216.84 9.82555C154.749 54.5428 158.843 259.357 81.5 283.204C4.15662 307.05 -69.9921 120.994 -162.719 104.634Z" fill="url(#paint0_linear_10_18467)" fill-opacity="0.25"/>
<path d="M-357 314.678C-322.815 303.757 -236.9 91.6923 -162.719 104.797C-69.9921 121.178 6.65662 304.555 84 280.678C161.343 256.801 154.749 54.6413 216.84 9.86687C278.93 -34.9076 372.484 190.156 435 231.178C478.782 259.908 545.5 81.6777 612.907 58.3934C637.976 48.7686 705.912 18.7099 746.25 41.8095C796.673 70.684 843.737 268.877 894 262.178C943.995 255.515 926.567 73.7381 935.977 41.8095C947.514 2.66228 1008.21 109.174 1080 101.678" stroke="#6C8180"/>
<path d="M-162.719 209.382C-236.9 196.295 -323.815 301.769 -358 312.676V316.426H1080.29V101.833C1008.5 109.32 947.514 107.378 935.976 146.476C926.567 178.363 926.148 201.101 876.153 207.755C825.89 214.446 796.673 175.313 746.25 146.476C705.912 123.406 637.976 153.426 612.907 163.038C568.466 179.768 467.44 143.267 423.658 114.574C361.143 73.6039 278.93 69.8566 216.84 114.574C154.749 159.291 93.1616 122.629 15.8182 146.476C-61.5252 170.322 -69.9921 225.742 -162.719 209.382Z" fill="url(#paint1_linear_10_18467)" fill-opacity="0.25"/>
<path d="M-358 314.676C-323.815 303.755 -236.9 196.44 -162.719 209.545C-69.9921 225.926 -61.5252 170.435 15.8182 146.558C93.1616 122.681 154.749 159.389 216.84 114.615C278.93 69.8405 361.143 73.5926 423.659 114.615C467.44 143.344 568.466 179.892 612.907 163.141C637.976 153.517 705.912 123.458 746.25 146.558C796.673 175.432 825.89 214.615 876.153 207.916C926.148 201.253 926.567 178.486 935.977 146.558C947.514 107.41 1008.5 109.354 1080.29 101.858" stroke="#0075FF"/>
<path d="M885.206 236.472C959.962 223.375 1047.55 241.929 1082 252.844V316.677H-358V313.677C-285.656 321.169 -239.148 136.022 -227.522 175.147C-218.039 207.059 -217.617 229.813 -167.234 236.472C-116.582 243.167 -56.5277 221.863 -5.71436 193.004C34.9364 169.917 95.6253 183.384 120.888 193.004C165.673 209.746 239.445 221.099 298.699 204.006C372.766 182.639 413.675 188.744 507.12 204.006C600.565 219.268 591.091 228.98 669.034 252.844C746.976 276.708 791.761 252.844 885.206 236.472Z" fill="url(#paint2_linear_10_18467)" fill-opacity="0.25"/>
<path d="M1082 252.842C1047.55 241.928 959.962 223.373 885.206 236.471C791.761 252.842 746.976 276.706 669.034 252.842C591.091 228.978 600.565 219.266 507.12 204.005C413.675 188.743 372.766 182.638 298.699 204.005C239.445 221.098 165.673 209.744 120.888 193.002C95.6253 183.383 34.9364 169.915 -5.71436 193.002C-56.5278 221.861 -65.8478 240.87 -116.5 234.175C-166.883 227.515 -167.234 206.175 -227.522 175.146C-263.814 156.467 -285.656 321.167 -358 313.675" stroke="#2CD9FF"/>
<path d="M885.206 236.474C959.962 223.377 1047.55 241.932 1082 252.846V316.679H-358V313.679C-285.656 321.171 -262.93 154.846 -227.522 175.149C-183 200.678 -152.883 235.519 -102.5 242.179C-51.8478 248.874 -56.5277 221.865 -5.71436 193.006C34.9364 169.919 95.6253 183.386 120.888 193.006C165.673 209.748 239.445 221.101 298.699 204.008C372.766 182.642 413.675 188.746 507.12 204.008C600.565 219.27 591.091 228.982 669.034 252.846C746.976 276.71 791.761 252.846 885.206 236.474Z" fill="url(#paint3_linear_10_18467)" fill-opacity="0.25"/>
<mask id="path-8-inside-1_10_18467" fill="white">
<path d="M10 297H355V-16H10V297Z"/>
</mask>
<path d="M10 296H355V298H10V296Z" fill="#2D5551" fill-opacity="0.08" mask="url(#path-8-inside-1_10_18467)"/>
<line x1="104.5" y1="147" x2="104.5" y2="297" stroke="#2D5551" stroke-dasharray="5 5"/>
<circle cx="104" cy="186" r="6.56" fill="white" stroke="#2CD9FF" stroke-width="2.88"/>
<circle cx="104" cy="138" r="6.56" fill="white" stroke="#0075FF" stroke-width="2.88"/>
<circle cx="104" cy="269" r="6.56" fill="white" stroke="#6C8180" stroke-width="2.88"/>
<path d="M103.5 125L113 116L94 116L103.5 125Z" fill="#0C0C0C"/>
<rect width="179" height="121" transform="matrix(1 0 0 -1 14 116)" fill="#0C0C0C"/>
<circle cx="34" cy="97" r="4" fill="#6C8180"/>
<path d="M52.5376 94.6172C52.4912 94.183 52.2957 93.8449 51.951 93.603C51.6096 93.361 51.1655 93.2401 50.6186 93.2401C50.2341 93.2401 49.9044 93.2981 49.6293 93.4141C49.3542 93.5301 49.1437 93.6875 48.9979 93.8864C48.852 94.0852 48.7775 94.3123 48.7741 94.5675C48.7741 94.7796 48.8222 94.9635 48.9183 95.1193C49.0178 95.2751 49.152 95.4077 49.321 95.517C49.4901 95.6231 49.6773 95.7126 49.8828 95.7855C50.0883 95.8584 50.2955 95.9197 50.5043 95.9695L51.4588 96.2081C51.8433 96.2976 52.2128 96.4186 52.5675 96.571C52.9254 96.7235 53.2453 96.9157 53.527 97.1477C53.812 97.3797 54.0374 97.6598 54.2031 97.9879C54.3688 98.3161 54.4517 98.7005 54.4517 99.1413C54.4517 99.7379 54.2992 100.263 53.9943 100.717C53.6894 101.168 53.2486 101.521 52.6719 101.776C52.0985 102.028 51.4041 102.154 50.5888 102.154C49.7966 102.154 49.1089 102.031 48.5256 101.786C47.9455 101.541 47.4915 101.183 47.1634 100.712C46.8385 100.242 46.6629 99.6683 46.6364 98.9922H48.451C48.4775 99.3468 48.5869 99.6418 48.7791 99.8771C48.9714 100.112 49.2216 100.288 49.5298 100.404C49.8414 100.52 50.1894 100.578 50.5739 100.578C50.9749 100.578 51.3262 100.518 51.6278 100.399C51.9328 100.277 52.1714 100.107 52.3438 99.892C52.5161 99.6733 52.6039 99.4181 52.6072 99.1264C52.6039 98.8613 52.526 98.6425 52.3736 98.4702C52.2211 98.2945 52.0073 98.1487 51.7322 98.0327C51.4605 97.9134 51.1423 97.8073 50.7777 97.7145L49.6193 97.4162C48.7808 97.2008 48.1179 96.8743 47.6307 96.4368C47.1468 95.996 46.9048 95.411 46.9048 94.6818C46.9048 94.0819 47.0672 93.5566 47.392 93.1058C47.7202 92.6551 48.166 92.3054 48.7294 92.0568C49.2929 91.8049 49.9309 91.679 50.6435 91.679C51.366 91.679 51.9991 91.8049 52.5426 92.0568C53.0895 92.3054 53.5187 92.6518 53.8303 93.0959C54.1418 93.5367 54.3026 94.0438 54.3125 94.6172H52.5376ZM59.3475 102.149C58.6017 102.149 57.9554 101.985 57.4086 101.657C56.8617 101.329 56.4374 100.87 56.1358 100.28C55.8375 99.6899 55.6884 99.0005 55.6884 98.2116C55.6884 97.4228 55.8375 96.7318 56.1358 96.1385C56.4374 95.5452 56.8617 95.0845 57.4086 94.7564C57.9554 94.4283 58.6017 94.2642 59.3475 94.2642C60.0932 94.2642 60.7395 94.4283 61.2864 94.7564C61.8333 95.0845 62.2559 95.5452 62.5542 96.1385C62.8558 96.7318 63.0066 97.4228 63.0066 98.2116C63.0066 99.0005 62.8558 99.6899 62.5542 100.28C62.2559 100.87 61.8333 101.329 61.2864 101.657C60.7395 101.985 60.0932 102.149 59.3475 102.149ZM59.3574 100.707C59.7618 100.707 60.0998 100.596 60.3716 100.374C60.6434 100.149 60.8456 99.8473 60.9782 99.4695C61.1141 99.0916 61.182 98.6707 61.182 98.2067C61.182 97.7393 61.1141 97.3168 60.9782 96.9389C60.8456 96.5578 60.6434 96.2545 60.3716 96.0291C60.0998 95.8037 59.7618 95.6911 59.3574 95.6911C58.9431 95.6911 58.5984 95.8037 58.3233 96.0291C58.0516 96.2545 57.8477 96.5578 57.7118 96.9389C57.5792 97.3168 57.513 97.7393 57.513 98.2067C57.513 98.6707 57.5792 99.0916 57.7118 99.4695C57.8477 99.8473 58.0516 100.149 58.3233 100.374C58.5984 100.596 58.9431 100.707 59.3574 100.707ZM66.3338 91.8182V102H64.5341V91.8182H66.3338ZM70.3819 102.154C69.898 102.154 69.4622 102.068 69.0744 101.896C68.6899 101.72 68.385 101.461 68.1596 101.12C67.9376 100.779 67.8265 100.358 67.8265 99.8572C67.8265 99.4264 67.9061 99.0701 68.0652 98.7884C68.2243 98.5066 68.4413 98.2812 68.7164 98.1122C68.9915 97.9432 69.3014 97.8156 69.6461 97.7294C69.9941 97.6399 70.3538 97.5753 70.725 97.5355C71.1724 97.4891 71.5353 97.4477 71.8137 97.4112C72.0922 97.3714 72.2943 97.3118 72.4203 97.2322C72.5495 97.1494 72.6142 97.0218 72.6142 96.8494V96.8196C72.6142 96.4451 72.5031 96.1551 72.2811 95.9496C72.059 95.7441 71.7392 95.6413 71.3216 95.6413C70.8807 95.6413 70.5311 95.7375 70.2725 95.9297C70.0173 96.1219 69.845 96.349 69.7555 96.6108L68.0751 96.3722C68.2077 95.9081 68.4264 95.5204 68.7314 95.2088C69.0363 94.8939 69.4092 94.6586 69.85 94.5028C70.2908 94.3438 70.778 94.2642 71.3116 94.2642C71.6795 94.2642 72.0458 94.3073 72.4103 94.3935C72.7749 94.4796 73.108 94.6222 73.4096 94.821C73.7112 95.0166 73.9532 95.2834 74.1355 95.6214C74.3211 95.9595 74.4139 96.3821 74.4139 96.8892V102H72.6838V100.951H72.6241C72.5147 101.163 72.3606 101.362 72.1618 101.548C71.9662 101.73 71.7193 101.877 71.421 101.99C71.126 102.099 70.7797 102.154 70.3819 102.154ZM70.8493 100.832C71.2105 100.832 71.5237 100.76 71.7889 100.618C72.054 100.472 72.2579 100.28 72.4004 100.041C72.5462 99.8026 72.6191 99.5424 72.6191 99.2607V98.3608C72.5628 98.4072 72.4667 98.4503 72.3308 98.4901C72.1982 98.5298 72.0491 98.5646 71.8833 98.5945C71.7176 98.6243 71.5536 98.6508 71.3912 98.674C71.2288 98.6972 71.0879 98.7171 70.9686 98.7337C70.7001 98.7701 70.4598 98.8298 70.2477 98.9126C70.0356 98.9955 69.8682 99.1115 69.7456 99.2607C69.6229 99.4065 69.5616 99.5954 69.5616 99.8274C69.5616 100.159 69.6826 100.409 69.9245 100.578C70.1665 100.747 70.4747 100.832 70.8493 100.832ZM76.2235 102V94.3636H77.9686V95.6364H78.0481C78.1873 95.1955 78.426 94.8558 78.764 94.6172C79.1054 94.3752 79.4949 94.2543 79.9324 94.2543C80.0318 94.2543 80.1428 94.2592 80.2654 94.2692C80.3914 94.2758 80.4958 94.2874 80.5787 94.304V95.9595C80.5024 95.933 80.3815 95.9098 80.2157 95.8899C80.0533 95.8667 79.8959 95.8551 79.7434 95.8551C79.4153 95.8551 79.1203 95.9264 78.8585 96.0689C78.6 96.2081 78.3961 96.402 78.247 96.6506C78.0978 96.8991 78.0233 97.1858 78.0233 97.5107V102H76.2235Z" fill="white"/>
<g opacity="0.1">
<rect x="89" y="91" width="1" height="12" rx="0.5" fill="white"/>
</g>
<path d="M98.7756 101V99.858L101.805 96.8878C102.095 96.5952 102.337 96.3352 102.53 96.108C102.723 95.8807 102.868 95.6605 102.964 95.4474C103.061 95.2344 103.109 95.0071 103.109 94.7656C103.109 94.4901 103.047 94.2543 102.922 94.0582C102.797 93.8594 102.625 93.706 102.406 93.598C102.188 93.4901 101.939 93.4361 101.661 93.4361C101.374 93.4361 101.122 93.4957 100.906 93.6151C100.69 93.7315 100.523 93.8977 100.403 94.1136C100.287 94.3295 100.229 94.5866 100.229 94.8849H98.7244C98.7244 94.331 98.8509 93.8494 99.1037 93.4403C99.3565 93.0312 99.7045 92.7145 100.148 92.4901C100.594 92.2656 101.105 92.1534 101.682 92.1534C102.267 92.1534 102.781 92.2628 103.224 92.4815C103.668 92.7003 104.011 93 104.256 93.3807C104.503 93.7614 104.626 94.196 104.626 94.6847C104.626 95.0114 104.564 95.3324 104.439 95.6477C104.314 95.9631 104.094 96.3125 103.778 96.696C103.466 97.0795 103.027 97.544 102.462 98.0895L100.957 99.6193V99.679H104.759V101H98.7756ZM108.057 99.8068L108.001 100.276C107.962 100.634 107.891 100.997 107.788 101.366C107.689 101.739 107.584 102.081 107.473 102.393C107.362 102.706 107.273 102.952 107.205 103.131H106.165C106.205 102.957 106.259 102.722 106.327 102.423C106.398 102.125 106.466 101.79 106.531 101.418C106.597 101.045 106.641 100.668 106.663 100.284L106.693 99.8068H108.057ZM112.696 101.119C112.128 101.119 111.62 101.013 111.171 100.8C110.722 100.584 110.365 100.288 110.101 99.9134C109.84 99.5384 109.701 99.1094 109.684 98.6264H111.218C111.246 98.9844 111.401 99.277 111.682 99.5043C111.963 99.7287 112.301 99.8409 112.696 99.8409C113.006 99.8409 113.282 99.7699 113.523 99.6278C113.765 99.4858 113.955 99.2884 114.094 99.0355C114.233 98.7827 114.301 98.4943 114.299 98.1705C114.301 97.8409 114.232 97.5483 114.09 97.2926C113.948 97.0369 113.753 96.8366 113.506 96.6918C113.259 96.544 112.975 96.4702 112.654 96.4702C112.392 96.4673 112.135 96.5156 111.882 96.6151C111.63 96.7145 111.429 96.8452 111.282 97.0071L109.854 96.7727L110.31 92.2727H115.373V93.5938H111.618L111.367 95.9077H111.418C111.58 95.7173 111.809 95.5597 112.104 95.4347C112.4 95.3068 112.723 95.2429 113.076 95.2429C113.604 95.2429 114.076 95.3679 114.49 95.6179C114.905 95.8651 115.232 96.206 115.471 96.6406C115.709 97.0753 115.828 97.5724 115.828 98.1321C115.828 98.7088 115.695 99.223 115.428 99.6747C115.164 100.124 114.796 100.477 114.324 100.736C113.855 100.991 113.313 101.119 112.696 101.119ZM120.482 101.166C119.78 101.166 119.178 100.989 118.675 100.634C118.175 100.276 117.79 99.7599 117.52 99.0866C117.253 98.4105 117.12 97.5966 117.12 96.6449C117.123 95.6932 117.257 94.8835 117.525 94.2159C117.794 93.5455 118.179 93.0341 118.679 92.6818C119.182 92.3295 119.783 92.1534 120.482 92.1534C121.181 92.1534 121.782 92.3295 122.284 92.6818C122.787 93.0341 123.172 93.5455 123.439 94.2159C123.709 94.8864 123.844 95.696 123.844 96.6449C123.844 97.5994 123.709 98.4148 123.439 99.0909C123.172 99.7642 122.787 100.278 122.284 100.634C121.784 100.989 121.184 101.166 120.482 101.166ZM120.482 99.8324C121.027 99.8324 121.458 99.5639 121.773 99.027C122.091 98.4872 122.25 97.6932 122.25 96.6449C122.25 95.9517 122.178 95.3693 122.033 94.8977C121.888 94.4261 121.684 94.071 121.419 93.8324C121.155 93.5909 120.843 93.4702 120.482 93.4702C119.939 93.4702 119.51 93.7401 119.195 94.2798C118.88 94.8168 118.721 95.6051 118.718 96.6449C118.715 97.3409 118.784 97.9261 118.926 98.4006C119.071 98.875 119.276 99.233 119.54 99.4744C119.804 99.7131 120.118 99.8324 120.482 99.8324ZM128.486 101.166C127.784 101.166 127.182 100.989 126.679 100.634C126.179 100.276 125.794 99.7599 125.524 99.0866C125.257 98.4105 125.124 97.5966 125.124 96.6449C125.126 95.6932 125.261 94.8835 125.528 94.2159C125.798 93.5455 126.183 93.0341 126.683 92.6818C127.186 92.3295 127.787 92.1534 128.486 92.1534C129.185 92.1534 129.786 92.3295 130.288 92.6818C130.791 93.0341 131.176 93.5455 131.443 94.2159C131.713 94.8864 131.848 95.696 131.848 96.6449C131.848 97.5994 131.713 98.4148 131.443 99.0909C131.176 99.7642 130.791 100.278 130.288 100.634C129.788 100.989 129.188 101.166 128.486 101.166ZM128.486 99.8324C129.031 99.8324 129.462 99.5639 129.777 99.027C130.095 98.4872 130.254 97.6932 130.254 96.6449C130.254 95.9517 130.182 95.3693 130.037 94.8977C129.892 94.4261 129.688 94.071 129.423 93.8324C129.159 93.5909 128.847 93.4702 128.486 93.4702C127.943 93.4702 127.514 93.7401 127.199 94.2798C126.884 94.8168 126.724 95.6051 126.722 96.6449C126.719 97.3409 126.788 97.9261 126.93 98.4006C127.075 98.875 127.28 99.233 127.544 99.4744C127.808 99.7131 128.122 99.8324 128.486 99.8324ZM136.076 102.091V91.1818H136.775V102.091H136.076ZM138.092 94.6719C138.052 94.2997 137.885 94.0099 137.589 93.8026C137.297 93.5952 136.916 93.4915 136.447 93.4915C136.118 93.4915 135.835 93.5412 135.599 93.6406C135.363 93.7401 135.183 93.875 135.058 94.0455C134.933 94.2159 134.869 94.4105 134.866 94.6293C134.866 94.8111 134.907 94.9687 134.99 95.1023C135.075 95.2358 135.19 95.3494 135.335 95.4432C135.48 95.5341 135.64 95.6108 135.816 95.6733C135.993 95.7358 136.17 95.7884 136.349 95.831L137.167 96.0355C137.497 96.1122 137.814 96.2159 138.118 96.3466C138.424 96.4773 138.699 96.642 138.94 96.8409C139.184 97.0398 139.377 97.2798 139.52 97.5611C139.662 97.8423 139.733 98.1719 139.733 98.5497C139.733 99.0611 139.602 99.5114 139.341 99.9006C139.079 100.287 138.701 100.589 138.207 100.808C137.716 101.024 137.12 101.132 136.422 101.132C135.743 101.132 135.153 101.027 134.653 100.817C134.156 100.607 133.767 100.3 133.485 99.8963C133.207 99.4929 133.056 99.0014 133.034 98.4219H134.589C134.612 98.7259 134.706 98.9787 134.87 99.1804C135.035 99.3821 135.25 99.5327 135.514 99.6321C135.781 99.7315 136.079 99.7812 136.409 99.7812C136.752 99.7812 137.054 99.7301 137.312 99.6278C137.574 99.5227 137.778 99.3778 137.926 99.1932C138.074 99.0057 138.149 98.7869 138.152 98.5369C138.149 98.3097 138.082 98.1222 137.951 97.9744C137.821 97.8239 137.637 97.6989 137.402 97.5994C137.169 97.4972 136.896 97.4062 136.583 97.3267L135.591 97.071C134.872 96.8864 134.304 96.6065 133.886 96.2315C133.471 95.8537 133.264 95.3523 133.264 94.7273C133.264 94.2131 133.403 93.7628 133.681 93.3764C133.963 92.9901 134.345 92.6903 134.828 92.4773C135.311 92.2614 135.858 92.1534 136.468 92.1534C137.088 92.1534 137.63 92.2614 138.096 92.4773C138.565 92.6903 138.933 92.9872 139.2 93.3679C139.467 93.7457 139.605 94.1804 139.613 94.6719H138.092Z" fill="white"/>
<path opacity="0.7" d="M149.67 96.1676V97.1051H145.852V96.1676H149.67ZM154.218 101.119C153.633 101.119 153.116 101.016 152.667 100.808C152.221 100.598 151.873 100.31 151.623 99.9432C151.373 99.5739 151.25 99.1534 151.252 98.6818C151.25 98.3125 151.322 97.9716 151.47 97.6591C151.618 97.3437 151.819 97.081 152.075 96.8707C152.333 96.6577 152.622 96.5227 152.94 96.4659V96.4148C152.522 96.3068 152.19 96.0724 151.943 95.7116C151.696 95.348 151.574 94.9347 151.576 94.4716C151.574 94.0284 151.686 93.6321 151.913 93.2827C152.14 92.9332 152.453 92.6577 152.85 92.456C153.251 92.2543 153.707 92.1534 154.218 92.1534C154.724 92.1534 155.176 92.2543 155.574 92.456C155.971 92.6577 156.284 92.9332 156.511 93.2827C156.741 93.6321 156.858 94.0284 156.86 94.4716C156.858 94.9347 156.731 95.348 156.481 95.7116C156.234 96.0724 155.906 96.3068 155.497 96.4148V96.4659C155.812 96.5227 156.096 96.6577 156.349 96.8707C156.602 97.081 156.804 97.3437 156.954 97.6591C157.105 97.9716 157.181 98.3125 157.184 98.6818C157.181 99.1534 157.054 99.5739 156.801 99.9432C156.551 100.31 156.203 100.598 155.757 100.808C155.314 101.016 154.801 101.119 154.218 101.119ZM154.218 100.182C154.613 100.182 154.954 100.118 155.241 99.9901C155.528 99.8622 155.75 99.6818 155.906 99.4489C156.062 99.2159 156.142 98.9432 156.145 98.6307C156.142 98.3011 156.056 98.0099 155.889 97.7571C155.721 97.5043 155.493 97.3054 155.203 97.1605C154.916 97.0156 154.588 96.9432 154.218 96.9432C153.846 96.9432 153.514 97.0156 153.221 97.1605C152.931 97.3054 152.703 97.5043 152.535 97.7571C152.37 98.0099 152.289 98.3011 152.292 98.6307C152.289 98.9432 152.365 99.2159 152.518 99.4489C152.674 99.6818 152.897 99.8622 153.187 99.9901C153.477 100.118 153.821 100.182 154.218 100.182ZM154.218 96.0398C154.531 96.0398 154.808 95.9773 155.049 95.8523C155.294 95.7273 155.485 95.5526 155.625 95.3281C155.764 95.1037 155.835 94.8409 155.838 94.5398C155.835 94.2443 155.765 93.9872 155.629 93.7685C155.493 93.5469 155.304 93.3764 155.062 93.2571C154.821 93.1349 154.539 93.0739 154.218 93.0739C153.892 93.0739 153.606 93.1349 153.362 93.2571C153.118 93.3764 152.929 93.5469 152.795 93.7685C152.662 93.9872 152.596 94.2443 152.599 94.5398C152.596 94.8409 152.663 95.1037 152.799 95.3281C152.939 95.5526 153.13 95.7273 153.375 95.8523C153.619 95.9773 153.9 96.0398 154.218 96.0398ZM163.266 99.3636V98.9034C163.266 98.5852 163.332 98.294 163.462 98.0298C163.596 97.7628 163.789 97.5497 164.042 97.3906C164.298 97.2287 164.607 97.1477 164.971 97.1477C165.34 97.1477 165.65 97.2287 165.9 97.3906C166.15 97.5497 166.339 97.7628 166.467 98.0298C166.594 98.294 166.658 98.5852 166.658 98.9034V99.3636C166.658 99.6818 166.593 99.9744 166.462 100.241C166.335 100.506 166.144 100.719 165.891 100.881C165.641 101.04 165.335 101.119 164.971 101.119C164.602 101.119 164.29 101.04 164.038 100.881C163.785 100.719 163.593 100.506 163.462 100.241C163.332 99.9744 163.266 99.6818 163.266 99.3636ZM164.136 98.9034V99.3636C164.136 99.6278 164.198 99.8651 164.323 100.075C164.448 100.283 164.664 100.386 164.971 100.386C165.269 100.386 165.479 100.283 165.602 100.075C165.727 99.8651 165.789 99.6278 165.789 99.3636V98.9034C165.789 98.6392 165.729 98.4034 165.61 98.196C165.491 97.9858 165.278 97.8807 164.971 97.8807C164.673 97.8807 164.458 97.9858 164.327 98.196C164.2 98.4034 164.136 98.6392 164.136 98.9034ZM158.92 94.3693V93.9091C158.92 93.5909 158.985 93.2997 159.116 93.0355C159.249 92.7685 159.442 92.5554 159.695 92.3963C159.951 92.2344 160.261 92.1534 160.624 92.1534C160.994 92.1534 161.303 92.2344 161.553 92.3963C161.803 92.5554 161.992 92.7685 162.12 93.0355C162.248 93.2997 162.312 93.5909 162.312 93.9091V94.3693C162.312 94.6875 162.246 94.9801 162.116 95.2472C161.988 95.5114 161.798 95.7244 161.545 95.8864C161.295 96.0455 160.988 96.125 160.624 96.125C160.255 96.125 159.944 96.0455 159.691 95.8864C159.438 95.7244 159.246 95.5114 159.116 95.2472C158.985 94.9801 158.92 94.6875 158.92 94.3693ZM159.789 93.9091V94.3693C159.789 94.6335 159.852 94.8707 159.977 95.081C160.102 95.2884 160.317 95.392 160.624 95.392C160.923 95.392 161.133 95.2884 161.255 95.081C161.38 94.8707 161.442 94.6335 161.442 94.3693V93.9091C161.442 93.6449 161.383 93.4091 161.263 93.2017C161.144 92.9915 160.931 92.8864 160.624 92.8864C160.326 92.8864 160.112 92.9915 159.981 93.2017C159.853 93.4091 159.789 93.6449 159.789 93.9091ZM159.244 101L165.244 92.2727H166.215L160.215 101H159.244Z" fill="#FF2424"/>
<circle cx="34" cy="71" r="4" fill="#2FD6FA"/>
<path d="M53.8253 69.0696C53.7424 68.8011 53.6281 68.5608 53.4822 68.3487C53.3397 68.1333 53.1674 67.9493 52.9652 67.7969C52.7663 67.6444 52.5376 67.5301 52.2791 67.4538C52.0206 67.3743 51.7389 67.3345 51.4339 67.3345C50.8871 67.3345 50.3999 67.4721 49.9723 67.7472C49.5447 68.0223 49.2083 68.4266 48.9631 68.9602C48.7211 69.4905 48.6001 70.1368 48.6001 70.8991C48.6001 71.6681 48.7211 72.3194 48.9631 72.853C49.205 73.3866 49.5414 73.7926 49.9723 74.071C50.4032 74.3461 50.9036 74.4837 51.4737 74.4837C51.9908 74.4837 52.4382 74.3842 52.8161 74.1854C53.1972 73.9865 53.4905 73.7048 53.696 73.3402C53.9015 72.9723 54.0043 72.5414 54.0043 72.0476L54.4219 72.1122H51.6577V70.6705H55.7891V71.8935C55.7891 72.7652 55.6035 73.5192 55.2322 74.1555C54.861 74.7919 54.3506 75.2824 53.701 75.6271C53.0514 75.9685 52.3056 76.1392 51.4638 76.1392C50.5258 76.1392 49.7022 75.9287 48.9929 75.5078C48.2869 75.0836 47.7351 74.482 47.3374 73.7031C46.9429 72.9209 46.7457 71.9929 46.7457 70.919C46.7457 70.0971 46.8617 69.3629 47.0938 68.7166C47.3291 68.0703 47.6572 67.5218 48.0781 67.071C48.4991 66.617 48.9929 66.2723 49.5597 66.0369C50.1264 65.7983 50.7429 65.679 51.4091 65.679C51.9725 65.679 52.4979 65.7618 52.9851 65.9276C53.4723 66.09 53.9048 66.322 54.2827 66.6236C54.6638 66.9252 54.977 67.2831 55.2223 67.6974C55.4676 68.1117 55.6283 68.5691 55.7045 69.0696H53.8253ZM60.824 76.1491C60.0783 76.1491 59.432 75.9851 58.8851 75.657C58.3382 75.3288 57.914 74.8698 57.6124 74.2798C57.3141 73.6899 57.165 73.0005 57.165 72.2116C57.165 71.4228 57.3141 70.7318 57.6124 70.1385C57.914 69.5452 58.3382 69.0845 58.8851 68.7564C59.432 68.4283 60.0783 68.2642 60.824 68.2642C61.5698 68.2642 62.2161 68.4283 62.763 68.7564C63.3098 69.0845 63.7324 69.5452 64.0307 70.1385C64.3323 70.7318 64.4831 71.4228 64.4831 72.2116C64.4831 73.0005 64.3323 73.6899 64.0307 74.2798C63.7324 74.8698 63.3098 75.3288 62.763 75.657C62.2161 75.9851 61.5698 76.1491 60.824 76.1491ZM60.834 74.7074C61.2383 74.7074 61.5764 74.5964 61.8482 74.3743C62.12 74.1489 62.3221 73.8473 62.4547 73.4695C62.5906 73.0916 62.6586 72.6707 62.6586 72.2067C62.6586 71.7393 62.5906 71.3168 62.4547 70.9389C62.3221 70.5578 62.12 70.2545 61.8482 70.0291C61.5764 69.8037 61.2383 69.6911 60.834 69.6911C60.4197 69.6911 60.075 69.8037 59.7999 70.0291C59.5281 70.2545 59.3243 70.5578 59.1884 70.9389C59.0558 71.3168 58.9895 71.7393 58.9895 72.2067C58.9895 72.6707 59.0558 73.0916 59.1884 73.4695C59.3243 73.8473 59.5281 74.1489 59.7999 74.3743C60.075 74.5964 60.4197 74.7074 60.834 74.7074ZM68.2081 76.1541C67.7242 76.1541 67.2884 76.0679 66.9006 75.8956C66.5161 75.7199 66.2112 75.4614 65.9858 75.12C65.7637 74.7786 65.6527 74.3577 65.6527 73.8572C65.6527 73.4264 65.7322 73.0701 65.8913 72.7884C66.0504 72.5066 66.2675 72.2812 66.5426 72.1122C66.8177 71.9432 67.1276 71.8156 67.4723 71.7294C67.8203 71.6399 68.1799 71.5753 68.5511 71.5355C68.9986 71.4891 69.3615 71.4477 69.6399 71.4112C69.9183 71.3714 70.1205 71.3118 70.2464 71.2322C70.3757 71.1494 70.4403 71.0218 70.4403 70.8494V70.8196C70.4403 70.4451 70.3293 70.1551 70.1072 69.9496C69.8852 69.7441 69.5653 69.6413 69.1477 69.6413C68.7069 69.6413 68.3572 69.7375 68.0987 69.9297C67.8435 70.1219 67.6712 70.349 67.5817 70.6108L65.9013 70.3722C66.0339 69.9081 66.2526 69.5204 66.5575 69.2088C66.8625 68.8939 67.2353 68.6586 67.6761 68.5028C68.117 68.3438 68.6042 68.2642 69.1378 68.2642C69.5057 68.2642 69.8719 68.3073 70.2365 68.3935C70.6011 68.4796 70.9342 68.6222 71.2358 68.821C71.5374 69.0166 71.7794 69.2834 71.9616 69.6214C72.1473 69.9595 72.2401 70.3821 72.2401 70.8892V76H70.5099V74.951H70.4503C70.3409 75.1631 70.1868 75.362 69.9879 75.5476C69.7924 75.7299 69.5455 75.8774 69.2472 75.9901C68.9522 76.0994 68.6058 76.1541 68.2081 76.1541ZM68.6754 74.8317C69.0367 74.8317 69.3499 74.7604 69.6151 74.6179C69.8802 74.4721 70.084 74.2798 70.2266 74.0412C70.3724 73.8026 70.4453 73.5424 70.4453 73.2607V72.3608C70.389 72.4072 70.2929 72.4503 70.157 72.4901C70.0244 72.5298 69.8752 72.5646 69.7095 72.5945C69.5438 72.6243 69.3797 72.6508 69.2173 72.674C69.0549 72.6972 68.9141 72.7171 68.7947 72.7337C68.5263 72.7701 68.286 72.8298 68.0739 72.9126C67.8617 72.9955 67.6944 73.1115 67.5717 73.2607C67.4491 73.4065 67.3878 73.5954 67.3878 73.8274C67.3878 74.1589 67.5088 74.4091 67.7507 74.5781C67.9927 74.7472 68.3009 74.8317 68.6754 74.8317ZM75.8494 65.8182V76H74.0497V65.8182H75.8494Z" fill="white"/>
<g opacity="0.1">
<rect x="85" y="65" width="1" height="12" rx="0.5" fill="white"/>
</g>
<path d="M97.8097 75.1193C97.2415 75.1193 96.733 75.0128 96.2841 74.7997C95.8352 74.5838 95.4787 74.2884 95.2145 73.9134C94.9531 73.5384 94.8139 73.1094 94.7969 72.6264H96.331C96.3594 72.9844 96.5142 73.277 96.7955 73.5043C97.0767 73.7287 97.4148 73.8409 97.8097 73.8409C98.1193 73.8409 98.3949 73.7699 98.6364 73.6278C98.8778 73.4858 99.0682 73.2884 99.2074 73.0355C99.3466 72.7827 99.4148 72.4943 99.4119 72.1705C99.4148 71.8409 99.3452 71.5483 99.2031 71.2926C99.0611 71.0369 98.8665 70.8366 98.6193 70.6918C98.3722 70.544 98.0881 70.4702 97.767 70.4702C97.5057 70.4673 97.2486 70.5156 96.9957 70.6151C96.7429 70.7145 96.5426 70.8452 96.3949 71.0071L94.9673 70.7727L95.4233 66.2727H100.486V67.5938H96.7315L96.4801 69.9077H96.5312C96.6932 69.7173 96.9219 69.5597 97.2173 69.4347C97.5128 69.3068 97.8366 69.2429 98.1889 69.2429C98.7173 69.2429 99.1889 69.3679 99.6037 69.6179C100.018 69.8651 100.345 70.206 100.584 70.6406C100.822 71.0753 100.942 71.5724 100.942 72.1321C100.942 72.7088 100.808 73.223 100.541 73.6747C100.277 74.1236 99.9091 74.4773 99.4375 74.7358C98.9688 74.9915 98.4261 75.1193 97.8097 75.1193ZM103.904 73.8068L103.849 74.2756C103.809 74.6335 103.738 74.9972 103.636 75.3665C103.537 75.7386 103.431 76.081 103.321 76.3935C103.21 76.706 103.12 76.9517 103.052 77.1307H102.012C102.052 76.9574 102.106 76.7216 102.174 76.4233C102.245 76.125 102.314 75.7898 102.379 75.4176C102.444 75.0455 102.488 74.6676 102.511 74.2841L102.541 73.8068H103.904ZM105.458 73.3807V72.1236L109.161 66.2727H110.209V68.0625H109.57L107.077 72.0128V72.081H112.246V73.3807H105.458ZM109.621 75V72.9972L109.638 72.4347V66.2727H111.13V75H109.621ZM116.833 75.1662C116.132 75.1662 115.529 74.9886 115.027 74.6335C114.527 74.2756 114.142 73.7599 113.872 73.0866C113.605 72.4105 113.471 71.5966 113.471 70.6449C113.474 69.6932 113.609 68.8835 113.876 68.2159C114.146 67.5455 114.531 67.0341 115.031 66.6818C115.534 66.3295 116.135 66.1534 116.833 66.1534C117.532 66.1534 118.133 66.3295 118.636 66.6818C119.139 67.0341 119.524 67.5455 119.791 68.2159C120.061 68.8864 120.196 69.696 120.196 70.6449C120.196 71.5994 120.061 72.4148 119.791 73.0909C119.524 73.7642 119.139 74.2784 118.636 74.6335C118.136 74.9886 117.535 75.1662 116.833 75.1662ZM116.833 73.8324C117.379 73.8324 117.809 73.5639 118.125 73.027C118.443 72.4872 118.602 71.6932 118.602 70.6449C118.602 69.9517 118.529 69.3693 118.385 68.8977C118.24 68.4261 118.035 68.071 117.771 67.8324C117.507 67.5909 117.194 67.4702 116.833 67.4702C116.291 67.4702 115.862 67.7401 115.547 68.2798C115.231 68.8168 115.072 69.6051 115.069 70.6449C115.066 71.3409 115.136 71.9261 115.278 72.4006C115.423 72.875 115.627 73.233 115.892 73.4744C116.156 73.7131 116.47 73.8324 116.833 73.8324ZM124.837 75.1662C124.136 75.1662 123.533 74.9886 123.031 74.6335C122.531 74.2756 122.146 73.7599 121.876 73.0866C121.609 72.4105 121.475 71.5966 121.475 70.6449C121.478 69.6932 121.613 68.8835 121.88 68.2159C122.15 67.5455 122.535 67.0341 123.035 66.6818C123.538 66.3295 124.138 66.1534 124.837 66.1534C125.536 66.1534 126.137 66.3295 126.64 66.6818C127.143 67.0341 127.528 67.5455 127.795 68.2159C128.065 68.8864 128.2 69.696 128.2 70.6449C128.2 71.5994 128.065 72.4148 127.795 73.0909C127.528 73.7642 127.143 74.2784 126.64 74.6335C126.14 74.9886 125.539 75.1662 124.837 75.1662ZM124.837 73.8324C125.383 73.8324 125.813 73.5639 126.129 73.027C126.447 72.4872 126.606 71.6932 126.606 70.6449C126.606 69.9517 126.533 69.3693 126.388 68.8977C126.244 68.4261 126.039 68.071 125.775 67.8324C125.511 67.5909 125.198 67.4702 124.837 67.4702C124.295 67.4702 123.866 67.7401 123.55 68.2798C123.235 68.8168 123.076 69.6051 123.073 70.6449C123.07 71.3409 123.14 71.9261 123.282 72.4006C123.427 72.875 123.631 73.233 123.896 73.4744C124.16 73.7131 124.474 73.8324 124.837 73.8324ZM132.428 76.0909V65.1818H133.127V76.0909H132.428ZM134.444 68.6719C134.404 68.2997 134.236 68.0099 133.941 67.8026C133.648 67.5952 133.267 67.4915 132.799 67.4915C132.469 67.4915 132.186 67.5412 131.951 67.6406C131.715 67.7401 131.534 67.875 131.409 68.0455C131.284 68.2159 131.221 68.4105 131.218 68.6293C131.218 68.8111 131.259 68.9687 131.341 69.1023C131.426 69.2358 131.542 69.3494 131.686 69.4432C131.831 69.5341 131.992 69.6108 132.168 69.6733C132.344 69.7358 132.522 69.7884 132.701 69.831L133.519 70.0355C133.848 70.1122 134.165 70.2159 134.469 70.3466C134.776 70.4773 135.05 70.642 135.292 70.8409C135.536 71.0398 135.729 71.2798 135.871 71.5611C136.013 71.8423 136.084 72.1719 136.084 72.5497C136.084 73.0611 135.953 73.5114 135.692 73.9006C135.431 74.2869 135.053 74.5895 134.559 74.8082C134.067 75.0241 133.472 75.1321 132.773 75.1321C132.094 75.1321 131.505 75.027 131.005 74.8168C130.507 74.6065 130.118 74.2997 129.837 73.8963C129.559 73.4929 129.408 73.0014 129.385 72.4219H130.941C130.963 72.7259 131.057 72.9787 131.222 73.1804C131.387 73.3821 131.601 73.5327 131.865 73.6321C132.132 73.7315 132.431 73.7812 132.76 73.7812C133.104 73.7812 133.405 73.7301 133.664 73.6278C133.925 73.5227 134.13 73.3778 134.277 73.1932C134.425 73.0057 134.5 72.7869 134.503 72.5369C134.5 72.3097 134.434 72.1222 134.303 71.9744C134.172 71.8239 133.989 71.6989 133.753 71.5994C133.52 71.4972 133.248 71.4062 132.935 71.3267L131.942 71.071C131.223 70.8864 130.655 70.6065 130.238 70.2315C129.823 69.8537 129.615 69.3523 129.615 68.7273C129.615 68.2131 129.755 67.7628 130.033 67.3764C130.314 66.9901 130.696 66.6903 131.179 66.4773C131.662 66.2614 132.209 66.1534 132.82 66.1534C133.439 66.1534 133.982 66.2614 134.448 66.4773C134.917 66.6903 135.284 66.9872 135.551 67.3679C135.819 67.7457 135.956 68.1804 135.965 68.6719H134.444Z" fill="white"/>
<path opacity="0.7" d="M144.477 73.4659V67.8409H145.432V73.4659H144.477ZM142.142 71.1307V70.1761H147.767V71.1307H142.142ZM149.609 73.2102V72.3409L153.444 66.2727H154.075V67.6193H153.649L150.751 72.2045V72.2727H155.916V73.2102H149.609ZM153.717 75V72.946V72.5412V66.2727H154.723V75H153.717ZM161.962 73.3636V72.9034C161.962 72.5852 162.027 72.294 162.158 72.0298C162.291 71.7628 162.484 71.5497 162.737 71.3906C162.993 71.2287 163.303 71.1477 163.666 71.1477C164.036 71.1477 164.345 71.2287 164.595 71.3906C164.845 71.5497 165.034 71.7628 165.162 72.0298C165.29 72.294 165.354 72.5852 165.354 72.9034V73.3636C165.354 73.6818 165.288 73.9744 165.158 74.2415C165.03 74.5057 164.839 74.7187 164.587 74.8807C164.337 75.0398 164.03 75.1193 163.666 75.1193C163.297 75.1193 162.986 75.0398 162.733 74.8807C162.48 74.7187 162.288 74.5057 162.158 74.2415C162.027 73.9744 161.962 73.6818 161.962 73.3636ZM162.831 72.9034V73.3636C162.831 73.6278 162.893 73.8651 163.018 74.0753C163.143 74.2827 163.359 74.3864 163.666 74.3864C163.964 74.3864 164.175 74.2827 164.297 74.0753C164.422 73.8651 164.484 73.6278 164.484 73.3636V72.9034C164.484 72.6392 164.425 72.4034 164.305 72.196C164.186 71.9858 163.973 71.8807 163.666 71.8807C163.368 71.8807 163.153 71.9858 163.023 72.196C162.895 72.4034 162.831 72.6392 162.831 72.9034ZM157.615 68.3693V67.9091C157.615 67.5909 157.68 67.2997 157.811 67.0355C157.945 66.7685 158.138 66.5554 158.391 66.3963C158.646 66.2344 158.956 66.1534 159.32 66.1534C159.689 66.1534 159.999 66.2344 160.249 66.3963C160.499 66.5554 160.688 66.7685 160.815 67.0355C160.943 67.2997 161.007 67.5909 161.007 67.9091V68.3693C161.007 68.6875 160.942 68.9801 160.811 69.2472C160.683 69.5114 160.493 69.7244 160.24 69.8864C159.99 70.0455 159.683 70.125 159.32 70.125C158.95 70.125 158.639 70.0455 158.386 69.8864C158.134 69.7244 157.942 69.5114 157.811 69.2472C157.68 68.9801 157.615 68.6875 157.615 68.3693ZM158.484 67.9091V68.3693C158.484 68.6335 158.547 68.8707 158.672 69.081C158.797 69.2884 159.013 69.392 159.32 69.392C159.618 69.392 159.828 69.2884 159.95 69.081C160.075 68.8707 160.138 68.6335 160.138 68.3693V67.9091C160.138 67.6449 160.078 67.4091 159.959 67.2017C159.839 66.9915 159.626 66.8864 159.32 66.8864C159.021 66.8864 158.807 66.9915 158.676 67.2017C158.548 67.4091 158.484 67.6449 158.484 67.9091ZM157.939 75L163.939 66.2727H164.911L158.911 75H157.939Z" fill="#24FF54"/>
<circle cx="34" cy="45" r="4" fill="#0075FF"/>
<path d="M49.147 50L46.2734 39.8182H48.2571L50.0916 47.3004H50.1861L52.1449 39.8182H53.9496L55.9134 47.3054H56.0028L57.8374 39.8182H59.821L56.9474 50H55.1278L53.0895 42.8558H53.0099L50.9666 50H49.147ZM61.0204 50V42.3636H62.8201V50H61.0204ZM61.9252 41.2798C61.6402 41.2798 61.3949 41.1854 61.1895 40.9964C60.984 40.8042 60.8812 40.5739 60.8812 40.3054C60.8812 40.0336 60.984 39.8033 61.1895 39.6143C61.3949 39.4221 61.6402 39.326 61.9252 39.326C62.2136 39.326 62.4589 39.4221 62.661 39.6143C62.8665 39.8033 62.9693 40.0336 62.9693 40.3054C62.9693 40.5739 62.8665 40.8042 62.661 40.9964C62.4589 41.1854 62.2136 41.2798 61.9252 41.2798ZM66.4705 45.5256V50H64.6708V42.3636H66.391V43.6612H66.4805C66.6561 43.2337 66.9362 42.8939 67.3207 42.642C67.7085 42.3902 68.1874 42.2642 68.7575 42.2642C69.2844 42.2642 69.7435 42.3769 70.1346 42.6023C70.529 42.8277 70.8339 43.1541 71.0494 43.5817C71.2681 44.0092 71.3758 44.5279 71.3725 45.1378V50H69.5728V45.4162C69.5728 44.9058 69.4402 44.5064 69.1751 44.218C68.9132 43.9297 68.5503 43.7855 68.0863 43.7855C67.7714 43.7855 67.4914 43.8551 67.2461 43.9943C67.0041 44.1302 66.8136 44.3274 66.6744 44.5859C66.5385 44.8445 66.4705 45.1577 66.4705 45.5256ZM76.0359 50.1342C75.436 50.1342 74.899 49.9801 74.4251 49.6719C73.9511 49.3636 73.5766 48.9162 73.3015 48.3295C73.0264 47.7429 72.8888 47.0303 72.8888 46.1918C72.8888 45.3433 73.0281 44.6274 73.3065 44.044C73.5882 43.4574 73.9677 43.0149 74.445 42.7166C74.9222 42.415 75.4542 42.2642 76.0408 42.2642C76.4883 42.2642 76.8562 42.3404 77.1445 42.4929C77.4329 42.642 77.6616 42.8227 77.8306 43.0348C77.9996 43.2436 78.1306 43.4408 78.2234 43.6264H78.2979V39.8182H80.1026V50H78.3327V48.7969H78.2234C78.1306 48.9825 77.9963 49.1797 77.8207 49.3885C77.645 49.594 77.413 49.7696 77.1246 49.9155C76.8363 50.0613 76.4734 50.1342 76.0359 50.1342ZM76.538 48.6577C76.9192 48.6577 77.244 48.5549 77.5124 48.3494C77.7809 48.1406 77.9847 47.8506 78.1239 47.4794C78.2631 47.1082 78.3327 46.6757 78.3327 46.1818C78.3327 45.688 78.2631 45.2588 78.1239 44.8942C77.988 44.5296 77.7859 44.2462 77.5174 44.044C77.2522 43.8419 76.9258 43.7408 76.538 43.7408C76.137 43.7408 75.8022 43.8452 75.5337 44.054C75.2653 44.2628 75.0631 44.5511 74.9272 44.919C74.7913 45.2869 74.7234 45.7079 74.7234 46.1818C74.7234 46.6591 74.7913 47.085 74.9272 47.4595C75.0664 47.8307 75.2702 48.1241 75.5387 48.3395C75.8105 48.5516 76.1436 48.6577 76.538 48.6577Z" fill="white"/>
<g opacity="0.1">
<rect x="90" y="39" width="1" height="12" rx="0.5" fill="white"/>
</g>
<path d="M102.972 49.1193C102.554 49.1165 102.146 49.044 101.749 48.902C101.351 48.7571 100.993 48.5227 100.675 48.1989C100.357 47.8722 100.104 47.4389 99.9162 46.8991C99.7287 46.3565 99.6364 45.6847 99.6392 44.8835C99.6392 44.1364 99.7188 43.4702 99.8778 42.8849C100.037 42.2997 100.266 41.8054 100.564 41.402C100.862 40.9957 101.222 40.6861 101.642 40.473C102.065 40.2599 102.538 40.1534 103.061 40.1534C103.609 40.1534 104.095 40.2614 104.518 40.4773C104.945 40.6932 105.288 40.9886 105.55 41.3636C105.811 41.7358 105.973 42.1562 106.036 42.625H104.48C104.401 42.2898 104.237 42.0227 103.99 41.8239C103.746 41.6222 103.436 41.5213 103.061 41.5213C102.456 41.5213 101.99 41.7841 101.663 42.3097C101.339 42.8352 101.176 43.5568 101.173 44.4744H101.233C101.372 44.2244 101.553 44.0099 101.774 43.831C101.996 43.652 102.246 43.5142 102.524 43.4176C102.805 43.3182 103.102 43.2685 103.415 43.2685C103.926 43.2685 104.385 43.3906 104.791 43.6349C105.2 43.8793 105.524 44.2159 105.763 44.6449C106.001 45.071 106.119 45.5597 106.116 46.1108C106.119 46.6847 105.989 47.2003 105.724 47.6577C105.46 48.1122 105.092 48.4702 104.621 48.7315C104.149 48.9929 103.599 49.1222 102.972 49.1193ZM102.963 47.8409C103.273 47.8409 103.55 47.7656 103.794 47.6151C104.038 47.4645 104.232 47.2614 104.374 47.0057C104.516 46.75 104.585 46.4631 104.582 46.1449C104.585 45.8324 104.517 45.5497 104.378 45.2969C104.241 45.044 104.053 44.8437 103.811 44.696C103.57 44.5483 103.294 44.4744 102.984 44.4744C102.754 44.4744 102.54 44.5185 102.341 44.6065C102.142 44.6946 101.969 44.8168 101.821 44.973C101.673 45.1264 101.557 45.3054 101.472 45.5099C101.389 45.7116 101.347 45.9276 101.344 46.1577C101.347 46.4616 101.418 46.7415 101.557 46.9972C101.696 47.2528 101.888 47.4574 102.132 47.6108C102.376 47.7642 102.653 47.8409 102.963 47.8409ZM109.01 47.8068L108.955 48.2756C108.915 48.6335 108.844 48.9972 108.741 49.3665C108.642 49.7386 108.537 50.081 108.426 50.3935C108.315 50.706 108.226 50.9517 108.158 51.1307H107.118C107.158 50.9574 107.212 50.7216 107.28 50.4233C107.351 50.125 107.419 49.7898 107.484 49.4176C107.55 49.0455 107.594 48.6676 107.616 48.2841L107.646 47.8068H109.01ZM110.563 47.3807V46.1236L114.266 40.2727H115.315V42.0625H114.675L112.183 46.0128V46.081H117.352V47.3807H110.563ZM114.727 49V46.9972L114.744 46.4347V40.2727H116.235V49H114.727ZM121.939 49.1662C121.237 49.1662 120.635 48.9886 120.132 48.6335C119.632 48.2756 119.247 47.7599 118.977 47.0866C118.71 46.4105 118.577 45.5966 118.577 44.6449C118.58 43.6932 118.714 42.8835 118.982 42.2159C119.251 41.5455 119.636 41.0341 120.136 40.6818C120.639 40.3295 121.24 40.1534 121.939 40.1534C122.638 40.1534 123.239 40.3295 123.741 40.6818C124.244 41.0341 124.629 41.5455 124.896 42.2159C125.166 42.8864 125.301 43.696 125.301 44.6449C125.301 45.5994 125.166 46.4148 124.896 47.0909C124.629 47.7642 124.244 48.2784 123.741 48.6335C123.241 48.9886 122.641 49.1662 121.939 49.1662ZM121.939 47.8324C122.484 47.8324 122.915 47.5639 123.23 47.027C123.548 46.4872 123.707 45.6932 123.707 44.6449C123.707 43.9517 123.635 43.3693 123.49 42.8977C123.345 42.4261 123.141 42.071 122.876 41.8324C122.612 41.5909 122.3 41.4702 121.939 41.4702C121.396 41.4702 120.967 41.7401 120.652 42.2798C120.337 42.8168 120.178 43.6051 120.175 44.6449C120.172 45.3409 120.241 45.9261 120.384 46.4006C120.528 46.875 120.733 47.233 120.997 47.4744C121.261 47.7131 121.575 47.8324 121.939 47.8324ZM129.943 49.1662C129.241 49.1662 128.639 48.9886 128.136 48.6335C127.636 48.2756 127.251 47.7599 126.981 47.0866C126.714 46.4105 126.581 45.5966 126.581 44.6449C126.583 43.6932 126.718 42.8835 126.985 42.2159C127.255 41.5455 127.64 41.0341 128.14 40.6818C128.643 40.3295 129.244 40.1534 129.943 40.1534C130.642 40.1534 131.243 40.3295 131.745 40.6818C132.248 41.0341 132.633 41.5455 132.9 42.2159C133.17 42.8864 133.305 43.696 133.305 44.6449C133.305 45.5994 133.17 46.4148 132.9 47.0909C132.633 47.7642 132.248 48.2784 131.745 48.6335C131.245 48.9886 130.645 49.1662 129.943 49.1662ZM129.943 47.8324C130.488 47.8324 130.919 47.5639 131.234 47.027C131.552 46.4872 131.711 45.6932 131.711 44.6449C131.711 43.9517 131.639 43.3693 131.494 42.8977C131.349 42.4261 131.145 42.071 130.88 41.8324C130.616 41.5909 130.304 41.4702 129.943 41.4702C129.4 41.4702 128.971 41.7401 128.656 42.2798C128.341 42.8168 128.181 43.6051 128.179 44.6449C128.176 45.3409 128.245 45.9261 128.387 46.4006C128.532 46.875 128.737 47.233 129.001 47.4744C129.265 47.7131 129.579 47.8324 129.943 47.8324ZM137.533 50.0909V39.1818H138.232V50.0909H137.533ZM139.549 42.6719C139.509 42.2997 139.342 42.0099 139.046 41.8026C138.754 41.5952 138.373 41.4915 137.904 41.4915C137.575 41.4915 137.292 41.5412 137.056 41.6406C136.82 41.7401 136.64 41.875 136.515 42.0455C136.39 42.2159 136.326 42.4105 136.323 42.6293C136.323 42.8111 136.364 42.9687 136.447 43.1023C136.532 43.2358 136.647 43.3494 136.792 43.4432C136.937 43.5341 137.097 43.6108 137.273 43.6733C137.45 43.7358 137.627 43.7884 137.806 43.831L138.624 44.0355C138.954 44.1122 139.271 44.2159 139.575 44.3466C139.881 44.4773 140.156 44.642 140.397 44.8409C140.641 45.0398 140.835 45.2798 140.977 45.5611C141.119 45.8423 141.19 46.1719 141.19 46.5497C141.19 47.0611 141.059 47.5114 140.798 47.9006C140.536 48.2869 140.158 48.5895 139.664 48.8082C139.173 49.0241 138.577 49.1321 137.879 49.1321C137.2 49.1321 136.61 49.027 136.11 48.8168C135.613 48.6065 135.224 48.2997 134.942 47.8963C134.664 47.4929 134.513 47.0014 134.491 46.4219H136.046C136.069 46.7259 136.163 46.9787 136.327 47.1804C136.492 47.3821 136.707 47.5327 136.971 47.6321C137.238 47.7315 137.536 47.7812 137.866 47.7812C138.21 47.7812 138.511 47.7301 138.769 47.6278C139.031 47.5227 139.235 47.3778 139.383 47.1932C139.531 47.0057 139.606 46.7869 139.609 46.5369C139.606 46.3097 139.539 46.1222 139.408 45.9744C139.278 45.8239 139.094 45.6989 138.859 45.5994C138.626 45.4972 138.353 45.4062 138.04 45.3267L137.048 45.071C136.329 44.8864 135.761 44.6065 135.343 44.2315C134.928 43.8537 134.721 43.3523 134.721 42.7273C134.721 42.2131 134.86 41.7628 135.138 41.3764C135.42 40.9901 135.802 40.6903 136.285 40.4773C136.768 40.2614 137.315 40.1534 137.925 40.1534C138.545 40.1534 139.087 40.2614 139.553 40.4773C140.022 40.6903 140.39 40.9872 140.657 41.3679C140.924 41.7457 141.062 42.1804 141.07 42.6719H139.549Z" fill="white"/>
<path opacity="0.7" d="M149.477 47.4659V41.8409H150.432V47.4659H149.477ZM147.142 45.1307V44.1761H152.767V45.1307H147.142ZM157.882 40.2727V49H156.825V41.3807H156.774L154.643 42.7955V41.7216L156.825 40.2727H157.882ZM160.392 49V48.233L163.272 45.0795C163.61 44.7102 163.889 44.3892 164.108 44.1165C164.326 43.8409 164.488 43.5824 164.593 43.3409C164.701 43.0966 164.755 42.8409 164.755 42.5739C164.755 42.267 164.681 42.0014 164.534 41.777C164.389 41.5526 164.19 41.3793 163.937 41.2571C163.684 41.1349 163.4 41.0739 163.085 41.0739C162.75 41.0739 162.457 41.1435 162.207 41.2827C161.96 41.419 161.768 41.6108 161.632 41.858C161.498 42.1051 161.431 42.3949 161.431 42.7273H160.426C160.426 42.2159 160.544 41.767 160.779 41.3807C161.015 40.9943 161.336 40.6932 161.743 40.4773C162.152 40.2614 162.61 40.1534 163.119 40.1534C163.63 40.1534 164.083 40.2614 164.478 40.4773C164.873 40.6932 165.183 40.9844 165.407 41.3509C165.632 41.7173 165.744 42.125 165.744 42.5739C165.744 42.8949 165.686 43.2088 165.569 43.5156C165.456 43.8196 165.257 44.1591 164.973 44.5341C164.691 44.9062 164.301 45.3608 163.801 45.8977L161.841 47.9943V48.0625H165.897V49H160.392ZM172.106 47.3636V46.9034C172.106 46.5852 172.172 46.294 172.302 46.0298C172.436 45.7628 172.629 45.5497 172.882 45.3906C173.137 45.2287 173.447 45.1477 173.811 45.1477C174.18 45.1477 174.49 45.2287 174.74 45.3906C174.99 45.5497 175.179 45.7628 175.306 46.0298C175.434 46.294 175.498 46.5852 175.498 46.9034V47.3636C175.498 47.6818 175.433 47.9744 175.302 48.2415C175.174 48.5057 174.984 48.7187 174.731 48.8807C174.481 49.0398 174.174 49.1193 173.811 49.1193C173.441 49.1193 173.13 49.0398 172.877 48.8807C172.625 48.7187 172.433 48.5057 172.302 48.2415C172.172 47.9744 172.106 47.6818 172.106 47.3636ZM172.975 46.9034V47.3636C172.975 47.6278 173.038 47.8651 173.163 48.0753C173.288 48.2827 173.504 48.3864 173.811 48.3864C174.109 48.3864 174.319 48.2827 174.441 48.0753C174.566 47.8651 174.629 47.6278 174.629 47.3636V46.9034C174.629 46.6392 174.569 46.4034 174.45 46.196C174.331 45.9858 174.118 45.8807 173.811 45.8807C173.512 45.8807 173.298 45.9858 173.167 46.196C173.039 46.4034 172.975 46.6392 172.975 46.9034ZM167.76 42.3693V41.9091C167.76 41.5909 167.825 41.2997 167.956 41.0355C168.089 40.7685 168.282 40.5554 168.535 40.3963C168.791 40.2344 169.1 40.1534 169.464 40.1534C169.833 40.1534 170.143 40.2344 170.393 40.3963C170.643 40.5554 170.832 40.7685 170.96 41.0355C171.088 41.2997 171.152 41.5909 171.152 41.9091V42.3693C171.152 42.6875 171.086 42.9801 170.956 43.2472C170.828 43.5114 170.637 43.7244 170.385 43.8864C170.135 44.0455 169.828 44.125 169.464 44.125C169.095 44.125 168.784 44.0455 168.531 43.8864C168.278 43.7244 168.086 43.5114 167.956 43.2472C167.825 42.9801 167.76 42.6875 167.76 42.3693ZM168.629 41.9091V42.3693C168.629 42.6335 168.691 42.8707 168.816 43.081C168.941 43.2884 169.157 43.392 169.464 43.392C169.762 43.392 169.973 43.2884 170.095 43.081C170.22 42.8707 170.282 42.6335 170.282 42.3693V41.9091C170.282 41.6449 170.223 41.4091 170.103 41.2017C169.984 40.9915 169.771 40.8864 169.464 40.8864C169.166 40.8864 168.951 40.9915 168.821 41.2017C168.693 41.4091 168.629 41.6449 168.629 41.9091ZM168.083 49L174.083 40.2727H175.055L169.055 49H168.083Z" fill="#24FF54"/>
<path d="M31.0341 22V20.4773L35.0739 16.517C35.4602 16.1269 35.7822 15.7803 36.0398 15.4773C36.2973 15.1742 36.4905 14.8807 36.6193 14.5966C36.7481 14.3125 36.8125 14.0095 36.8125 13.6875C36.8125 13.3201 36.7292 13.0057 36.5625 12.7443C36.3958 12.4792 36.1667 12.2746 35.875 12.1307C35.5833 11.9867 35.2519 11.9148 34.8807 11.9148C34.4981 11.9148 34.1629 11.9943 33.875 12.1534C33.5871 12.3087 33.3636 12.5303 33.2045 12.8182C33.0492 13.1061 32.9716 13.4489 32.9716 13.8466H30.9659C30.9659 13.108 31.1345 12.4659 31.4716 11.9205C31.8087 11.375 32.2727 10.9527 32.8636 10.6534C33.4583 10.3542 34.1402 10.2045 34.9091 10.2045C35.6894 10.2045 36.375 10.3504 36.9659 10.642C37.5568 10.9337 38.0152 11.3333 38.3409 11.8409C38.6705 12.3485 38.8352 12.928 38.8352 13.5795C38.8352 14.0152 38.7519 14.4432 38.5852 14.8636C38.4186 15.2841 38.125 15.75 37.7045 16.2614C37.2879 16.7727 36.7027 17.392 35.9489 18.1193L33.9432 20.1591V20.2386H39.0114V22H31.0341ZM45.2727 22.2216C44.3371 22.2216 43.5341 21.9848 42.8636 21.5114C42.197 21.0341 41.6837 20.3466 41.3239 19.4489C40.9678 18.5473 40.7898 17.4621 40.7898 16.1932C40.7936 14.9242 40.9735 13.8447 41.3295 12.9545C41.6894 12.0606 42.2027 11.3788 42.8693 10.9091C43.5398 10.4394 44.3409 10.2045 45.2727 10.2045C46.2045 10.2045 47.0057 10.4394 47.6761 10.9091C48.3466 11.3788 48.8598 12.0606 49.2159 12.9545C49.5758 13.8485 49.7557 14.928 49.7557 16.1932C49.7557 17.4659 49.5758 18.553 49.2159 19.4545C48.8598 20.3523 48.3466 21.0379 47.6761 21.5114C47.0095 21.9848 46.2083 22.2216 45.2727 22.2216ZM45.2727 20.4432C46 20.4432 46.5739 20.0852 46.9943 19.3693C47.4186 18.6496 47.6307 17.5909 47.6307 16.1932C47.6307 15.2689 47.5341 14.4924 47.3409 13.8636C47.1477 13.2348 46.875 12.7614 46.5227 12.4432C46.1705 12.1212 45.7538 11.9602 45.2727 11.9602C44.5492 11.9602 43.9773 12.3201 43.5568 13.0398C43.1364 13.7557 42.9242 14.8068 42.9205 16.1932C42.9167 17.1212 43.0095 17.9015 43.1989 18.5341C43.392 19.1667 43.6648 19.6439 44.017 19.9659C44.3693 20.2841 44.7879 20.4432 45.2727 20.4432ZM55.9446 22.2216C55.009 22.2216 54.206 21.9848 53.5355 21.5114C52.8688 21.0341 52.3556 20.3466 51.9957 19.4489C51.6397 18.5473 51.4616 17.4621 51.4616 16.1932C51.4654 14.9242 51.6454 13.8447 52.0014 12.9545C52.3613 12.0606 52.8745 11.3788 53.5412 10.9091C54.2116 10.4394 55.0128 10.2045 55.9446 10.2045C56.8764 10.2045 57.6776 10.4394 58.348 10.9091C59.0185 11.3788 59.5317 12.0606 59.8878 12.9545C60.2476 13.8485 60.4276 14.928 60.4276 16.1932C60.4276 17.4659 60.2476 18.553 59.8878 19.4545C59.5317 20.3523 59.0185 21.0379 58.348 21.5114C57.6813 21.9848 56.8802 22.2216 55.9446 22.2216ZM55.9446 20.4432C56.6719 20.4432 57.2457 20.0852 57.6662 19.3693C58.0904 18.6496 58.3026 17.5909 58.3026 16.1932C58.3026 15.2689 58.206 14.4924 58.0128 13.8636C57.8196 13.2348 57.5469 12.7614 57.1946 12.4432C56.8423 12.1212 56.4257 11.9602 55.9446 11.9602C55.2211 11.9602 54.6491 12.3201 54.2287 13.0398C53.8082 13.7557 53.5961 14.8068 53.5923 16.1932C53.5885 17.1212 53.6813 17.9015 53.8707 18.5341C54.0639 19.1667 54.3366 19.6439 54.6889 19.9659C55.0412 20.2841 55.4598 20.4432 55.9446 20.4432ZM66.3608 22.1591C65.6032 22.1591 64.9252 22.017 64.3267 21.733C63.7282 21.4451 63.2528 21.0511 62.9006 20.5511C62.5521 20.0511 62.3665 19.4792 62.3438 18.8352H64.3892C64.4271 19.3125 64.6335 19.7027 65.0085 20.0057C65.3835 20.3049 65.8343 20.4545 66.3608 20.4545C66.7737 20.4545 67.1411 20.3598 67.4631 20.1705C67.785 19.9811 68.0388 19.7178 68.2244 19.3807C68.41 19.0436 68.5009 18.6591 68.4972 18.2273C68.5009 17.7879 68.4081 17.3977 68.2188 17.0568C68.0294 16.7159 67.7699 16.4489 67.4403 16.2557C67.1108 16.0587 66.732 15.9602 66.304 15.9602C65.9555 15.9564 65.6127 16.0208 65.2756 16.1534C64.9384 16.286 64.6714 16.4602 64.4744 16.6761L62.571 16.3636L63.179 10.3636H69.929V12.125H64.9233L64.5881 15.2102H64.6562C64.8722 14.9564 65.1771 14.7462 65.571 14.5795C65.965 14.4091 66.3968 14.3239 66.8665 14.3239C67.571 14.3239 68.1998 14.4905 68.7528 14.8239C69.3059 15.1534 69.7415 15.608 70.0597 16.1875C70.3778 16.767 70.5369 17.4299 70.5369 18.1761C70.5369 18.9451 70.3589 19.6307 70.0028 20.233C69.6506 20.8314 69.16 21.303 68.5312 21.6477C67.9062 21.9886 67.1828 22.1591 66.3608 22.1591Z" fill="white"/>
<rect width="44" height="22" transform="translate(30 125)" fill="#0175FF"/>
<path d="M40.6676 140L38.2472 131.273H39.6321L41.3324 138.031H41.4134L43.1818 131.273H44.554L46.3224 138.036H46.4034L48.0994 131.273H49.4886L47.0639 140H45.7386L43.902 133.463H43.8338L41.9972 140H40.6676ZM49.947 140V133.455H51.2212V140H49.947ZM50.5905 132.445C50.3689 132.445 50.1785 132.371 50.0194 132.223C49.8632 132.072 49.7851 131.893 49.7851 131.686C49.7851 131.476 49.8632 131.297 50.0194 131.149C50.1785 130.999 50.3689 130.923 50.5905 130.923C50.8121 130.923 51.001 130.999 51.1572 131.149C51.3163 131.297 51.3959 131.476 51.3959 131.686C51.3959 131.893 51.3163 132.072 51.1572 132.223C51.001 132.371 50.8121 132.445 50.5905 132.445ZM53.5694 136.114V140H52.2953V133.455H53.5183V134.52H53.5993C53.7498 134.173 53.9856 133.895 54.3066 133.685C54.6305 133.474 55.0382 133.369 55.5297 133.369C55.9757 133.369 56.3663 133.463 56.7015 133.651C57.0368 133.835 57.2967 134.111 57.4814 134.477C57.666 134.844 57.7584 135.297 57.7584 135.837V140H56.4842V135.99C56.4842 135.516 56.3606 135.145 56.1135 134.878C55.8663 134.608 55.5268 134.473 55.095 134.473C54.7995 134.473 54.5368 134.537 54.3066 134.665C54.0794 134.793 53.899 134.98 53.7655 135.227C53.6348 135.472 53.5694 135.767 53.5694 136.114ZM61.2774 140.128C60.749 140.128 60.2774 139.993 59.8627 139.723C59.4507 139.45 59.1269 139.062 58.8911 138.56C58.6581 138.054 58.5416 137.447 58.5416 136.74C58.5416 136.033 58.6595 135.428 58.8953 134.925C59.134 134.422 59.4607 134.037 59.8755 133.77C60.2902 133.503 60.7604 133.369 61.286 133.369C61.6922 133.369 62.0189 133.438 62.2661 133.574C62.5161 133.707 62.7093 133.864 62.8456 134.043C62.9848 134.222 63.0928 134.379 63.1695 134.516H63.2462V131.273H64.5203V140H63.276V138.982H63.1695C63.0928 139.121 62.982 139.28 62.8371 139.459C62.6951 139.638 62.499 139.794 62.249 139.928C61.999 140.061 61.6752 140.128 61.2774 140.128ZM61.5587 139.041C61.9252 139.041 62.2348 138.945 62.4877 138.751C62.7434 138.555 62.9365 138.284 63.0672 137.938C63.2007 137.591 63.2675 137.187 63.2675 136.727C63.2675 136.273 63.2022 135.875 63.0715 135.534C62.9408 135.193 62.749 134.928 62.4962 134.737C62.2434 134.547 61.9309 134.452 61.5587 134.452C61.1752 134.452 60.8556 134.551 60.5999 134.75C60.3442 134.949 60.151 135.22 60.0203 135.564C59.8925 135.908 59.8286 136.295 59.8286 136.727C59.8286 137.165 59.8939 137.558 60.0246 137.908C60.1553 138.257 60.3485 138.534 60.6041 138.739C60.8627 138.94 61.1809 139.041 61.5587 139.041Z" fill="white"/>
<rect width="44" height="22" transform="translate(30 171)" fill="#2FD6FA"/>
<path d="M46.3651 180.03C46.2827 179.771 46.1719 179.54 46.0327 179.335C45.8963 179.128 45.733 178.952 45.5426 178.807C45.3523 178.659 45.1349 178.547 44.8906 178.47C44.6491 178.393 44.3835 178.355 44.0938 178.355C43.6023 178.355 43.1591 178.482 42.7642 178.734C42.3693 178.987 42.0568 179.358 41.8267 179.847C41.5994 180.332 41.4858 180.928 41.4858 181.632C41.4858 182.339 41.6009 182.937 41.831 183.426C42.0611 183.915 42.3764 184.286 42.777 184.538C43.1776 184.791 43.6335 184.918 44.1449 184.918C44.6193 184.918 45.0327 184.821 45.3849 184.628C45.7401 184.435 46.0142 184.162 46.2074 183.81C46.4034 183.455 46.5014 183.037 46.5014 182.557L46.8423 182.621H44.3452V181.534H47.7756V182.527C47.7756 183.26 47.6193 183.896 47.3068 184.436C46.9972 184.973 46.5682 185.388 46.0199 185.68C45.4744 185.973 44.8494 186.119 44.1449 186.119C43.3551 186.119 42.6619 185.938 42.0653 185.574C41.4716 185.21 41.0085 184.695 40.6761 184.027C40.3438 183.357 40.1776 182.561 40.1776 181.641C40.1776 180.945 40.2741 180.32 40.4673 179.766C40.6605 179.212 40.9318 178.741 41.2812 178.355C41.6335 177.966 42.0469 177.669 42.5213 177.464C42.9986 177.257 43.5199 177.153 44.0852 177.153C44.5568 177.153 44.9957 177.223 45.402 177.362C45.8111 177.501 46.1747 177.699 46.4929 177.955C46.8139 178.21 47.0795 178.514 47.2898 178.866C47.5 179.216 47.642 179.604 47.7159 180.03H46.3651ZM51.4619 186.132C50.8483 186.132 50.3128 185.991 49.8554 185.71C49.398 185.429 49.0429 185.036 48.79 184.53C48.5372 184.024 48.4108 183.433 48.4108 182.757C48.4108 182.078 48.5372 181.484 48.79 180.976C49.0429 180.467 49.398 180.072 49.8554 179.791C50.3128 179.51 50.8483 179.369 51.4619 179.369C52.0756 179.369 52.6111 179.51 53.0685 179.791C53.5258 180.072 53.881 180.467 54.1338 180.976C54.3866 181.484 54.5131 182.078 54.5131 182.757C54.5131 183.433 54.3866 184.024 54.1338 184.53C53.881 185.036 53.5258 185.429 53.0685 185.71C52.6111 185.991 52.0756 186.132 51.4619 186.132ZM51.4662 185.062C51.8639 185.062 52.1935 184.957 52.4548 184.747C52.7162 184.537 52.9094 184.257 53.0344 183.908C53.1622 183.558 53.2261 183.173 53.2261 182.753C53.2261 182.335 53.1622 181.952 53.0344 181.602C52.9094 181.25 52.7162 180.967 52.4548 180.754C52.1935 180.541 51.8639 180.435 51.4662 180.435C51.0656 180.435 50.7332 180.541 50.469 180.754C50.2077 180.967 50.0131 181.25 49.8852 181.602C49.7602 181.952 49.6977 182.335 49.6977 182.753C49.6977 183.173 49.7602 183.558 49.8852 183.908C50.0131 184.257 50.2077 184.537 50.469 184.747C50.7332 184.957 51.0656 185.062 51.4662 185.062ZM57.2001 186.145C56.7853 186.145 56.4103 186.068 56.0751 185.915C55.7399 185.759 55.4743 185.533 55.2782 185.237C55.0851 184.942 54.9885 184.58 54.9885 184.151C54.9885 183.781 55.0595 183.477 55.2015 183.239C55.3436 183 55.5353 182.811 55.7768 182.672C56.0183 182.533 56.2882 182.428 56.5865 182.357C56.8848 182.286 57.1888 182.232 57.4984 182.195C57.8905 182.149 58.2086 182.112 58.453 182.084C58.6973 182.053 58.8748 182.003 58.9856 181.935C59.0964 181.866 59.1518 181.756 59.1518 181.602V181.572C59.1518 181.2 59.0467 180.912 58.8365 180.707C58.6291 180.503 58.3194 180.401 57.9075 180.401C57.4785 180.401 57.1405 180.496 56.8933 180.686C56.649 180.874 56.4799 181.082 56.3862 181.312L55.1888 181.04C55.3308 180.642 55.5382 180.321 55.8109 180.077C56.0865 179.83 56.4032 179.651 56.7612 179.54C57.1191 179.426 57.4956 179.369 57.8905 179.369C58.1518 179.369 58.4288 179.401 58.7214 179.463C59.0169 179.523 59.2924 179.634 59.5481 179.795C59.8066 179.957 60.0183 180.189 60.1831 180.49C60.3478 180.788 60.4302 181.176 60.4302 181.653V186H59.1859V185.105H59.1348C59.0524 185.27 58.9288 185.432 58.764 185.591C58.5993 185.75 58.3876 185.882 58.1291 185.987C57.8706 186.092 57.5609 186.145 57.2001 186.145ZM57.4771 185.122C57.8294 185.122 58.1305 185.053 58.3805 184.913C58.6334 184.774 58.8251 184.592 58.9558 184.368C59.0893 184.141 59.1561 183.898 59.1561 183.639V182.795C59.1106 182.841 59.0226 182.884 58.8919 182.923C58.764 182.96 58.6177 182.993 58.453 183.021C58.2882 183.047 58.1277 183.071 57.9714 183.094C57.8152 183.114 57.6845 183.131 57.5794 183.145C57.3322 183.176 57.1064 183.229 56.9018 183.303C56.7001 183.376 56.5382 183.483 56.416 183.622C56.2967 183.759 56.237 183.94 56.237 184.168C56.237 184.483 56.3535 184.722 56.5865 184.884C56.8194 185.043 57.1163 185.122 57.4771 185.122ZM62.7615 177.273V186H61.4873V177.273H62.7615Z" fill="white"/>
<rect width="44" height="22" transform="translate(30 266)" fill="#6C8180"/>
<path d="M44.2188 274.565C44.1733 274.162 43.9858 273.849 43.6562 273.628C43.3267 273.403 42.9119 273.291 42.4119 273.291C42.054 273.291 41.7443 273.348 41.483 273.462C41.2216 273.572 41.0185 273.726 40.8736 273.922C40.7315 274.115 40.6605 274.335 40.6605 274.582C40.6605 274.79 40.7088 274.969 40.8054 275.119C40.9048 275.27 41.0341 275.396 41.1932 275.499C41.3551 275.598 41.5284 275.682 41.7131 275.75C41.8977 275.815 42.0753 275.869 42.2457 275.912L43.098 276.134C43.3764 276.202 43.6619 276.294 43.9545 276.411C44.2472 276.527 44.5185 276.68 44.7685 276.871C45.0185 277.061 45.2202 277.297 45.3736 277.578C45.5298 277.859 45.608 278.196 45.608 278.588C45.608 279.082 45.4801 279.521 45.2244 279.905C44.9716 280.288 44.6037 280.591 44.1207 280.812C43.6406 281.034 43.0597 281.145 42.3778 281.145C41.7244 281.145 41.1591 281.041 40.6818 280.834C40.2045 280.626 39.831 280.332 39.5611 279.952C39.2912 279.568 39.142 279.114 39.1136 278.588H40.4347C40.4602 278.903 40.5625 279.166 40.7415 279.376C40.9233 279.584 41.1548 279.739 41.4361 279.841C41.7202 279.94 42.0312 279.99 42.3693 279.99C42.7415 279.99 43.0724 279.932 43.3622 279.815C43.6548 279.696 43.8849 279.531 44.0526 279.321C44.2202 279.108 44.304 278.859 44.304 278.575C44.304 278.317 44.2301 278.105 44.0824 277.94C43.9375 277.776 43.7401 277.639 43.4901 277.531C43.2429 277.423 42.9631 277.328 42.6506 277.246L41.6193 276.964C40.9205 276.774 40.3665 276.494 39.9574 276.125C39.5511 275.756 39.348 275.267 39.348 274.659C39.348 274.156 39.4844 273.717 39.7571 273.342C40.0298 272.967 40.3991 272.676 40.8651 272.469C41.331 272.259 41.8565 272.153 42.4418 272.153C43.0327 272.153 43.554 272.257 44.0057 272.464C44.4602 272.672 44.8182 272.957 45.0795 273.321C45.3409 273.682 45.4773 274.097 45.4886 274.565H44.2188ZM49.1963 281.132C48.5827 281.132 48.0471 280.991 47.5898 280.71C47.1324 280.429 46.7773 280.036 46.5244 279.53C46.2716 279.024 46.1452 278.433 46.1452 277.757C46.1452 277.078 46.2716 276.484 46.5244 275.976C46.7773 275.467 47.1324 275.072 47.5898 274.791C48.0471 274.51 48.5827 274.369 49.1963 274.369C49.8099 274.369 50.3454 274.51 50.8028 274.791C51.2602 275.072 51.6153 275.467 51.8682 275.976C52.121 276.484 52.2474 277.078 52.2474 277.757C52.2474 278.433 52.121 279.024 51.8682 279.53C51.6153 280.036 51.2602 280.429 50.8028 280.71C50.3454 280.991 49.8099 281.132 49.1963 281.132ZM49.2006 280.062C49.5983 280.062 49.9278 279.957 50.1892 279.747C50.4506 279.537 50.6437 279.257 50.7687 278.908C50.8966 278.558 50.9605 278.173 50.9605 277.753C50.9605 277.335 50.8966 276.952 50.7687 276.602C50.6437 276.25 50.4506 275.967 50.1892 275.754C49.9278 275.541 49.5983 275.435 49.2006 275.435C48.8 275.435 48.4676 275.541 48.2034 275.754C47.942 275.967 47.7474 276.25 47.6196 276.602C47.4946 276.952 47.4321 277.335 47.4321 277.753C47.4321 278.173 47.4946 278.558 47.6196 278.908C47.7474 279.257 47.942 279.537 48.2034 279.747C48.4676 279.957 48.8 280.062 49.2006 280.062ZM54.3038 272.273V281H53.0297V272.273H54.3038ZM57.2828 281.145C56.868 281.145 56.493 281.068 56.1578 280.915C55.8225 280.759 55.5569 280.533 55.3609 280.237C55.1677 279.942 55.0711 279.58 55.0711 279.151C55.0711 278.781 55.1421 278.477 55.2842 278.239C55.4262 278 55.618 277.811 55.8595 277.672C56.101 277.533 56.3708 277.428 56.6691 277.357C56.9674 277.286 57.2714 277.232 57.5811 277.195C57.9731 277.149 58.2913 277.112 58.5356 277.084C58.7799 277.053 58.9575 277.003 59.0683 276.935C59.1791 276.866 59.2345 276.756 59.2345 276.602V276.572C59.2345 276.2 59.1294 275.912 58.9191 275.707C58.7117 275.503 58.4021 275.401 57.9902 275.401C57.5612 275.401 57.2231 275.496 56.976 275.686C56.7316 275.874 56.5626 276.082 56.4688 276.312L55.2714 276.04C55.4135 275.642 55.6208 275.321 55.8936 275.077C56.1691 274.83 56.4859 274.651 56.8438 274.54C57.2018 274.426 57.5782 274.369 57.9731 274.369C58.2345 274.369 58.5115 274.401 58.8041 274.463C59.0995 274.523 59.3751 274.634 59.6308 274.795C59.8893 274.957 60.101 275.189 60.2657 275.49C60.4305 275.788 60.5129 276.176 60.5129 276.653V281H59.2686V280.105H59.2174C59.135 280.27 59.0115 280.432 58.8467 280.591C58.6819 280.75 58.4703 280.882 58.2117 280.987C57.9532 281.092 57.6436 281.145 57.2828 281.145ZM57.5598 280.122C57.912 280.122 58.2132 280.053 58.4632 279.913C58.716 279.774 58.9078 279.592 59.0385 279.368C59.172 279.141 59.2387 278.898 59.2387 278.639V277.795C59.1933 277.841 59.1052 277.884 58.9745 277.923C58.8467 277.96 58.7004 277.993 58.5356 278.021C58.3708 278.047 58.2103 278.071 58.0541 278.094C57.8978 278.114 57.7671 278.131 57.662 278.145C57.4149 278.176 57.189 278.229 56.9845 278.303C56.7828 278.376 56.6208 278.483 56.4987 278.622C56.3794 278.759 56.3197 278.94 56.3197 279.168C56.3197 279.483 56.4362 279.722 56.6691 279.884C56.9021 280.043 57.199 280.122 57.5598 280.122ZM61.57 281V274.455H62.8015V275.494H62.8697C62.989 275.142 63.1992 274.865 63.5004 274.663C63.8043 274.459 64.1481 274.357 64.5316 274.357C64.6112 274.357 64.7049 274.359 64.8129 274.365C64.9237 274.371 65.0103 274.378 65.0728 274.386V275.605C65.0217 275.591 64.9308 275.575 64.8001 275.558C64.6694 275.538 64.5387 275.528 64.408 275.528C64.1069 275.528 63.8384 275.592 63.6026 275.72C63.3697 275.845 63.185 276.02 63.0487 276.244C62.9123 276.466 62.8441 276.719 62.8441 277.003V281H61.57Z" fill="white"/>
</g>
<defs>
<linearGradient id="paint0_linear_10_18467" x1="361.143" y1="211.678" x2="361.143" y2="-22.3223" gradientUnits="userSpaceOnUse">
<stop stop-color="#6C8180" stop-opacity="0"/>
<stop offset="1" stop-color="#6C8180"/>
</linearGradient>
<linearGradient id="paint1_linear_10_18467" x1="361.143" y1="316.426" x2="361.143" y2="82.4258" gradientUnits="userSpaceOnUse">
<stop stop-color="#0075FF" stop-opacity="0"/>
<stop offset="1" stop-color="#0075FF"/>
</linearGradient>
<linearGradient id="paint2_linear_10_18467" x1="362" y1="66.9268" x2="362" y2="316.677" gradientUnits="userSpaceOnUse">
<stop stop-color="#2CD9FF" stop-opacity="0.36"/>
<stop offset="1" stop-color="#2CD9FF" stop-opacity="0"/>
</linearGradient>
<linearGradient id="paint3_linear_10_18467" x1="362" y1="66.9287" x2="362" y2="316.679" gradientUnits="userSpaceOnUse">
<stop stop-color="#2CD9FF" stop-opacity="0.36"/>
<stop offset="1" stop-color="#2CD9FF" stop-opacity="0"/>
</linearGradient>
<clipPath id="clip0_10_18467">
<rect width="375" height="307" fill="white"/>
</clipPath>
</defs>
</svg>
