<svg width="1440" height="551" viewBox="0 0 1440 551" fill="none" xmlns="http://www.w3.org/2000/svg">
<rect width="1440" height="1" transform="translate(0 550)" fill="#2D5551" fill-opacity="0.1"/>
<path d="M1444.5 550L1440.52 47.419C1440.51 45.6154 1439.52 43.9593 1437.95 43.0851L1363.65 1.91231C1362.59 1.32425 1361.35 1.14211 1360.16 1.39984L1295.07 15.5506C1293.75 15.8379 1292.6 16.6482 1291.88 17.7968L1261.97 65.9169C1260.23 68.7241 1256.29 69.0958 1254.05 66.6647L1228.87 39.3287C1226.38 36.6246 1221.92 37.4427 1220.55 40.8549L1186.85 124.892C1186.31 126.232 1185.22 127.274 1183.86 127.75L1158.95 136.469C1157.14 137.1 1155.14 136.649 1153.78 135.307L1118.86 100.804C1116.61 98.5808 1112.88 98.9799 1111.15 101.63L1087.74 137.529C1086.05 140.126 1082.42 140.572 1080.15 138.462L1060.33 120.054C1058.24 118.117 1054.96 118.31 1053.12 120.478L1025.16 153.341C1022.66 156.286 1017.9 155.394 1016.63 151.741L999.342 101.946C997.774 97.4295 991.37 97.4783 989.871 102.018L944.469 239.51C943.209 243.326 938.19 244.172 935.749 240.979L893.383 185.578C891.409 182.997 887.537 182.954 885.507 185.491L860.86 216.3C858.467 219.292 853.736 218.591 852.313 215.033L840.975 186.688C839.738 183.594 835.876 182.554 833.251 184.608L816.858 197.438C815.978 198.126 814.893 198.5 813.776 198.5H790.772C790.26 198.5 789.752 198.422 789.264 198.267L726.332 178.37C723.876 177.593 721.231 178.81 720.223 181.182L672.5 293.5L641.074 397.447C640.436 399.557 638.492 401 636.288 401H560.551C558.425 401 556.531 399.655 555.83 397.647L525.139 309.665C523.493 304.946 516.705 305.296 515.553 310.159L493.913 401.484C492.764 406.336 485.999 406.7 484.335 402L456.142 322.375C454.805 318.597 449.788 317.85 447.407 321.074L408.246 374.104C406.502 376.466 403.107 376.824 400.909 374.877L355.321 334.498C353.651 333.019 351.203 332.825 349.321 334.023L311.007 358.405C309.462 359.388 307.503 359.448 305.901 358.561L284.347 346.63C282.147 345.412 279.385 346.017 277.896 348.044L230.463 412.606C228.485 415.299 224.473 415.331 222.452 412.67L202.429 386.307C199.959 383.055 194.844 383.975 193.662 387.883L159.244 501.664C157.774 506.523 150.838 506.353 149.607 501.429L128.141 415.564C126.975 410.902 120.544 410.409 118.681 414.839L106.313 444.257C106.106 444.749 105.821 445.205 105.47 445.607L78.2679 476.758C76.4597 478.828 73.3191 479.051 71.237 477.256L65.2738 472.115C62.8342 470.012 59.0716 470.731 57.5786 473.585L47.3112 493.214C45.5737 496.535 40.9343 496.835 38.7846 493.764L33.8233 486.676C31.7714 483.745 27.3944 483.855 25.4922 486.885L0.765078 526.281C0.265174 527.078 0 527.999 0 528.939V550" stroke="#2D5551" stroke-opacity="0.4"/>
<path d="M25.4922 487.385L0.765078 526.781C0.265174 527.578 0 528.499 0 529.439V545.5C0 548.261 2.2386 550.5 5.00002 550.5H1439.45C1442.23 550.5 1444.48 548.231 1444.45 545.451L1439.53 46.4214C1439.51 44.6166 1438.52 42.9614 1436.94 42.0908L1362.19 0.929971C1361.1 0.331468 1359.83 0.158501 1358.62 0.444692L1294.97 15.5334C1293.71 15.8327 1292.61 16.6112 1291.91 17.7044L1261.05 65.9488C1259.27 68.7373 1255.32 69.0542 1253.11 66.5857L1229.3 39.9317C1226.84 37.1846 1222.36 37.9442 1220.95 41.3467L1185.85 125.953C1185.31 127.256 1184.24 128.271 1182.91 128.745L1160 136.929C1158.17 137.582 1156.13 137.116 1154.76 135.734L1119.72 100.268C1117.52 98.047 1113.85 98.3587 1112.06 100.918L1086.35 137.708C1084.59 140.225 1081 140.576 1078.79 138.448L1060.78 121.138C1058.72 119.158 1055.43 119.303 1053.55 121.456L1025.18 153.988C1022.65 156.886 1017.94 155.967 1016.68 152.332L999.337 102.027C997.776 97.4998 991.358 97.5449 989.861 102.093L944.464 239.997C943.206 243.816 938.185 244.665 935.743 241.471L893.383 186.078C891.409 183.497 887.537 183.454 885.507 185.991L860.86 216.8C858.467 219.792 853.736 219.09 852.313 215.533L840.975 187.188C839.737 184.094 835.876 183.054 833.251 185.108L816.858 197.938C815.978 198.626 814.893 199 813.776 199H790.806C790.272 199 789.742 198.915 789.235 198.747L726.354 177.941C723.891 177.126 721.214 178.33 720.189 180.713L671.5 294L641.053 397.906C640.429 400.036 638.475 401.5 636.255 401.5H560.551C558.425 401.5 556.531 400.155 555.83 398.147L525.139 310.165C523.493 305.446 516.705 305.796 515.553 310.659L493.913 401.984C492.764 406.836 485.999 407.2 484.335 402.5L456.142 322.875C454.805 319.097 449.788 318.35 447.407 321.574L408.246 374.604C406.502 376.966 403.107 377.324 400.909 375.377L355.321 334.998C353.651 333.519 351.203 333.325 349.321 334.523L311.007 358.905C309.462 359.888 307.503 359.948 305.901 359.061L284.347 347.13C282.147 345.912 279.385 346.517 277.896 348.544L230.463 413.106C228.485 415.799 224.473 415.831 222.452 413.17L202.429 386.807C199.959 383.555 194.844 384.475 193.662 388.383L159.244 502.164C157.774 507.023 150.838 506.853 149.607 501.929L128.141 416.064C126.975 411.402 120.544 410.909 118.681 415.339L106.313 444.757C106.106 445.249 105.821 445.705 105.47 446.107L78.2679 477.258C76.4597 479.328 73.3191 479.551 71.237 477.756L65.2738 472.615C62.8342 470.512 59.0716 471.231 57.5786 474.085L47.3112 493.714C45.5737 497.035 40.9343 497.335 38.7846 494.264L33.8233 487.176C31.7714 484.245 27.3944 484.355 25.4922 487.385Z" fill="url(#paint0_linear_6_18464)" fill-opacity="0.2"/>
<line x1="404.5" y1="376" x2="404.5" y2="551" stroke="#2D5551" stroke-dasharray="5 5"/>
<path d="M403.5 358L413 349L394 349L403.5 358Z" fill="#0C0C0C"/>
<rect width="143" height="70" transform="matrix(1 0 0 -1 332 349)" fill="#0C0C0C"/>
<path d="M348.58 324.21V323.273H355.125V324.21H352.381V332H351.324V324.21H348.58ZM357.625 328.062V332H356.62V323.273H357.625V326.477H357.711C357.864 326.139 358.094 325.871 358.401 325.672C358.711 325.47 359.123 325.369 359.637 325.369C360.083 325.369 360.473 325.459 360.809 325.638C361.144 325.814 361.404 326.085 361.588 326.452C361.776 326.815 361.87 327.278 361.87 327.841V332H360.864V327.909C360.864 327.389 360.729 326.987 360.459 326.703C360.192 326.416 359.821 326.273 359.347 326.273C359.017 326.273 358.722 326.342 358.461 326.482C358.202 326.621 357.998 326.824 357.847 327.091C357.699 327.358 357.625 327.682 357.625 328.062ZM366.454 332.136C365.823 332.136 365.279 331.997 364.822 331.719C364.367 331.438 364.016 331.045 363.769 330.543C363.525 330.037 363.403 329.449 363.403 328.778C363.403 328.108 363.525 327.517 363.769 327.006C364.016 326.491 364.36 326.091 364.8 325.804C365.244 325.514 365.761 325.369 366.352 325.369C366.692 325.369 367.029 325.426 367.362 325.54C367.694 325.653 367.996 325.838 368.269 326.094C368.542 326.347 368.759 326.682 368.921 327.099C369.083 327.517 369.164 328.031 369.164 328.642V329.068H364.119V328.199H368.141C368.141 327.83 368.067 327.5 367.92 327.21C367.775 326.92 367.567 326.692 367.298 326.524C367.031 326.357 366.715 326.273 366.352 326.273C365.951 326.273 365.604 326.372 365.312 326.571C365.022 326.767 364.799 327.023 364.643 327.338C364.487 327.653 364.408 327.991 364.408 328.352V328.932C364.408 329.426 364.494 329.845 364.664 330.189C364.837 330.53 365.077 330.79 365.384 330.969C365.691 331.145 366.048 331.233 366.454 331.233C366.718 331.233 366.957 331.196 367.17 331.122C367.386 331.045 367.572 330.932 367.728 330.781C367.884 330.628 368.005 330.437 368.09 330.21L369.062 330.483C368.96 330.812 368.788 331.102 368.546 331.352C368.305 331.599 368.006 331.793 367.651 331.932C367.296 332.068 366.897 332.136 366.454 332.136ZM374.069 334.455V325.455H375.04V326.494H375.16C375.234 326.381 375.336 326.236 375.467 326.06C375.6 325.881 375.79 325.722 376.038 325.582C376.288 325.44 376.626 325.369 377.052 325.369C377.603 325.369 378.089 325.507 378.509 325.783C378.93 326.058 379.258 326.449 379.494 326.955C379.729 327.46 379.847 328.057 379.847 328.744C379.847 329.438 379.729 330.038 379.494 330.547C379.258 331.053 378.931 331.445 378.513 331.723C378.096 331.999 377.614 332.136 377.069 332.136C376.648 332.136 376.312 332.067 376.059 331.928C375.806 331.786 375.612 331.625 375.475 331.446C375.339 331.264 375.234 331.114 375.16 330.994H375.075V334.455H374.069ZM375.058 328.727C375.058 329.222 375.13 329.658 375.275 330.036C375.42 330.411 375.631 330.705 375.91 330.918C376.188 331.128 376.529 331.233 376.933 331.233C377.353 331.233 377.704 331.122 377.985 330.901C378.269 330.676 378.482 330.375 378.624 329.997C378.769 329.616 378.842 329.193 378.842 328.727C378.842 328.267 378.771 327.852 378.629 327.483C378.489 327.111 378.278 326.817 377.994 326.601C377.712 326.382 377.359 326.273 376.933 326.273C376.523 326.273 376.18 326.376 375.901 326.584C375.623 326.788 375.413 327.075 375.271 327.445C375.129 327.811 375.058 328.239 375.058 328.727ZM381.381 332V325.455H382.353V326.443H382.421C382.54 326.119 382.756 325.857 383.069 325.655C383.381 325.453 383.734 325.352 384.126 325.352C384.2 325.352 384.292 325.354 384.403 325.357C384.513 325.359 384.597 325.364 384.654 325.369V326.392C384.62 326.384 384.542 326.371 384.42 326.354C384.3 326.334 384.174 326.324 384.04 326.324C383.722 326.324 383.438 326.391 383.188 326.524C382.941 326.655 382.745 326.837 382.6 327.07C382.458 327.3 382.387 327.562 382.387 327.858V332H381.381ZM388.306 332.136C387.715 332.136 387.197 331.996 386.751 331.714C386.308 331.433 385.961 331.04 385.711 330.534C385.464 330.028 385.34 329.437 385.34 328.761C385.34 328.08 385.464 327.484 385.711 326.976C385.961 326.467 386.308 326.072 386.751 325.791C387.197 325.51 387.715 325.369 388.306 325.369C388.897 325.369 389.414 325.51 389.857 325.791C390.303 326.072 390.65 326.467 390.897 326.976C391.147 327.484 391.272 328.08 391.272 328.761C391.272 329.437 391.147 330.028 390.897 330.534C390.65 331.04 390.303 331.433 389.857 331.714C389.414 331.996 388.897 332.136 388.306 332.136ZM388.306 331.233C388.755 331.233 389.124 331.118 389.414 330.888C389.704 330.658 389.918 330.355 390.058 329.98C390.197 329.605 390.266 329.199 390.266 328.761C390.266 328.324 390.197 327.916 390.058 327.538C389.918 327.161 389.704 326.855 389.414 326.622C389.124 326.389 388.755 326.273 388.306 326.273C387.857 326.273 387.488 326.389 387.198 326.622C386.908 326.855 386.694 327.161 386.555 327.538C386.415 327.916 386.346 328.324 386.346 328.761C386.346 329.199 386.415 329.605 386.555 329.98C386.694 330.355 386.908 330.658 387.198 330.888C387.488 331.118 387.857 331.233 388.306 331.233ZM395.722 325.455V326.307H392.194V325.455H395.722ZM393.25 332V324.551C393.25 324.176 393.338 323.864 393.515 323.614C393.691 323.364 393.919 323.176 394.201 323.051C394.482 322.926 394.779 322.864 395.091 322.864C395.338 322.864 395.54 322.884 395.696 322.923C395.853 322.963 395.969 323 396.046 323.034L395.756 323.903C395.705 323.886 395.634 323.865 395.543 323.839C395.455 323.814 395.338 323.801 395.194 323.801C394.861 323.801 394.621 323.885 394.473 324.053C394.328 324.22 394.256 324.466 394.256 324.79V332H393.25ZM397.131 332V325.455H398.137V332H397.131ZM397.643 324.364C397.447 324.364 397.278 324.297 397.136 324.163C396.996 324.03 396.927 323.869 396.927 323.682C396.927 323.494 396.996 323.334 397.136 323.2C397.278 323.067 397.447 323 397.643 323C397.839 323 398.006 323.067 398.146 323.2C398.288 323.334 398.359 323.494 398.359 323.682C398.359 323.869 398.288 324.03 398.146 324.163C398.006 324.297 397.839 324.364 397.643 324.364ZM402.826 325.455V326.307H399.434V325.455H402.826ZM400.422 323.886H401.428V330.125C401.428 330.409 401.469 330.622 401.551 330.764C401.637 330.903 401.745 330.997 401.875 331.045C402.009 331.091 402.15 331.114 402.297 331.114C402.408 331.114 402.499 331.108 402.57 331.097C402.641 331.082 402.698 331.071 402.74 331.062L402.945 331.966C402.877 331.991 402.782 332.017 402.659 332.043C402.537 332.071 402.382 332.085 402.195 332.085C401.911 332.085 401.632 332.024 401.36 331.902C401.09 331.78 400.865 331.594 400.686 331.344C400.51 331.094 400.422 330.778 400.422 330.398V323.886ZM407.713 332V325.455H408.719V332H407.713ZM408.225 324.364C408.029 324.364 407.86 324.297 407.718 324.163C407.578 324.03 407.509 323.869 407.509 323.682C407.509 323.494 407.578 323.334 407.718 323.2C407.86 323.067 408.029 323 408.225 323C408.421 323 408.588 323.067 408.728 323.2C408.87 323.334 408.941 323.494 408.941 323.682C408.941 323.869 408.87 324.03 408.728 324.163C408.588 324.297 408.421 324.364 408.225 324.364ZM415.197 326.92L414.294 327.176C414.237 327.026 414.153 326.879 414.043 326.737C413.935 326.592 413.787 326.473 413.599 326.379C413.412 326.286 413.172 326.239 412.879 326.239C412.479 326.239 412.145 326.331 411.878 326.516C411.614 326.697 411.482 326.929 411.482 327.21C411.482 327.46 411.572 327.658 411.754 327.803C411.936 327.947 412.22 328.068 412.607 328.165L413.578 328.403C414.163 328.545 414.599 328.763 414.886 329.055C415.173 329.345 415.317 329.719 415.317 330.176C415.317 330.551 415.209 330.886 414.993 331.182C414.78 331.477 414.482 331.71 414.098 331.881C413.714 332.051 413.268 332.136 412.76 332.136C412.092 332.136 411.54 331.991 411.102 331.702C410.665 331.412 410.388 330.989 410.271 330.432L411.226 330.193C411.317 330.545 411.489 330.81 411.741 330.986C411.997 331.162 412.331 331.25 412.743 331.25C413.212 331.25 413.584 331.151 413.859 330.952C414.138 330.75 414.277 330.509 414.277 330.227C414.277 330 414.197 329.81 414.038 329.656C413.879 329.5 413.635 329.384 413.305 329.307L412.214 329.051C411.615 328.909 411.175 328.689 410.893 328.391C410.615 328.089 410.476 327.713 410.476 327.261C410.476 326.892 410.58 326.565 410.787 326.281C410.997 325.997 411.283 325.774 411.643 325.612C412.007 325.45 412.419 325.369 412.879 325.369C413.527 325.369 414.036 325.511 414.405 325.795C414.777 326.08 415.041 326.455 415.197 326.92Z" fill="white"/>
<path d="M422.707 330.534V324.773H423.853V330.534H422.707ZM420.402 328.224V327.082H426.163V328.224H420.402ZM431.428 323.273V332H430.107V324.594H430.056L427.968 325.957V324.696L430.145 323.273H431.428ZM436.691 323.153C437.08 323.156 437.463 323.227 437.841 323.366C438.219 323.506 438.56 323.733 438.864 324.048C439.171 324.364 439.415 324.79 439.597 325.327C439.782 325.861 439.875 326.526 439.878 327.321C439.878 328.085 439.801 328.766 439.648 329.362C439.495 329.956 439.275 330.457 438.988 330.866C438.703 331.276 438.358 331.587 437.952 331.8C437.546 332.013 437.088 332.119 436.58 332.119C436.06 332.119 435.598 332.017 435.195 331.812C434.792 331.608 434.463 331.325 434.211 330.964C433.958 330.601 433.8 330.183 433.738 329.712H435.037C435.123 330.087 435.296 330.391 435.557 330.624C435.821 330.854 436.162 330.969 436.58 330.969C437.219 330.969 437.718 330.69 438.076 330.134C438.434 329.574 438.614 328.793 438.617 327.79H438.549C438.401 328.034 438.216 328.244 437.995 328.42C437.776 328.597 437.53 328.733 437.257 328.83C436.985 328.926 436.694 328.974 436.384 328.974C435.881 328.974 435.424 328.851 435.012 328.604C434.6 328.357 434.272 328.017 434.027 327.585C433.783 327.153 433.661 326.661 433.661 326.107C433.661 325.555 433.786 325.055 434.036 324.607C434.289 324.158 434.641 323.803 435.093 323.541C435.547 323.277 436.08 323.148 436.691 323.153ZM436.695 324.261C436.363 324.261 436.063 324.344 435.796 324.509C435.532 324.67 435.323 324.891 435.169 325.169C435.016 325.445 434.939 325.751 434.939 326.089C434.939 326.428 435.013 326.734 435.161 327.01C435.311 327.283 435.516 327.5 435.775 327.662C436.036 327.821 436.334 327.901 436.669 327.901C436.919 327.901 437.152 327.852 437.368 327.756C437.584 327.659 437.773 327.526 437.935 327.355C438.097 327.182 438.223 326.986 438.314 326.767C438.405 326.548 438.451 326.318 438.451 326.077C438.451 325.756 438.374 325.457 438.221 325.182C438.07 324.906 437.863 324.685 437.598 324.517C437.334 324.347 437.033 324.261 436.695 324.261ZM444.456 332.119C443.871 332.119 443.348 332.018 442.888 331.817C442.43 331.615 442.068 331.335 441.801 330.977C441.537 330.616 441.395 330.199 441.375 329.724H442.713C442.73 329.983 442.817 330.207 442.973 330.398C443.132 330.585 443.339 330.73 443.595 330.832C443.851 330.935 444.135 330.986 444.447 330.986C444.791 330.986 445.095 330.926 445.359 330.807C445.626 330.687 445.835 330.521 445.986 330.308C446.136 330.092 446.212 329.844 446.212 329.562C446.212 329.27 446.136 329.013 445.986 328.791C445.838 328.567 445.621 328.391 445.334 328.263C445.05 328.135 444.706 328.071 444.303 328.071H443.565V326.997H444.303C444.626 326.997 444.911 326.939 445.155 326.822C445.402 326.706 445.595 326.544 445.734 326.337C445.874 326.126 445.943 325.881 445.943 325.599C445.943 325.33 445.882 325.095 445.76 324.896C445.641 324.695 445.47 324.537 445.249 324.423C445.03 324.31 444.771 324.253 444.473 324.253C444.189 324.253 443.923 324.305 443.676 324.411C443.432 324.513 443.233 324.661 443.08 324.854C442.926 325.044 442.844 325.273 442.832 325.54H441.558C441.572 325.068 441.712 324.653 441.976 324.295C442.243 323.937 442.595 323.658 443.033 323.456C443.47 323.254 443.956 323.153 444.49 323.153C445.05 323.153 445.533 323.263 445.939 323.482C446.348 323.697 446.663 323.986 446.885 324.347C447.109 324.707 447.22 325.102 447.217 325.531C447.22 326.02 447.084 326.435 446.808 326.776C446.536 327.116 446.172 327.345 445.717 327.462V327.53C446.297 327.618 446.746 327.848 447.064 328.22C447.385 328.592 447.544 329.054 447.541 329.605C447.544 330.085 447.411 330.516 447.141 330.896C446.874 331.277 446.509 331.577 446.045 331.795C445.582 332.011 445.053 332.119 444.456 332.119ZM453.707 330.364V329.903C453.707 329.574 453.776 329.273 453.912 329C454.051 328.724 454.253 328.504 454.517 328.339C454.784 328.172 455.107 328.088 455.484 328.088C455.871 328.088 456.195 328.17 456.456 328.335C456.717 328.5 456.915 328.72 457.048 328.996C457.185 329.271 457.253 329.574 457.253 329.903V330.364C457.253 330.693 457.185 330.996 457.048 331.271C456.912 331.544 456.712 331.764 456.447 331.932C456.186 332.097 455.865 332.179 455.484 332.179C455.101 332.179 454.777 332.097 454.513 331.932C454.249 331.764 454.048 331.544 453.912 331.271C453.776 330.996 453.707 330.693 453.707 330.364ZM454.7 329.903V330.364C454.7 330.608 454.759 330.83 454.875 331.028C454.991 331.227 455.195 331.327 455.484 331.327C455.771 331.327 455.972 331.227 456.085 331.028C456.199 330.83 456.256 330.608 456.256 330.364V329.903C456.256 329.659 456.2 329.437 456.089 329.239C455.982 329.04 455.78 328.94 455.484 328.94C455.2 328.94 454.999 329.04 454.879 329.239C454.76 329.437 454.7 329.659 454.7 329.903ZM449.318 325.369V324.909C449.318 324.58 449.386 324.277 449.523 324.001C449.662 323.726 449.864 323.506 450.128 323.341C450.395 323.176 450.717 323.094 451.095 323.094C451.482 323.094 451.805 323.176 452.067 323.341C452.328 323.506 452.526 323.726 452.659 324.001C452.793 324.277 452.859 324.58 452.859 324.909V325.369C452.859 325.699 452.791 326.001 452.655 326.277C452.521 326.55 452.322 326.77 452.058 326.938C451.797 327.102 451.476 327.185 451.095 327.185C450.709 327.185 450.384 327.102 450.119 326.938C449.858 326.77 449.659 326.55 449.523 326.277C449.386 326.001 449.318 325.699 449.318 325.369ZM450.315 324.909V325.369C450.315 325.614 450.372 325.835 450.486 326.034C450.602 326.233 450.805 326.332 451.095 326.332C451.379 326.332 451.578 326.233 451.692 326.034C451.808 325.835 451.866 325.614 451.866 325.369V324.909C451.866 324.665 451.811 324.443 451.7 324.244C451.589 324.045 451.388 323.946 451.095 323.946C450.811 323.946 450.609 324.045 450.49 324.244C450.374 324.443 450.315 324.665 450.315 324.909ZM449.723 332L455.723 323.273H456.741L450.741 332H449.723Z" fill="#24FF54"/>
<path d="M349.034 306V304.477L353.074 300.517C353.46 300.127 353.782 299.78 354.04 299.477C354.297 299.174 354.491 298.881 354.619 298.597C354.748 298.312 354.812 298.009 354.812 297.688C354.812 297.32 354.729 297.006 354.562 296.744C354.396 296.479 354.167 296.275 353.875 296.131C353.583 295.987 353.252 295.915 352.881 295.915C352.498 295.915 352.163 295.994 351.875 296.153C351.587 296.309 351.364 296.53 351.205 296.818C351.049 297.106 350.972 297.449 350.972 297.847H348.966C348.966 297.108 349.134 296.466 349.472 295.92C349.809 295.375 350.273 294.953 350.864 294.653C351.458 294.354 352.14 294.205 352.909 294.205C353.689 294.205 354.375 294.35 354.966 294.642C355.557 294.934 356.015 295.333 356.341 295.841C356.67 296.348 356.835 296.928 356.835 297.58C356.835 298.015 356.752 298.443 356.585 298.864C356.419 299.284 356.125 299.75 355.705 300.261C355.288 300.773 354.703 301.392 353.949 302.119L351.943 304.159V304.239H357.011V306H349.034ZM363.273 306.222C362.337 306.222 361.534 305.985 360.864 305.511C360.197 305.034 359.684 304.347 359.324 303.449C358.968 302.547 358.79 301.462 358.79 300.193C358.794 298.924 358.973 297.845 359.33 296.955C359.689 296.061 360.203 295.379 360.869 294.909C361.54 294.439 362.341 294.205 363.273 294.205C364.205 294.205 365.006 294.439 365.676 294.909C366.347 295.379 366.86 296.061 367.216 296.955C367.576 297.848 367.756 298.928 367.756 300.193C367.756 301.466 367.576 302.553 367.216 303.455C366.86 304.352 366.347 305.038 365.676 305.511C365.009 305.985 364.208 306.222 363.273 306.222ZM363.273 304.443C364 304.443 364.574 304.085 364.994 303.369C365.419 302.65 365.631 301.591 365.631 300.193C365.631 299.269 365.534 298.492 365.341 297.864C365.148 297.235 364.875 296.761 364.523 296.443C364.17 296.121 363.754 295.96 363.273 295.96C362.549 295.96 361.977 296.32 361.557 297.04C361.136 297.756 360.924 298.807 360.92 300.193C360.917 301.121 361.009 301.902 361.199 302.534C361.392 303.167 361.665 303.644 362.017 303.966C362.369 304.284 362.788 304.443 363.273 304.443ZM373.945 306.222C373.009 306.222 372.206 305.985 371.536 305.511C370.869 305.034 370.356 304.347 369.996 303.449C369.64 302.547 369.462 301.462 369.462 300.193C369.465 298.924 369.645 297.845 370.001 296.955C370.361 296.061 370.875 295.379 371.541 294.909C372.212 294.439 373.013 294.205 373.945 294.205C374.876 294.205 375.678 294.439 376.348 294.909C377.018 295.379 377.532 296.061 377.888 296.955C378.248 297.848 378.428 298.928 378.428 300.193C378.428 301.466 378.248 302.553 377.888 303.455C377.532 304.352 377.018 305.038 376.348 305.511C375.681 305.985 374.88 306.222 373.945 306.222ZM373.945 304.443C374.672 304.443 375.246 304.085 375.666 303.369C376.09 302.65 376.303 301.591 376.303 300.193C376.303 299.269 376.206 298.492 376.013 297.864C375.82 297.235 375.547 296.761 375.195 296.443C374.842 296.121 374.426 295.96 373.945 295.96C373.221 295.96 372.649 296.32 372.229 297.04C371.808 297.756 371.596 298.807 371.592 300.193C371.589 301.121 371.681 301.902 371.871 302.534C372.064 303.167 372.337 303.644 372.689 303.966C373.041 304.284 373.46 304.443 373.945 304.443ZM384.361 306.159C383.603 306.159 382.925 306.017 382.327 305.733C381.728 305.445 381.253 305.051 380.901 304.551C380.552 304.051 380.366 303.479 380.344 302.835H382.389C382.427 303.312 382.634 303.703 383.009 304.006C383.384 304.305 383.834 304.455 384.361 304.455C384.774 304.455 385.141 304.36 385.463 304.17C385.785 303.981 386.039 303.718 386.224 303.381C386.41 303.044 386.501 302.659 386.497 302.227C386.501 301.788 386.408 301.398 386.219 301.057C386.029 300.716 385.77 300.449 385.44 300.256C385.111 300.059 384.732 299.96 384.304 299.96C383.955 299.956 383.613 300.021 383.276 300.153C382.938 300.286 382.671 300.46 382.474 300.676L380.571 300.364L381.179 294.364H387.929V296.125H382.923L382.588 299.21H382.656C382.872 298.956 383.177 298.746 383.571 298.58C383.965 298.409 384.397 298.324 384.866 298.324C385.571 298.324 386.2 298.491 386.753 298.824C387.306 299.153 387.741 299.608 388.06 300.188C388.378 300.767 388.537 301.43 388.537 302.176C388.537 302.945 388.359 303.631 388.003 304.233C387.651 304.831 387.16 305.303 386.531 305.648C385.906 305.989 385.183 306.159 384.361 306.159Z" fill="white"/>
<path opacity="0.7" d="M421.801 305.119C421.443 305.114 421.085 305.045 420.727 304.915C420.369 304.784 420.043 304.564 419.747 304.254C419.452 303.942 419.214 303.52 419.036 302.989C418.857 302.455 418.767 301.784 418.767 300.977C418.767 300.205 418.839 299.52 418.984 298.923C419.129 298.324 419.339 297.82 419.615 297.411C419.891 296.999 420.223 296.686 420.612 296.473C421.004 296.26 421.446 296.153 421.938 296.153C422.426 296.153 422.861 296.251 423.241 296.447C423.625 296.641 423.938 296.911 424.179 297.257C424.42 297.604 424.577 298.003 424.648 298.455H423.608C423.511 298.062 423.324 297.737 423.045 297.479C422.767 297.22 422.398 297.091 421.938 297.091C421.261 297.091 420.729 297.385 420.339 297.973C419.953 298.561 419.759 299.386 419.756 300.449H419.824C419.983 300.207 420.172 300.001 420.391 299.831C420.612 299.658 420.857 299.524 421.124 299.43C421.391 299.337 421.673 299.29 421.972 299.29C422.472 299.29 422.929 299.415 423.344 299.665C423.759 299.912 424.091 300.254 424.341 300.692C424.591 301.126 424.716 301.625 424.716 302.188C424.716 302.727 424.595 303.222 424.354 303.67C424.112 304.116 423.773 304.472 423.335 304.736C422.901 304.997 422.389 305.125 421.801 305.119ZM421.801 304.182C422.159 304.182 422.48 304.092 422.764 303.913C423.051 303.734 423.277 303.494 423.442 303.193C423.609 302.892 423.693 302.557 423.693 302.188C423.693 301.827 423.612 301.499 423.45 301.203C423.291 300.905 423.071 300.668 422.79 300.491C422.511 300.315 422.193 300.227 421.835 300.227C421.565 300.227 421.314 300.281 421.081 300.389C420.848 300.494 420.643 300.639 420.467 300.824C420.294 301.009 420.158 301.22 420.058 301.459C419.959 301.695 419.909 301.943 419.909 302.205C419.909 302.551 419.99 302.875 420.152 303.176C420.317 303.477 420.541 303.72 420.825 303.905C421.112 304.089 421.438 304.182 421.801 304.182ZM427.499 303.807L427.43 304.267C427.382 304.591 427.308 304.938 427.209 305.307C427.112 305.676 427.011 306.024 426.906 306.351C426.801 306.678 426.714 306.938 426.646 307.131H425.879C425.916 306.949 425.964 306.709 426.024 306.411C426.084 306.112 426.143 305.778 426.203 305.409C426.266 305.043 426.317 304.668 426.357 304.284L426.408 303.807H427.499ZM429.14 303.21V302.341L432.975 296.273H433.606V297.619H433.18L430.282 302.205V302.273H435.447V303.21H429.14ZM433.248 305V302.946V302.541V296.273H434.254V305H433.248ZM439.891 305.119C439.249 305.119 438.702 304.945 438.25 304.595C437.798 304.243 437.453 303.733 437.214 303.065C436.976 302.395 436.857 301.585 436.857 300.636C436.857 299.693 436.976 298.888 437.214 298.22C437.456 297.55 437.803 297.038 438.254 296.686C438.709 296.331 439.254 296.153 439.891 296.153C440.527 296.153 441.071 296.331 441.523 296.686C441.977 297.038 442.324 297.55 442.562 298.22C442.804 298.888 442.925 299.693 442.925 300.636C442.925 301.585 442.805 302.395 442.567 303.065C442.328 303.733 441.983 304.243 441.531 304.595C441.08 304.945 440.533 305.119 439.891 305.119ZM439.891 304.182C440.527 304.182 441.021 303.875 441.374 303.261C441.726 302.648 441.902 301.773 441.902 300.636C441.902 299.881 441.821 299.237 441.659 298.706C441.5 298.175 441.27 297.77 440.969 297.491C440.67 297.213 440.311 297.074 439.891 297.074C439.26 297.074 438.767 297.385 438.412 298.007C438.057 298.626 437.879 299.503 437.879 300.636C437.879 301.392 437.959 302.034 438.118 302.562C438.277 303.091 438.506 303.493 438.804 303.768C439.105 304.044 439.467 304.182 439.891 304.182ZM447.391 305.119C446.749 305.119 446.202 304.945 445.75 304.595C445.298 304.243 444.953 303.733 444.714 303.065C444.476 302.395 444.357 301.585 444.357 300.636C444.357 299.693 444.476 298.888 444.714 298.22C444.956 297.55 445.303 297.038 445.754 296.686C446.209 296.331 446.754 296.153 447.391 296.153C448.027 296.153 448.571 296.331 449.023 296.686C449.477 297.038 449.824 297.55 450.062 298.22C450.304 298.888 450.425 299.693 450.425 300.636C450.425 301.585 450.305 302.395 450.067 303.065C449.828 303.733 449.483 304.243 449.031 304.595C448.58 304.945 448.033 305.119 447.391 305.119ZM447.391 304.182C448.027 304.182 448.521 303.875 448.874 303.261C449.226 302.648 449.402 301.773 449.402 300.636C449.402 299.881 449.321 299.237 449.159 298.706C449 298.175 448.77 297.77 448.469 297.491C448.17 297.213 447.811 297.074 447.391 297.074C446.76 297.074 446.267 297.385 445.912 298.007C445.557 298.626 445.379 299.503 445.379 300.636C445.379 301.392 445.459 302.034 445.618 302.562C445.777 303.091 446.006 303.493 446.304 303.768C446.605 304.044 446.967 304.182 447.391 304.182ZM454.618 306.091V295.182H455.317V306.091H454.618ZM456.97 298.455C456.919 298.023 456.712 297.688 456.348 297.449C455.984 297.21 455.538 297.091 455.01 297.091C454.624 297.091 454.286 297.153 453.996 297.278C453.709 297.403 453.484 297.575 453.322 297.794C453.163 298.013 453.084 298.261 453.084 298.54C453.084 298.773 453.139 298.973 453.25 299.141C453.364 299.305 453.509 299.443 453.685 299.554C453.861 299.662 454.045 299.751 454.239 299.822C454.432 299.891 454.609 299.946 454.771 299.989L455.658 300.227C455.885 300.287 456.138 300.369 456.416 300.474C456.697 300.58 456.966 300.723 457.222 300.905C457.48 301.084 457.693 301.314 457.861 301.595C458.028 301.876 458.112 302.222 458.112 302.631C458.112 303.102 457.989 303.528 457.741 303.909C457.497 304.29 457.139 304.592 456.668 304.817C456.199 305.041 455.629 305.153 454.959 305.153C454.334 305.153 453.793 305.053 453.335 304.851C452.881 304.649 452.523 304.368 452.261 304.007C452.003 303.646 451.857 303.227 451.822 302.75H452.913C452.942 303.08 453.053 303.352 453.246 303.568C453.442 303.781 453.689 303.94 453.987 304.045C454.288 304.148 454.612 304.199 454.959 304.199C455.362 304.199 455.724 304.134 456.045 304.003C456.366 303.869 456.621 303.685 456.808 303.449C456.996 303.21 457.089 302.932 457.089 302.614C457.089 302.324 457.009 302.088 456.847 301.906C456.685 301.724 456.472 301.577 456.207 301.463C455.943 301.349 455.658 301.25 455.351 301.165L454.277 300.858C453.595 300.662 453.055 300.382 452.658 300.018C452.26 299.655 452.061 299.179 452.061 298.591C452.061 298.102 452.193 297.676 452.457 297.312C452.724 296.946 453.082 296.662 453.531 296.46C453.983 296.256 454.487 296.153 455.044 296.153C455.607 296.153 456.107 296.254 456.544 296.456C456.982 296.655 457.328 296.928 457.584 297.274C457.842 297.621 457.979 298.014 457.993 298.455H456.97Z" fill="white"/>
<defs>
<linearGradient id="paint0_linear_6_18464" x1="722.25" y1="173.5" x2="722.25" y2="550.5" gradientUnits="userSpaceOnUse">
<stop stop-color="#2D5551"/>
<stop offset="1" stop-color="#2D5551" stop-opacity="0"/>
</linearGradient>
</defs>
</svg>
