<svg width="764" height="314" viewBox="0 0 764 314" fill="none" xmlns="http://www.w3.org/2000/svg">
<mask id="path-1-inside-1_841_12711" fill="white">
<path d="M1 314H766V1H1V314Z"/>
</mask>
<path d="M1 313H766V315H1V313Z" fill="#2D5551" fill-opacity="0.08" mask="url(#path-1-inside-1_841_12711)"/>
<path d="M196.281 206.707C122.1 193.619 35.1849 299.093 1 310V313.75H1439.29V99.1574C1367.5 106.644 1306.51 104.703 1294.98 143.8C1285.57 175.688 1285.15 198.425 1235.15 205.08C1184.89 211.77 1155.67 172.637 1105.25 143.8C1064.91 120.73 996.976 150.75 971.907 160.363C927.466 177.092 826.44 140.591 782.658 111.898C720.143 70.9281 637.93 67.1808 575.84 111.898C513.749 156.615 452.162 119.953 374.818 143.8C297.475 167.646 289.008 223.067 196.281 206.707Z" fill="url(#paint0_linear_841_12711)" fill-opacity="0.25"/>
<path d="M1 312C35.1849 301.079 122.1 193.765 196.281 206.869C289.008 223.25 297.475 167.759 374.818 143.882C452.162 120.005 513.749 156.714 575.84 111.939C637.93 67.1647 720.143 70.9168 782.659 111.939C826.44 140.669 927.466 177.217 971.907 160.466C996.976 150.841 1064.91 120.782 1105.25 143.882C1155.67 172.756 1184.89 211.939 1235.15 205.24C1285.15 198.577 1285.57 175.81 1294.98 143.882C1306.51 104.735 1367.5 106.679 1439.29 99.1823" stroke="#0075FF"/>
<path d="M1244.21 233.796C1318.96 220.699 1406.55 239.254 1441 250.168V314.001H1V311.001C73.3445 318.493 119.852 133.346 131.478 172.472C140.961 204.383 141.383 227.137 191.766 233.796C242.418 240.492 302.472 219.187 353.286 190.328C393.936 167.241 454.625 180.708 479.888 190.328C524.673 207.07 598.445 218.424 657.699 201.33C731.766 179.964 772.675 186.068 866.12 201.33C959.565 216.592 950.091 226.304 1028.03 250.168C1105.98 274.032 1150.76 250.168 1244.21 233.796Z" fill="url(#paint1_linear_841_12711)" fill-opacity="0.25"/>
<path d="M1441 250.167C1406.55 239.252 1318.96 220.697 1244.21 233.795C1150.76 250.167 1105.98 274.031 1028.03 250.167C950.091 226.303 959.565 216.591 866.12 201.329C772.675 186.067 731.766 179.962 657.699 201.329C598.445 218.422 524.673 207.068 479.888 190.326C454.625 180.707 393.936 167.239 353.286 190.326C302.472 219.185 293.152 238.194 242.5 231.499C192.117 224.839 191.766 203.499 131.478 172.47C95.1864 153.791 73.3445 318.492 1 310.999" stroke="#2CD9FF"/>
<path d="M1244.21 233.798C1318.96 220.701 1406.55 239.256 1441 250.17V314.003H1V311.003C73.3445 318.495 96.0696 152.17 131.478 172.474C176 198.002 206.117 232.843 256.5 239.503C307.152 246.198 302.472 219.189 353.286 190.33C393.936 167.243 454.625 180.711 479.888 190.33C524.673 207.072 598.445 218.426 657.699 201.332C731.766 179.966 772.675 186.071 866.12 201.332C959.565 216.594 950.091 226.306 1028.03 250.17C1105.98 274.034 1150.76 250.17 1244.21 233.798Z" fill="url(#paint2_linear_841_12711)" fill-opacity="0.25"/>
<path d="M2 312.002C36.1849 301.081 122.1 89.0165 196.281 102.121C289.008 118.502 365.657 301.879 443 278.002C520.343 254.125 513.749 51.9655 575.84 7.19109C637.93 -37.5834 731.484 187.48 794 228.503C837.782 257.232 904.5 79.002 971.907 55.7176C996.976 46.0928 1064.91 16.0341 1105.25 39.1337C1155.67 68.0082 1202.74 266.201 1253 259.503C1303 252.839 1285.57 71.0624 1294.98 39.1337C1306.51 -0.013504 1367.21 106.498 1439 99.002" stroke="#6C8180"/>
<path d="M196.281 101.958C122.1 88.8706 35.1849 301.095 1 312.002H1439.29V97.001C1367.5 104.488 1306.51 -0.0456085 1294.98 39.0516C1285.57 70.9394 1303.5 252.847 1253.5 259.502C1203.24 266.192 1155.67 67.8891 1105.25 39.0516C1064.91 15.9815 996.976 46.0017 971.907 55.6143C893.5 85.6788 838.782 258.195 795 229.502C732.484 188.532 637.93 -37.5674 575.84 7.14977C513.749 51.867 517.843 256.681 440.5 280.528C363.157 304.374 289.008 118.318 196.281 101.958Z" fill="url(#paint3_linear_841_12711)" fill-opacity="0.25"/>
<rect width="44" height="22" transform="translate(138 199)" fill="#0175FF"/>
<path d="M148.668 214L146.247 205.273H147.632L149.332 212.031H149.413L151.182 205.273H152.554L154.322 212.036H154.403L156.099 205.273H157.489L155.064 214H153.739L151.902 207.463H151.834L149.997 214H148.668ZM157.947 214V207.455H159.221V214H157.947ZM158.59 206.445C158.369 206.445 158.179 206.371 158.019 206.223C157.863 206.072 157.785 205.893 157.785 205.686C157.785 205.476 157.863 205.297 158.019 205.149C158.179 204.999 158.369 204.923 158.59 204.923C158.812 204.923 159.001 204.999 159.157 205.149C159.316 205.297 159.396 205.476 159.396 205.686C159.396 205.893 159.316 206.072 159.157 206.223C159.001 206.371 158.812 206.445 158.59 206.445ZM161.569 210.114V214H160.295V207.455H161.518V208.52H161.599C161.75 208.173 161.986 207.895 162.307 207.685C162.631 207.474 163.038 207.369 163.53 207.369C163.976 207.369 164.366 207.463 164.702 207.651C165.037 207.835 165.297 208.111 165.481 208.477C165.666 208.844 165.758 209.297 165.758 209.837V214H164.484V209.99C164.484 209.516 164.361 209.145 164.113 208.878C163.866 208.608 163.527 208.473 163.095 208.473C162.8 208.473 162.537 208.537 162.307 208.665C162.079 208.793 161.899 208.98 161.765 209.227C161.635 209.472 161.569 209.767 161.569 210.114ZM169.277 214.128C168.749 214.128 168.277 213.993 167.863 213.723C167.451 213.45 167.127 213.062 166.891 212.56C166.658 212.054 166.542 211.447 166.542 210.74C166.542 210.033 166.66 209.428 166.895 208.925C167.134 208.422 167.461 208.037 167.875 207.77C168.29 207.503 168.76 207.369 169.286 207.369C169.692 207.369 170.019 207.438 170.266 207.574C170.516 207.707 170.709 207.864 170.846 208.043C170.985 208.222 171.093 208.379 171.169 208.516H171.246V205.273H172.52V214H171.276V212.982H171.169C171.093 213.121 170.982 213.28 170.837 213.459C170.695 213.638 170.499 213.794 170.249 213.928C169.999 214.061 169.675 214.128 169.277 214.128ZM169.559 213.041C169.925 213.041 170.235 212.945 170.488 212.751C170.743 212.555 170.937 212.284 171.067 211.938C171.201 211.591 171.267 211.187 171.267 210.727C171.267 210.273 171.202 209.875 171.071 209.534C170.941 209.193 170.749 208.928 170.496 208.737C170.243 208.547 169.931 208.452 169.559 208.452C169.175 208.452 168.856 208.551 168.6 208.75C168.344 208.949 168.151 209.22 168.02 209.564C167.892 209.908 167.829 210.295 167.829 210.727C167.829 211.165 167.894 211.558 168.025 211.908C168.155 212.257 168.348 212.534 168.604 212.739C168.863 212.94 169.181 213.041 169.559 213.041Z" fill="white"/>
<rect width="41" height="22" transform="translate(138 170)" fill="#2FD6FA"/>
<path d="M152.865 179.03C152.783 178.771 152.672 178.54 152.533 178.335C152.396 178.128 152.233 177.952 152.043 177.807C151.852 177.659 151.635 177.547 151.391 177.47C151.149 177.393 150.884 177.355 150.594 177.355C150.102 177.355 149.659 177.482 149.264 177.734C148.869 177.987 148.557 178.358 148.327 178.847C148.099 179.332 147.986 179.928 147.986 180.632C147.986 181.339 148.101 181.937 148.331 182.426C148.561 182.915 148.876 183.286 149.277 183.538C149.678 183.791 150.134 183.918 150.645 183.918C151.119 183.918 151.533 183.821 151.885 183.628C152.24 183.435 152.514 183.162 152.707 182.81C152.903 182.455 153.001 182.037 153.001 181.557L153.342 181.621H150.845V180.534H154.276V181.527C154.276 182.26 154.119 182.896 153.807 183.436C153.497 183.973 153.068 184.388 152.52 184.68C151.974 184.973 151.349 185.119 150.645 185.119C149.855 185.119 149.162 184.938 148.565 184.574C147.972 184.21 147.509 183.695 147.176 183.027C146.844 182.357 146.678 181.561 146.678 180.641C146.678 179.945 146.774 179.32 146.967 178.766C147.161 178.212 147.432 177.741 147.781 177.355C148.134 176.966 148.547 176.669 149.021 176.464C149.499 176.257 150.02 176.153 150.585 176.153C151.057 176.153 151.496 176.223 151.902 176.362C152.311 176.501 152.675 176.699 152.993 176.955C153.314 177.21 153.58 177.514 153.79 177.866C154 178.216 154.142 178.604 154.216 179.03H152.865ZM157.962 185.132C157.348 185.132 156.813 184.991 156.355 184.71C155.898 184.429 155.543 184.036 155.29 183.53C155.037 183.024 154.911 182.433 154.911 181.757C154.911 181.078 155.037 180.484 155.29 179.976C155.543 179.467 155.898 179.072 156.355 178.791C156.813 178.51 157.348 178.369 157.962 178.369C158.576 178.369 159.111 178.51 159.568 178.791C160.026 179.072 160.381 179.467 160.634 179.976C160.887 180.484 161.013 181.078 161.013 181.757C161.013 182.433 160.887 183.024 160.634 183.53C160.381 184.036 160.026 184.429 159.568 184.71C159.111 184.991 158.576 185.132 157.962 185.132ZM157.966 184.062C158.364 184.062 158.693 183.957 158.955 183.747C159.216 183.537 159.409 183.257 159.534 182.908C159.662 182.558 159.726 182.173 159.726 181.753C159.726 181.335 159.662 180.952 159.534 180.602C159.409 180.25 159.216 179.967 158.955 179.754C158.693 179.541 158.364 179.435 157.966 179.435C157.566 179.435 157.233 179.541 156.969 179.754C156.708 179.967 156.513 180.25 156.385 180.602C156.26 180.952 156.198 181.335 156.198 181.753C156.198 182.173 156.26 182.558 156.385 182.908C156.513 183.257 156.708 183.537 156.969 183.747C157.233 183.957 157.566 184.062 157.966 184.062ZM163.7 185.145C163.285 185.145 162.91 185.068 162.575 184.915C162.24 184.759 161.974 184.533 161.778 184.237C161.585 183.942 161.488 183.58 161.488 183.151C161.488 182.781 161.559 182.477 161.702 182.239C161.844 182 162.035 181.811 162.277 181.672C162.518 181.533 162.788 181.428 163.086 181.357C163.385 181.286 163.689 181.232 163.998 181.195C164.39 181.149 164.709 181.112 164.953 181.084C165.197 181.053 165.375 181.003 165.486 180.935C165.596 180.866 165.652 180.756 165.652 180.602V180.572C165.652 180.2 165.547 179.912 165.336 179.707C165.129 179.503 164.819 179.401 164.408 179.401C163.979 179.401 163.64 179.496 163.393 179.686C163.149 179.874 162.98 180.082 162.886 180.312L161.689 180.04C161.831 179.642 162.038 179.321 162.311 179.077C162.586 178.83 162.903 178.651 163.261 178.54C163.619 178.426 163.996 178.369 164.39 178.369C164.652 178.369 164.929 178.401 165.221 178.463C165.517 178.523 165.792 178.634 166.048 178.795C166.307 178.957 166.518 179.189 166.683 179.49C166.848 179.788 166.93 180.176 166.93 180.653V185H165.686V184.105H165.635C165.552 184.27 165.429 184.432 165.264 184.591C165.099 184.75 164.888 184.882 164.629 184.987C164.371 185.092 164.061 185.145 163.7 185.145ZM163.977 184.122C164.329 184.122 164.631 184.053 164.881 183.913C165.133 183.774 165.325 183.592 165.456 183.368C165.589 183.141 165.656 182.898 165.656 182.639V181.795C165.611 181.841 165.523 181.884 165.392 181.923C165.264 181.96 165.118 181.993 164.953 182.021C164.788 182.047 164.628 182.071 164.471 182.094C164.315 182.114 164.184 182.131 164.079 182.145C163.832 182.176 163.606 182.229 163.402 182.303C163.2 182.376 163.038 182.483 162.916 182.622C162.797 182.759 162.737 182.94 162.737 183.168C162.737 183.483 162.854 183.722 163.086 183.884C163.319 184.043 163.616 184.122 163.977 184.122ZM169.261 176.273V185H167.987V176.273H169.261Z" fill="white"/>
<rect width="43" height="22" transform="translate(138 107)" fill="#6C8180"/>
<path d="M151.719 115.565C151.673 115.162 151.486 114.849 151.156 114.628C150.827 114.403 150.412 114.291 149.912 114.291C149.554 114.291 149.244 114.348 148.983 114.462C148.722 114.572 148.518 114.726 148.374 114.922C148.232 115.115 148.161 115.335 148.161 115.582C148.161 115.79 148.209 115.969 148.305 116.119C148.405 116.27 148.534 116.396 148.693 116.499C148.855 116.598 149.028 116.682 149.213 116.75C149.398 116.815 149.575 116.869 149.746 116.912L150.598 117.134C150.876 117.202 151.162 117.294 151.455 117.411C151.747 117.527 152.018 117.68 152.268 117.871C152.518 118.061 152.72 118.297 152.874 118.578C153.03 118.859 153.108 119.196 153.108 119.588C153.108 120.082 152.98 120.521 152.724 120.905C152.472 121.288 152.104 121.591 151.621 121.812C151.141 122.034 150.56 122.145 149.878 122.145C149.224 122.145 148.659 122.041 148.182 121.834C147.705 121.626 147.331 121.332 147.061 120.952C146.791 120.568 146.642 120.114 146.614 119.588H147.935C147.96 119.903 148.063 120.166 148.241 120.376C148.423 120.584 148.655 120.739 148.936 120.841C149.22 120.94 149.531 120.99 149.869 120.99C150.241 120.99 150.572 120.932 150.862 120.815C151.155 120.696 151.385 120.531 151.553 120.321C151.72 120.108 151.804 119.859 151.804 119.575C151.804 119.317 151.73 119.105 151.582 118.94C151.438 118.776 151.24 118.639 150.99 118.531C150.743 118.423 150.463 118.328 150.151 118.246L149.119 117.964C148.42 117.774 147.866 117.494 147.457 117.125C147.051 116.756 146.848 116.267 146.848 115.659C146.848 115.156 146.984 114.717 147.257 114.342C147.53 113.967 147.899 113.676 148.365 113.469C148.831 113.259 149.357 113.153 149.942 113.153C150.533 113.153 151.054 113.257 151.506 113.464C151.96 113.672 152.318 113.957 152.58 114.321C152.841 114.682 152.977 115.097 152.989 115.565H151.719ZM156.696 122.132C156.083 122.132 155.547 121.991 155.09 121.71C154.632 121.429 154.277 121.036 154.024 120.53C153.772 120.024 153.645 119.433 153.645 118.757C153.645 118.078 153.772 117.484 154.024 116.976C154.277 116.467 154.632 116.072 155.09 115.791C155.547 115.51 156.083 115.369 156.696 115.369C157.31 115.369 157.845 115.51 158.303 115.791C158.76 116.072 159.115 116.467 159.368 116.976C159.621 117.484 159.747 118.078 159.747 118.757C159.747 119.433 159.621 120.024 159.368 120.53C159.115 121.036 158.76 121.429 158.303 121.71C157.845 121.991 157.31 122.132 156.696 122.132ZM156.701 121.062C157.098 121.062 157.428 120.957 157.689 120.747C157.951 120.537 158.144 120.257 158.269 119.908C158.397 119.558 158.46 119.173 158.46 118.753C158.46 118.335 158.397 117.952 158.269 117.602C158.144 117.25 157.951 116.967 157.689 116.754C157.428 116.541 157.098 116.435 156.701 116.435C156.3 116.435 155.968 116.541 155.703 116.754C155.442 116.967 155.247 117.25 155.12 117.602C154.995 117.952 154.932 118.335 154.932 118.753C154.932 119.173 154.995 119.558 155.12 119.908C155.247 120.257 155.442 120.537 155.703 120.747C155.968 120.957 156.3 121.062 156.701 121.062ZM161.804 113.273V122H160.53V113.273H161.804ZM164.783 122.145C164.368 122.145 163.993 122.068 163.658 121.915C163.323 121.759 163.057 121.533 162.861 121.237C162.668 120.942 162.571 120.58 162.571 120.151C162.571 119.781 162.642 119.477 162.784 119.239C162.926 119 163.118 118.811 163.359 118.672C163.601 118.533 163.871 118.428 164.169 118.357C164.467 118.286 164.771 118.232 165.081 118.195C165.473 118.149 165.791 118.112 166.036 118.084C166.28 118.053 166.457 118.003 166.568 117.935C166.679 117.866 166.734 117.756 166.734 117.602V117.572C166.734 117.2 166.629 116.912 166.419 116.707C166.212 116.503 165.902 116.401 165.49 116.401C165.061 116.401 164.723 116.496 164.476 116.686C164.232 116.874 164.063 117.082 163.969 117.312L162.771 117.04C162.913 116.642 163.121 116.321 163.394 116.077C163.669 115.83 163.986 115.651 164.344 115.54C164.702 115.426 165.078 115.369 165.473 115.369C165.734 115.369 166.011 115.401 166.304 115.463C166.6 115.523 166.875 115.634 167.131 115.795C167.389 115.957 167.601 116.189 167.766 116.49C167.93 116.788 168.013 117.176 168.013 117.653V122H166.769V121.105H166.717C166.635 121.27 166.511 121.432 166.347 121.591C166.182 121.75 165.97 121.882 165.712 121.987C165.453 122.092 165.144 122.145 164.783 122.145ZM165.06 121.122C165.412 121.122 165.713 121.053 165.963 120.913C166.216 120.774 166.408 120.592 166.538 120.368C166.672 120.141 166.739 119.898 166.739 119.639V118.795C166.693 118.841 166.605 118.884 166.475 118.923C166.347 118.96 166.2 118.993 166.036 119.021C165.871 119.047 165.71 119.071 165.554 119.094C165.398 119.114 165.267 119.131 165.162 119.145C164.915 119.176 164.689 119.229 164.484 119.303C164.283 119.376 164.121 119.483 163.999 119.622C163.879 119.759 163.82 119.94 163.82 120.168C163.82 120.483 163.936 120.722 164.169 120.884C164.402 121.043 164.699 121.122 165.06 121.122ZM169.07 122V115.455H170.302V116.494H170.37C170.489 116.142 170.699 115.865 171 115.663C171.304 115.459 171.648 115.357 172.032 115.357C172.111 115.357 172.205 115.359 172.313 115.365C172.424 115.371 172.51 115.378 172.573 115.386V116.605C172.522 116.591 172.431 116.575 172.3 116.558C172.169 116.538 172.039 116.528 171.908 116.528C171.607 116.528 171.338 116.592 171.103 116.72C170.87 116.845 170.685 117.02 170.549 117.244C170.412 117.466 170.344 117.719 170.344 118.003V122H169.07Z" fill="white"/>
<defs>
<linearGradient id="paint0_linear_841_12711" x1="720.143" y1="313.75" x2="720.143" y2="79.75" gradientUnits="userSpaceOnUse">
<stop stop-color="#0075FF" stop-opacity="0"/>
<stop offset="1" stop-color="#0075FF"/>
</linearGradient>
<linearGradient id="paint1_linear_841_12711" x1="721" y1="64.251" x2="721" y2="314.001" gradientUnits="userSpaceOnUse">
<stop stop-color="#2CD9FF" stop-opacity="0.36"/>
<stop offset="1" stop-color="#2CD9FF" stop-opacity="0"/>
</linearGradient>
<linearGradient id="paint2_linear_841_12711" x1="721" y1="64.2529" x2="721" y2="314.003" gradientUnits="userSpaceOnUse">
<stop stop-color="#2CD9FF" stop-opacity="0.36"/>
<stop offset="1" stop-color="#2CD9FF" stop-opacity="0"/>
</linearGradient>
<linearGradient id="paint3_linear_841_12711" x1="720.143" y1="209.002" x2="720.143" y2="-24.998" gradientUnits="userSpaceOnUse">
<stop stop-color="#6C8180" stop-opacity="0"/>
<stop offset="1" stop-color="#6C8180"/>
</linearGradient>
</defs>
</svg>
