<svg width="1440" height="318" viewBox="0 0 1440 318" fill="none" xmlns="http://www.w3.org/2000/svg">
<mask id="path-1-inside-1_841_12415" fill="white">
<path d="M0 318H1440V5H0V318Z"/>
</mask>
<path d="M0 317H1440V319H0V317Z" fill="#2D5551" fill-opacity="0.08" mask="url(#path-1-inside-1_841_12415)"/>
<path d="M195.281 210.707C121.1 197.619 34.1849 303.093 0 314V317.75H1438.29V103.157C1366.5 110.644 1305.51 108.703 1293.98 147.8C1284.57 179.688 1284.15 202.425 1234.15 209.08C1183.89 215.77 1154.67 176.637 1104.25 147.8C1063.91 124.73 995.976 154.75 970.907 164.363C926.466 181.092 825.44 144.591 781.658 115.898C719.143 74.9281 636.93 71.1808 574.84 115.898C512.749 160.615 451.162 123.953 373.818 147.8C296.475 171.646 288.008 227.067 195.281 210.707Z" fill="url(#paint0_linear_841_12415)" fill-opacity="0.25"/>
<path d="M0 316C34.1849 305.079 121.1 197.765 195.281 210.869C288.008 227.25 296.475 171.759 373.818 147.882C451.162 124.005 512.749 160.714 574.84 115.939C636.93 71.1647 719.143 74.9168 781.659 115.939C825.44 144.669 926.466 181.217 970.907 164.466C995.976 154.841 1063.91 124.782 1104.25 147.882C1154.67 176.756 1183.89 215.939 1234.15 209.24C1284.15 202.577 1284.57 179.81 1293.98 147.882C1305.51 108.735 1366.5 110.679 1438.29 103.182" stroke="#0075FF"/>
<path d="M1243.21 237.796C1317.96 224.699 1405.55 243.254 1440 254.168V318.001H0V315.001C72.3445 322.493 118.852 137.346 130.478 176.472C139.961 208.383 140.383 231.137 190.766 237.796C241.418 244.492 301.472 223.187 352.286 194.328C392.936 171.241 453.625 184.708 478.888 194.328C523.673 211.07 597.445 222.424 656.699 205.33C730.766 183.964 771.675 190.068 865.12 205.33C958.565 220.592 949.091 230.304 1027.03 254.168C1104.98 278.032 1149.76 254.168 1243.21 237.796Z" fill="url(#paint1_linear_841_12415)" fill-opacity="0.25"/>
<path d="M1440 254.167C1405.55 243.252 1317.96 224.697 1243.21 237.795C1149.76 254.167 1104.98 278.031 1027.03 254.167C949.091 230.303 958.565 220.591 865.12 205.329C771.675 190.067 730.766 183.962 656.699 205.329C597.445 222.422 523.673 211.068 478.888 194.326C453.625 184.707 392.936 171.239 352.286 194.326C301.472 223.185 292.152 242.194 241.5 235.499C191.117 228.839 190.766 207.499 130.478 176.47C94.1864 157.791 72.3445 322.492 0 314.999" stroke="#2CD9FF"/>
<path d="M1243.21 237.798C1317.96 224.701 1405.55 243.256 1440 254.17V318.003H0V315.003C72.3445 322.495 95.0696 156.17 130.478 176.474C175 202.002 205.117 236.843 255.5 243.503C306.152 250.198 301.472 223.189 352.286 194.33C392.936 171.243 453.625 184.711 478.888 194.33C523.673 211.072 597.445 222.426 656.699 205.332C730.766 183.966 771.675 190.071 865.12 205.332C958.565 220.594 949.091 230.306 1027.03 254.17C1104.98 278.034 1149.76 254.17 1243.21 237.798Z" fill="url(#paint2_linear_841_12415)" fill-opacity="0.25"/>
<path d="M1 316.002C35.1849 305.081 121.1 93.0165 195.281 106.121C288.008 122.502 364.657 305.879 442 282.002C519.343 258.125 512.749 55.9655 574.84 11.1911C636.93 -33.5834 730.484 191.48 793 232.503C836.782 261.232 903.5 83.002 970.907 59.7176C995.976 50.0928 1063.91 20.0341 1104.25 43.1337C1154.67 72.0082 1201.74 270.201 1252 263.503C1302 256.839 1284.57 75.0624 1293.98 43.1337C1305.51 3.9865 1366.21 110.498 1438 103.002" stroke="#6C8180"/>
<path d="M195.281 105.958C121.1 92.8706 34.1849 305.095 0 316.002H1438.29V101.001C1366.5 108.488 1305.51 3.95439 1293.98 43.0516C1284.57 74.9394 1302.5 256.847 1252.5 263.502C1202.24 270.192 1154.67 71.8891 1104.25 43.0516C1063.91 19.9815 995.976 50.0017 970.907 59.6143C892.5 89.6788 837.782 262.195 794 233.502C731.484 192.532 636.93 -33.5674 574.84 11.1498C512.749 55.867 516.843 260.681 439.5 284.528C362.157 308.374 288.008 122.318 195.281 105.958Z" fill="url(#paint3_linear_841_12415)" fill-opacity="0.25"/>
<rect width="44" height="22" transform="translate(137 203)" fill="#0175FF"/>
<path d="M147.668 218L145.247 209.273H146.632L148.332 216.031H148.413L150.182 209.273H151.554L153.322 216.036H153.403L155.099 209.273H156.489L154.064 218H152.739L150.902 211.463H150.834L148.997 218H147.668ZM156.947 218V211.455H158.221V218H156.947ZM157.59 210.445C157.369 210.445 157.179 210.371 157.019 210.223C156.863 210.072 156.785 209.893 156.785 209.686C156.785 209.476 156.863 209.297 157.019 209.149C157.179 208.999 157.369 208.923 157.59 208.923C157.812 208.923 158.001 208.999 158.157 209.149C158.316 209.297 158.396 209.476 158.396 209.686C158.396 209.893 158.316 210.072 158.157 210.223C158.001 210.371 157.812 210.445 157.59 210.445ZM160.569 214.114V218H159.295V211.455H160.518V212.52H160.599C160.75 212.173 160.986 211.895 161.307 211.685C161.631 211.474 162.038 211.369 162.53 211.369C162.976 211.369 163.366 211.463 163.702 211.651C164.037 211.835 164.297 212.111 164.481 212.477C164.666 212.844 164.758 213.297 164.758 213.837V218H163.484V213.99C163.484 213.516 163.361 213.145 163.113 212.878C162.866 212.608 162.527 212.473 162.095 212.473C161.8 212.473 161.537 212.537 161.307 212.665C161.079 212.793 160.899 212.98 160.765 213.227C160.635 213.472 160.569 213.767 160.569 214.114ZM168.277 218.128C167.749 218.128 167.277 217.993 166.863 217.723C166.451 217.45 166.127 217.062 165.891 216.56C165.658 216.054 165.542 215.447 165.542 214.74C165.542 214.033 165.66 213.428 165.895 212.925C166.134 212.422 166.461 212.037 166.875 211.77C167.29 211.503 167.76 211.369 168.286 211.369C168.692 211.369 169.019 211.438 169.266 211.574C169.516 211.707 169.709 211.864 169.846 212.043C169.985 212.222 170.093 212.379 170.169 212.516H170.246V209.273H171.52V218H170.276V216.982H170.169C170.093 217.121 169.982 217.28 169.837 217.459C169.695 217.638 169.499 217.794 169.249 217.928C168.999 218.061 168.675 218.128 168.277 218.128ZM168.559 217.041C168.925 217.041 169.235 216.945 169.488 216.751C169.743 216.555 169.937 216.284 170.067 215.938C170.201 215.591 170.267 215.187 170.267 214.727C170.267 214.273 170.202 213.875 170.071 213.534C169.941 213.193 169.749 212.928 169.496 212.737C169.243 212.547 168.931 212.452 168.559 212.452C168.175 212.452 167.856 212.551 167.6 212.75C167.344 212.949 167.151 213.22 167.02 213.564C166.892 213.908 166.829 214.295 166.829 214.727C166.829 215.165 166.894 215.558 167.025 215.908C167.155 216.257 167.348 216.534 167.604 216.739C167.863 216.94 168.181 217.041 168.559 217.041Z" fill="white"/>
<rect width="41" height="22" transform="translate(137 174)" fill="#2FD6FA"/>
<path d="M151.865 183.03C151.783 182.771 151.672 182.54 151.533 182.335C151.396 182.128 151.233 181.952 151.043 181.807C150.852 181.659 150.635 181.547 150.391 181.47C150.149 181.393 149.884 181.355 149.594 181.355C149.102 181.355 148.659 181.482 148.264 181.734C147.869 181.987 147.557 182.358 147.327 182.847C147.099 183.332 146.986 183.928 146.986 184.632C146.986 185.339 147.101 185.937 147.331 186.426C147.561 186.915 147.876 187.286 148.277 187.538C148.678 187.791 149.134 187.918 149.645 187.918C150.119 187.918 150.533 187.821 150.885 187.628C151.24 187.435 151.514 187.162 151.707 186.81C151.903 186.455 152.001 186.037 152.001 185.557L152.342 185.621H149.845V184.534H153.276V185.527C153.276 186.26 153.119 186.896 152.807 187.436C152.497 187.973 152.068 188.388 151.52 188.68C150.974 188.973 150.349 189.119 149.645 189.119C148.855 189.119 148.162 188.938 147.565 188.574C146.972 188.21 146.509 187.695 146.176 187.027C145.844 186.357 145.678 185.561 145.678 184.641C145.678 183.945 145.774 183.32 145.967 182.766C146.161 182.212 146.432 181.741 146.781 181.355C147.134 180.966 147.547 180.669 148.021 180.464C148.499 180.257 149.02 180.153 149.585 180.153C150.057 180.153 150.496 180.223 150.902 180.362C151.311 180.501 151.675 180.699 151.993 180.955C152.314 181.21 152.58 181.514 152.79 181.866C153 182.216 153.142 182.604 153.216 183.03H151.865ZM156.962 189.132C156.348 189.132 155.813 188.991 155.355 188.71C154.898 188.429 154.543 188.036 154.29 187.53C154.037 187.024 153.911 186.433 153.911 185.757C153.911 185.078 154.037 184.484 154.29 183.976C154.543 183.467 154.898 183.072 155.355 182.791C155.813 182.51 156.348 182.369 156.962 182.369C157.576 182.369 158.111 182.51 158.568 182.791C159.026 183.072 159.381 183.467 159.634 183.976C159.887 184.484 160.013 185.078 160.013 185.757C160.013 186.433 159.887 187.024 159.634 187.53C159.381 188.036 159.026 188.429 158.568 188.71C158.111 188.991 157.576 189.132 156.962 189.132ZM156.966 188.062C157.364 188.062 157.693 187.957 157.955 187.747C158.216 187.537 158.409 187.257 158.534 186.908C158.662 186.558 158.726 186.173 158.726 185.753C158.726 185.335 158.662 184.952 158.534 184.602C158.409 184.25 158.216 183.967 157.955 183.754C157.693 183.541 157.364 183.435 156.966 183.435C156.566 183.435 156.233 183.541 155.969 183.754C155.708 183.967 155.513 184.25 155.385 184.602C155.26 184.952 155.198 185.335 155.198 185.753C155.198 186.173 155.26 186.558 155.385 186.908C155.513 187.257 155.708 187.537 155.969 187.747C156.233 187.957 156.566 188.062 156.966 188.062ZM162.7 189.145C162.285 189.145 161.91 189.068 161.575 188.915C161.24 188.759 160.974 188.533 160.778 188.237C160.585 187.942 160.488 187.58 160.488 187.151C160.488 186.781 160.559 186.477 160.702 186.239C160.844 186 161.035 185.811 161.277 185.672C161.518 185.533 161.788 185.428 162.086 185.357C162.385 185.286 162.689 185.232 162.998 185.195C163.39 185.149 163.709 185.112 163.953 185.084C164.197 185.053 164.375 185.003 164.486 184.935C164.596 184.866 164.652 184.756 164.652 184.602V184.572C164.652 184.2 164.547 183.912 164.336 183.707C164.129 183.503 163.819 183.401 163.408 183.401C162.979 183.401 162.64 183.496 162.393 183.686C162.149 183.874 161.98 184.082 161.886 184.312L160.689 184.04C160.831 183.642 161.038 183.321 161.311 183.077C161.586 182.83 161.903 182.651 162.261 182.54C162.619 182.426 162.996 182.369 163.39 182.369C163.652 182.369 163.929 182.401 164.221 182.463C164.517 182.523 164.792 182.634 165.048 182.795C165.307 182.957 165.518 183.189 165.683 183.49C165.848 183.788 165.93 184.176 165.93 184.653V189H164.686V188.105H164.635C164.552 188.27 164.429 188.432 164.264 188.591C164.099 188.75 163.888 188.882 163.629 188.987C163.371 189.092 163.061 189.145 162.7 189.145ZM162.977 188.122C163.329 188.122 163.631 188.053 163.881 187.913C164.133 187.774 164.325 187.592 164.456 187.368C164.589 187.141 164.656 186.898 164.656 186.639V185.795C164.611 185.841 164.523 185.884 164.392 185.923C164.264 185.96 164.118 185.993 163.953 186.021C163.788 186.047 163.628 186.071 163.471 186.094C163.315 186.114 163.184 186.131 163.079 186.145C162.832 186.176 162.606 186.229 162.402 186.303C162.2 186.376 162.038 186.483 161.916 186.622C161.797 186.759 161.737 186.94 161.737 187.168C161.737 187.483 161.854 187.722 162.086 187.884C162.319 188.043 162.616 188.122 162.977 188.122ZM168.261 180.273V189H166.987V180.273H168.261Z" fill="white"/>
<rect width="43" height="22" transform="translate(137 111)" fill="#6C8180"/>
<path d="M150.719 119.565C150.673 119.162 150.486 118.849 150.156 118.628C149.827 118.403 149.412 118.291 148.912 118.291C148.554 118.291 148.244 118.348 147.983 118.462C147.722 118.572 147.518 118.726 147.374 118.922C147.232 119.115 147.161 119.335 147.161 119.582C147.161 119.79 147.209 119.969 147.305 120.119C147.405 120.27 147.534 120.396 147.693 120.499C147.855 120.598 148.028 120.682 148.213 120.75C148.398 120.815 148.575 120.869 148.746 120.912L149.598 121.134C149.876 121.202 150.162 121.294 150.455 121.411C150.747 121.527 151.018 121.68 151.268 121.871C151.518 122.061 151.72 122.297 151.874 122.578C152.03 122.859 152.108 123.196 152.108 123.588C152.108 124.082 151.98 124.521 151.724 124.905C151.472 125.288 151.104 125.591 150.621 125.812C150.141 126.034 149.56 126.145 148.878 126.145C148.224 126.145 147.659 126.041 147.182 125.834C146.705 125.626 146.331 125.332 146.061 124.952C145.791 124.568 145.642 124.114 145.614 123.588H146.935C146.96 123.903 147.063 124.166 147.241 124.376C147.423 124.584 147.655 124.739 147.936 124.841C148.22 124.94 148.531 124.99 148.869 124.99C149.241 124.99 149.572 124.932 149.862 124.815C150.155 124.696 150.385 124.531 150.553 124.321C150.72 124.108 150.804 123.859 150.804 123.575C150.804 123.317 150.73 123.105 150.582 122.94C150.438 122.776 150.24 122.639 149.99 122.531C149.743 122.423 149.463 122.328 149.151 122.246L148.119 121.964C147.42 121.774 146.866 121.494 146.457 121.125C146.051 120.756 145.848 120.267 145.848 119.659C145.848 119.156 145.984 118.717 146.257 118.342C146.53 117.967 146.899 117.676 147.365 117.469C147.831 117.259 148.357 117.153 148.942 117.153C149.533 117.153 150.054 117.257 150.506 117.464C150.96 117.672 151.318 117.957 151.58 118.321C151.841 118.682 151.977 119.097 151.989 119.565H150.719ZM155.696 126.132C155.083 126.132 154.547 125.991 154.09 125.71C153.632 125.429 153.277 125.036 153.024 124.53C152.772 124.024 152.645 123.433 152.645 122.757C152.645 122.078 152.772 121.484 153.024 120.976C153.277 120.467 153.632 120.072 154.09 119.791C154.547 119.51 155.083 119.369 155.696 119.369C156.31 119.369 156.845 119.51 157.303 119.791C157.76 120.072 158.115 120.467 158.368 120.976C158.621 121.484 158.747 122.078 158.747 122.757C158.747 123.433 158.621 124.024 158.368 124.53C158.115 125.036 157.76 125.429 157.303 125.71C156.845 125.991 156.31 126.132 155.696 126.132ZM155.701 125.062C156.098 125.062 156.428 124.957 156.689 124.747C156.951 124.537 157.144 124.257 157.269 123.908C157.397 123.558 157.46 123.173 157.46 122.753C157.46 122.335 157.397 121.952 157.269 121.602C157.144 121.25 156.951 120.967 156.689 120.754C156.428 120.541 156.098 120.435 155.701 120.435C155.3 120.435 154.968 120.541 154.703 120.754C154.442 120.967 154.247 121.25 154.12 121.602C153.995 121.952 153.932 122.335 153.932 122.753C153.932 123.173 153.995 123.558 154.12 123.908C154.247 124.257 154.442 124.537 154.703 124.747C154.968 124.957 155.3 125.062 155.701 125.062ZM160.804 117.273V126H159.53V117.273H160.804ZM163.783 126.145C163.368 126.145 162.993 126.068 162.658 125.915C162.323 125.759 162.057 125.533 161.861 125.237C161.668 124.942 161.571 124.58 161.571 124.151C161.571 123.781 161.642 123.477 161.784 123.239C161.926 123 162.118 122.811 162.359 122.672C162.601 122.533 162.871 122.428 163.169 122.357C163.467 122.286 163.771 122.232 164.081 122.195C164.473 122.149 164.791 122.112 165.036 122.084C165.28 122.053 165.457 122.003 165.568 121.935C165.679 121.866 165.734 121.756 165.734 121.602V121.572C165.734 121.2 165.629 120.912 165.419 120.707C165.212 120.503 164.902 120.401 164.49 120.401C164.061 120.401 163.723 120.496 163.476 120.686C163.232 120.874 163.063 121.082 162.969 121.312L161.771 121.04C161.913 120.642 162.121 120.321 162.394 120.077C162.669 119.83 162.986 119.651 163.344 119.54C163.702 119.426 164.078 119.369 164.473 119.369C164.734 119.369 165.011 119.401 165.304 119.463C165.6 119.523 165.875 119.634 166.131 119.795C166.389 119.957 166.601 120.189 166.766 120.49C166.93 120.788 167.013 121.176 167.013 121.653V126H165.769V125.105H165.717C165.635 125.27 165.511 125.432 165.347 125.591C165.182 125.75 164.97 125.882 164.712 125.987C164.453 126.092 164.144 126.145 163.783 126.145ZM164.06 125.122C164.412 125.122 164.713 125.053 164.963 124.913C165.216 124.774 165.408 124.592 165.538 124.368C165.672 124.141 165.739 123.898 165.739 123.639V122.795C165.693 122.841 165.605 122.884 165.475 122.923C165.347 122.96 165.2 122.993 165.036 123.021C164.871 123.047 164.71 123.071 164.554 123.094C164.398 123.114 164.267 123.131 164.162 123.145C163.915 123.176 163.689 123.229 163.484 123.303C163.283 123.376 163.121 123.483 162.999 123.622C162.879 123.759 162.82 123.94 162.82 124.168C162.82 124.483 162.936 124.722 163.169 124.884C163.402 125.043 163.699 125.122 164.06 125.122ZM168.07 126V119.455H169.302V120.494H169.37C169.489 120.142 169.699 119.865 170 119.663C170.304 119.459 170.648 119.357 171.032 119.357C171.111 119.357 171.205 119.359 171.313 119.365C171.424 119.371 171.51 119.378 171.573 119.386V120.605C171.522 120.591 171.431 120.575 171.3 120.558C171.169 120.538 171.039 120.528 170.908 120.528C170.607 120.528 170.338 120.592 170.103 120.72C169.87 120.845 169.685 121.02 169.549 121.244C169.412 121.466 169.344 121.719 169.344 122.003V126H168.07Z" fill="white"/>
<path d="M390.5 130L400 121L381 121L390.5 130Z" fill="#0C0C0C"/>
<rect width="179" height="121" transform="matrix(1 0 0 -1 301 121)" fill="#0C0C0C"/>
<circle cx="321" cy="102" r="4" fill="#6C8180"/>
<path d="M339.538 99.6172C339.491 99.183 339.296 98.8449 338.951 98.603C338.61 98.361 338.165 98.2401 337.619 98.2401C337.234 98.2401 336.904 98.2981 336.629 98.4141C336.354 98.5301 336.144 98.6875 335.998 98.8864C335.852 99.0852 335.777 99.3123 335.774 99.5675C335.774 99.7796 335.822 99.9635 335.918 100.119C336.018 100.275 336.152 100.408 336.321 100.517C336.49 100.623 336.677 100.713 336.883 100.786C337.088 100.858 337.295 100.92 337.504 100.969L338.459 101.208C338.843 101.298 339.213 101.419 339.567 101.571C339.925 101.723 340.245 101.916 340.527 102.148C340.812 102.38 341.037 102.66 341.203 102.988C341.369 103.316 341.452 103.701 341.452 104.141C341.452 104.738 341.299 105.263 340.994 105.717C340.689 106.168 340.249 106.521 339.672 106.776C339.098 107.028 338.404 107.154 337.589 107.154C336.797 107.154 336.109 107.031 335.526 106.786C334.946 106.541 334.491 106.183 334.163 105.712C333.839 105.242 333.663 104.668 333.636 103.992H335.451C335.478 104.347 335.587 104.642 335.779 104.877C335.971 105.112 336.222 105.288 336.53 105.404C336.841 105.52 337.189 105.578 337.574 105.578C337.975 105.578 338.326 105.518 338.628 105.399C338.933 105.277 339.171 105.107 339.344 104.892C339.516 104.673 339.604 104.418 339.607 104.126C339.604 103.861 339.526 103.643 339.374 103.47C339.221 103.295 339.007 103.149 338.732 103.033C338.46 102.913 338.142 102.807 337.778 102.714L336.619 102.416C335.781 102.201 335.118 101.874 334.631 101.437C334.147 100.996 333.905 100.411 333.905 99.6818C333.905 99.0819 334.067 98.5566 334.392 98.1058C334.72 97.6551 335.166 97.3054 335.729 97.0568C336.293 96.8049 336.931 96.679 337.643 96.679C338.366 96.679 338.999 96.8049 339.543 97.0568C340.089 97.3054 340.519 97.6518 340.83 98.0959C341.142 98.5367 341.303 99.0438 341.312 99.6172H339.538ZM346.347 107.149C345.602 107.149 344.955 106.985 344.409 106.657C343.862 106.329 343.437 105.87 343.136 105.28C342.838 104.69 342.688 104 342.688 103.212C342.688 102.423 342.838 101.732 343.136 101.138C343.437 100.545 343.862 100.085 344.409 99.7564C344.955 99.4283 345.602 99.2642 346.347 99.2642C347.093 99.2642 347.74 99.4283 348.286 99.7564C348.833 100.085 349.256 100.545 349.554 101.138C349.856 101.732 350.007 102.423 350.007 103.212C350.007 104 349.856 104.69 349.554 105.28C349.256 105.87 348.833 106.329 348.286 106.657C347.74 106.985 347.093 107.149 346.347 107.149ZM346.357 105.707C346.762 105.707 347.1 105.596 347.372 105.374C347.643 105.149 347.846 104.847 347.978 104.469C348.114 104.092 348.182 103.671 348.182 103.207C348.182 102.739 348.114 102.317 347.978 101.939C347.846 101.558 347.643 101.254 347.372 101.029C347.1 100.804 346.762 100.691 346.357 100.691C345.943 100.691 345.598 100.804 345.323 101.029C345.052 101.254 344.848 101.558 344.712 101.939C344.579 102.317 344.513 102.739 344.513 103.207C344.513 103.671 344.579 104.092 344.712 104.469C344.848 104.847 345.052 105.149 345.323 105.374C345.598 105.596 345.943 105.707 346.357 105.707ZM353.334 96.8182V107H351.534V96.8182H353.334ZM357.382 107.154C356.898 107.154 356.462 107.068 356.074 106.896C355.69 106.72 355.385 106.461 355.16 106.12C354.938 105.779 354.827 105.358 354.827 104.857C354.827 104.426 354.906 104.07 355.065 103.788C355.224 103.507 355.441 103.281 355.716 103.112C355.992 102.943 356.301 102.816 356.646 102.729C356.994 102.64 357.354 102.575 357.725 102.536C358.172 102.489 358.535 102.448 358.814 102.411C359.092 102.371 359.294 102.312 359.42 102.232C359.55 102.149 359.614 102.022 359.614 101.849V101.82C359.614 101.445 359.503 101.155 359.281 100.95C359.059 100.744 358.739 100.641 358.322 100.641C357.881 100.641 357.531 100.737 357.273 100.93C357.017 101.122 356.845 101.349 356.756 101.611L355.075 101.372C355.208 100.908 355.426 100.52 355.731 100.209C356.036 99.8939 356.409 99.6586 356.85 99.5028C357.291 99.3438 357.778 99.2642 358.312 99.2642C358.68 99.2642 359.046 99.3073 359.41 99.3935C359.775 99.4796 360.108 99.6222 360.41 99.821C360.711 100.017 360.953 100.283 361.135 100.621C361.321 100.96 361.414 101.382 361.414 101.889V107H359.684V105.951H359.624C359.515 106.163 359.361 106.362 359.162 106.548C358.966 106.73 358.719 106.877 358.421 106.99C358.126 107.099 357.78 107.154 357.382 107.154ZM357.849 105.832C358.211 105.832 358.524 105.76 358.789 105.618C359.054 105.472 359.258 105.28 359.4 105.041C359.546 104.803 359.619 104.542 359.619 104.261V103.361C359.563 103.407 359.467 103.45 359.331 103.49C359.198 103.53 359.049 103.565 358.883 103.594C358.718 103.624 358.554 103.651 358.391 103.674C358.229 103.697 358.088 103.717 357.969 103.734C357.7 103.77 357.46 103.83 357.248 103.913C357.036 103.996 356.868 104.112 356.746 104.261C356.623 104.406 356.562 104.595 356.562 104.827C356.562 105.159 356.683 105.409 356.925 105.578C357.166 105.747 357.475 105.832 357.849 105.832ZM363.224 107V99.3636H364.969V100.636H365.048C365.187 100.196 365.426 99.8558 365.764 99.6172C366.105 99.3752 366.495 99.2543 366.932 99.2543C367.032 99.2543 367.143 99.2592 367.265 99.2692C367.391 99.2758 367.496 99.2874 367.579 99.304V100.96C367.502 100.933 367.381 100.91 367.216 100.89C367.053 100.867 366.896 100.855 366.743 100.855C366.415 100.855 366.12 100.926 365.858 101.069C365.6 101.208 365.396 101.402 365.247 101.651C365.098 101.899 365.023 102.186 365.023 102.511V107H363.224Z" fill="white"/>
<g opacity="0.1">
<rect x="376" y="96" width="1" height="12" rx="0.5" fill="white"/>
</g>
<path d="M385.776 106V104.858L388.805 101.888C389.095 101.595 389.337 101.335 389.53 101.108C389.723 100.881 389.868 100.661 389.964 100.447C390.061 100.234 390.109 100.007 390.109 99.7656C390.109 99.4901 390.047 99.2543 389.922 99.0582C389.797 98.8594 389.625 98.706 389.406 98.598C389.188 98.4901 388.939 98.4361 388.661 98.4361C388.374 98.4361 388.122 98.4957 387.906 98.6151C387.69 98.7315 387.523 98.8977 387.403 99.1136C387.287 99.3295 387.229 99.5866 387.229 99.8849H385.724C385.724 99.331 385.851 98.8494 386.104 98.4403C386.357 98.0312 386.705 97.7145 387.148 97.4901C387.594 97.2656 388.105 97.1534 388.682 97.1534C389.267 97.1534 389.781 97.2628 390.224 97.4815C390.668 97.7003 391.011 98 391.256 98.3807C391.503 98.7614 391.626 99.196 391.626 99.6847C391.626 100.011 391.564 100.332 391.439 100.648C391.314 100.963 391.094 101.312 390.778 101.696C390.466 102.08 390.027 102.544 389.462 103.089L387.957 104.619V104.679H391.759V106H385.776ZM395.057 104.807L395.001 105.276C394.962 105.634 394.891 105.997 394.788 106.366C394.689 106.739 394.584 107.081 394.473 107.393C394.362 107.706 394.273 107.952 394.205 108.131H393.165C393.205 107.957 393.259 107.722 393.327 107.423C393.398 107.125 393.466 106.79 393.531 106.418C393.597 106.045 393.641 105.668 393.663 105.284L393.693 104.807H395.057ZM399.696 106.119C399.128 106.119 398.62 106.013 398.171 105.8C397.722 105.584 397.365 105.288 397.101 104.913C396.84 104.538 396.701 104.109 396.684 103.626H398.218C398.246 103.984 398.401 104.277 398.682 104.504C398.963 104.729 399.301 104.841 399.696 104.841C400.006 104.841 400.282 104.77 400.523 104.628C400.765 104.486 400.955 104.288 401.094 104.036C401.233 103.783 401.301 103.494 401.299 103.17C401.301 102.841 401.232 102.548 401.09 102.293C400.948 102.037 400.753 101.837 400.506 101.692C400.259 101.544 399.975 101.47 399.654 101.47C399.392 101.467 399.135 101.516 398.882 101.615C398.63 101.714 398.429 101.845 398.282 102.007L396.854 101.773L397.31 97.2727H402.373V98.5938H398.618L398.367 100.908H398.418C398.58 100.717 398.809 100.56 399.104 100.435C399.4 100.307 399.723 100.243 400.076 100.243C400.604 100.243 401.076 100.368 401.49 100.618C401.905 100.865 402.232 101.206 402.471 101.641C402.709 102.075 402.828 102.572 402.828 103.132C402.828 103.709 402.695 104.223 402.428 104.675C402.164 105.124 401.796 105.477 401.324 105.736C400.855 105.991 400.313 106.119 399.696 106.119ZM407.482 106.166C406.78 106.166 406.178 105.989 405.675 105.634C405.175 105.276 404.79 104.76 404.52 104.087C404.253 103.411 404.12 102.597 404.12 101.645C404.123 100.693 404.257 99.8835 404.525 99.2159C404.794 98.5455 405.179 98.0341 405.679 97.6818C406.182 97.3295 406.783 97.1534 407.482 97.1534C408.181 97.1534 408.782 97.3295 409.284 97.6818C409.787 98.0341 410.172 98.5455 410.439 99.2159C410.709 99.8864 410.844 100.696 410.844 101.645C410.844 102.599 410.709 103.415 410.439 104.091C410.172 104.764 409.787 105.278 409.284 105.634C408.784 105.989 408.184 106.166 407.482 106.166ZM407.482 104.832C408.027 104.832 408.458 104.564 408.773 104.027C409.091 103.487 409.25 102.693 409.25 101.645C409.25 100.952 409.178 100.369 409.033 99.8977C408.888 99.4261 408.684 99.071 408.419 98.8324C408.155 98.5909 407.843 98.4702 407.482 98.4702C406.939 98.4702 406.51 98.7401 406.195 99.2798C405.88 99.8168 405.721 100.605 405.718 101.645C405.715 102.341 405.784 102.926 405.926 103.401C406.071 103.875 406.276 104.233 406.54 104.474C406.804 104.713 407.118 104.832 407.482 104.832ZM415.486 106.166C414.784 106.166 414.182 105.989 413.679 105.634C413.179 105.276 412.794 104.76 412.524 104.087C412.257 103.411 412.124 102.597 412.124 101.645C412.126 100.693 412.261 99.8835 412.528 99.2159C412.798 98.5455 413.183 98.0341 413.683 97.6818C414.186 97.3295 414.787 97.1534 415.486 97.1534C416.185 97.1534 416.786 97.3295 417.288 97.6818C417.791 98.0341 418.176 98.5455 418.443 99.2159C418.713 99.8864 418.848 100.696 418.848 101.645C418.848 102.599 418.713 103.415 418.443 104.091C418.176 104.764 417.791 105.278 417.288 105.634C416.788 105.989 416.188 106.166 415.486 106.166ZM415.486 104.832C416.031 104.832 416.462 104.564 416.777 104.027C417.095 103.487 417.254 102.693 417.254 101.645C417.254 100.952 417.182 100.369 417.037 99.8977C416.892 99.4261 416.688 99.071 416.423 98.8324C416.159 98.5909 415.847 98.4702 415.486 98.4702C414.943 98.4702 414.514 98.7401 414.199 99.2798C413.884 99.8168 413.724 100.605 413.722 101.645C413.719 102.341 413.788 102.926 413.93 103.401C414.075 103.875 414.28 104.233 414.544 104.474C414.808 104.713 415.122 104.832 415.486 104.832ZM423.076 107.091V96.1818H423.775V107.091H423.076ZM425.092 99.6719C425.052 99.2997 424.885 99.0099 424.589 98.8026C424.297 98.5952 423.916 98.4915 423.447 98.4915C423.118 98.4915 422.835 98.5412 422.599 98.6406C422.363 98.7401 422.183 98.875 422.058 99.0455C421.933 99.2159 421.869 99.4105 421.866 99.6293C421.866 99.8111 421.907 99.9687 421.99 100.102C422.075 100.236 422.19 100.349 422.335 100.443C422.48 100.534 422.64 100.611 422.816 100.673C422.993 100.736 423.17 100.788 423.349 100.831L424.167 101.036C424.497 101.112 424.814 101.216 425.118 101.347C425.424 101.477 425.699 101.642 425.94 101.841C426.184 102.04 426.377 102.28 426.52 102.561C426.662 102.842 426.733 103.172 426.733 103.55C426.733 104.061 426.602 104.511 426.341 104.901C426.079 105.287 425.701 105.589 425.207 105.808C424.716 106.024 424.12 106.132 423.422 106.132C422.743 106.132 422.153 106.027 421.653 105.817C421.156 105.607 420.767 105.3 420.485 104.896C420.207 104.493 420.056 104.001 420.034 103.422H421.589C421.612 103.726 421.706 103.979 421.87 104.18C422.035 104.382 422.25 104.533 422.514 104.632C422.781 104.732 423.079 104.781 423.409 104.781C423.752 104.781 424.054 104.73 424.312 104.628C424.574 104.523 424.778 104.378 424.926 104.193C425.074 104.006 425.149 103.787 425.152 103.537C425.149 103.31 425.082 103.122 424.951 102.974C424.821 102.824 424.637 102.699 424.402 102.599C424.169 102.497 423.896 102.406 423.583 102.327L422.591 102.071C421.872 101.886 421.304 101.607 420.886 101.232C420.471 100.854 420.264 100.352 420.264 99.7273C420.264 99.2131 420.403 98.7628 420.681 98.3764C420.963 97.9901 421.345 97.6903 421.828 97.4773C422.311 97.2614 422.858 97.1534 423.468 97.1534C424.088 97.1534 424.63 97.2614 425.096 97.4773C425.565 97.6903 425.933 97.9872 426.2 98.3679C426.467 98.7457 426.605 99.1804 426.613 99.6719H425.092Z" fill="white"/>
<path opacity="0.7" d="M436.67 101.168V102.105H432.852V101.168H436.67ZM441.218 106.119C440.633 106.119 440.116 106.016 439.667 105.808C439.221 105.598 438.873 105.31 438.623 104.943C438.373 104.574 438.25 104.153 438.252 103.682C438.25 103.312 438.322 102.972 438.47 102.659C438.618 102.344 438.819 102.081 439.075 101.871C439.333 101.658 439.622 101.523 439.94 101.466V101.415C439.522 101.307 439.19 101.072 438.943 100.712C438.696 100.348 438.574 99.9347 438.576 99.4716C438.574 99.0284 438.686 98.6321 438.913 98.2827C439.14 97.9332 439.453 97.6577 439.85 97.456C440.251 97.2543 440.707 97.1534 441.218 97.1534C441.724 97.1534 442.176 97.2543 442.574 97.456C442.971 97.6577 443.284 97.9332 443.511 98.2827C443.741 98.6321 443.858 99.0284 443.86 99.4716C443.858 99.9347 443.731 100.348 443.481 100.712C443.234 101.072 442.906 101.307 442.497 101.415V101.466C442.812 101.523 443.096 101.658 443.349 101.871C443.602 102.081 443.804 102.344 443.954 102.659C444.105 102.972 444.181 103.312 444.184 103.682C444.181 104.153 444.054 104.574 443.801 104.943C443.551 105.31 443.203 105.598 442.757 105.808C442.314 106.016 441.801 106.119 441.218 106.119ZM441.218 105.182C441.613 105.182 441.954 105.118 442.241 104.99C442.528 104.862 442.75 104.682 442.906 104.449C443.062 104.216 443.142 103.943 443.145 103.631C443.142 103.301 443.056 103.01 442.889 102.757C442.721 102.504 442.493 102.305 442.203 102.161C441.916 102.016 441.588 101.943 441.218 101.943C440.846 101.943 440.514 102.016 440.221 102.161C439.931 102.305 439.703 102.504 439.535 102.757C439.37 103.01 439.289 103.301 439.292 103.631C439.289 103.943 439.365 104.216 439.518 104.449C439.674 104.682 439.897 104.862 440.187 104.99C440.477 105.118 440.821 105.182 441.218 105.182ZM441.218 101.04C441.531 101.04 441.808 100.977 442.049 100.852C442.294 100.727 442.485 100.553 442.625 100.328C442.764 100.104 442.835 99.8409 442.838 99.5398C442.835 99.2443 442.765 98.9872 442.629 98.7685C442.493 98.5469 442.304 98.3764 442.062 98.2571C441.821 98.1349 441.539 98.0739 441.218 98.0739C440.892 98.0739 440.606 98.1349 440.362 98.2571C440.118 98.3764 439.929 98.5469 439.795 98.7685C439.662 98.9872 439.596 99.2443 439.599 99.5398C439.596 99.8409 439.663 100.104 439.799 100.328C439.939 100.553 440.13 100.727 440.375 100.852C440.619 100.977 440.9 101.04 441.218 101.04ZM450.266 104.364V103.903C450.266 103.585 450.332 103.294 450.462 103.03C450.596 102.763 450.789 102.55 451.042 102.391C451.298 102.229 451.607 102.148 451.971 102.148C452.34 102.148 452.65 102.229 452.9 102.391C453.15 102.55 453.339 102.763 453.467 103.03C453.594 103.294 453.658 103.585 453.658 103.903V104.364C453.658 104.682 453.593 104.974 453.462 105.241C453.335 105.506 453.144 105.719 452.891 105.881C452.641 106.04 452.335 106.119 451.971 106.119C451.602 106.119 451.29 106.04 451.038 105.881C450.785 105.719 450.593 105.506 450.462 105.241C450.332 104.974 450.266 104.682 450.266 104.364ZM451.136 103.903V104.364C451.136 104.628 451.198 104.865 451.323 105.075C451.448 105.283 451.664 105.386 451.971 105.386C452.269 105.386 452.479 105.283 452.602 105.075C452.727 104.865 452.789 104.628 452.789 104.364V103.903C452.789 103.639 452.729 103.403 452.61 103.196C452.491 102.986 452.278 102.881 451.971 102.881C451.673 102.881 451.458 102.986 451.327 103.196C451.2 103.403 451.136 103.639 451.136 103.903ZM445.92 99.3693V98.9091C445.92 98.5909 445.985 98.2997 446.116 98.0355C446.249 97.7685 446.442 97.5554 446.695 97.3963C446.951 97.2344 447.261 97.1534 447.624 97.1534C447.994 97.1534 448.303 97.2344 448.553 97.3963C448.803 97.5554 448.992 97.7685 449.12 98.0355C449.248 98.2997 449.312 98.5909 449.312 98.9091V99.3693C449.312 99.6875 449.246 99.9801 449.116 100.247C448.988 100.511 448.798 100.724 448.545 100.886C448.295 101.045 447.988 101.125 447.624 101.125C447.255 101.125 446.944 101.045 446.691 100.886C446.438 100.724 446.246 100.511 446.116 100.247C445.985 99.9801 445.92 99.6875 445.92 99.3693ZM446.789 98.9091V99.3693C446.789 99.6335 446.852 99.8707 446.977 100.081C447.102 100.288 447.317 100.392 447.624 100.392C447.923 100.392 448.133 100.288 448.255 100.081C448.38 99.8707 448.442 99.6335 448.442 99.3693V98.9091C448.442 98.6449 448.383 98.4091 448.263 98.2017C448.144 97.9915 447.931 97.8864 447.624 97.8864C447.326 97.8864 447.112 97.9915 446.981 98.2017C446.853 98.4091 446.789 98.6449 446.789 98.9091ZM446.244 106L452.244 97.2727H453.215L447.215 106H446.244Z" fill="#FF2424"/>
<circle cx="321" cy="76" r="4" fill="#2FD6FA"/>
<path d="M340.825 74.0696C340.742 73.8011 340.628 73.5608 340.482 73.3487C340.34 73.1333 340.167 72.9493 339.965 72.7969C339.766 72.6444 339.538 72.5301 339.279 72.4538C339.021 72.3743 338.739 72.3345 338.434 72.3345C337.887 72.3345 337.4 72.4721 336.972 72.7472C336.545 73.0223 336.208 73.4266 335.963 73.9602C335.721 74.4905 335.6 75.1368 335.6 75.8991C335.6 76.6681 335.721 77.3194 335.963 77.853C336.205 78.3866 336.541 78.7926 336.972 79.071C337.403 79.3461 337.904 79.4837 338.474 79.4837C338.991 79.4837 339.438 79.3842 339.816 79.1854C340.197 78.9865 340.491 78.7048 340.696 78.3402C340.902 77.9723 341.004 77.5414 341.004 77.0476L341.422 77.1122H338.658V75.6705H342.789V76.8935C342.789 77.7652 342.603 78.5192 342.232 79.1555C341.861 79.7919 341.351 80.2824 340.701 80.6271C340.051 80.9685 339.306 81.1392 338.464 81.1392C337.526 81.1392 336.702 80.9287 335.993 80.5078C335.287 80.0836 334.735 79.482 334.337 78.7031C333.943 77.9209 333.746 76.9929 333.746 75.919C333.746 75.0971 333.862 74.3629 334.094 73.7166C334.329 73.0703 334.657 72.5218 335.078 72.071C335.499 71.617 335.993 71.2723 336.56 71.0369C337.126 70.7983 337.743 70.679 338.409 70.679C338.973 70.679 339.498 70.7618 339.985 70.9276C340.472 71.09 340.905 71.322 341.283 71.6236C341.664 71.9252 341.977 72.2831 342.222 72.6974C342.468 73.1117 342.628 73.5691 342.705 74.0696H340.825ZM347.824 81.1491C347.078 81.1491 346.432 80.9851 345.885 80.657C345.338 80.3288 344.914 79.8698 344.612 79.2798C344.314 78.6899 344.165 78.0005 344.165 77.2116C344.165 76.4228 344.314 75.7318 344.612 75.1385C344.914 74.5452 345.338 74.0845 345.885 73.7564C346.432 73.4283 347.078 73.2642 347.824 73.2642C348.57 73.2642 349.216 73.4283 349.763 73.7564C350.31 74.0845 350.732 74.5452 351.031 75.1385C351.332 75.7318 351.483 76.4228 351.483 77.2116C351.483 78.0005 351.332 78.6899 351.031 79.2798C350.732 79.8698 350.31 80.3288 349.763 80.657C349.216 80.9851 348.57 81.1491 347.824 81.1491ZM347.834 79.7074C348.238 79.7074 348.576 79.5964 348.848 79.3743C349.12 79.1489 349.322 78.8473 349.455 78.4695C349.591 78.0916 349.659 77.6707 349.659 77.2067C349.659 76.7393 349.591 76.3168 349.455 75.9389C349.322 75.5578 349.12 75.2545 348.848 75.0291C348.576 74.8037 348.238 74.6911 347.834 74.6911C347.42 74.6911 347.075 74.8037 346.8 75.0291C346.528 75.2545 346.324 75.5578 346.188 75.9389C346.056 76.3168 345.99 76.7393 345.99 77.2067C345.99 77.6707 346.056 78.0916 346.188 78.4695C346.324 78.8473 346.528 79.1489 346.8 79.3743C347.075 79.5964 347.42 79.7074 347.834 79.7074ZM355.208 81.1541C354.724 81.1541 354.288 81.0679 353.901 80.8956C353.516 80.7199 353.211 80.4614 352.986 80.12C352.764 79.7786 352.653 79.3577 352.653 78.8572C352.653 78.4264 352.732 78.0701 352.891 77.7884C353.05 77.5066 353.268 77.2812 353.543 77.1122C353.818 76.9432 354.128 76.8156 354.472 76.7294C354.82 76.6399 355.18 76.5753 355.551 76.5355C355.999 76.4891 356.362 76.4477 356.64 76.4112C356.918 76.3714 357.121 76.3118 357.246 76.2322C357.376 76.1494 357.44 76.0218 357.44 75.8494V75.8196C357.44 75.4451 357.329 75.1551 357.107 74.9496C356.885 74.7441 356.565 74.6413 356.148 74.6413C355.707 74.6413 355.357 74.7375 355.099 74.9297C354.844 75.1219 354.671 75.349 354.582 75.6108L352.901 75.3722C353.034 74.9081 353.253 74.5204 353.558 74.2088C353.862 73.8939 354.235 73.6586 354.676 73.5028C355.117 73.3438 355.604 73.2642 356.138 73.2642C356.506 73.2642 356.872 73.3073 357.237 73.3935C357.601 73.4796 357.934 73.6222 358.236 73.821C358.537 74.0166 358.779 74.2834 358.962 74.6214C359.147 74.9595 359.24 75.3821 359.24 75.8892V81H357.51V79.951H357.45C357.341 80.1631 357.187 80.362 356.988 80.5476C356.792 80.7299 356.545 80.8774 356.247 80.9901C355.952 81.0994 355.606 81.1541 355.208 81.1541ZM355.675 79.8317C356.037 79.8317 356.35 79.7604 356.615 79.6179C356.88 79.4721 357.084 79.2798 357.227 79.0412C357.372 78.8026 357.445 78.5424 357.445 78.2607V77.3608C357.389 77.4072 357.293 77.4503 357.157 77.4901C357.024 77.5298 356.875 77.5646 356.71 77.5945C356.544 77.6243 356.38 77.6508 356.217 77.674C356.055 77.6972 355.914 77.7171 355.795 77.7337C355.526 77.7701 355.286 77.8298 355.074 77.9126C354.862 77.9955 354.694 78.1115 354.572 78.2607C354.449 78.4065 354.388 78.5954 354.388 78.8274C354.388 79.1589 354.509 79.4091 354.751 79.5781C354.993 79.7472 355.301 79.8317 355.675 79.8317ZM362.849 70.8182V81H361.05V70.8182H362.849Z" fill="white"/>
<g opacity="0.1">
<rect x="372" y="70" width="1" height="12" rx="0.5" fill="white"/>
</g>
<path d="M384.81 80.1193C384.241 80.1193 383.733 80.0128 383.284 79.7997C382.835 79.5838 382.479 79.2884 382.214 78.9134C381.953 78.5384 381.814 78.1094 381.797 77.6264H383.331C383.359 77.9844 383.514 78.277 383.795 78.5043C384.077 78.7287 384.415 78.8409 384.81 78.8409C385.119 78.8409 385.395 78.7699 385.636 78.6278C385.878 78.4858 386.068 78.2884 386.207 78.0355C386.347 77.7827 386.415 77.4943 386.412 77.1705C386.415 76.8409 386.345 76.5483 386.203 76.2926C386.061 76.0369 385.866 75.8366 385.619 75.6918C385.372 75.544 385.088 75.4702 384.767 75.4702C384.506 75.4673 384.249 75.5156 383.996 75.6151C383.743 75.7145 383.543 75.8452 383.395 76.0071L381.967 75.7727L382.423 71.2727H387.486V72.5938H383.732L383.48 74.9077H383.531C383.693 74.7173 383.922 74.5597 384.217 74.4347C384.513 74.3068 384.837 74.2429 385.189 74.2429C385.717 74.2429 386.189 74.3679 386.604 74.6179C387.018 74.8651 387.345 75.206 387.584 75.6406C387.822 76.0753 387.942 76.5724 387.942 77.1321C387.942 77.7088 387.808 78.223 387.541 78.6747C387.277 79.1236 386.909 79.4773 386.438 79.7358C385.969 79.9915 385.426 80.1193 384.81 80.1193ZM390.904 78.8068L390.849 79.2756C390.809 79.6335 390.738 79.9972 390.636 80.3665C390.537 80.7386 390.431 81.081 390.321 81.3935C390.21 81.706 390.12 81.9517 390.052 82.1307H389.012C389.052 81.9574 389.106 81.7216 389.174 81.4233C389.245 81.125 389.314 80.7898 389.379 80.4176C389.444 80.0455 389.488 79.6676 389.511 79.2841L389.541 78.8068H390.904ZM392.458 78.3807V77.1236L396.161 71.2727H397.209V73.0625H396.57L394.077 77.0128V77.081H399.246V78.3807H392.458ZM396.621 80V77.9972L396.638 77.4347V71.2727H398.13V80H396.621ZM403.833 80.1662C403.132 80.1662 402.529 79.9886 402.027 79.6335C401.527 79.2756 401.142 78.7599 400.872 78.0866C400.605 77.4105 400.471 76.5966 400.471 75.6449C400.474 74.6932 400.609 73.8835 400.876 73.2159C401.146 72.5455 401.531 72.0341 402.031 71.6818C402.534 71.3295 403.135 71.1534 403.833 71.1534C404.532 71.1534 405.133 71.3295 405.636 71.6818C406.139 72.0341 406.524 72.5455 406.791 73.2159C407.061 73.8864 407.196 74.696 407.196 75.6449C407.196 76.5994 407.061 77.4148 406.791 78.0909C406.524 78.7642 406.139 79.2784 405.636 79.6335C405.136 79.9886 404.535 80.1662 403.833 80.1662ZM403.833 78.8324C404.379 78.8324 404.809 78.5639 405.125 78.027C405.443 77.4872 405.602 76.6932 405.602 75.6449C405.602 74.9517 405.529 74.3693 405.385 73.8977C405.24 73.4261 405.035 73.071 404.771 72.8324C404.507 72.5909 404.194 72.4702 403.833 72.4702C403.291 72.4702 402.862 72.7401 402.547 73.2798C402.231 73.8168 402.072 74.6051 402.069 75.6449C402.066 76.3409 402.136 76.9261 402.278 77.4006C402.423 77.875 402.627 78.233 402.892 78.4744C403.156 78.7131 403.47 78.8324 403.833 78.8324ZM411.837 80.1662C411.136 80.1662 410.533 79.9886 410.031 79.6335C409.531 79.2756 409.146 78.7599 408.876 78.0866C408.609 77.4105 408.475 76.5966 408.475 75.6449C408.478 74.6932 408.613 73.8835 408.88 73.2159C409.15 72.5455 409.535 72.0341 410.035 71.6818C410.538 71.3295 411.138 71.1534 411.837 71.1534C412.536 71.1534 413.137 71.3295 413.64 71.6818C414.143 72.0341 414.528 72.5455 414.795 73.2159C415.065 73.8864 415.2 74.696 415.2 75.6449C415.2 76.5994 415.065 77.4148 414.795 78.0909C414.528 78.7642 414.143 79.2784 413.64 79.6335C413.14 79.9886 412.539 80.1662 411.837 80.1662ZM411.837 78.8324C412.383 78.8324 412.813 78.5639 413.129 78.027C413.447 77.4872 413.606 76.6932 413.606 75.6449C413.606 74.9517 413.533 74.3693 413.388 73.8977C413.244 73.4261 413.039 73.071 412.775 72.8324C412.511 72.5909 412.198 72.4702 411.837 72.4702C411.295 72.4702 410.866 72.7401 410.55 73.2798C410.235 73.8168 410.076 74.6051 410.073 75.6449C410.07 76.3409 410.14 76.9261 410.282 77.4006C410.427 77.875 410.631 78.233 410.896 78.4744C411.16 78.7131 411.474 78.8324 411.837 78.8324ZM419.428 81.0909V70.1818H420.127V81.0909H419.428ZM421.444 73.6719C421.404 73.2997 421.236 73.0099 420.941 72.8026C420.648 72.5952 420.267 72.4915 419.799 72.4915C419.469 72.4915 419.186 72.5412 418.951 72.6406C418.715 72.7401 418.534 72.875 418.409 73.0455C418.284 73.2159 418.221 73.4105 418.218 73.6293C418.218 73.8111 418.259 73.9687 418.341 74.1023C418.426 74.2358 418.542 74.3494 418.686 74.4432C418.831 74.5341 418.992 74.6108 419.168 74.6733C419.344 74.7358 419.522 74.7884 419.701 74.831L420.519 75.0355C420.848 75.1122 421.165 75.2159 421.469 75.3466C421.776 75.4773 422.05 75.642 422.292 75.8409C422.536 76.0398 422.729 76.2798 422.871 76.5611C423.013 76.8423 423.084 77.1719 423.084 77.5497C423.084 78.0611 422.953 78.5114 422.692 78.9006C422.431 79.2869 422.053 79.5895 421.559 79.8082C421.067 80.0241 420.472 80.1321 419.773 80.1321C419.094 80.1321 418.505 80.027 418.005 79.8168C417.507 79.6065 417.118 79.2997 416.837 78.8963C416.559 78.4929 416.408 78.0014 416.385 77.4219H417.941C417.963 77.7259 418.057 77.9787 418.222 78.1804C418.387 78.3821 418.601 78.5327 418.865 78.6321C419.132 78.7315 419.431 78.7812 419.76 78.7812C420.104 78.7812 420.405 78.7301 420.664 78.6278C420.925 78.5227 421.13 78.3778 421.277 78.1932C421.425 78.0057 421.5 77.7869 421.503 77.5369C421.5 77.3097 421.434 77.1222 421.303 76.9744C421.172 76.8239 420.989 76.6989 420.753 76.5994C420.52 76.4972 420.248 76.4062 419.935 76.3267L418.942 76.071C418.223 75.8864 417.655 75.6065 417.238 75.2315C416.823 74.8537 416.615 74.3523 416.615 73.7273C416.615 73.2131 416.755 72.7628 417.033 72.3764C417.314 71.9901 417.696 71.6903 418.179 71.4773C418.662 71.2614 419.209 71.1534 419.82 71.1534C420.439 71.1534 420.982 71.2614 421.448 71.4773C421.917 71.6903 422.284 71.9872 422.551 72.3679C422.819 72.7457 422.956 73.1804 422.965 73.6719H421.444Z" fill="white"/>
<path opacity="0.7" d="M431.477 78.4659V72.8409H432.432V78.4659H431.477ZM429.142 76.1307V75.1761H434.767V76.1307H429.142ZM436.609 78.2102V77.3409L440.444 71.2727H441.075V72.6193H440.649L437.751 77.2045V77.2727H442.916V78.2102H436.609ZM440.717 80V77.946V77.5412V71.2727H441.723V80H440.717ZM448.962 78.3636V77.9034C448.962 77.5852 449.027 77.294 449.158 77.0298C449.291 76.7628 449.484 76.5497 449.737 76.3906C449.993 76.2287 450.303 76.1477 450.666 76.1477C451.036 76.1477 451.345 76.2287 451.595 76.3906C451.845 76.5497 452.034 76.7628 452.162 77.0298C452.29 77.294 452.354 77.5852 452.354 77.9034V78.3636C452.354 78.6818 452.288 78.9744 452.158 79.2415C452.03 79.5057 451.839 79.7187 451.587 79.8807C451.337 80.0398 451.03 80.1193 450.666 80.1193C450.297 80.1193 449.986 80.0398 449.733 79.8807C449.48 79.7187 449.288 79.5057 449.158 79.2415C449.027 78.9744 448.962 78.6818 448.962 78.3636ZM449.831 77.9034V78.3636C449.831 78.6278 449.893 78.8651 450.018 79.0753C450.143 79.2827 450.359 79.3864 450.666 79.3864C450.964 79.3864 451.175 79.2827 451.297 79.0753C451.422 78.8651 451.484 78.6278 451.484 78.3636V77.9034C451.484 77.6392 451.425 77.4034 451.305 77.196C451.186 76.9858 450.973 76.8807 450.666 76.8807C450.368 76.8807 450.153 76.9858 450.023 77.196C449.895 77.4034 449.831 77.6392 449.831 77.9034ZM444.615 73.3693V72.9091C444.615 72.5909 444.68 72.2997 444.811 72.0355C444.945 71.7685 445.138 71.5554 445.391 71.3963C445.646 71.2344 445.956 71.1534 446.32 71.1534C446.689 71.1534 446.999 71.2344 447.249 71.3963C447.499 71.5554 447.688 71.7685 447.815 72.0355C447.943 72.2997 448.007 72.5909 448.007 72.9091V73.3693C448.007 73.6875 447.942 73.9801 447.811 74.2472C447.683 74.5114 447.493 74.7244 447.24 74.8864C446.99 75.0455 446.683 75.125 446.32 75.125C445.95 75.125 445.639 75.0455 445.386 74.8864C445.134 74.7244 444.942 74.5114 444.811 74.2472C444.68 73.9801 444.615 73.6875 444.615 73.3693ZM445.484 72.9091V73.3693C445.484 73.6335 445.547 73.8707 445.672 74.081C445.797 74.2884 446.013 74.392 446.32 74.392C446.618 74.392 446.828 74.2884 446.95 74.081C447.075 73.8707 447.138 73.6335 447.138 73.3693V72.9091C447.138 72.6449 447.078 72.4091 446.959 72.2017C446.839 71.9915 446.626 71.8864 446.32 71.8864C446.021 71.8864 445.807 71.9915 445.676 72.2017C445.548 72.4091 445.484 72.6449 445.484 72.9091ZM444.939 80L450.939 71.2727H451.911L445.911 80H444.939Z" fill="#24FF54"/>
<circle cx="321" cy="50" r="4" fill="#0075FF"/>
<path d="M336.147 55L333.273 44.8182H335.257L337.092 52.3004H337.186L339.145 44.8182H340.95L342.913 52.3054H343.003L344.837 44.8182H346.821L343.947 55H342.128L340.089 47.8558H340.01L337.967 55H336.147ZM348.02 55V47.3636H349.82V55H348.02ZM348.925 46.2798C348.64 46.2798 348.395 46.1854 348.189 45.9964C347.984 45.8042 347.881 45.5739 347.881 45.3054C347.881 45.0336 347.984 44.8033 348.189 44.6143C348.395 44.4221 348.64 44.326 348.925 44.326C349.214 44.326 349.459 44.4221 349.661 44.6143C349.867 44.8033 349.969 45.0336 349.969 45.3054C349.969 45.5739 349.867 45.8042 349.661 45.9964C349.459 46.1854 349.214 46.2798 348.925 46.2798ZM353.471 50.5256V55H351.671V47.3636H353.391V48.6612H353.48C353.656 48.2337 353.936 47.8939 354.321 47.642C354.708 47.3902 355.187 47.2642 355.757 47.2642C356.284 47.2642 356.743 47.3769 357.135 47.6023C357.529 47.8277 357.834 48.1541 358.049 48.5817C358.268 49.0092 358.376 49.5279 358.373 50.1378V55H356.573V50.4162C356.573 49.9058 356.44 49.5064 356.175 49.218C355.913 48.9297 355.55 48.7855 355.086 48.7855C354.771 48.7855 354.491 48.8551 354.246 48.9943C354.004 49.1302 353.814 49.3274 353.674 49.5859C353.538 49.8445 353.471 50.1577 353.471 50.5256ZM363.036 55.1342C362.436 55.1342 361.899 54.9801 361.425 54.6719C360.951 54.3636 360.577 53.9162 360.301 53.3295C360.026 52.7429 359.889 52.0303 359.889 51.1918C359.889 50.3433 360.028 49.6274 360.306 49.044C360.588 48.4574 360.968 48.0149 361.445 47.7166C361.922 47.415 362.454 47.2642 363.041 47.2642C363.488 47.2642 363.856 47.3404 364.145 47.4929C364.433 47.642 364.662 47.8227 364.831 48.0348C365 48.2436 365.131 48.4408 365.223 48.6264H365.298V44.8182H367.103V55H365.333V53.7969H365.223C365.131 53.9825 364.996 54.1797 364.821 54.3885C364.645 54.594 364.413 54.7696 364.125 54.9155C363.836 55.0613 363.473 55.1342 363.036 55.1342ZM363.538 53.6577C363.919 53.6577 364.244 53.5549 364.512 53.3494C364.781 53.1406 364.985 52.8506 365.124 52.4794C365.263 52.1082 365.333 51.6757 365.333 51.1818C365.333 50.688 365.263 50.2588 365.124 49.8942C364.988 49.5296 364.786 49.2462 364.517 49.044C364.252 48.8419 363.926 48.7408 363.538 48.7408C363.137 48.7408 362.802 48.8452 362.534 49.054C362.265 49.2628 362.063 49.5511 361.927 49.919C361.791 50.2869 361.723 50.7079 361.723 51.1818C361.723 51.6591 361.791 52.085 361.927 52.4595C362.066 52.8307 362.27 53.1241 362.539 53.3395C362.81 53.5516 363.144 53.6577 363.538 53.6577Z" fill="white"/>
<g opacity="0.1">
<rect x="377" y="44" width="1" height="12" rx="0.5" fill="white"/>
</g>
<path d="M389.972 54.1193C389.554 54.1165 389.146 54.044 388.749 53.902C388.351 53.7571 387.993 53.5227 387.675 53.1989C387.357 52.8722 387.104 52.4389 386.916 51.8991C386.729 51.3565 386.636 50.6847 386.639 49.8835C386.639 49.1364 386.719 48.4702 386.878 47.8849C387.037 47.2997 387.266 46.8054 387.564 46.402C387.862 45.9957 388.222 45.6861 388.642 45.473C389.065 45.2599 389.538 45.1534 390.061 45.1534C390.609 45.1534 391.095 45.2614 391.518 45.4773C391.945 45.6932 392.288 45.9886 392.55 46.3636C392.811 46.7358 392.973 47.1562 393.036 47.625H391.48C391.401 47.2898 391.237 47.0227 390.99 46.8239C390.746 46.6222 390.436 46.5213 390.061 46.5213C389.456 46.5213 388.99 46.7841 388.663 47.3097C388.339 47.8352 388.176 48.5568 388.173 49.4744H388.233C388.372 49.2244 388.553 49.0099 388.774 48.831C388.996 48.652 389.246 48.5142 389.524 48.4176C389.805 48.3182 390.102 48.2685 390.415 48.2685C390.926 48.2685 391.385 48.3906 391.791 48.6349C392.2 48.8793 392.524 49.2159 392.763 49.6449C393.001 50.071 393.119 50.5597 393.116 51.1108C393.119 51.6847 392.989 52.2003 392.724 52.6577C392.46 53.1122 392.092 53.4702 391.621 53.7315C391.149 53.9929 390.599 54.1222 389.972 54.1193ZM389.963 52.8409C390.273 52.8409 390.55 52.7656 390.794 52.6151C391.038 52.4645 391.232 52.2614 391.374 52.0057C391.516 51.75 391.585 51.4631 391.582 51.1449C391.585 50.8324 391.517 50.5497 391.378 50.2969C391.241 50.044 391.053 49.8437 390.811 49.696C390.57 49.5483 390.294 49.4744 389.984 49.4744C389.754 49.4744 389.54 49.5185 389.341 49.6065C389.142 49.6946 388.969 49.8168 388.821 49.973C388.673 50.1264 388.557 50.3054 388.472 50.5099C388.389 50.7116 388.347 50.9276 388.344 51.1577C388.347 51.4616 388.418 51.7415 388.557 51.9972C388.696 52.2528 388.888 52.4574 389.132 52.6108C389.376 52.7642 389.653 52.8409 389.963 52.8409ZM396.01 52.8068L395.955 53.2756C395.915 53.6335 395.844 53.9972 395.741 54.3665C395.642 54.7386 395.537 55.081 395.426 55.3935C395.315 55.706 395.226 55.9517 395.158 56.1307H394.118C394.158 55.9574 394.212 55.7216 394.28 55.4233C394.351 55.125 394.419 54.7898 394.484 54.4176C394.55 54.0455 394.594 53.6676 394.616 53.2841L394.646 52.8068H396.01ZM397.563 52.3807V51.1236L401.266 45.2727H402.315V47.0625H401.675L399.183 51.0128V51.081H404.352V52.3807H397.563ZM401.727 54V51.9972L401.744 51.4347V45.2727H403.235V54H401.727ZM408.939 54.1662C408.237 54.1662 407.635 53.9886 407.132 53.6335C406.632 53.2756 406.247 52.7599 405.977 52.0866C405.71 51.4105 405.577 50.5966 405.577 49.6449C405.58 48.6932 405.714 47.8835 405.982 47.2159C406.251 46.5455 406.636 46.0341 407.136 45.6818C407.639 45.3295 408.24 45.1534 408.939 45.1534C409.638 45.1534 410.239 45.3295 410.741 45.6818C411.244 46.0341 411.629 46.5455 411.896 47.2159C412.166 47.8864 412.301 48.696 412.301 49.6449C412.301 50.5994 412.166 51.4148 411.896 52.0909C411.629 52.7642 411.244 53.2784 410.741 53.6335C410.241 53.9886 409.641 54.1662 408.939 54.1662ZM408.939 52.8324C409.484 52.8324 409.915 52.5639 410.23 52.027C410.548 51.4872 410.707 50.6932 410.707 49.6449C410.707 48.9517 410.635 48.3693 410.49 47.8977C410.345 47.4261 410.141 47.071 409.876 46.8324C409.612 46.5909 409.3 46.4702 408.939 46.4702C408.396 46.4702 407.967 46.7401 407.652 47.2798C407.337 47.8168 407.178 48.6051 407.175 49.6449C407.172 50.3409 407.241 50.9261 407.384 51.4006C407.528 51.875 407.733 52.233 407.997 52.4744C408.261 52.7131 408.575 52.8324 408.939 52.8324ZM416.943 54.1662C416.241 54.1662 415.639 53.9886 415.136 53.6335C414.636 53.2756 414.251 52.7599 413.981 52.0866C413.714 51.4105 413.581 50.5966 413.581 49.6449C413.583 48.6932 413.718 47.8835 413.985 47.2159C414.255 46.5455 414.64 46.0341 415.14 45.6818C415.643 45.3295 416.244 45.1534 416.943 45.1534C417.642 45.1534 418.243 45.3295 418.745 45.6818C419.248 46.0341 419.633 46.5455 419.9 47.2159C420.17 47.8864 420.305 48.696 420.305 49.6449C420.305 50.5994 420.17 51.4148 419.9 52.0909C419.633 52.7642 419.248 53.2784 418.745 53.6335C418.245 53.9886 417.645 54.1662 416.943 54.1662ZM416.943 52.8324C417.488 52.8324 417.919 52.5639 418.234 52.027C418.552 51.4872 418.711 50.6932 418.711 49.6449C418.711 48.9517 418.639 48.3693 418.494 47.8977C418.349 47.4261 418.145 47.071 417.88 46.8324C417.616 46.5909 417.304 46.4702 416.943 46.4702C416.4 46.4702 415.971 46.7401 415.656 47.2798C415.341 47.8168 415.181 48.6051 415.179 49.6449C415.176 50.3409 415.245 50.9261 415.387 51.4006C415.532 51.875 415.737 52.233 416.001 52.4744C416.265 52.7131 416.579 52.8324 416.943 52.8324ZM424.533 55.0909V44.1818H425.232V55.0909H424.533ZM426.549 47.6719C426.509 47.2997 426.342 47.0099 426.046 46.8026C425.754 46.5952 425.373 46.4915 424.904 46.4915C424.575 46.4915 424.292 46.5412 424.056 46.6406C423.82 46.7401 423.64 46.875 423.515 47.0455C423.39 47.2159 423.326 47.4105 423.323 47.6293C423.323 47.8111 423.364 47.9687 423.447 48.1023C423.532 48.2358 423.647 48.3494 423.792 48.4432C423.937 48.5341 424.097 48.6108 424.273 48.6733C424.45 48.7358 424.627 48.7884 424.806 48.831L425.624 49.0355C425.954 49.1122 426.271 49.2159 426.575 49.3466C426.881 49.4773 427.156 49.642 427.397 49.8409C427.641 50.0398 427.835 50.2798 427.977 50.5611C428.119 50.8423 428.19 51.1719 428.19 51.5497C428.19 52.0611 428.059 52.5114 427.798 52.9006C427.536 53.2869 427.158 53.5895 426.664 53.8082C426.173 54.0241 425.577 54.1321 424.879 54.1321C424.2 54.1321 423.61 54.027 423.11 53.8168C422.613 53.6065 422.224 53.2997 421.942 52.8963C421.664 52.4929 421.513 52.0014 421.491 51.4219H423.046C423.069 51.7259 423.163 51.9787 423.327 52.1804C423.492 52.3821 423.707 52.5327 423.971 52.6321C424.238 52.7315 424.536 52.7812 424.866 52.7812C425.21 52.7812 425.511 52.7301 425.769 52.6278C426.031 52.5227 426.235 52.3778 426.383 52.1932C426.531 52.0057 426.606 51.7869 426.609 51.5369C426.606 51.3097 426.539 51.1222 426.408 50.9744C426.278 50.8239 426.094 50.6989 425.859 50.5994C425.626 50.4972 425.353 50.4062 425.04 50.3267L424.048 50.071C423.329 49.8864 422.761 49.6065 422.343 49.2315C421.928 48.8537 421.721 48.3523 421.721 47.7273C421.721 47.2131 421.86 46.7628 422.138 46.3764C422.42 45.9901 422.802 45.6903 423.285 45.4773C423.768 45.2614 424.315 45.1534 424.925 45.1534C425.545 45.1534 426.087 45.2614 426.553 45.4773C427.022 45.6903 427.39 45.9872 427.657 46.3679C427.924 46.7457 428.062 47.1804 428.07 47.6719H426.549Z" fill="white"/>
<path opacity="0.7" d="M436.477 52.4659V46.8409H437.432V52.4659H436.477ZM434.142 50.1307V49.1761H439.767V50.1307H434.142ZM444.882 45.2727V54H443.825V46.3807H443.774L441.643 47.7955V46.7216L443.825 45.2727H444.882ZM447.392 54V53.233L450.272 50.0795C450.61 49.7102 450.889 49.3892 451.108 49.1165C451.326 48.8409 451.488 48.5824 451.593 48.3409C451.701 48.0966 451.755 47.8409 451.755 47.5739C451.755 47.267 451.681 47.0014 451.534 46.777C451.389 46.5526 451.19 46.3793 450.937 46.2571C450.684 46.1349 450.4 46.0739 450.085 46.0739C449.75 46.0739 449.457 46.1435 449.207 46.2827C448.96 46.419 448.768 46.6108 448.632 46.858C448.498 47.1051 448.431 47.3949 448.431 47.7273H447.426C447.426 47.2159 447.544 46.767 447.779 46.3807C448.015 45.9943 448.336 45.6932 448.743 45.4773C449.152 45.2614 449.61 45.1534 450.119 45.1534C450.63 45.1534 451.083 45.2614 451.478 45.4773C451.873 45.6932 452.183 45.9844 452.407 46.3509C452.632 46.7173 452.744 47.125 452.744 47.5739C452.744 47.8949 452.686 48.2088 452.569 48.5156C452.456 48.8196 452.257 49.1591 451.973 49.5341C451.691 49.9062 451.301 50.3608 450.801 50.8977L448.841 52.9943V53.0625H452.897V54H447.392ZM459.106 52.3636V51.9034C459.106 51.5852 459.172 51.294 459.302 51.0298C459.436 50.7628 459.629 50.5497 459.882 50.3906C460.137 50.2287 460.447 50.1477 460.811 50.1477C461.18 50.1477 461.49 50.2287 461.74 50.3906C461.99 50.5497 462.179 50.7628 462.306 51.0298C462.434 51.294 462.498 51.5852 462.498 51.9034V52.3636C462.498 52.6818 462.433 52.9744 462.302 53.2415C462.174 53.5057 461.984 53.7187 461.731 53.8807C461.481 54.0398 461.174 54.1193 460.811 54.1193C460.441 54.1193 460.13 54.0398 459.877 53.8807C459.625 53.7187 459.433 53.5057 459.302 53.2415C459.172 52.9744 459.106 52.6818 459.106 52.3636ZM459.975 51.9034V52.3636C459.975 52.6278 460.038 52.8651 460.163 53.0753C460.288 53.2827 460.504 53.3864 460.811 53.3864C461.109 53.3864 461.319 53.2827 461.441 53.0753C461.566 52.8651 461.629 52.6278 461.629 52.3636V51.9034C461.629 51.6392 461.569 51.4034 461.45 51.196C461.331 50.9858 461.118 50.8807 460.811 50.8807C460.512 50.8807 460.298 50.9858 460.167 51.196C460.039 51.4034 459.975 51.6392 459.975 51.9034ZM454.76 47.3693V46.9091C454.76 46.5909 454.825 46.2997 454.956 46.0355C455.089 45.7685 455.282 45.5554 455.535 45.3963C455.791 45.2344 456.1 45.1534 456.464 45.1534C456.833 45.1534 457.143 45.2344 457.393 45.3963C457.643 45.5554 457.832 45.7685 457.96 46.0355C458.088 46.2997 458.152 46.5909 458.152 46.9091V47.3693C458.152 47.6875 458.086 47.9801 457.956 48.2472C457.828 48.5114 457.637 48.7244 457.385 48.8864C457.135 49.0455 456.828 49.125 456.464 49.125C456.095 49.125 455.784 49.0455 455.531 48.8864C455.278 48.7244 455.086 48.5114 454.956 48.2472C454.825 47.9801 454.76 47.6875 454.76 47.3693ZM455.629 46.9091V47.3693C455.629 47.6335 455.691 47.8707 455.816 48.081C455.941 48.2884 456.157 48.392 456.464 48.392C456.762 48.392 456.973 48.2884 457.095 48.081C457.22 47.8707 457.282 47.6335 457.282 47.3693V46.9091C457.282 46.6449 457.223 46.4091 457.103 46.2017C456.984 45.9915 456.771 45.8864 456.464 45.8864C456.166 45.8864 455.951 45.9915 455.821 46.2017C455.693 46.4091 455.629 46.6449 455.629 46.9091ZM455.083 54L461.083 45.2727H462.055L456.055 54H455.083Z" fill="#24FF54"/>
<path d="M318.034 27V25.4773L322.074 21.517C322.46 21.1269 322.782 20.7803 323.04 20.4773C323.297 20.1742 323.491 19.8807 323.619 19.5966C323.748 19.3125 323.812 19.0095 323.812 18.6875C323.812 18.3201 323.729 18.0057 323.562 17.7443C323.396 17.4792 323.167 17.2746 322.875 17.1307C322.583 16.9867 322.252 16.9148 321.881 16.9148C321.498 16.9148 321.163 16.9943 320.875 17.1534C320.587 17.3087 320.364 17.5303 320.205 17.8182C320.049 18.1061 319.972 18.4489 319.972 18.8466H317.966C317.966 18.108 318.134 17.4659 318.472 16.9205C318.809 16.375 319.273 15.9527 319.864 15.6534C320.458 15.3542 321.14 15.2045 321.909 15.2045C322.689 15.2045 323.375 15.3504 323.966 15.642C324.557 15.9337 325.015 16.3333 325.341 16.8409C325.67 17.3485 325.835 17.928 325.835 18.5795C325.835 19.0152 325.752 19.4432 325.585 19.8636C325.419 20.2841 325.125 20.75 324.705 21.2614C324.288 21.7727 323.703 22.392 322.949 23.1193L320.943 25.1591V25.2386H326.011V27H318.034ZM332.273 27.2216C331.337 27.2216 330.534 26.9848 329.864 26.5114C329.197 26.0341 328.684 25.3466 328.324 24.4489C327.968 23.5473 327.79 22.4621 327.79 21.1932C327.794 19.9242 327.973 18.8447 328.33 17.9545C328.689 17.0606 329.203 16.3788 329.869 15.9091C330.54 15.4394 331.341 15.2045 332.273 15.2045C333.205 15.2045 334.006 15.4394 334.676 15.9091C335.347 16.3788 335.86 17.0606 336.216 17.9545C336.576 18.8485 336.756 19.928 336.756 21.1932C336.756 22.4659 336.576 23.553 336.216 24.4545C335.86 25.3523 335.347 26.0379 334.676 26.5114C334.009 26.9848 333.208 27.2216 332.273 27.2216ZM332.273 25.4432C333 25.4432 333.574 25.0852 333.994 24.3693C334.419 23.6496 334.631 22.5909 334.631 21.1932C334.631 20.2689 334.534 19.4924 334.341 18.8636C334.148 18.2348 333.875 17.7614 333.523 17.4432C333.17 17.1212 332.754 16.9602 332.273 16.9602C331.549 16.9602 330.977 17.3201 330.557 18.0398C330.136 18.7557 329.924 19.8068 329.92 21.1932C329.917 22.1212 330.009 22.9015 330.199 23.5341C330.392 24.1667 330.665 24.6439 331.017 24.9659C331.369 25.2841 331.788 25.4432 332.273 25.4432ZM342.945 27.2216C342.009 27.2216 341.206 26.9848 340.536 26.5114C339.869 26.0341 339.356 25.3466 338.996 24.4489C338.64 23.5473 338.462 22.4621 338.462 21.1932C338.465 19.9242 338.645 18.8447 339.001 17.9545C339.361 17.0606 339.875 16.3788 340.541 15.9091C341.212 15.4394 342.013 15.2045 342.945 15.2045C343.876 15.2045 344.678 15.4394 345.348 15.9091C346.018 16.3788 346.532 17.0606 346.888 17.9545C347.248 18.8485 347.428 19.928 347.428 21.1932C347.428 22.4659 347.248 23.553 346.888 24.4545C346.532 25.3523 346.018 26.0379 345.348 26.5114C344.681 26.9848 343.88 27.2216 342.945 27.2216ZM342.945 25.4432C343.672 25.4432 344.246 25.0852 344.666 24.3693C345.09 23.6496 345.303 22.5909 345.303 21.1932C345.303 20.2689 345.206 19.4924 345.013 18.8636C344.82 18.2348 344.547 17.7614 344.195 17.4432C343.842 17.1212 343.426 16.9602 342.945 16.9602C342.221 16.9602 341.649 17.3201 341.229 18.0398C340.808 18.7557 340.596 19.8068 340.592 21.1932C340.589 22.1212 340.681 22.9015 340.871 23.5341C341.064 24.1667 341.337 24.6439 341.689 24.9659C342.041 25.2841 342.46 25.4432 342.945 25.4432ZM353.361 27.1591C352.603 27.1591 351.925 27.017 351.327 26.733C350.728 26.4451 350.253 26.0511 349.901 25.5511C349.552 25.0511 349.366 24.4792 349.344 23.8352H351.389C351.427 24.3125 351.634 24.7027 352.009 25.0057C352.384 25.3049 352.834 25.4545 353.361 25.4545C353.774 25.4545 354.141 25.3598 354.463 25.1705C354.785 24.9811 355.039 24.7178 355.224 24.3807C355.41 24.0436 355.501 23.6591 355.497 23.2273C355.501 22.7879 355.408 22.3977 355.219 22.0568C355.029 21.7159 354.77 21.4489 354.44 21.2557C354.111 21.0587 353.732 20.9602 353.304 20.9602C352.955 20.9564 352.613 21.0208 352.276 21.1534C351.938 21.286 351.671 21.4602 351.474 21.6761L349.571 21.3636L350.179 15.3636H356.929V17.125H351.923L351.588 20.2102H351.656C351.872 19.9564 352.177 19.7462 352.571 19.5795C352.965 19.4091 353.397 19.3239 353.866 19.3239C354.571 19.3239 355.2 19.4905 355.753 19.8239C356.306 20.1534 356.741 20.608 357.06 21.1875C357.378 21.767 357.537 22.4299 357.537 23.1761C357.537 23.9451 357.359 24.6307 357.003 25.233C356.651 25.8314 356.16 26.303 355.531 26.6477C354.906 26.9886 354.183 27.1591 353.361 27.1591Z" fill="white"/>
<defs>
<linearGradient id="paint0_linear_841_12415" x1="719.143" y1="317.75" x2="719.143" y2="83.75" gradientUnits="userSpaceOnUse">
<stop stop-color="#0075FF" stop-opacity="0"/>
<stop offset="1" stop-color="#0075FF"/>
</linearGradient>
<linearGradient id="paint1_linear_841_12415" x1="720" y1="68.251" x2="720" y2="318.001" gradientUnits="userSpaceOnUse">
<stop stop-color="#2CD9FF" stop-opacity="0.36"/>
<stop offset="1" stop-color="#2CD9FF" stop-opacity="0"/>
</linearGradient>
<linearGradient id="paint2_linear_841_12415" x1="720" y1="68.2529" x2="720" y2="318.003" gradientUnits="userSpaceOnUse">
<stop stop-color="#2CD9FF" stop-opacity="0.36"/>
<stop offset="1" stop-color="#2CD9FF" stop-opacity="0"/>
</linearGradient>
<linearGradient id="paint3_linear_841_12415" x1="719.143" y1="213.002" x2="719.143" y2="-20.998" gradientUnits="userSpaceOnUse">
<stop stop-color="#6C8180" stop-opacity="0"/>
<stop offset="1" stop-color="#6C8180"/>
</linearGradient>
</defs>
</svg>
