<svg width="12" height="12" viewBox="0 0 12 12" fill="none" xmlns="http://www.w3.org/2000/svg">
<path d="M6.12496 11.6373C5.37742 11.6373 4.67446 11.4967 4.01608 11.2155C3.36113 10.9343 2.78333 10.5451 2.28269 10.0479C1.78547 9.54724 1.39456 8.96944 1.10995 8.31449C0.828763 7.65953 0.689886 6.95658 0.693315 6.20561C0.696744 5.45465 0.83905 4.75169 1.12023 4.09673C1.40485 3.44178 1.79576 2.8657 2.29297 2.36849C2.79019 1.86784 3.36627 1.47693 4.02122 1.19575C4.67618 0.914562 5.37742 0.77397 6.12496 0.77397C6.87592 0.77397 7.57888 0.914562 8.23383 1.19575C8.89221 1.47693 9.4683 1.86784 9.96208 2.36849C10.4593 2.8657 10.8485 3.44178 11.1297 4.09673C11.4109 4.75169 11.5532 5.45465 11.5566 6.20561C11.56 6.95658 11.4211 7.65953 11.14 8.31449C10.8588 8.96944 10.4696 9.54724 9.97237 10.0479C9.47515 10.5451 8.89736 10.9343 8.23897 11.2155C7.58059 11.4967 6.87592 11.6373 6.12496 11.6373Z" fill="#142828"/>
</svg>
