<svg width="467" height="246" viewBox="0 0 467 246" fill="none" xmlns="http://www.w3.org/2000/svg">
<path d="M213.15 211.567L217.455 216.478C219.799 219.152 223.388 220.38 226.879 219.703L233.291 218.459L228.379 222.765C225.705 225.109 224.477 228.697 225.155 232.189L226.398 238.6L222.093 233.689C219.749 231.015 216.16 229.787 212.669 230.464L206.257 231.708L211.168 227.403C213.843 225.058 215.071 221.47 214.393 217.979L213.15 211.567Z" fill="#E1E8F0"/>
<path opacity="0.2" d="M271.606 2.09591L273.882 8.21776C275.122 11.5513 278.038 13.9758 281.542 14.5853L287.976 15.7045L281.855 17.9804C278.521 19.2196 276.097 22.1361 275.487 25.6399L274.368 32.0745L272.092 25.9526C270.853 22.6191 267.936 20.1946 264.432 19.5851L257.998 18.4658L264.12 16.19C267.453 14.9507 269.878 12.0343 270.487 8.53049L271.606 2.09591Z" fill="#E1E8F0"/>
<g clip-path="url(#clip0_1_43893)">
<path d="M214.9 140.861C215.278 137.661 215.649 134.458 216.037 131.258C216.571 126.849 217.116 122.441 217.659 118.032C218.674 109.792 219.697 101.551 220.708 93.3106C221.227 89.0824 221.717 84.8524 222.24 80.6243C223.003 74.4667 223.795 68.3129 224.55 62.1553C225.139 57.3547 225.68 52.5487 226.269 47.7481C226.959 42.1337 227.687 36.523 228.381 30.9104C228.861 27.0462 229.31 23.1783 229.777 19.3122C229.802 19.1037 229.857 18.8989 229.899 18.6923C230.219 18.5405 230.56 18.6155 230.891 18.6155C271.175 18.6118 311.458 18.6173 351.743 18.5898C353.116 18.588 353.156 19.0964 353.028 20.1333C352.044 28.1398 351.073 36.1481 350.08 44.1545C349.102 52.0403 348.118 59.9242 347.171 67.8136C346.185 76.0358 345.163 84.2526 344.155 92.4712C343.272 99.6931 342.399 106.915 341.492 114.133C340.662 120.748 339.863 127.366 339.064 133.985C338.186 141.269 337.262 148.547 336.366 155.83C335.452 163.262 334.548 170.696 333.627 178.128C332.705 185.56 331.785 192.993 330.891 200.428C330.316 205.203 329.687 209.973 329.148 214.753C329.12 214.997 329.075 215.234 329.029 215.474C328.842 216.461 328.634 216.653 327.659 216.716C327.264 216.741 326.867 216.728 326.47 216.728C286.948 216.728 247.426 216.728 207.903 216.728C207.597 216.728 207.294 216.734 206.988 216.723C205.728 216.683 205.602 216.531 205.747 215.242C206.392 209.925 207.036 204.609 207.685 199.293C208.197 195.096 208.722 190.9 209.229 186.703C209.274 186.327 209.379 185.93 209.027 185.591C208.819 185.388 208.775 185.015 208.958 184.827C210.088 183.666 209.737 182.137 209.931 180.778C210.518 176.683 210.964 172.57 211.471 168.465C211.482 168.381 211.542 168.302 211.579 168.22C211.789 167.794 212.153 167.945 212.449 168.031C214.671 168.673 216.915 169.121 219.247 169.114C219.847 169.112 220.538 169.088 221.033 169.608C221.271 171.206 220.796 172.751 220.649 174.319C220.543 175.469 220.426 176.623 220.263 177.768C220.179 178.355 220.432 178.543 220.968 178.534C221.333 178.527 221.699 178.536 222.065 178.536C254.733 178.536 287.4 178.54 320.068 178.527C322.369 178.527 322.147 178.975 322.48 176.36C323.12 171.316 323.735 166.268 324.351 161.221C325.06 155.418 325.781 149.617 326.478 143.813C327.336 136.679 328.235 129.548 329.117 122.416C329.901 116.07 330.649 109.72 331.441 103.376C332.072 98.3306 332.71 93.285 333.328 88.2394C333.99 82.8298 334.636 77.4184 335.285 72.0088C335.759 68.0477 336.276 64.092 336.756 60.1327C337.409 54.7524 338.094 49.3775 338.729 43.9954C338.983 41.8484 339.226 39.6996 339.521 37.5581C339.614 36.8759 339.413 36.576 338.718 36.6108C338.383 36.6272 338.049 36.6089 337.712 36.6089C304.984 36.6089 272.254 36.6071 239.526 36.6144C237.728 36.6144 237.589 36.256 237.315 38.5218C236.461 45.5956 235.592 52.6675 234.718 59.7376C233.815 67.051 232.931 74.3661 232.039 81.6795C231.421 86.758 230.755 91.8311 230.143 96.9097C229.451 102.652 228.764 108.396 228.045 114.137C227.017 122.355 226.077 130.583 224.996 138.796C224.899 139.537 225.044 140.338 224.451 140.954C224.076 141.207 223.645 141.199 223.221 141.208C220.913 141.263 218.601 141.101 216.295 141.362C215.809 141.421 215.174 141.558 214.9 140.861Z" fill="#E5E5E5"/>
<path d="M205.75 215.243C205.613 216.214 206.065 216.417 206.985 216.417C247.119 216.393 287.252 216.395 327.387 216.412C328.25 216.412 328.643 216.289 328.74 215.276C329.062 211.922 329.525 208.581 329.944 205.236C330.275 202.584 330.633 199.936 330.959 197.284C331.361 193.998 331.738 190.708 332.135 187.422C332.453 184.797 332.787 182.177 333.109 179.554C333.517 176.239 333.916 172.923 334.329 169.608C334.73 166.383 335.154 163.161 335.549 159.937C335.949 156.651 336.31 153.359 336.716 150.072C337.219 146.003 337.758 141.938 338.265 137.869C338.612 135.065 338.917 132.258 339.263 129.455C339.847 124.722 340.459 119.994 341.039 115.261C341.503 111.463 341.922 107.659 342.389 103.861C342.902 99.6709 343.462 95.4885 343.976 91.2987C344.38 88.0124 344.735 84.7187 345.128 81.4324C345.424 78.958 345.75 76.4891 346.059 74.0166C346.414 71.1838 346.765 68.351 347.118 65.5201C347.718 60.6975 348.323 55.875 348.912 51.0525C349.486 46.3488 350.035 41.6434 350.613 36.9415C351.128 32.7518 351.67 28.5639 352.196 24.3759C352.398 22.7776 352.575 21.1774 352.78 19.5808C352.855 18.992 352.745 18.6207 352.039 18.7122C351.799 18.7432 351.553 18.7176 351.308 18.7176C311.235 18.7176 271.161 18.7176 231.088 18.7176C230.691 18.7176 230.296 18.7048 229.9 18.6994C230.126 18.3775 230.461 18.5421 230.737 18.5421C271.174 18.5329 311.61 18.5348 352.048 18.5238C352.582 18.5238 352.933 18.6555 353.268 19.0999C356.799 23.7962 360.351 28.4779 363.91 33.1559C364.206 33.5436 364.334 33.9131 364.27 34.4105C363.548 40.1163 362.847 45.824 362.139 51.5298C361.368 57.7514 360.585 63.9692 359.826 70.1926C359.056 76.5056 358.319 82.8241 357.546 89.1371C356.794 95.2672 356.008 101.394 355.25 107.524C354.557 113.14 353.89 118.76 353.199 124.376C352.233 132.227 351.245 140.078 350.285 147.929C349.27 156.235 348.285 164.545 347.268 172.852C346.58 178.468 345.845 184.081 345.155 189.697C344.272 196.884 343.413 204.075 342.546 211.266C341.748 217.882 340.947 224.497 340.178 231.117C340.099 231.794 339.841 231.936 339.201 231.925C331.648 231.79 324.093 231.682 316.54 231.572C306.488 231.426 296.437 231.291 286.384 231.139C274.048 230.954 261.713 230.755 249.378 230.567C240.119 230.424 230.86 230.279 221.601 230.164C220.721 230.153 220.079 229.884 219.43 229.277C215.092 225.223 210.723 221.203 206.339 217.198C205.712 216.622 205.332 216.077 205.75 215.243Z" fill="#A4A4A4"/>
<path d="M220.942 169.554C217.978 169.42 215.015 169.281 212.183 168.263C211.985 168.191 211.793 168.071 211.581 168.221C210.652 167.515 209.503 167.26 208.487 166.728C203.101 163.901 199.335 159.598 196.806 154.122C195.03 150.282 193.558 146.343 192.47 142.25C192.223 141.321 192.534 141.277 193.284 141.27C200.193 141.197 207.104 141.096 214.013 141.001C214.311 140.997 214.628 141.074 214.893 140.862C215.337 141.173 215.851 141.063 216.312 141.012C219.013 140.714 221.723 140.944 224.426 140.844C224.88 140.425 225.447 140.502 225.986 140.503C229.45 140.516 232.908 140.224 236.372 140.28C239.11 140.337 241.849 140.463 244.585 140.191C244.797 140.169 245.011 140.156 245.223 140.16C251.01 140.277 256.789 139.863 262.575 139.971C262.849 139.977 263.124 139.968 263.398 139.979C264.499 140.024 264.698 140.229 264.804 141.328C265.079 144.145 265.245 146.97 265.72 149.766C266.712 155.585 268.422 161.136 271.66 166.138C272.044 166.73 272.525 167.231 272.981 167.762C273.164 168.393 272.842 168.67 272.273 168.775C272.123 168.802 271.971 168.824 271.819 168.817C269.504 168.716 267.2 169.045 264.888 169.007C259.621 168.917 254.36 169.166 249.097 169.241C243.44 169.322 237.784 169.444 232.129 169.61C228.781 169.709 225.436 169.671 222.091 169.742C221.701 169.748 221.297 169.792 220.942 169.554Z" fill="#4F7C79"/>
<path d="M360.268 167.495C360.489 162.228 361.912 157.338 365.167 153.139C370.983 145.633 378.671 142.247 388.122 143.401C398.983 144.726 407.44 152.982 409.246 163.773C409.837 167.299 409.634 170.81 408.698 174.27C408.579 174.711 408.48 175.156 408.372 175.6C407.846 178.579 406.229 181.022 404.4 183.307C400.364 188.347 395.106 191.445 388.72 192.377C380.615 193.562 373.523 191.282 367.596 185.594C362.996 181.18 360.597 175.71 360.063 169.391C360.008 168.751 360.151 168.122 360.268 167.495Z" fill="#2E5554"/>
<path d="M360.267 167.496C360.316 171.346 361.079 175.049 362.776 178.507C364.628 182.282 367.282 185.405 370.72 187.863C373.641 189.952 376.878 191.331 380.376 191.984C384.811 192.812 389.182 192.443 393.445 190.861C396.897 189.581 399.915 187.642 402.494 185.038C405.008 182.499 406.87 179.526 408.102 176.166C408.174 175.971 408.28 175.788 408.371 175.598C408.214 180.658 406.544 185.201 403.503 189.208C399.328 194.709 393.778 197.913 386.914 198.842C374.182 200.564 362.006 191.757 359.651 179.116C358.946 175.338 359.071 171.609 360.095 167.908C360.133 167.767 360.208 167.633 360.267 167.496Z" fill="#4F7B79"/>
<path d="M157.069 171.567C157.31 171.528 157.53 171.632 157.711 171.799C158.354 172.393 159.015 172.973 159.62 173.604C159.995 173.993 160.046 174.48 159.624 174.899C159.232 175.286 158.792 175.242 158.409 174.895C157.738 174.286 157.091 173.651 156.44 173.02C156.169 172.757 156.145 172.419 156.277 172.099C156.412 171.777 156.667 171.561 157.069 171.567Z" fill="#E3E3E3"/>
<path d="M377.256 63.4887C378.178 63.8581 379.282 64.2787 380.166 65.0944C380.473 65.3797 380.37 65.7856 380.122 66.0892C379.877 66.3891 379.531 66.5556 379.147 66.3709C378.3 65.963 377.457 65.5442 376.631 65.0944C376.245 64.8841 376.1 64.511 376.239 64.0776C376.364 63.6899 376.638 63.4777 377.256 63.4887Z" fill="#E3E3E3"/>
<path d="M152.009 165.782C151.996 166.084 151.875 166.379 151.544 166.556C151.127 166.779 150.725 166.658 150.467 166.348C149.867 165.622 149.322 164.852 148.777 164.083C148.539 163.747 148.589 163.389 148.865 163.079C149.108 162.807 149.415 162.705 149.774 162.811C150.191 162.935 151.989 165.289 152.009 165.782Z" fill="#E3E3E3"/>
<path d="M143.907 131.169C143.542 132.162 143.202 133.164 142.797 134.141C142.635 134.534 142.219 134.534 141.843 134.455C141.418 134.365 141.192 134.053 141.241 133.661C141.378 132.571 141.793 131.558 142.304 130.596C142.486 130.253 142.885 130.152 143.269 130.302C143.637 130.446 143.88 130.704 143.907 131.169Z" fill="#E3E3E3"/>
<path d="M398.496 127.078C398.639 126.238 398.759 125.395 398.931 124.561C399.041 124.022 399.386 123.685 399.975 123.782C400.577 123.879 400.767 124.336 400.694 124.867C400.577 125.708 400.407 126.542 400.231 127.374C400.125 127.879 399.802 128.213 399.264 128.133C398.701 128.051 398.439 127.665 398.496 127.078Z" fill="#E3E3E3"/>
<path d="M149.947 121.301C149.863 121.484 149.798 121.727 149.655 121.914C149.163 122.565 148.651 123.2 148.137 123.832C147.751 124.31 147.274 124.414 146.795 124.012C146.341 123.629 146.416 123.152 146.747 122.72C147.261 122.049 147.784 121.384 148.331 120.738C148.603 120.416 148.954 120.288 149.388 120.482C149.737 120.637 149.867 120.915 149.947 121.301Z" fill="#E3E3E3"/>
<path d="M394.121 78.6301C394.498 78.6119 394.776 78.7966 394.954 79.1002C395.4 79.8591 395.839 80.6235 396.248 81.4008C396.499 81.8763 396.358 82.3097 395.901 82.5767C395.38 82.8821 394.954 82.6791 394.666 82.1963C394.233 81.4648 393.8 80.7296 393.421 79.9688C393.095 79.3159 393.465 78.6594 394.121 78.6301Z" fill="#E3E3E3"/>
<path d="M154.559 114.917C154.586 114.837 154.597 114.621 154.711 114.509C155.484 113.741 156.336 113.063 157.307 112.565C157.706 112.362 158.083 112.609 158.302 112.975C158.533 113.357 158.472 113.765 158.13 114.039C157.375 114.643 156.614 115.244 155.804 115.767C155.215 116.148 154.548 115.705 154.559 114.917Z" fill="#E3E3E3"/>
<path d="M368.497 62.0328C367.667 61.8024 366.696 61.5738 365.758 61.2519C365.383 61.1221 365.143 60.727 365.267 60.2881C365.394 59.8382 365.736 59.5237 366.213 59.6243C367.184 59.8309 368.15 60.0851 369.097 60.3832C369.516 60.5149 369.666 60.9227 369.567 61.3543C369.457 61.8316 369.123 62.0529 368.497 62.0328Z" fill="#E3E3E3"/>
<path d="M178.5 187.397C177.525 187.101 176.499 186.748 175.557 186.201C175.21 186 175.136 185.601 175.281 185.234C175.438 184.832 175.8 184.548 176.208 184.689C177.203 185.027 178.181 185.424 179.134 185.868C179.476 186.028 179.562 186.435 179.409 186.827C179.26 187.209 178.973 187.385 178.5 187.397Z" fill="#E3E3E3"/>
<path d="M389.555 72.3967C389.568 72.7972 389.413 73.0441 389.144 73.216C388.837 73.4135 388.497 73.4464 388.219 73.1959C387.48 72.5302 386.745 71.8591 386.048 71.1495C385.733 70.8294 385.788 70.418 386.086 70.0815C386.348 69.787 386.715 69.6078 387.055 69.8419C387.975 70.4747 388.796 71.2281 389.484 72.1151C389.548 72.201 389.543 72.3437 389.555 72.3967Z" fill="#E3E3E3"/>
<path d="M189.211 189.903C188.519 189.813 187.823 189.753 187.137 189.627C186.594 189.528 186.272 189.201 186.369 188.593C186.46 188.03 186.853 187.835 187.353 187.877C188.166 187.944 188.977 188.083 189.79 188.162C190.414 188.222 190.767 188.54 190.714 189.157C190.663 189.757 190.215 189.938 189.666 189.912C189.514 189.905 189.364 189.881 189.214 189.864C189.214 189.877 189.212 189.89 189.211 189.903Z" fill="#E3E3E3"/>
<path d="M401.937 113.749C401.904 114.255 401.857 114.985 401.811 115.713C401.775 116.293 401.442 116.651 400.888 116.635C400.271 116.616 399.981 116.179 400.01 115.578C400.045 114.85 400.14 114.124 400.171 113.394C400.198 112.73 400.434 112.189 401.153 112.242C401.866 112.295 402.051 112.869 401.937 113.749Z" fill="#E3E3E3"/>
<path d="M395.821 138.338C396.06 137.527 396.324 136.564 396.638 135.615C396.808 135.101 397.273 135.07 397.703 135.194C398.127 135.316 398.379 135.682 398.279 136.108C398.056 137.05 397.779 137.981 397.485 138.905C397.328 139.395 396.909 139.519 396.45 139.393C396.02 139.272 395.808 138.952 395.821 138.338Z" fill="#E3E3E3"/>
<path d="M145.695 156.011C145.708 156.455 145.478 156.742 145.128 156.887C144.719 157.057 144.305 156.918 144.104 156.539C143.653 155.689 143.239 154.816 142.861 153.931C142.694 153.542 142.822 153.16 143.199 152.902C143.55 152.66 143.974 152.668 144.19 152.966C144.863 153.889 145.298 154.944 145.695 156.011Z" fill="#E3E3E3"/>
<path d="M401.966 103.666C402.014 104.308 401.998 104.975 401.16 105.021C400.342 105.065 400.216 104.436 400.178 103.776C400.139 103.108 400.059 102.444 400.006 101.777C399.958 101.183 400.191 100.724 400.805 100.647C401.438 100.566 401.751 100.98 401.807 101.574C401.875 102.269 401.915 102.967 401.966 103.666Z" fill="#E4E4E4"/>
<path d="M198.894 189.567C198.382 189.574 197.992 189.397 197.915 188.841C197.84 188.309 198.096 187.962 198.616 187.846C199.47 187.656 200.327 187.479 201.187 187.321C201.761 187.217 202.151 187.515 202.259 188.049C202.363 188.565 202.056 188.896 201.549 189.039C200.677 189.284 199.795 189.47 198.894 189.567Z" fill="#E3E3E3"/>
<path d="M400.353 92.4315C400.364 93.0771 400.141 93.4228 399.667 93.5288C399.197 93.6349 398.802 93.4337 398.663 92.971C398.394 92.0731 398.159 91.1624 397.959 90.2461C397.857 89.7798 398.062 89.4067 398.563 89.2751C399.047 89.147 399.444 89.3226 399.594 89.7816C399.896 90.7033 400.132 91.6452 400.353 92.4315Z" fill="#E3E3E3"/>
<path d="M168.014 182.174C168.05 182.184 167.851 182.18 167.708 182.087C166.971 181.607 166.245 181.112 165.525 180.607C165.078 180.294 165.014 179.83 165.256 179.396C165.519 178.925 166.004 178.859 166.443 179.122C167.222 179.588 167.975 180.101 168.718 180.624C169.078 180.878 169.173 181.267 169.003 181.681C168.866 182.015 168.623 182.233 168.014 182.174Z" fill="#E4E4E4"/>
<path d="M141.974 144.746C142.069 145.369 141.902 145.892 141.216 145.966C140.516 146.041 140.284 145.521 140.22 144.92C140.139 144.164 140.042 143.409 140.009 142.652C139.986 142.083 140.211 141.613 140.867 141.576C141.537 141.538 141.756 141.99 141.805 142.564C141.868 143.29 141.919 144.018 141.974 144.746Z" fill="#E4E4E4"/>
<path d="M220.946 169.553C221.313 169.359 221.714 169.398 222.109 169.396C224.634 169.385 227.165 169.467 229.685 169.345C233.028 169.184 236.377 169.317 239.715 169.145C242.178 169.019 244.643 169.153 247.097 168.983C250.349 168.758 253.608 168.984 256.852 168.787C260.107 168.588 263.361 168.767 266.609 168.609C268.401 168.524 270.191 168.439 271.982 168.483C272.571 168.498 272.865 168.344 272.911 167.761C273.121 167.362 273.534 167.296 273.902 167.176C276.742 166.243 278.982 164.442 280.884 162.214C284.273 158.248 286.521 153.634 288.3 148.773C290.551 142.622 291.916 136.26 292.623 129.762C292.883 127.378 293.101 124.98 293.07 122.572C293.062 122.032 292.998 121.461 293.452 121.024C293.54 120.959 293.635 120.911 293.739 120.882C295.131 120.803 296.522 120.814 297.914 120.874C298.848 121.211 299.807 120.863 300.749 120.973C303.128 121.097 305.511 120.949 307.89 121.046C308.6 121.277 309.329 121.193 310.053 121.187C311.941 121.072 313.83 121.054 315.712 121.205C316.42 121.262 316.751 121.066 316.778 120.357C316.804 119.717 316.954 119.091 316.994 118.451C317.056 117.506 316.928 117.33 315.968 117.273C315.055 117.22 314.141 117.255 313.226 117.252C312.586 117.248 311.946 117.266 311.308 117.242C310.143 117.199 309.924 116.981 309.92 115.823C309.909 112.502 309.938 109.181 309.907 105.862C309.894 104.435 310.083 103 309.748 101.584C309.419 99.7829 309.516 97.9578 309.434 96.1437C309.346 95.7797 309.386 95.4085 309.359 95.0409C309.348 94.6898 309.38 94.3331 309.229 93.9985C309.167 93.6473 309.22 93.2871 309.141 92.9359C308.976 91.9356 308.987 90.9188 308.887 89.913C308.828 89.7209 308.836 89.5198 308.786 89.3259C308.594 88.4335 308.497 87.5246 308.347 86.6248C308.287 86.4474 308.287 86.259 308.254 86.0762C307.532 83.172 306.601 80.3612 304.69 77.9783C303.783 76.8462 302.733 75.9062 301.341 75.4052C301.158 75.3302 300.981 75.2479 300.792 75.1839C299.94 74.99 299.092 75.1912 298.241 75.1912C289.01 75.1802 279.776 75.0943 270.546 75.2168C264.709 75.2936 258.862 75.4692 253.048 76.1257C248.985 76.5847 246.049 78.75 243.941 82.1479C242.013 85.255 240.945 88.6602 240.503 92.2776C240.131 95.3207 240.285 98.3565 240.594 101.39C240.647 101.906 240.673 102.422 240.673 102.941C240.673 105.013 240.638 107.085 240.68 109.157C240.795 114.746 240.212 120.286 239.493 125.814C238.915 130.256 238.069 134.653 237.141 139.032C237.03 139.557 237.001 140.137 236.494 140.494C236.264 140.556 236.033 140.666 235.801 140.669C232.01 140.737 228.221 140.792 224.43 140.848C224.857 137.301 225.274 133.751 225.713 130.205C226.112 126.99 226.549 123.779 226.944 120.562C227.281 117.826 227.57 115.083 227.908 112.347C228.237 109.671 228.619 107.003 228.945 104.327C229.234 101.952 229.457 99.569 229.738 97.1915C230.038 94.6642 230.369 92.1404 230.691 89.6167C230.978 87.3636 231.267 85.1105 231.558 82.8593C232.045 79.0737 232.434 75.279 232.977 71.4989C233.374 68.741 233.608 65.9613 233.943 63.1943C234.267 60.5188 234.641 57.8488 234.969 55.1732C235.252 52.858 235.49 50.5373 235.77 48.222C236.09 45.5757 236.443 42.9331 236.767 40.2887C236.882 39.356 236.966 38.4215 237.048 37.4852C237.149 36.3513 237.235 36.2617 238.358 36.2617C271.846 36.2617 305.333 36.2617 338.822 36.2617C340.077 36.2617 340.024 36.2562 339.859 37.5492C339.504 40.3436 339.223 43.1489 338.888 45.9452C338.639 48.0208 338.339 50.0892 338.082 52.1631C337.793 54.4765 337.531 56.7954 337.249 59.1106C336.982 61.3052 336.701 63.4997 336.432 65.6943C336.152 67.9784 335.882 70.2644 335.604 72.5504C335.344 74.6846 335.08 76.8206 334.813 78.9548C334.532 81.2079 334.243 83.461 333.961 85.7159C333.608 88.5414 333.254 91.365 332.912 94.1905C332.641 96.4161 332.398 98.6436 332.125 100.869C331.867 102.974 331.578 105.075 331.322 107.18C331.03 109.585 330.77 111.996 330.477 114.4C330.221 116.505 329.938 118.607 329.673 120.71C329.389 122.963 329.113 125.218 328.837 127.473C328.513 130.119 328.201 132.767 327.875 135.413C327.529 138.239 327.176 141.064 326.824 143.888C326.542 146.141 326.251 148.394 325.975 150.649C325.702 152.875 325.452 155.102 325.178 157.326C324.784 160.512 324.366 163.696 323.978 166.883C323.689 169.259 323.44 171.64 323.162 174.015C322.99 175.489 322.787 176.96 322.614 178.434C322.572 178.787 322.383 178.898 322.065 178.895C321.851 178.891 321.639 178.896 321.425 178.896C287.876 178.896 254.327 178.893 220.777 178.915C219.987 178.915 219.731 178.776 219.847 177.933C220.198 175.352 220.467 172.761 220.776 170.175C220.808 169.957 220.891 169.756 220.946 169.553Z" fill="#FEFEFE"/>
<path d="M265.018 207.588C262.436 207.709 260.09 207.256 257.924 205.977C255.306 204.434 253.916 202.031 253.358 199.159C252.921 196.912 252.844 194.608 253.894 192.459C255.662 188.836 258.422 186.438 262.462 185.641C265.935 184.955 269.183 185.504 272.109 187.483C274.696 189.231 276.649 191.544 277.421 194.648C278.84 200.356 275.389 206.052 269.259 207.223C267.827 207.495 266.384 207.704 265.018 207.588Z" fill="#F1F1F1"/>
<path d="M236.496 140.488C237.416 136.176 238.272 131.851 238.908 127.487C239.338 124.537 239.669 121.578 239.96 118.612C240.49 113.204 240.472 107.782 240.287 102.365C240.196 99.6932 239.788 97.0268 239.958 94.3458C240.273 89.3934 241.542 84.7483 244.535 80.6938C246.741 77.7074 249.702 76.0871 253.411 75.7433C266.232 74.5528 279.087 74.8417 291.936 74.7997C294.708 74.7905 297.481 74.8216 300.253 74.8362C300.493 74.8381 300.743 74.7869 300.957 74.9496C300.859 75.3099 300.495 75.2349 300.262 75.3812C298.17 76.4511 296.95 78.3164 295.914 80.2952C294.019 83.9107 293.178 87.8335 292.748 91.8586C292.697 92.3433 292.669 92.8297 292.567 93.3089C292.475 93.8831 292.592 94.4683 292.472 95.0407C292.41 97.8077 292.391 100.573 292.485 103.338C292.594 104.009 292.453 104.695 292.605 105.364C292.92 109.386 293.646 113.374 293.684 117.416C293.695 118.65 293.737 119.903 293.518 121.136C293.218 122.727 293.344 124.345 293.238 125.951C292.629 135.258 290.734 144.261 286.985 152.823C285.221 156.856 283.021 160.647 279.837 163.763C277.876 165.683 275.652 167.19 272.902 167.763C272.408 167.777 272.159 167.463 271.901 167.093C269.18 163.194 267.458 158.86 266.311 154.277C265.38 150.557 264.837 146.779 264.638 142.948C264.601 142.253 264.422 141.567 264.471 140.861C264.502 140.406 264.232 140.298 263.835 140.309C260.488 140.4 257.143 140.236 253.791 140.442C251.088 140.609 248.365 140.404 245.657 140.523C242.917 140.643 240.181 140.656 237.443 140.665C237.127 140.665 236.772 140.768 236.496 140.488Z" fill="#2D5652"/>
<path d="M386.408 152.563C387.156 152.696 387.91 152.811 388.652 152.969C389.289 153.102 389.521 153.594 389.345 154.144C388.881 155.6 389.506 156.169 390.827 156.772C393.16 157.84 394.296 160 394.929 162.414C395.06 162.919 394.826 163.31 394.34 163.508C394.06 163.621 393.764 163.696 393.473 163.78C391.046 164.49 391.01 164.508 389.967 162.317C389.148 160.596 387.661 159.971 385.953 159.704C385.24 159.592 384.494 159.631 383.766 159.671C382.564 159.737 381.657 160.509 381.416 161.6C381.147 162.809 381.547 163.716 382.674 164.366C383.711 164.964 384.863 165.269 386.006 165.576C387.656 166.019 389.225 166.62 390.748 167.422C393.38 168.804 393.866 171.818 393.468 174.124C392.795 178.023 389.934 179.927 385.878 180.121C385.22 180.152 384.973 180.32 384.859 181C384.514 183.054 384.474 183.049 382.325 182.728C382.056 182.688 381.791 182.613 381.522 182.588C380.628 182.498 380.459 181.962 380.558 181.17C380.624 180.633 380.993 180.077 380.741 179.574C380.496 179.087 379.836 179.157 379.375 178.937C376.798 177.718 375.278 175.682 374.638 172.944C374.454 172.151 374.679 171.564 375.531 171.328C375.794 171.255 376.05 171.123 376.315 171.097C378.303 170.913 378.669 170.082 379.448 172.826C379.616 173.418 379.977 173.912 380.425 174.343C382.012 175.874 385.426 176.443 387.449 175.516C388.497 175.035 388.855 174.133 388.943 173.083C389.027 172.081 388.484 171.421 387.661 170.944C386.271 170.137 384.7 169.863 383.192 169.406C381.489 168.89 379.85 168.212 378.521 167.021C376.562 165.267 376.27 162.996 376.858 160.571C377.621 157.434 380.035 155.494 383.272 155.32C383.576 155.304 383.885 155.253 384.185 155.28C384.717 155.33 384.976 155.123 385.015 154.585C385.039 154.254 385.132 153.927 385.181 153.596C385.28 152.883 385.627 152.475 386.408 152.563Z" fill="#FEFEFE"/>
<path d="M293.525 121.135C293.298 119.783 293.428 118.415 293.366 117.057C293.192 113.262 292.603 109.509 292.298 105.731C292.289 105.61 292.3 105.489 292.3 105.369C292.371 104.712 292.462 104.054 292.247 103.405C292.012 100.577 292 97.75 292.248 94.9227C292.473 94.3356 292.353 93.7376 292.311 93.1414C292.607 89.9904 293.09 86.876 294.086 83.8603C294.933 81.3 296.082 78.9025 297.894 76.8689C298.545 76.1392 299.269 75.4973 300.151 75.0547C300.591 75.2156 301.07 75.0218 301.511 75.1937C303.656 75.9453 304.944 77.6168 306.059 79.4584C307.285 81.4829 307.991 83.7104 308.519 86.0018C308.38 86.2762 308.505 86.5761 308.433 86.8559C308.411 86.9766 308.581 86.8705 308.466 86.8358C308.442 86.8284 308.457 86.7297 308.461 86.6712C308.466 86.5797 308.501 86.5084 308.585 86.4645C308.744 87.4082 308.901 88.3537 309.06 89.2973C309.024 89.4765 308.887 89.6631 309.103 89.8222C309.397 90.8445 309.333 91.907 309.448 92.9494C309.285 93.2786 309.404 93.6279 309.37 93.9662C309.322 94.4216 309.477 93.84 309.492 93.99C309.627 94.3027 309.657 94.6282 309.618 94.9647C309.545 95.3232 309.457 95.6798 309.66 96.0273C310.015 97.547 309.776 99.1051 309.953 100.636C309.988 100.936 309.997 101.237 310.019 101.539C310.187 102.391 310.085 103.251 310.077 104.107C309.935 105.438 310.024 106.775 310.017 108.108C310 110.749 310.013 113.39 310.011 116.031C310.011 116.455 309.98 116.885 310.242 117.26C310.476 118.39 310.361 119.531 310.337 120.668C310.331 120.974 310.231 121.261 309.944 121.438C309.278 121.361 308.6 121.506 307.941 121.323C308.177 121.065 308.515 121.297 308.742 121.177C306.081 121.261 303.384 121.104 300.692 121.261C299.752 121.29 298.812 121.325 297.881 121.138C298.111 120.915 298.4 121.06 298.646 121.014C297.254 121.012 295.847 120.981 294.445 121.027C293.799 121.047 293.563 120.837 293.644 120.206C293.688 119.849 293.62 119.483 293.671 119.125C293.563 119.77 293.775 120.438 293.556 121.076L293.525 121.135Z" fill="#2D5652"/>
<path d="M310.535 55.2723C310.574 55.5448 310.57 55.8099 310.398 56.0458C310.175 56.2598 310.292 56.4994 310.343 56.7335C310.31 57.3297 310.244 57.9204 310.036 58.4873C303.882 58.4598 297.728 58.4781 291.574 58.4763C280.452 58.4727 269.331 58.4763 258.208 58.469C257.82 58.469 257.31 58.6628 257.188 58.0209C257.237 57.4449 257.288 56.8688 257.498 56.3202C257.597 56.3951 257.668 56.4738 257.52 56.5707C257.595 56.5378 257.625 56.4756 257.617 56.3988C257.597 56.2068 257.681 55.9983 257.531 55.8246C257.665 54.3286 257.925 52.8528 258.223 51.3843C258.451 51.1136 258.345 50.8173 258.287 50.5247C258.539 49.2336 258.594 47.9059 258.972 46.6367C259.395 46.7154 259.823 46.6788 260.247 46.6788C276.951 46.6806 293.654 46.6788 310.358 46.6879C310.828 46.6879 311.45 46.4557 311.616 47.2219C311.453 48.3357 311.29 49.4494 311.128 50.5613C310.959 50.4241 311.012 50.2486 311.025 50.159C311.018 50.5247 310.952 50.9764 311.066 51.4245C310.905 52.4815 310.744 53.5386 310.581 54.5956C310.433 54.495 310.468 54.3634 310.484 54.2317C310.457 54.5792 310.413 54.9266 310.535 55.2723Z" fill="#8DA3A1"/>
<path d="M309.938 121.436C310.033 120.046 310.102 118.657 310.009 117.263C309.872 117.073 309.917 116.855 309.917 116.647C309.916 112.643 309.916 108.64 309.916 104.639C309.916 104.458 309.894 104.273 309.989 104.105C309.996 103.249 310.003 102.393 310.011 101.539C310.291 101.85 310.184 102.234 310.186 102.587C310.201 106.969 310.205 111.351 310.208 115.732C310.21 116.899 310.206 116.868 311.412 116.906C313.231 116.965 315.055 116.751 316.872 117.044C317.478 117.14 317.527 117.397 317.45 117.901C317.313 118.797 317.222 119.701 317.136 120.604C317.041 121.597 316.839 121.767 315.857 121.559C315.102 121.398 314.341 121.493 313.584 121.477C312.37 121.449 311.154 121.449 309.938 121.436Z" fill="#E5E5E5"/>
<path d="M311.616 47.2242C311.382 46.8713 311.031 46.8603 310.652 46.8603C293.762 46.8658 276.873 46.8695 259.982 46.8256C259.697 46.8256 259.13 47.5095 258.973 46.6372C259.21 46.4287 259.498 46.5348 259.759 46.5348C276.78 46.5293 293.798 46.5293 310.819 46.5311C311.272 46.5311 311.905 46.3574 311.616 47.2242Z" fill="#161C56"/>
<path d="M257.19 58.0195C257.426 58.367 257.773 58.3871 258.155 58.3871C275.103 58.3816 292.05 58.378 308.999 58.4146C309.325 58.4146 309.749 57.8714 310.038 58.484C309.757 58.6633 309.446 58.5645 309.151 58.5645C292.112 58.57 275.075 58.5718 258.036 58.5517C257.724 58.5517 256.978 58.9614 257.19 58.0195Z" fill="#1A2365"/>
<path d="M300.684 121.259C300.823 121.206 300.962 121.109 301.099 121.109C303.922 121.1 306.748 121.101 309.577 121.22C309.028 121.253 308.48 121.288 307.933 121.321C305.515 121.301 303.099 121.281 300.684 121.259Z" fill="#0E0F52"/>
<path d="M293.547 121.077C293.547 120.322 293.547 119.566 293.547 118.789C293.775 118.835 293.722 118.968 293.726 119.056C293.781 120.918 293.781 120.918 295.612 120.92C296.797 120.921 297.98 120.925 299.165 120.931C299.222 120.931 299.276 120.965 299.509 121.04C298.85 121.081 298.362 121.11 297.874 121.139C296.431 121.117 294.99 121.097 293.547 121.077Z" fill="#141658"/>
<path d="M309.487 93.9898C309.455 94.1032 309.423 94.2184 309.391 94.3318C309.329 93.8654 309.124 93.3954 309.445 92.9492C309.457 93.2949 309.472 93.6423 309.487 93.9898Z" fill="#030554"/>
<path d="M311.069 51.4279C310.776 51.0457 311.001 50.6141 310.992 50.1953C311.038 50.3178 311.083 50.4422 311.129 50.5647C311.109 50.8518 311.089 51.139 311.069 51.4279Z" fill="#00024A"/>
<path d="M309.654 96.0253C309.641 96.0509 309.636 96.0838 309.616 96.1021C309.583 96.135 309.541 96.1606 309.502 96.1899C309.453 95.7729 309.353 95.3523 309.612 94.9609C309.625 95.3176 309.64 95.6723 309.654 96.0253Z" fill="#00014E"/>
<path d="M308.581 86.4666C308.554 86.6678 308.526 86.8689 308.462 87.3389C308.347 86.7062 308.265 86.3477 308.515 86.0039C308.537 86.1575 308.559 86.3111 308.581 86.4666Z" fill="#22245E"/>
<path d="M301.509 75.1924C301.054 75.1595 300.578 75.3442 300.148 75.0535C300.419 75.0187 300.692 74.984 300.962 74.9492C301.145 75.0279 301.383 74.9821 301.509 75.1924Z" fill="#04054D"/>
<path d="M183.451 125.292C183.29 125.104 183.171 124.966 183.051 124.828C172.884 112.996 162.718 101.16 152.538 89.3403C152.111 88.8451 152.186 88.6098 152.652 88.2107C171.185 72.3094 189.709 56.3974 208.219 40.468C208.732 40.0254 208.961 40.1358 209.348 40.587C219.46 52.3865 229.582 64.1788 239.719 75.9582C240.154 76.4632 240.264 76.7077 239.671 77.2163C221.152 93.09 202.655 108.987 184.154 124.878C183.94 125.06 183.77 125.353 183.451 125.292Z" fill="#2B5450"/>
<path d="M310.532 55.271C310.272 54.9363 310.365 54.5706 310.431 54.0859C310.504 54.331 310.545 54.4663 310.583 54.5998C310.567 54.8229 310.548 55.0461 310.532 55.271Z" fill="#040F54"/>
<path d="M258.287 50.5273C258.427 50.8254 258.656 51.1308 258.223 51.3869C258.245 51.0998 258.267 50.8126 258.287 50.5273Z" fill="#01024F"/>
<path d="M309.099 89.8217C309.033 89.8473 309.046 90.1253 308.938 89.9223C308.843 89.7431 308.864 89.4779 309.056 89.2969C309.069 89.4724 309.084 89.6462 309.099 89.8217Z" fill="#00004A"/>
<path d="M310.343 56.7345C310.194 56.4913 309.995 56.2444 310.397 56.0469C310.379 56.2755 310.361 56.5059 310.343 56.7345Z" fill="#010452"/>
<path d="M257.533 55.8281C257.725 55.9781 257.719 56.1902 257.703 56.4005C257.698 56.4664 257.692 56.598 257.569 56.4847C257.529 56.4481 257.522 56.3768 257.5 56.3219C257.511 56.1573 257.522 55.9927 257.533 55.8281Z" fill="#050D55"/>
<path d="M273.512 85.0723C277.046 85.0613 280.577 85.0851 284.096 85.438C285.059 85.535 285.542 85.9702 285.456 86.6633C285.37 87.3473 284.761 87.6362 283.83 87.5521C280.52 87.2522 277.201 87.2723 273.882 87.2431C269.858 87.2065 265.841 87.3601 261.823 87.4954C258.054 87.6216 254.288 87.9234 250.523 88.1593C249.577 88.2178 248.997 87.8813 248.935 87.1809C248.873 86.4823 249.339 86.0818 250.338 85.9976C253.765 85.7069 257.203 85.6008 260.638 85.4252C264.928 85.2076 269.218 85.0924 273.512 85.0723Z" fill="#FEFEFE"/>
<path d="M265.586 131.924C261.322 131.861 257.071 132.207 252.814 132.39C250.839 132.476 248.868 132.65 246.894 132.778C246.15 132.825 245.642 132.485 245.503 131.754C245.389 131.156 245.965 130.664 246.746 130.603C251.876 130.214 257.015 130.013 262.156 129.83C266.695 129.669 271.232 129.689 275.769 129.74C277.441 129.758 279.11 129.928 280.778 130.046C281.654 130.108 282.113 130.565 282.04 131.258C281.97 131.916 281.38 132.317 280.528 132.207C279.015 132.013 277.499 131.924 275.978 131.898C275.734 131.894 275.491 131.915 275.248 131.924C272.027 132.021 268.807 132.022 265.586 131.924Z" fill="#FEFEFE"/>
<path d="M281.409 117.089C277.277 116.758 273.227 116.65 269.178 116.765C262.85 116.944 256.519 117.092 250.204 117.592C249.507 117.647 248.805 117.707 248.108 117.692C247.474 117.679 246.951 117.398 246.938 116.675C246.925 116.037 247.302 115.659 247.945 115.6C250.643 115.357 253.342 115.172 256.051 115.07C262.166 114.839 268.28 114.505 274.401 114.587C276.925 114.62 279.448 114.799 281.97 114.927C282.268 114.942 282.585 115.009 282.852 115.139C283.292 115.355 283.57 115.73 283.459 116.251C283.353 116.743 283.033 117.059 282.508 117.089C282.113 117.105 281.716 117.089 281.409 117.089Z" fill="#FEFEFE"/>
<path d="M276.871 99.5451C278.594 99.664 280.319 99.7792 282.041 99.9017C282.343 99.9237 282.665 99.9072 282.939 100.008C283.492 100.211 283.766 100.661 283.645 101.237C283.525 101.807 283.111 102.111 282.511 102.08C281.054 102.005 279.598 101.906 278.141 101.838C273.973 101.648 269.805 101.67 265.637 101.835C263.631 101.913 261.625 101.957 259.619 102.038C256.001 102.182 252.389 102.393 248.778 102.625C248.476 102.645 248.148 102.676 247.872 102.583C247.362 102.409 247.069 101.994 247.15 101.451C247.245 100.82 247.728 100.538 248.319 100.481C249.257 100.392 250.197 100.322 251.137 100.28C256.303 100.039 261.466 99.7024 266.641 99.6676C266.846 99.6658 267.051 99.589 267.256 99.5469C267.406 99.4025 267.596 99.439 267.775 99.439C270.635 99.4372 273.496 99.4372 276.356 99.439C276.531 99.4372 276.721 99.4006 276.871 99.5451Z" fill="#FEFEFE"/>
<path d="M276.872 99.5484C273.666 99.5484 270.458 99.5484 267.252 99.5484C266.958 99.5301 266.663 99.5118 266.367 99.4954C266.369 99.4624 266.369 99.4314 266.371 99.3984C270.102 99.3984 273.834 99.3984 277.623 99.3984C277.377 99.6197 277.099 99.4734 276.872 99.5484Z" fill="#5ADFFC"/>
<path d="M265.586 131.926C268.806 131.84 272.027 131.824 275.247 131.926C275.076 132.089 274.862 132.078 274.648 132.078C271.826 132.078 269.006 132.078 266.184 132.078C265.972 132.078 265.756 132.089 265.586 131.926Z" fill="#58DFFC"/>
<path d="M292.246 103.403C292.259 103.376 292.264 103.339 292.285 103.323C292.321 103.292 292.367 103.272 292.409 103.246C292.422 103.956 292.594 104.674 292.297 105.367C292.283 104.711 292.264 104.056 292.246 103.403Z" fill="#1C0046"/>
<path d="M292.312 93.1406C292.599 93.746 292.396 94.3879 292.446 95.0115C292.448 95.0334 292.424 95.0572 292.413 95.0791C292.358 95.0261 292.305 94.9749 292.25 94.9219C292.272 94.3275 292.292 93.7332 292.312 93.1406Z" fill="#1C0047"/>
<path d="M309.989 104.105C310.093 108.491 310.082 112.878 310.007 117.265C309.771 117.05 309.826 116.763 309.826 116.494C309.824 112.624 309.824 108.756 309.828 104.886C309.828 104.618 309.769 104.33 309.989 104.105Z" fill="#020B55"/>
<path d="M196.375 92.6565C196.668 92.071 197.449 91.6059 198.113 91.0354C204.966 85.1458 211.832 79.2687 218.693 73.3873C220.125 72.1602 221.527 70.8967 222.98 69.6944C224.22 68.6666 225.549 68.8482 226.564 70.0903C227.141 70.797 227.743 71.4836 228.342 72.1726C229.426 73.4197 229.344 74.7796 228.092 75.853C223.52 79.775 218.938 83.6879 214.365 87.6115C210.347 91.0604 206.337 94.5175 202.321 97.9697C200.851 99.2347 199.628 99.1307 198.405 97.6657C197.762 96.8943 197.083 96.1534 196.447 95.3772C195.816 94.6035 195.813 93.7618 196.375 92.6565Z" fill="#8FA1A1"/>
<path d="M208.917 50.5451C209.157 50.8282 209.373 51.084 209.592 51.3374C210.904 52.8552 212.215 54.3739 213.53 55.8909C213.806 56.2114 213.991 56.4406 213.528 56.8332C208.716 60.9358 203.927 65.0649 199.133 69.185C195.861 71.9966 192.569 74.7859 189.332 77.6364C188.697 78.1951 188.405 78.1632 187.887 77.5285C186.564 75.9042 185.177 74.3296 183.783 72.7632C183.38 72.3093 183.458 72.0511 183.887 71.6842C191.187 65.4451 198.478 59.1952 205.769 52.9454C206.623 52.2139 207.467 51.4725 208.33 50.7519C208.491 50.6233 208.652 50.3401 208.917 50.5451Z" fill="#FEFEFE"/>
<path d="M167.776 94.1364C165.636 93.0306 164.491 90.8501 164.82 88.6414C165.159 86.3584 166.857 84.6239 169.277 84.1739C169.796 84.0781 170.05 83.9566 170.161 83.3815C170.703 80.5157 173.557 78.6282 176.355 79.2264C179.288 79.8536 181.133 82.7056 180.479 85.6312C179.959 87.9607 178.356 89.1739 176.138 89.648C175.603 89.7623 175.406 89.9321 175.26 90.4601C174.462 93.3337 172.379 94.8436 169.576 94.6731C168.888 94.6298 168.258 94.4418 167.776 94.1364Z" fill="#6E8885"/>
<path d="M182.186 112.952C181.151 111.949 179.924 110.759 179.123 109.243C178.682 108.409 179.074 107.382 179.935 106.638C182.144 104.73 184.367 102.835 186.583 100.937C187.646 100.027 188.703 99.1101 189.773 98.2099C190.933 97.2333 192.249 97.3378 193.23 98.4739C193.945 99.3036 194.685 100.113 195.351 100.979C196.181 102.057 196.065 103.363 195.04 104.249C191.725 107.111 188.386 109.943 185.058 112.788C184.248 113.48 183.373 113.556 182.186 112.952Z" fill="#8FA1A1"/>
<path d="M172.902 89.1675C171.132 88.228 170.358 86.7071 170.026 84.9022C169.918 84.3125 170.165 84.0886 170.793 84.1646C173.057 84.4346 175.112 86.4627 175.342 88.7006C175.434 89.6074 175.24 89.8156 174.37 89.6455C173.841 89.5423 173.294 89.4528 172.902 89.1675Z" fill="#98AEAC"/>
</g>
<path d="M448.84 40.7196L450.667 48.9456C451.438 52.4174 453.995 55.2183 457.383 56.3017L465.409 58.8687L457.183 60.6961C453.711 61.4673 450.91 64.0244 449.827 67.4118L447.26 75.4378L445.432 67.2118C444.661 63.7401 442.104 60.9391 438.717 59.8558L430.691 57.2888L438.917 55.4614C442.388 54.6901 445.189 52.133 446.273 48.7456L448.84 40.7196Z" fill="#E1E8F0"/>
<path d="M114.139 141.441L114.732 144.113C115.504 147.585 118.061 150.386 121.448 151.469L124.055 152.303L121.383 152.897C117.911 153.668 115.111 156.225 114.027 159.612L113.193 162.219L112.6 159.547C111.829 156.076 109.272 153.275 105.884 152.191L103.277 151.358L105.949 150.764C109.421 149.993 112.222 147.436 113.305 144.048L114.139 141.441Z" fill="#E1E8F0"/>
<path opacity="0.5" d="M101.127 126.893L101.671 129.343C101.979 130.731 103.002 131.852 104.357 132.285L106.747 133.049L104.298 133.594C102.909 133.902 101.789 134.925 101.355 136.28L100.591 138.67L100.047 136.22C99.7382 134.832 98.7153 133.711 97.3604 133.278L94.9703 132.514L97.4199 131.969C98.8087 131.661 99.929 130.638 100.362 129.283L101.127 126.893Z" fill="#E1E8F0"/>
<path opacity="0.5" d="M17.6622 197.957L17.1437 204.023C17.0225 205.441 17.6632 206.816 18.8264 207.635L23.8045 211.139L17.7386 210.621C16.3212 210.5 14.9461 211.14 14.1272 212.304L10.6225 217.282L11.141 211.216C11.2622 209.798 10.6214 208.423 9.45822 207.604L4.48013 204.1L10.5461 204.618C11.9635 204.739 13.3386 204.099 14.1575 202.935L17.6622 197.957Z" fill="#E1E8F0"/>
<defs>
<clipPath id="clip0_1_43893">
<rect width="272.082" height="213.425" fill="white" transform="translate(138.961 18.5)"/>
</clipPath>
</defs>
</svg>
