<svg width="72" height="72" viewBox="0 0 72 72" fill="none" xmlns="http://www.w3.org/2000/svg">
<path opacity="0.7" d="M36 36C36 40.7276 36.9312 45.4089 38.7403 49.7766C40.5495 54.1443 43.2012 58.1129 46.5442 61.4558C49.8871 64.7988 53.8557 67.4505 58.2234 69.2597C62.5911 71.0688 67.2724 72 72 72L72 36L36 36Z" fill="#577774"/>
<path d="M36 36C36 31.2724 35.0688 26.5911 33.2597 22.2234C31.4505 17.8557 28.7988 13.8871 25.4558 10.5442C22.1129 7.20124 18.1443 4.5495 13.7766 2.74034C9.40888 0.931167 4.72758 -2.06649e-07 0 0L0 36L36 36Z" fill="#2D5551"/>
<circle opacity="0.3" cx="57" cy="15" r="15" fill="#D5DDDC"/>
<circle opacity="0.3" cx="15" cy="57" r="15" fill="#819997"/>
</svg>
