<svg width="42" height="42" viewBox="0 0 42 42" fill="none" xmlns="http://www.w3.org/2000/svg">
<path d="M2.25347 20.2578H0.00390625V31.5056H2.25347V20.2578Z" fill="#2D5551"/>
<path d="M41.9957 20.2578H39.7461V31.5056H41.9957V20.2578Z" fill="#2D5551"/>
<path d="M28.5502 21.514L23.6244 19.0395C23.1193 18.796 22.5506 18.717 21.9982 18.8134C21.4458 18.9098 20.9375 19.1769 20.5447 19.5771L16.0321 24.3297C15.9312 24.4521 15.8557 24.5934 15.8101 24.7454C15.7645 24.8974 15.7497 25.0569 15.7665 25.2146C15.7833 25.3724 15.8315 25.5252 15.9081 25.6641C15.9848 25.803 16.0884 25.9253 16.2128 26.0236C16.4363 26.1907 16.7123 26.2719 16.9906 26.2525C17.2689 26.233 17.5309 26.1143 17.729 25.9179L21.5458 22.3711C21.7969 22.1366 22.1212 21.9958 22.464 21.9723C22.8067 21.9488 23.1472 22.0441 23.4279 22.2421C23.7789 22.5008 31.4769 28.1915 34.462 30.738C35.6827 30.3203 36.9569 30.0802 38.2458 30.0248V21.7555H29.5625C29.2106 21.7569 28.8635 21.6741 28.5502 21.514Z" fill="#2D5551"/>
<path d="M11.1985 34.5965L12.9052 32.44C13.0886 32.2052 13.1721 31.9075 13.1374 31.6116C13.1027 31.3156 12.9527 31.0453 12.72 30.8593C12.4818 30.6816 12.1847 30.6021 11.8896 30.6369C11.5946 30.6718 11.3242 30.8185 11.134 31.0467L9.43334 33.1966C9.34142 33.3125 9.27322 33.4453 9.23265 33.5876C9.19208 33.7299 9.17992 33.8787 9.19688 34.0257C9.21383 34.1726 9.25957 34.3148 9.33147 34.4441C9.40337 34.5734 9.50003 34.6872 9.61593 34.7791C9.73183 34.8711 9.86471 34.9393 10.007 34.9798C10.1492 35.0204 10.2981 35.0326 10.445 35.0156C10.592 34.9987 10.7342 34.9529 10.8634 34.881C10.9927 34.8091 11.1066 34.7125 11.1985 34.5965Z" fill="#2D5551"/>
<path d="M23.9999 13.5075C24.414 13.5075 24.7497 13.1718 24.7497 12.7577C24.7497 12.3435 24.414 12.0078 23.9999 12.0078C23.5857 12.0078 23.25 12.3435 23.25 12.7577C23.25 13.1718 23.5857 13.5075 23.9999 13.5075Z" fill="#2D5551"/>
<path d="M17.9999 7.50752C18.414 7.50752 18.7497 7.1718 18.7497 6.75767C18.7497 6.34353 18.414 6.00781 17.9999 6.00781C17.5857 6.00781 17.25 6.34353 17.25 6.75767C17.25 7.1718 17.5857 7.50752 17.9999 7.50752Z" fill="#2D5551"/>
<path d="M18.4442 41.7595C18.68 41.9435 18.9789 42.027 19.2759 41.9918C19.5729 41.9565 19.844 41.8054 20.0302 41.5713L21.2644 40.0071C21.3562 39.8912 21.4243 39.7583 21.4647 39.616C21.5051 39.4737 21.517 39.3249 21.4998 39.178C21.4826 39.0311 21.4366 38.889 21.3644 38.76C21.2923 38.6309 21.1953 38.5173 21.0792 38.4257C20.8421 38.248 20.5458 38.1684 20.2515 38.2034C19.9573 38.2385 19.6879 38.3855 19.4993 38.6139L18.2583 40.1773C18.0742 40.4122 17.9905 40.7104 18.0253 41.0067C18.0601 41.3031 18.2107 41.5737 18.4442 41.7595Z" fill="#2D5551"/>
<path d="M15.4996 39.4358C15.7352 39.617 16.0321 39.6992 16.3273 39.6649C16.6225 39.6306 16.8926 39.4825 17.0803 39.2521L18.7855 37.091C18.8773 36.9751 18.9453 36.8421 18.9856 36.6998C19.0259 36.5575 19.0378 36.4086 19.0205 36.2618C19.0033 36.1149 18.9572 35.9728 18.8849 35.8437C18.8127 35.7147 18.7157 35.6011 18.5995 35.5096C18.3645 35.3346 18.0716 35.2556 17.7805 35.2886C17.4893 35.3216 17.2215 35.4641 17.0316 35.6873L15.3129 37.8559C15.1301 38.0909 15.0471 38.3885 15.082 38.6842C15.117 38.9799 15.267 39.2499 15.4996 39.4358Z" fill="#2D5551"/>
<path d="M16.1263 32.6016C15.8914 32.4195 15.5945 32.3366 15.2993 32.3708C15.0041 32.405 14.734 32.5536 14.5471 32.7846L12.377 35.5305C12.1957 35.7661 12.1137 36.0632 12.1484 36.3584C12.1832 36.6535 12.3319 36.9235 12.5629 37.1105C12.7968 37.2937 13.0936 37.377 13.3886 37.3422C13.6837 37.3073 13.9529 37.1572 14.1376 36.9245L16.3122 34.1793C16.4921 33.9436 16.5732 33.6472 16.5385 33.3528C16.5038 33.0584 16.356 32.789 16.1263 32.6016Z" fill="#2D5551"/>
<path d="M15.8551 18.0279L16.5157 17.6957C17.1247 17.4004 17.796 17.2561 18.4726 17.275C19.1492 17.2939 19.8113 17.4755 20.4029 17.8044C21.0274 17.4467 21.7341 17.2575 22.4538 17.2555C23.0974 17.2543 23.7321 17.4064 24.3052 17.6994L25.5927 18.3466C27.4857 17.3355 28.9922 15.7279 29.8784 13.7732C30.7645 11.8186 30.9809 9.62611 30.4939 7.53595C30.0068 5.44579 28.8436 3.57477 27.1847 2.21315C25.5258 0.851529 23.4639 0.0754199 21.3189 0.00521908C19.1739 -0.0649817 17.0657 0.57465 15.3213 1.82489C13.5769 3.07513 12.2939 4.86609 11.6712 6.91993C11.0486 8.97377 11.1211 11.1757 11.8776 13.1841C12.6341 15.1925 14.0322 16.8952 15.8551 18.0279ZM26.2481 12.7564C26.2481 13.2013 26.1161 13.6363 25.8689 14.0062C25.6217 14.3761 25.2704 14.6645 24.8594 14.8347C24.4483 15.005 23.996 15.0495 23.5596 14.9627C23.1232 14.8759 22.7224 14.6617 22.4078 14.3471C22.0932 14.0325 21.8789 13.6316 21.7921 13.1953C21.7053 12.7589 21.7499 12.3066 21.9202 11.8955C22.0904 11.4845 22.3788 11.1331 22.7487 10.886C23.1186 10.6388 23.5536 10.5068 23.9985 10.5068C24.5951 10.5068 25.1673 10.7439 25.5892 11.1657C26.011 11.5876 26.2481 12.1598 26.2481 12.7564ZM24.2182 5.47757C24.3596 5.34098 24.549 5.2654 24.7456 5.26711C24.9423 5.26881 25.1303 5.34767 25.2694 5.4867C25.4084 5.62573 25.4872 5.81381 25.489 6.01042C25.4907 6.20703 25.4151 6.39644 25.2785 6.53786L17.7799 14.0364C17.6385 14.173 17.4491 14.2486 17.2525 14.2469C17.0559 14.2452 16.8678 14.1663 16.7288 14.0273C16.5898 13.8882 16.5109 13.7002 16.5092 13.5036C16.5075 13.307 16.5831 13.1175 16.7196 12.9761L24.2182 5.47757ZM17.9997 4.50801C18.4446 4.50801 18.8795 4.63994 19.2494 4.88713C19.6194 5.13431 19.9077 5.48565 20.078 5.8967C20.2482 6.30775 20.2928 6.76007 20.206 7.19644C20.1192 7.63281 19.9049 8.03365 19.5903 8.34825C19.2757 8.66286 18.8749 8.87711 18.4385 8.96391C18.0021 9.05071 17.5498 9.00616 17.1388 8.8359C16.7277 8.66563 16.3764 8.3773 16.1292 8.00736C15.882 7.63742 15.7501 7.20249 15.7501 6.75757C15.7501 6.16095 15.9871 5.58876 16.409 5.16689C16.8308 4.74501 17.403 4.50801 17.9997 4.50801Z" fill="#2D5551"/>
<path d="M3.75391 21.7542V30.0318C5.54874 30.2081 7.30506 30.6635 8.9594 31.3816L9.96045 30.1143C10.3949 29.5704 11.0266 29.2201 11.718 29.1395C12.4095 29.0589 13.1048 29.2545 13.6527 29.6839C14.0805 30.0257 14.3898 30.4935 14.5368 31.0209C14.7278 30.9499 14.9263 30.9011 15.1285 30.8754C15.8198 30.7954 16.5147 30.9933 17.0601 31.4256C17.6056 31.8579 17.957 32.4891 18.0371 33.1805C18.0578 33.38 18.0561 33.5812 18.0319 33.7804C18.5773 33.8014 19.1021 33.994 19.5316 34.3307C19.8818 34.6095 20.1551 34.973 20.3256 35.3869C20.4962 35.8007 20.5584 36.2512 20.5064 36.6958C21.0573 36.715 21.5875 36.9099 22.0196 37.2522C22.4745 37.6154 22.7957 38.1196 22.9326 38.6854C23.0696 39.2512 23.0146 39.8465 22.7762 40.3776C23.6708 41.1439 24.1957 41.6283 24.2212 41.6523C24.3246 41.7583 24.4478 41.8429 24.5839 41.9013C24.72 41.9597 24.8663 41.9907 25.0144 41.9925C25.1624 41.9944 25.3094 41.967 25.4469 41.9121C25.5844 41.8571 25.7097 41.7756 25.8158 41.6722C25.9218 41.5688 26.0064 41.4455 26.0647 41.3094C26.1231 41.1734 26.1541 41.0271 26.1559 40.879C26.1578 40.731 26.1304 40.584 26.0755 40.4465C26.0205 40.309 25.939 40.1836 25.8356 40.0776C25.699 39.9362 25.6234 39.7468 25.6252 39.5502C25.6269 39.3536 25.7057 39.1655 25.8448 39.0265C25.9838 38.8874 26.1719 38.8086 26.3685 38.8069C26.5651 38.8052 26.7545 38.8807 26.8959 39.0173C27.1105 39.2042 27.3879 39.3028 27.6723 39.2933C27.9567 39.2837 28.2269 39.1668 28.4284 38.966C28.63 38.7651 28.748 38.4954 28.7586 38.2111C28.7692 37.9267 28.6717 37.6489 28.4856 37.4336C28.348 37.293 28.2712 37.104 28.2717 36.9072C28.2722 36.7105 28.35 36.5218 28.4883 36.3819C28.6266 36.242 28.8144 36.1621 29.0111 36.1594C29.2078 36.1566 29.3978 36.2313 29.5399 36.3673C29.6444 36.4722 29.7685 36.5555 29.9052 36.6124C30.0418 36.6693 30.1883 36.6987 30.3364 36.699C30.4844 36.6993 30.6311 36.6704 30.7679 36.614C30.9048 36.5576 31.0292 36.4748 31.1341 36.3703C31.239 36.2659 31.3222 36.1418 31.3791 36.0051C31.4361 35.8684 31.4655 35.7219 31.4658 35.5739C31.466 35.4258 31.4372 35.2792 31.3808 35.1423C31.3244 35.0055 31.2416 34.881 31.1371 34.7762C30.9965 34.6355 30.9175 34.4448 30.9175 34.246C30.9175 34.0472 30.9965 33.8565 31.1371 33.7159C31.2777 33.5753 31.4684 33.4963 31.6672 33.4963C31.8661 33.4963 32.0568 33.5753 32.1974 33.7159C32.409 33.927 32.6956 34.0455 32.9945 34.0455C33.2934 34.0455 33.58 33.927 33.7916 33.7159C34.0006 33.5132 34.1214 33.2363 34.1277 32.9452C34.1341 32.6541 34.0254 32.3722 33.8253 32.1607C31.1926 29.8406 22.636 23.5163 22.5498 23.4526L18.7735 26.9897C18.2783 27.4678 17.6171 27.7356 16.9287 27.7368C16.2404 27.7381 15.5782 27.4727 15.0813 26.9963C14.5844 26.5199 14.2912 25.8696 14.2634 25.1818C14.2356 24.494 14.4752 23.8221 14.932 23.3071L19.1312 18.883C18.4914 18.6852 17.8004 18.7388 17.1988 19.033L12.2573 21.5187C11.9457 21.6758 11.6013 21.7565 11.2525 21.7542H3.75391Z" fill="#2D5551"/>
</svg>
