<svg width="42" height="42" viewBox="0 0 42 42" fill="none" xmlns="http://www.w3.org/2000/svg">
<path d="M36.3796 15.0381C35.9207 13.8432 35.3206 12.7073 34.5923 11.6547C34.3614 11.3384 34.0159 11.1249 33.6297 11.0599C33.2435 10.9949 32.8472 11.0835 32.5254 11.3068C32.2037 11.5301 31.982 11.8703 31.9078 12.2549C31.8336 12.6394 31.9128 13.0378 32.1284 13.3647C32.612 14.0808 33.0232 14.8432 33.3557 15.6408C32.3498 16.129 31.5016 16.8905 30.9081 17.8381C30.3147 18.7857 30 19.8813 30 20.9994C30 22.1175 30.3147 23.213 30.9081 24.1607C31.5016 25.1083 32.3498 25.8698 33.3557 26.358C33.0232 27.1555 32.612 27.918 32.1284 28.634C32.013 28.7957 31.9308 28.9787 31.8867 29.1723C31.8426 29.366 31.8374 29.5665 31.8714 29.7621C31.9054 29.9578 31.9779 30.1448 32.0847 30.3122C32.1915 30.4797 32.3305 30.6242 32.4937 30.7375C32.6568 30.8508 32.8408 30.9306 33.035 30.9722C33.2292 31.0138 33.4297 31.0164 33.625 30.9799C33.8202 30.9434 34.0062 30.8685 34.1723 30.7595C34.3383 30.6505 34.4811 30.5097 34.5923 30.3451C35.3207 29.2922 35.9207 28.1561 36.3796 26.9609C37.9 26.8713 39.3287 26.2042 40.3735 25.096C41.4182 23.9879 42.0001 22.5224 42.0001 20.9994C42.0001 19.4764 41.4182 18.0109 40.3735 16.9027C39.3287 15.7946 37.9 15.1277 36.3796 15.0381Z" fill="#2D5551"/>
<path d="M12.5106 10.1398C12.816 10.1398 13.1141 10.0463 13.3647 9.87175C14.0808 9.38808 14.8433 8.97695 15.6408 8.64446C16.129 9.65036 16.8905 10.4985 17.8381 11.092C18.7858 11.6854 19.8813 12.0001 20.9994 12.0001C22.1175 12.0001 23.213 11.6854 24.1607 11.092C25.1083 10.4985 25.8698 9.65036 26.358 8.64446C27.1555 8.97695 27.918 9.38808 28.6341 9.87175C28.9609 10.0925 29.3616 10.1757 29.7494 10.1032C30.1371 10.0307 30.4807 9.80834 30.7057 9.48434C30.9307 9.16034 31.019 8.76075 30.9515 8.3721C30.884 7.98345 30.6662 7.63704 30.3451 7.40787C29.2923 6.67942 28.1562 6.07937 26.961 5.62047C26.8713 4.1001 26.2042 2.67142 25.096 1.62666C23.9879 0.581893 22.5224 0 20.9994 0C19.4764 0 18.0109 0.581893 16.9028 1.62666C15.7946 2.67142 15.1275 4.1001 15.0378 5.62047C13.8429 6.07933 12.7071 6.67928 11.6545 7.40757C11.3919 7.58981 11.1944 7.85115 11.0908 8.15349C10.9872 8.45583 10.9828 8.78337 11.0784 9.08835C11.174 9.39333 11.3645 9.65981 11.6221 9.84895C11.8797 10.0381 12.191 10.14 12.5106 10.1398Z" fill="#2D5551"/>
<path d="M8.64431 26.3583C9.65021 25.8701 10.4984 25.1086 11.0918 24.161C11.6852 23.2133 12 22.1178 12 20.9997C12 19.8816 11.6852 18.786 11.0918 17.8384C10.4984 16.8908 9.65021 16.1293 8.64431 15.6411C8.97678 14.8434 9.38791 14.0809 9.8716 13.3647C10.0872 13.0378 10.1663 12.6394 10.0921 12.2549C10.0179 11.8703 9.79629 11.5301 9.47454 11.3068C9.1528 11.0835 8.75648 10.9949 8.37027 11.0599C7.98407 11.1249 7.63861 11.3384 7.40771 11.6547C6.67937 12.7073 6.07938 13.8432 5.62048 15.0381C4.1001 15.1277 2.67142 15.7949 1.62666 16.903C0.581893 18.0112 0 19.4767 0 20.9997C0 22.5227 0.581893 23.9882 1.62666 25.0963C2.67142 26.2045 4.1001 26.8716 5.62048 26.9612C6.07932 28.1564 6.67932 29.2925 7.40771 30.3454C7.63751 30.6648 7.9836 30.8811 8.37138 30.9477C8.75917 31.0143 9.1576 30.9259 9.4808 30.7015C9.804 30.4771 10.0261 30.1346 10.0992 29.748C10.1723 29.3614 10.0906 28.9616 9.8716 28.6346C9.38791 27.9185 8.97678 27.1559 8.64431 26.3583Z" fill="#2D5551"/>
<path d="M28.6351 32.1284C27.9191 32.612 27.1566 33.0232 26.3591 33.3557C25.8709 32.3498 25.1094 31.5016 24.1618 30.9081C23.2141 30.3147 22.1186 30 21.0005 30C19.8824 30 18.7868 30.3147 17.8392 30.9081C16.8916 31.5016 16.1301 32.3498 15.6419 33.3557C14.8443 33.0232 14.0819 32.612 13.3658 32.1284C13.0389 31.9102 12.6394 31.8291 12.2533 31.9024C11.8671 31.9758 11.5252 32.1977 11.301 32.5206C11.0769 32.8435 10.9884 33.2414 11.0547 33.6288C11.1209 34.0163 11.3366 34.3622 11.6552 34.5922C12.7081 35.3206 13.8442 35.9206 15.0394 36.3795C15.129 37.8999 15.7961 39.3285 16.9043 40.3733C18.0125 41.4181 19.4779 42 21.0009 42C22.524 42 23.9894 41.4181 25.0976 40.3733C26.2058 39.3285 26.8729 37.8999 26.9625 36.3795C28.1577 35.9206 29.2938 35.3206 30.3466 34.5922C30.6734 34.3653 30.8966 34.0178 30.9671 33.6263C31.0377 33.2348 30.9498 32.8313 30.7228 32.5046C30.4959 32.1778 30.1484 31.9546 29.7569 31.8841C29.3654 31.8135 28.9619 31.9014 28.6351 32.1284Z" fill="#2D5551"/>
<path d="M21 25.4999C21.3978 25.4999 21.7793 25.3419 22.0606 25.0606C22.3419 24.7793 22.5 24.3978 22.5 24V22.5H24C24.3978 22.5 24.7793 22.3419 25.0606 22.0606C25.3419 21.7793 25.4999 21.3978 25.4999 21C25.4999 20.6022 25.3419 20.2206 25.0606 19.9393C24.7793 19.658 24.3978 19.5 24 19.5H22.5V18C22.5 17.6022 22.3419 17.2206 22.0606 16.9393C21.7793 16.658 21.3978 16.5 21 16.5C20.6022 16.5 20.2206 16.658 19.9393 16.9393C19.658 17.2206 19.5 17.6022 19.5 18V19.5H18C17.6022 19.5 17.2206 19.658 16.9393 19.9393C16.658 20.2206 16.5 20.6022 16.5 21C16.5 21.3978 16.658 21.7793 16.9393 22.0606C17.2206 22.3419 17.6022 22.5 18 22.5H19.5V24C19.5 24.3978 19.658 24.7793 19.9393 25.0606C20.2206 25.3419 20.6022 25.4999 21 25.4999Z" fill="#2D5551"/>
</svg>
