<svg width="64" height="64" viewBox="0 0 64 64" fill="none" xmlns="http://www.w3.org/2000/svg">
<mask id="mask0_949_44721" style="mask-type:alpha" maskUnits="userSpaceOnUse" x="0" y="0" width="64" height="64">
<rect width="64" height="64" fill="#D9D9D9"/>
</mask>
<g mask="url(#mask0_949_44721)">
<path d="M29.333 56V50.6667H50.6663V31.7333C50.6663 26.5333 48.8552 22.1222 45.233 18.5C41.6108 14.8778 37.1997 13.0667 31.9997 13.0667C26.7997 13.0667 22.3886 14.8778 18.7663 18.5C15.1441 22.1222 13.333 26.5333 13.333 31.7333V48H10.6663C9.19967 48 7.94412 47.4778 6.89967 46.4333C5.85523 45.3889 5.33301 44.1333 5.33301 42.6667V37.3333C5.33301 36.4 5.56634 35.5222 6.03301 34.7C6.49967 33.8778 7.15523 33.2222 7.99967 32.7333L8.19967 29.2C8.55523 26.1778 9.43301 23.3778 10.833 20.8C12.233 18.2222 13.9886 15.9778 16.0997 14.0667C18.2108 12.1556 20.633 10.6667 23.3663 9.6C26.0997 8.53333 28.9775 8 31.9997 8C35.0219 8 37.8886 8.53333 40.5997 9.6C43.3108 10.6667 45.733 12.1444 47.8663 14.0333C49.9997 15.9222 51.7552 18.1556 53.133 20.7333C54.5108 23.3111 55.3997 26.1111 55.7997 29.1333L55.9997 32.6C56.8441 33 57.4997 33.6 57.9663 34.4C58.433 35.2 58.6663 36.0444 58.6663 36.9333V43.0667C58.6663 43.9556 58.433 44.8 57.9663 45.6C57.4997 46.4 56.8441 47 55.9997 47.4V50.6667C55.9997 52.1333 55.4775 53.3889 54.433 54.4333C53.3886 55.4778 52.133 56 50.6663 56H29.333ZM23.9997 37.3333C23.2441 37.3333 22.6108 37.0778 22.0997 36.5667C21.5886 36.0556 21.333 35.4222 21.333 34.6667C21.333 33.9111 21.5886 33.2778 22.0997 32.7667C22.6108 32.2556 23.2441 32 23.9997 32C24.7552 32 25.3886 32.2556 25.8997 32.7667C26.4108 33.2778 26.6663 33.9111 26.6663 34.6667C26.6663 35.4222 26.4108 36.0556 25.8997 36.5667C25.3886 37.0778 24.7552 37.3333 23.9997 37.3333ZM39.9997 37.3333C39.2441 37.3333 38.6108 37.0778 38.0997 36.5667C37.5886 36.0556 37.333 35.4222 37.333 34.6667C37.333 33.9111 37.5886 33.2778 38.0997 32.7667C38.6108 32.2556 39.2441 32 39.9997 32C40.7552 32 41.3886 32.2556 41.8997 32.7667C42.4108 33.2778 42.6663 33.9111 42.6663 34.6667C42.6663 35.4222 42.4108 36.0556 41.8997 36.5667C41.3886 37.0778 40.7552 37.3333 39.9997 37.3333ZM16.0663 33.2C15.7552 28.4889 17.1775 24.4444 20.333 21.0667C23.4886 17.6889 27.4219 16 32.133 16C36.0886 16 39.5663 17.2556 42.5663 19.7667C45.5663 22.2778 47.3774 25.4889 47.9997 29.4C43.9552 29.3556 40.233 28.2667 36.833 26.1333C33.433 24 30.8219 21.1111 28.9997 17.4667C28.2886 21.0222 26.7886 24.1889 24.4997 26.9667C22.2108 29.7444 19.3997 31.8222 16.0663 33.2Z" fill="#2D5551"/>
</g>
</svg>
