<svg width="30" height="42" viewBox="0 0 30 42" fill="none" xmlns="http://www.w3.org/2000/svg">
<path d="M8.32198 37.3185C7.85558 37.3185 7.47752 36.9405 7.47752 36.4741C7.47752 36.0077 7.85558 35.6296 8.32198 35.6296H21.674C22.1404 35.6296 22.5185 36.0077 22.5185 36.4741C22.5185 36.9405 22.1404 37.3185 21.674 37.3185H8.32198ZM5.93345 34.678C5.46704 34.678 5.08899 34.2999 5.08899 33.8335C5.08899 33.3671 5.46704 32.989 5.93345 32.989H24.064C24.5304 32.989 24.9085 33.3671 24.9085 33.8335C24.9085 34.2999 24.5304 34.678 24.064 34.678H5.93345ZM27.3434 20.0672V29.7184C27.3434 30.1848 26.9653 30.5628 26.4989 30.5628H20.7383H14.9879H9.23742H3.49856C3.03215 30.5628 2.6541 30.1848 2.6541 29.7184V20.0672C2.19059 20.8291 1.79515 21.6373 1.47794 22.4847C0.88551 24.0577 0.5625 25.7713 0.5625 27.563C0.5625 31.5507 2.17755 35.1603 4.7906 37.7719C7.4022 40.3849 11.0118 42 14.9995 42C18.9871 42 22.5967 40.3849 25.2083 37.7719C27.8214 35.1603 29.4364 31.5507 29.4364 27.563C29.4364 25.7858 29.1177 24.0867 28.5297 22.505C28.2038 21.6388 27.8083 20.8305 27.3448 20.0686L27.3434 20.0672ZM21.5929 6.84984V28.8739H25.653V0H21.5929V6.84984ZM15.8425 7.71603V28.8725H19.9025V7.71603H15.8425ZM10.092 10.7332V28.8739H14.1521V6.86143V3.92247H10.092V10.7332ZM8.40165 11.5994H4.34157V28.8725H8.40165V11.5994Z" fill="#2D5551"/>
</svg>
