<svg width="64" height="64" viewBox="0 0 64 64" fill="none" xmlns="http://www.w3.org/2000/svg">
<mask id="mask0_949_44723" style="mask-type:alpha" maskUnits="userSpaceOnUse" x="0" y="0" width="64" height="64">
<rect width="64" height="64" fill="#D9D9D9"/>
</mask>
<g mask="url(#mask0_949_44723)">
<path d="M24.1997 37.9987L31.9997 33.2654L39.7997 37.9987L37.733 29.132L44.6663 23.132L35.533 22.3987L31.9997 13.9987L28.4663 22.3987L19.333 23.132L26.2663 29.132L24.1997 37.9987ZM5.33301 58.6654V10.6654C5.33301 9.1987 5.85523 7.94314 6.89967 6.8987C7.94412 5.85425 9.19967 5.33203 10.6663 5.33203H53.333C54.7997 5.33203 56.0552 5.85425 57.0997 6.8987C58.1441 7.94314 58.6663 9.1987 58.6663 10.6654V42.6654C58.6663 44.132 58.1441 45.3876 57.0997 46.432C56.0552 47.4765 54.7997 47.9987 53.333 47.9987H15.9997L5.33301 58.6654ZM13.733 42.6654H53.333V10.6654H10.6663V45.6654L13.733 42.6654Z" fill="#2D5551"/>
</g>
</svg>
