<svg width="64" height="64" viewBox="0 0 64 64" fill="none" xmlns="http://www.w3.org/2000/svg">
<mask id="mask0_949_44720" style="mask-type:alpha" maskUnits="userSpaceOnUse" x="0" y="0" width="64" height="64">
<rect width="64" height="64" fill="#D9D9D9"/>
</mask>
<g mask="url(#mask0_949_44720)">
<path d="M31.8663 47.9987C32.7997 47.9987 33.5886 47.6765 34.233 47.032C34.8775 46.3876 35.1997 45.5987 35.1997 44.6654C35.1997 43.732 34.8775 42.9431 34.233 42.2987C33.5886 41.6543 32.7997 41.332 31.8663 41.332C30.933 41.332 30.1441 41.6543 29.4997 42.2987C28.8552 42.9431 28.533 43.732 28.533 44.6654C28.533 45.5987 28.8552 46.3876 29.4997 47.032C30.1441 47.6765 30.933 47.9987 31.8663 47.9987ZM29.4663 37.732H34.3997C34.3997 36.2654 34.5663 35.1098 34.8997 34.2654C35.233 33.4209 36.1775 32.2654 37.733 30.7987C38.8886 29.6431 39.7997 28.5431 40.4663 27.4987C41.133 26.4543 41.4663 25.1987 41.4663 23.732C41.4663 21.2431 40.5552 19.332 38.733 17.9987C36.9108 16.6654 34.7552 15.9987 32.2663 15.9987C29.733 15.9987 27.6775 16.6654 26.0997 17.9987C24.5219 19.332 23.4219 20.932 22.7997 22.7987L27.1997 24.532C27.4219 23.732 27.9219 22.8654 28.6997 21.932C29.4774 20.9987 30.6663 20.532 32.2663 20.532C33.6886 20.532 34.7552 20.9209 35.4663 21.6987C36.1775 22.4765 36.533 23.332 36.533 24.2654C36.533 25.1543 36.2663 25.9876 35.733 26.7654C35.1997 27.5431 34.533 28.2654 33.733 28.932C31.7775 30.6654 30.5775 31.9765 30.133 32.8654C29.6886 33.7543 29.4663 35.3765 29.4663 37.732ZM31.9997 58.6654C28.3108 58.6654 24.8441 57.9654 21.5997 56.5654C18.3552 55.1654 15.533 53.2654 13.133 50.8654C10.733 48.4654 8.83301 45.6431 7.43301 42.3987C6.03301 39.1543 5.33301 35.6876 5.33301 31.9987C5.33301 28.3098 6.03301 24.8431 7.43301 21.5987C8.83301 18.3543 10.733 15.532 13.133 13.132C15.533 10.732 18.3552 8.83203 21.5997 7.43203C24.8441 6.03203 28.3108 5.33203 31.9997 5.33203C35.6886 5.33203 39.1552 6.03203 42.3997 7.43203C45.6441 8.83203 48.4663 10.732 50.8663 13.132C53.2663 15.532 55.1663 18.3543 56.5663 21.5987C57.9663 24.8431 58.6663 28.3098 58.6663 31.9987C58.6663 35.6876 57.9663 39.1543 56.5663 42.3987C55.1663 45.6431 53.2663 48.4654 50.8663 50.8654C48.4663 53.2654 45.6441 55.1654 42.3997 56.5654C39.1552 57.9654 35.6886 58.6654 31.9997 58.6654ZM31.9997 53.332C37.9552 53.332 42.9997 51.2654 47.133 47.132C51.2663 42.9987 53.333 37.9543 53.333 31.9987C53.333 26.0431 51.2663 20.9987 47.133 16.8654C42.9997 12.732 37.9552 10.6654 31.9997 10.6654C26.0441 10.6654 20.9997 12.732 16.8663 16.8654C12.733 20.9987 10.6663 26.0431 10.6663 31.9987C10.6663 37.9543 12.733 42.9987 16.8663 47.132C20.9997 51.2654 26.0441 53.332 31.9997 53.332Z" fill="#2D5551"/>
</g>
</svg>
