<svg width="64" height="64" viewBox="0 0 64 64" fill="none" xmlns="http://www.w3.org/2000/svg">
<mask id="mask0_949_44722" style="mask-type:alpha" maskUnits="userSpaceOnUse" x="0" y="0" width="64" height="64">
<rect width="64" height="64" fill="#D9D9D9"/>
</mask>
<g mask="url(#mask0_949_44722)">
<path d="M61.3337 37.332H49.1337C49.0003 36.3987 48.7892 35.4876 48.5003 34.5987C48.2114 33.7098 47.8448 32.8431 47.4003 31.9987H55.8003C55.6226 31.6876 55.4226 31.4209 55.2003 31.1987C54.9781 30.9765 54.7114 30.7765 54.4003 30.5987C53.2448 29.932 51.9226 29.4431 50.4337 29.132C48.9448 28.8209 47.2448 28.6654 45.3337 28.6654H45.1337C44.2448 27.6431 43.2781 26.7543 42.2337 25.9987C41.1892 25.2431 40.0448 24.5987 38.8003 24.0654C39.8225 23.8431 40.8781 23.6654 41.967 23.532C43.0559 23.3987 44.1781 23.332 45.3337 23.332C47.6892 23.332 49.8892 23.5765 51.9337 24.0654C53.9781 24.5543 55.8892 25.2654 57.667 26.1987C58.8225 26.8209 59.7226 27.7431 60.367 28.9654C61.0114 30.1876 61.3337 31.5765 61.3337 33.132V37.332ZM45.3337 21.332C43.1114 21.332 41.2225 20.5543 39.667 18.9987C38.1114 17.4431 37.3337 15.5543 37.3337 13.332C37.3337 11.1098 38.1114 9.22092 39.667 7.66536C41.2225 6.10981 43.1114 5.33203 45.3337 5.33203C47.5559 5.33203 49.4448 6.10981 51.0003 7.66536C52.5559 9.22092 53.3337 11.1098 53.3337 13.332C53.3337 15.5543 52.5559 17.4431 51.0003 18.9987C49.4448 20.5543 47.5559 21.332 45.3337 21.332ZM45.3337 15.9987C46.0892 15.9987 46.7225 15.7431 47.2337 15.232C47.7448 14.7209 48.0003 14.0876 48.0003 13.332C48.0003 12.5765 47.7448 11.9431 47.2337 11.432C46.7225 10.9209 46.0892 10.6654 45.3337 10.6654C44.5781 10.6654 43.9448 10.9209 43.4337 11.432C42.9226 11.9431 42.667 12.5765 42.667 13.332C42.667 14.0876 42.9226 14.7209 43.4337 15.232C43.9448 15.7431 44.5781 15.9987 45.3337 15.9987ZM2.66699 37.332V33.132C2.66699 31.5765 2.98921 30.1876 3.63366 28.9654C4.2781 27.7431 5.1781 26.8209 6.33366 26.1987C8.11144 25.2654 10.0225 24.5543 12.067 24.0654C14.1114 23.5765 16.3114 23.332 18.667 23.332C19.8225 23.332 20.9448 23.3987 22.0337 23.532C23.1225 23.6654 24.1781 23.8431 25.2003 24.0654C23.9559 24.5987 22.8114 25.2431 21.767 25.9987C20.7225 26.7543 19.7559 27.6431 18.867 28.6654H18.667C16.7559 28.6654 15.0559 28.8209 13.567 29.132C12.0781 29.4431 10.7559 29.932 9.60033 30.5987C9.28922 30.7765 9.02255 30.9765 8.80033 31.1987C8.5781 31.4209 8.3781 31.6876 8.20033 31.9987H16.6003C16.1559 32.8431 15.7892 33.7098 15.5003 34.5987C15.2114 35.4876 15.0003 36.3987 14.867 37.332H2.66699ZM18.667 21.332C16.4448 21.332 14.5559 20.5543 13.0003 18.9987C11.4448 17.4431 10.667 15.5543 10.667 13.332C10.667 11.1098 11.4448 9.22092 13.0003 7.66536C14.5559 6.10981 16.4448 5.33203 18.667 5.33203C20.8892 5.33203 22.7781 6.10981 24.3337 7.66536C25.8892 9.22092 26.667 11.1098 26.667 13.332C26.667 15.5543 25.8892 17.4431 24.3337 18.9987C22.7781 20.5543 20.8892 21.332 18.667 21.332ZM18.667 15.9987C19.4225 15.9987 20.0559 15.7431 20.567 15.232C21.0781 14.7209 21.3337 14.0876 21.3337 13.332C21.3337 12.5765 21.0781 11.9431 20.567 11.432C20.0559 10.9209 19.4225 10.6654 18.667 10.6654C17.9114 10.6654 17.2781 10.9209 16.767 11.432C16.2559 11.9431 16.0003 12.5765 16.0003 13.332C16.0003 14.0876 16.2559 14.7209 16.767 15.232C17.2781 15.7431 17.9114 15.9987 18.667 15.9987ZM32.0003 45.332C30.5337 45.332 29.2781 44.8098 28.2337 43.7654C27.1892 42.7209 26.667 41.4654 26.667 39.9987V31.9987C26.667 30.532 27.1892 29.2765 28.2337 28.232C29.2781 27.1876 30.5337 26.6654 32.0003 26.6654C33.467 26.6654 34.7225 27.1876 35.767 28.232C36.8114 29.2765 37.3337 30.532 37.3337 31.9987V39.9987C37.3337 41.4654 36.8114 42.7209 35.767 43.7654C34.7225 44.8098 33.467 45.332 32.0003 45.332ZM30.0003 58.6654V53.1987C26.8003 52.7098 24.1114 51.2209 21.9337 48.732C19.7559 46.2431 18.667 43.332 18.667 39.9987H22.667C22.667 42.5765 23.5781 44.7765 25.4003 46.5987C27.2225 48.4209 29.4225 49.332 32.0003 49.332C34.5781 49.332 36.7781 48.4209 38.6003 46.5987C40.4226 44.7765 41.3337 42.5765 41.3337 39.9987H45.3337C45.3337 43.332 44.2448 46.2431 42.067 48.732C39.8892 51.2209 37.2003 52.7098 34.0003 53.1987V58.6654H30.0003Z" fill="#2D5551"/>
</g>
</svg>
