<svg width="42" height="38" viewBox="0 0 42 38" fill="none" xmlns="http://www.w3.org/2000/svg">
<path d="M13.8071 0.375C11.525 0.375 9.67245 2.22558 9.67245 4.51152C9.67245 6.79359 11.523 8.64613 13.8071 8.64613C16.093 8.64613 17.9436 6.79555 17.9436 4.51152C17.9455 2.22563 16.093 0.375 13.8071 0.375ZM31.1165 1.58702C29.5017 -0.0277138 26.8821 -0.0277138 25.2675 1.58702C23.6527 3.20176 23.6527 5.81942 25.2675 7.4321C26.8822 9.05066 29.5018 9.05066 31.1165 7.4321C32.7312 5.81927 32.7312 3.20161 31.1165 1.58702ZM23.9252 14.4569C22.3105 12.8422 19.6909 12.8422 18.0762 14.4569C16.4615 16.0755 16.4615 18.6912 18.0762 20.3059C19.691 21.9206 22.3105 21.9206 23.9252 20.3059C25.5381 18.6931 25.5381 16.0735 23.9252 14.4569ZM6.61584 13.2468C4.33378 13.2468 2.48124 15.0974 2.48124 17.3814C2.48124 19.6673 4.33182 21.518 6.61584 21.518C8.90174 21.518 10.7524 19.6674 10.7524 17.3814C10.7543 15.0994 8.90178 13.2468 6.61584 13.2468ZM38.3082 14.4569C36.6896 12.8422 34.0738 12.8422 32.4592 14.4569C30.8444 16.0755 30.8444 18.6912 32.4592 20.3059C34.0739 21.9206 36.6916 21.9206 38.3082 20.3059C39.9229 18.6931 39.9229 16.0735 38.3082 14.4569ZM28.1924 23.8328C29.345 22.6706 30.8849 21.9496 32.5418 21.8403C29.6998 20.0242 29.253 16.0413 31.6482 13.6461C32.4766 12.8176 33.5793 12.2615 34.8086 12.1292V12.0256C34.3062 11.4503 33.6887 10.9766 32.9925 10.6449C32.2676 10.2997 31.4545 10.1079 30.5954 10.1079H25.7896C24.9266 10.1079 24.1154 10.2996 23.3924 10.6449C22.6963 10.9766 22.0807 11.4503 21.5764 12.0256V12.1292C24.2382 12.4168 26.2863 14.6721 26.2863 17.3836C26.2863 19.2342 25.3332 20.8892 23.8431 21.8404C25.4981 21.9497 27.0399 22.6687 28.1924 23.8328ZM42 24.8971C40.9414 23.6851 39.4264 22.9755 37.7868 22.9755H32.9791C32.1199 22.9755 31.3068 23.1712 30.5858 23.5164C29.8896 23.8481 29.274 24.3218 28.7697 24.8971V26.6806H24.7923C23.5535 26.6806 22.8976 28.1956 23.7951 29.0912C24.0502 29.3462 24.405 29.5073 24.7923 29.5073H31.5982C33.8572 29.5073 35.0309 32.2612 33.4085 33.8797C32.9444 34.3438 32.302 34.6314 31.5982 34.6314H28.7676V37.6231L41.9998 37.625L42 24.8971ZM0 37.6251H13.2341V34.6334H10.4017C8.1426 34.6334 6.96897 31.8796 8.59137 30.2611C9.05545 29.797 9.69788 29.5094 10.4017 29.5094H17.2075C18.4464 29.5094 19.1061 27.9982 18.2047 27.0988C17.9497 26.8437 17.5949 26.6826 17.2075 26.6826H13.234V24.8991C12.7277 24.3238 12.1102 23.8502 11.416 23.5184C10.693 23.1732 9.87992 22.9776 9.0227 22.9776L4.21306 22.9757C3.35392 22.9757 2.54084 23.1713 1.81975 23.5165C1.1236 23.8482 0.504191 24.3219 0.00176743 24.8972V37.6252L0 37.6251ZM14.3849 25.4283V25.5319H17.2078C19.4669 25.5319 20.6405 28.2857 19.0181 29.9042C18.5559 30.3683 17.9135 30.656 17.2078 30.656H10.4019C9.16502 30.656 8.50722 32.1709 9.40475 33.0665C9.66172 33.3216 10.0146 33.4827 10.4019 33.4827H14.3831V37.625H27.6153V33.4827H31.5965C32.8334 33.4827 33.4912 31.9677 32.5937 31.0721C32.3367 30.817 31.9838 30.656 31.5965 30.656H24.7907C22.5316 30.656 21.3579 27.9059 22.9803 26.2836C23.4425 25.8195 24.0849 25.5319 24.7907 25.5319H27.6135V24.899C27.1111 24.3237 26.4936 23.85 25.7975 23.5182C25.0745 23.1731 24.2614 22.9774 23.4003 22.9774H18.5945C17.7315 22.9774 16.9223 23.173 16.1974 23.5182C15.5012 23.85 14.8856 24.3237 14.3813 24.899L14.3832 25.4283L14.3849 25.4283ZM7.19171 12.1269C9.85351 12.4146 11.9016 14.6698 11.9016 17.3814C11.9016 19.232 10.9485 20.887 9.45846 21.8381C11.1134 21.9455 12.6553 22.6666 13.8078 23.8307C14.9604 22.6685 16.5042 21.9475 18.1572 21.8381C15.3171 20.0221 14.8684 16.0392 17.2636 13.6439C18.092 12.8155 19.1947 12.2594 20.424 12.1271V12.0235C19.9216 11.4482 19.3041 10.9745 18.6079 10.6427C17.8849 10.2976 17.0718 10.1058 16.2146 10.1058H11.4069C10.5477 10.1058 9.73466 10.2975 9.00974 10.6427C8.31551 10.9745 7.69801 11.4482 7.19367 12.0235L7.19171 12.1269Z" fill="#2D5551"/>
</svg>
