<svg width="42" height="42" viewBox="0 0 42 42" fill="none" xmlns="http://www.w3.org/2000/svg">
<path d="M30.6545 29.4122V27.8629C29.7234 28.1323 29.7205 29.138 30.6545 29.4122ZM31.4287 30.2804V32.6698C32.5711 32.445 33.0323 31.3269 32.1864 30.6292C31.9839 30.4616 31.7233 30.3385 31.4287 30.2804ZM26.1228 28.1439C27.2816 29.0692 28.1799 30.2998 28.7021 31.7067C28.6915 31.6301 28.6856 31.5526 28.6856 31.4761C28.6856 30.9654 29.4627 30.9654 29.4627 31.4761C29.4627 32.1049 30.0451 32.5497 30.6545 32.6708V30.2068C29.1963 29.9403 28.6663 28.3716 29.7505 27.4792C29.9976 27.2786 30.3077 27.1333 30.6545 27.0703V26.4608C30.6545 25.9531 31.4287 25.9531 31.4287 26.4608V27.0703C32.2194 27.2127 32.9064 27.8203 32.9064 28.639C32.9064 29.1496 32.1322 29.1496 32.1322 28.639C32.1322 28.2514 31.7892 27.9685 31.4287 27.8648V29.4994C33.3298 29.7688 34.071 31.7764 32.6787 32.9217C32.3434 33.1959 31.9093 33.3888 31.4287 33.4576V34.0564C31.4287 34.567 30.6545 34.567 30.6545 34.0564V33.4576C29.921 33.3529 29.2428 32.9469 28.8998 32.3181C29.1721 33.2686 29.268 34.2734 29.1827 35.2821C32.6573 36.5698 36.3955 33.9992 36.3955 30.261C36.3955 27.3028 33.9974 24.9076 31.0421 24.9076C28.8668 24.9057 26.9551 26.2099 26.1228 28.1439ZM28.737 37.3227C33.5216 38.902 38.5039 35.3373 38.5039 30.2581C38.5039 26.1488 35.1746 22.8205 31.0663 22.8205C28.144 22.8205 25.5618 24.5152 24.3477 27.0616C24.743 27.237 25.1219 27.4462 25.4794 27.6798C27.2652 23.835 32.3541 22.9058 35.3752 25.925C37.7675 28.3202 37.7675 32.1979 35.3752 34.5903C33.7406 36.2249 31.3047 36.8178 29.0742 36.065C28.9957 36.4962 28.8804 36.9167 28.737 37.3227ZM20.5853 33.7192V32.1669C19.6541 32.4392 19.6512 33.4421 20.5853 33.7192ZM21.3624 34.5844V36.9738C22.5048 36.7491 22.966 35.6309 22.1201 34.9333C21.9176 34.7656 21.6569 34.6426 21.3624 34.5844ZM20.5853 30.7668C20.5853 30.2562 21.3624 30.2562 21.3624 30.7668V31.3734C22.153 31.5158 22.84 32.1233 22.84 32.9421C22.84 33.4527 22.0658 33.4527 22.0658 32.9421C22.0658 32.5545 21.7228 32.2716 21.3624 32.1679V33.8025C23.2634 34.0719 24.0018 36.0795 22.6123 37.2248C22.2742 37.499 21.843 37.6918 21.3624 37.7606V38.3623C21.3624 38.8701 20.5853 38.8701 20.5853 38.3623V37.7606C19.5476 37.6124 18.6183 36.843 18.6183 35.7801C18.6183 35.2724 19.3925 35.2724 19.3925 35.7801C19.3925 36.409 19.9749 36.8537 20.5843 36.9748V34.5108C19.1261 34.2443 18.599 32.6756 19.6832 31.7832C19.9274 31.5827 20.2403 31.4373 20.5843 31.3743V30.7668H20.5853ZM16.1911 24.9987C13.2882 22.0957 8.5772 22.0957 5.67134 24.9987C2.76839 27.9046 2.76839 32.6126 5.67134 35.5185C8.5772 38.4214 13.2872 38.4214 16.1911 35.5185C19.097 32.6126 19.097 27.9046 16.1911 24.9987ZM16.0565 36.6774C17.5448 40.1355 22.0746 41.0308 24.7605 38.3468C26.8505 36.2568 26.8505 32.8675 24.7605 30.7775C23.2935 29.3105 21.0911 28.8086 19.1135 29.5411C19.3576 32.3568 18.16 34.9962 16.0565 36.6774ZM14.6912 26.4734C12.6012 24.3834 9.21185 24.3834 7.12184 26.4734C5.03184 28.5634 5.03184 31.9528 7.12184 34.0428C9.21185 36.1328 12.6012 36.1328 14.6912 34.0428C16.7812 31.9528 16.7812 28.5644 14.6912 26.4734ZM10.9065 24.1305C14.2901 24.1305 17.0341 26.8746 17.0341 30.2581C17.0341 33.6417 14.2901 36.3857 10.9065 36.3857C7.52299 36.3857 4.77894 33.6417 4.77894 30.2581C4.77894 26.8746 7.52299 24.1305 10.9065 24.1305ZM10.519 29.4122V27.8629C9.5878 28.1323 9.5849 29.138 10.519 29.4122ZM11.2941 30.2804V32.6698C12.4394 32.445 12.8977 31.3269 12.0547 30.6292C11.8483 30.4616 11.5877 30.3385 11.2941 30.2804ZM10.519 26.4599C10.519 25.9521 11.2931 25.9521 11.2931 26.4599V27.0693C12.0838 27.2118 12.7708 27.8193 12.7708 28.638C12.7708 29.1487 11.9966 29.1487 11.9966 28.638C11.9966 28.2505 11.6565 27.9675 11.2931 27.8639V29.4985C13.1942 29.7678 13.9354 31.7755 12.5431 32.9208C12.2078 33.195 11.7737 33.3878 11.2931 33.4566V34.0554C11.2931 34.566 10.519 34.566 10.519 34.0554V33.4566C9.48025 33.3083 8.552 32.539 8.552 31.4761C8.552 30.9654 9.32619 30.9654 9.32619 31.4761C9.32619 32.1049 9.90852 32.5497 10.518 32.6708V30.2068C9.05973 29.9403 8.53262 28.3716 9.61396 27.4792C9.86104 27.2786 10.1711 27.1333 10.518 27.0703V26.4599H10.519ZM30.3522 7.48411V6.01131C30.3522 5.85435 30.2263 5.72548 30.0664 5.72548H25.7788C25.6219 5.72548 25.493 5.85435 25.493 6.01131V7.48314H30.3522V7.48411ZM16.5041 7.48411V6.01131C16.5041 5.85241 16.3723 5.72548 16.2183 5.72548H11.9307C11.7737 5.72548 11.6478 5.85435 11.6478 6.01131V7.48314H16.5041V7.48411ZM13.2107 4.95129H14.8337V2.88357C14.8337 2.18884 15.3995 1.62298 16.0942 1.62298H25.9048C26.5966 1.62298 27.1625 2.18884 27.1625 2.88357V4.95129H28.7854V2.88357C28.7854 1.29838 27.4861 0 25.9038 0H16.0952C14.51 0 13.2116 1.29935 13.2116 2.88357V4.95129H13.2107ZM24.6258 17.5611H17.3723C17.1475 17.5611 16.9634 17.7481 16.9634 17.9729V21.1646C16.9634 21.3894 17.1475 21.5764 17.3723 21.5764H24.6258C24.8506 21.5764 25.0376 21.3894 25.0376 21.1646V17.9729C25.0376 17.7481 24.8506 17.5611 24.6258 17.5611ZM16.1853 20.4204V19.0174C10.7854 18.875 2.6308 18.3857 0.015625 16.9051V17.9574C0.015625 19.0068 5.39325 19.9156 12.2766 20.2732C13.5353 20.3352 14.8453 20.3875 16.1853 20.4204ZM25.8127 21.1946C25.7963 21.8341 25.2692 22.3506 24.6258 22.3506H17.3723C16.7299 22.3506 16.2018 21.8341 16.1882 21.1946C11.2447 21.0658 4.89425 20.684 1.45838 19.6589V34.7957C1.45838 35.6638 2.17249 36.375 3.04066 36.375H5.46011C3.79837 34.8974 2.71897 32.7415 2.71897 30.2581C2.71897 25.7206 6.39708 22.0454 10.9317 22.0454C14.1786 22.0454 17.0457 23.9406 18.3751 26.7777C20.0698 26.206 21.9292 26.206 23.6268 26.7777C26.0298 21.6413 32.8366 20.4108 36.8732 24.4483C40.2073 27.7825 40.0562 33.2289 36.5467 36.3741H38.9584C39.8294 36.3741 40.5406 35.6629 40.5406 34.7947V19.6598C37.1067 20.684 30.7563 21.0658 25.8127 21.1946ZM25.8127 19.0165V20.4195C27.1528 20.3865 28.4628 20.3342 29.7214 20.2712C36.6067 19.9137 41.9853 19.1037 41.9853 18.0524V16.9042C39.3692 18.3847 31.2117 18.874 25.8127 19.0165ZM17.3723 16.7869H24.6258C25.2798 16.7869 25.8127 17.3198 25.8127 17.9739V18.2432C27.1528 18.2074 28.4628 18.158 29.7214 18.0921C36.6048 17.7355 41.9824 16.8286 41.9853 15.7763V9.81054C41.9853 8.95884 41.2848 8.2612 40.4331 8.2612H1.56496C0.713263 8.2612 0.015625 8.95884 0.015625 9.81054V15.7763C0.015625 16.8257 5.39325 17.7345 12.2766 18.0921C13.5343 18.158 14.8443 18.2074 16.1853 18.2432C16.1853 17.815 16.1853 17.4855 16.5341 17.1367C16.7483 16.9206 17.0448 16.7869 17.3723 16.7869ZM20.9758 28.4346C24.3593 28.4346 27.1034 31.1786 27.1034 34.5621C27.1034 37.9457 24.3593 40.6897 20.9758 40.6897C18.5447 40.6897 16.4024 39.2693 15.414 37.1415C15.0546 37.375 14.6777 37.5814 14.2823 37.7597C16.4828 42.3767 22.6152 43.4648 26.2604 39.8225C29.1633 36.9167 29.1633 32.2086 26.2604 29.3027C24.2963 27.3416 21.3692 26.6081 18.6687 27.4986C18.8141 27.9055 18.9265 28.3251 19.0098 28.7563C19.6241 28.5479 20.2859 28.4346 20.9758 28.4346Z" fill="#2D5551"/>
</svg>
