<svg width="64" height="64" viewBox="0 0 64 64" fill="none" xmlns="http://www.w3.org/2000/svg">
<rect width="64" height="64" fill="#FFF6E0"/>
<path d="M36.3674 34.2381V29.9903H47.9982V36.4294C47.9982 41.1491 43.0088 44.3518 36.9742 44.3518C29.6249 44.3518 24.332 39.868 24.332 31.6759C24.332 23.4838 29.6249 19 36.9742 19C42.8065 19 46.4474 21.697 47.9308 25.338L42.2671 26.8213C41.6265 25.7088 40.2106 23.922 36.9742 23.922C33.1647 23.922 30.5351 26.855 30.5351 31.6759C30.5351 36.4968 33.1647 39.4298 36.9742 39.4298C39.7049 39.4298 41.7951 38.0139 41.7951 36.4968V34.2381H36.3674Z" fill="#2D5551"/>
<path d="M16 43.8121V19.5391H22.2031V43.8121H16Z" fill="#2D5551"/>
</svg>
