<svg width="708" height="394" viewBox="0 0 708 394" fill="none" xmlns="http://www.w3.org/2000/svg">
<path d="M2 393.786H708.117" stroke="#040505" stroke-width="1.3323" stroke-miterlimit="10"/>
<path d="M291.729 210.043L347.659 230.722L255.099 393.786H186.564L291.729 210.043Z" fill="#040505" stroke="#040505" stroke-width="1.96937" stroke-miterlimit="10"/>
<path d="M347.662 230.722L434.315 393.786H255.102L347.662 230.722Z" fill="white" stroke="#040505" stroke-width="1.96937" stroke-miterlimit="10" stroke-linejoin="bevel"/>
<path d="M657.76 333.989L6.58008 88.8661L2.00094 101.031L653.181 346.154L657.76 333.989Z" fill="white" stroke="#040505" stroke-width="1.96937" stroke-miterlimit="10"/>
<path d="M96.3975 122.639L6.63672 88.8411L2.05627 101.006L91.817 134.804L96.3975 122.639Z" fill="#040505" stroke="#040505" stroke-width="1.96937" stroke-miterlimit="10"/>
<g clip-path="url(#clip0_28_28528)">
<circle cx="623.841" cy="260.067" r="49.2343" stroke="#2D5551" stroke-width="9.84687"/>
<circle cx="623.84" cy="260.067" r="43.3262" stroke="#111111" stroke-width="1.96937"/>
<path d="M638.425 265.286C637.511 263.664 636.274 262.247 634.79 261.122C633.306 259.998 631.608 259.189 629.799 258.747C628.102 258.238 626.38 257.818 624.639 257.487V239.625C628.1 239.996 631.401 241.273 634.21 243.327C634.404 243.499 634.63 243.631 634.875 243.716C635.12 243.801 635.38 243.836 635.638 243.821C635.897 243.805 636.15 243.739 636.384 243.625C636.617 243.512 636.825 243.354 636.997 243.16C637.169 242.966 637.301 242.74 637.386 242.495C637.471 242.25 637.506 241.991 637.491 241.732C637.475 241.473 637.409 241.22 637.295 240.987C637.182 240.754 637.024 240.545 636.83 240.373C633.305 237.659 629.073 236.018 624.639 235.647V229.542C624.639 229.019 624.432 228.518 624.062 228.149C623.693 227.78 623.192 227.572 622.67 227.572C622.148 227.572 621.647 227.78 621.277 228.149C620.908 228.518 620.701 229.019 620.701 229.542V235.45C612.035 235.647 607.25 239.96 605.792 243.682C604.82 246.079 604.728 248.742 605.532 251.201C606.336 253.659 607.984 255.753 610.184 257.113C613.387 259.065 616.975 260.302 620.701 260.737V278.776C615.559 278.517 610.634 276.627 606.639 273.38C606.461 273.168 606.24 272.996 605.991 272.875C605.741 272.754 605.469 272.687 605.192 272.678C604.915 272.67 604.64 272.72 604.383 272.825C604.127 272.93 603.896 273.089 603.705 273.289C603.514 273.49 603.367 273.729 603.275 273.99C603.182 274.252 603.146 274.529 603.169 274.806C603.191 275.082 603.271 275.35 603.404 275.593C603.537 275.836 603.72 276.048 603.941 276.216C608.652 280.182 614.548 282.468 620.701 282.715V288.623C620.701 289.145 620.908 289.646 621.277 290.015C621.647 290.385 622.148 290.592 622.67 290.592C623.192 290.592 623.693 290.385 624.062 290.015C624.432 289.646 624.639 289.145 624.639 288.623V282.715C630.193 282.341 636.593 280.568 639.016 273.341C639.454 272.025 639.627 270.637 639.526 269.254C639.425 267.872 639.05 266.523 638.425 265.286ZM612.409 253.804C610.971 252.948 609.886 251.607 609.348 250.023C608.81 248.438 608.855 246.713 609.475 245.159C609.692 244.568 611.897 239.625 620.701 239.389V256.719C617.763 256.341 614.938 255.348 612.409 253.804ZM635.274 272.001C633.856 276.216 630.705 278.244 624.639 278.697V261.505C625.9 261.78 627.199 262.095 628.578 262.509C629.88 262.805 631.109 263.362 632.189 264.148C633.269 264.933 634.178 265.93 634.86 267.078C635.633 268.603 635.781 270.369 635.274 272.001Z" fill="#111111"/>
</g>
<rect x="570.668" y="206.894" width="106.346" height="106.346" rx="53.1731" stroke="#111111" stroke-width="1.96937"/>
<g clip-path="url(#clip1_28_28528)">
<circle cx="72.4175" cy="53.2828" r="49.2343" stroke="#FDB22D" stroke-width="9.84687"/>
<circle cx="72.4164" cy="53.2828" r="43.3262" stroke="#111111" stroke-width="1.96937"/>
<path d="M87.0011 58.5016C86.087 56.8797 84.8499 55.4626 83.3662 54.3379C81.8825 53.2133 80.1838 52.4051 78.3752 51.9633C76.6783 51.4542 74.956 51.0335 73.2155 50.7029V32.8407C76.6759 33.2118 79.9772 34.4889 82.7866 36.5431C82.9806 36.7151 83.2065 36.8472 83.4515 36.9318C83.6966 37.0165 83.9559 37.0521 84.2146 37.0365C84.4734 37.021 84.7266 36.9546 84.9597 36.8412C85.1928 36.7278 85.4013 36.5696 85.5733 36.3757C85.7453 36.1817 85.8774 35.9558 85.962 35.7108C86.0467 35.4657 86.0823 35.2064 86.0667 34.9477C86.0512 34.6889 85.9848 34.4357 85.8714 34.2026C85.758 33.9695 85.5999 33.761 85.4059 33.589C81.8813 30.8744 77.6488 29.2334 73.2155 28.8625V22.7575C73.2155 22.2351 73.008 21.7342 72.6387 21.3649C72.2693 20.9956 71.7684 20.7881 71.2461 20.7881C70.7238 20.7881 70.2229 20.9956 69.8535 21.3649C69.4842 21.7342 69.2767 22.2351 69.2767 22.7575V28.6656C60.6115 28.8625 55.8259 33.1754 54.3686 36.8976C53.3964 39.2944 53.304 41.958 54.1078 44.4164C54.9117 46.8748 56.5598 48.9693 58.7603 50.3287C61.9633 52.2812 65.5509 53.5174 69.2767 53.9523V71.9918C64.1353 71.733 59.21 69.8429 55.2154 66.5957C55.0371 66.3836 54.8161 66.2114 54.5667 66.0905C54.3174 65.9697 54.0453 65.9028 53.7684 65.8942C53.4914 65.8857 53.2157 65.9357 52.9594 66.041C52.7031 66.1463 52.4719 66.3044 52.2809 66.5052C52.0898 66.706 51.9434 66.9448 51.851 67.206C51.7586 67.4673 51.7224 67.7451 51.7447 68.0213C51.767 68.2975 51.8474 68.5659 51.9805 68.8089C52.1137 69.0519 52.2966 69.2641 52.5174 69.4316C57.228 73.3975 63.1239 75.6838 69.2767 75.9305V81.8387C69.2767 82.361 69.4842 82.8619 69.8535 83.2312C70.2229 83.6006 70.7238 83.808 71.2461 83.808C71.7684 83.808 72.2693 83.6006 72.6387 83.2312C73.008 82.8619 73.2155 82.361 73.2155 81.8387V75.9305C78.7691 75.5564 85.1696 73.7839 87.5919 66.5563C88.0301 65.2412 88.2036 63.8523 88.1022 62.4699C88.0008 61.0874 87.6265 59.7387 87.0011 58.5016ZM60.9857 47.0201C59.5476 46.1641 58.4621 44.8232 57.9242 43.2385C57.3863 41.6537 57.4314 39.9291 58.0513 38.3746C58.2679 37.7838 60.4736 32.8407 69.2767 32.6043V49.9348C66.3389 49.5568 63.5138 48.5636 60.9857 47.0201ZM83.8501 65.2172C82.4321 69.4316 79.2811 71.4601 73.2155 71.913V54.7204C74.4759 54.9961 75.7757 55.3112 77.1542 55.7248C78.4565 56.0205 79.6849 56.5781 80.7649 57.3636C81.845 58.149 82.7539 59.1459 83.4365 60.2937C84.2089 61.8188 84.3573 63.5846 83.8501 65.2172Z" fill="#111111"/>
</g>
<rect x="19.2445" y="0.110083" width="106.346" height="106.346" rx="53.1731" stroke="#111111" stroke-width="1.96937"/>
<path d="M390.551 105.545V123H387.918V105.545H390.551ZM404.999 111.06C404.834 110.543 404.613 110.08 404.334 109.67C404.061 109.256 403.735 108.903 403.354 108.614C402.973 108.318 402.539 108.094 402.05 107.94C401.567 107.787 401.036 107.71 400.456 107.71C399.473 107.71 398.587 107.963 397.797 108.469C397.007 108.974 396.382 109.716 395.922 110.693C395.468 111.665 395.24 112.855 395.24 114.264C395.24 115.679 395.47 116.875 395.931 117.852C396.391 118.83 397.022 119.571 397.823 120.077C398.624 120.582 399.536 120.835 400.559 120.835C401.507 120.835 402.334 120.642 403.039 120.256C403.749 119.869 404.297 119.324 404.684 118.619C405.076 117.909 405.272 117.074 405.272 116.114L405.953 116.241H400.959V114.068H407.82V116.054C407.82 117.52 407.507 118.793 406.882 119.872C406.263 120.946 405.405 121.776 404.309 122.361C403.218 122.946 401.968 123.239 400.559 123.239C398.979 123.239 397.593 122.875 396.399 122.148C395.212 121.42 394.286 120.389 393.621 119.054C392.956 117.713 392.624 116.122 392.624 114.281C392.624 112.889 392.817 111.639 393.203 110.531C393.59 109.423 394.132 108.483 394.831 107.71C395.536 106.932 396.363 106.338 397.311 105.929C398.266 105.514 399.309 105.307 400.439 105.307C401.382 105.307 402.26 105.446 403.073 105.724C403.891 106.003 404.618 106.398 405.255 106.909C405.897 107.42 406.428 108.028 406.848 108.733C407.269 109.432 407.553 110.207 407.701 111.06H404.999ZM415.114 123V105.545H425.938V107.812H417.748V113.131H425.163V115.389H417.748V123H415.114ZM435.245 117.571V109.909H437.802V123H435.296V120.733H435.16C434.858 121.432 434.375 122.014 433.711 122.48C433.052 122.94 432.231 123.17 431.248 123.17C430.407 123.17 429.662 122.986 429.015 122.616C428.373 122.241 427.867 121.688 427.498 120.955C427.134 120.222 426.952 119.315 426.952 118.236V109.909H429.5V117.929C429.5 118.821 429.748 119.531 430.242 120.06C430.736 120.588 431.378 120.852 432.168 120.852C432.645 120.852 433.12 120.733 433.591 120.494C434.069 120.256 434.463 119.895 434.776 119.412C435.094 118.929 435.25 118.315 435.245 117.571ZM446.136 109.909V111.955H438.986V109.909H446.136ZM440.903 106.773H443.452V119.156C443.452 119.651 443.526 120.023 443.673 120.273C443.821 120.517 444.011 120.685 444.244 120.776C444.483 120.861 444.741 120.903 445.02 120.903C445.224 120.903 445.403 120.889 445.557 120.861C445.71 120.832 445.83 120.81 445.915 120.793L446.375 122.898C446.227 122.955 446.017 123.011 445.744 123.068C445.472 123.131 445.131 123.165 444.722 123.17C444.051 123.182 443.426 123.062 442.847 122.812C442.267 122.562 441.798 122.176 441.44 121.653C441.082 121.131 440.903 120.474 440.903 119.685V106.773ZM456.048 117.571V109.909H458.605V123H456.099V120.733H455.963C455.662 121.432 455.179 122.014 454.514 122.48C453.855 122.94 453.034 123.17 452.051 123.17C451.21 123.17 450.465 122.986 449.818 122.616C449.176 122.241 448.67 121.688 448.301 120.955C447.937 120.222 447.755 119.315 447.755 118.236V109.909H450.304V117.929C450.304 118.821 450.551 119.531 451.045 120.06C451.539 120.588 452.181 120.852 452.971 120.852C453.448 120.852 453.923 120.733 454.394 120.494C454.872 120.256 455.267 119.895 455.579 119.412C455.897 118.929 456.054 118.315 456.048 117.571ZM460.829 123V109.909H463.292V111.989H463.428C463.667 111.284 464.087 110.73 464.689 110.327C465.297 109.918 465.985 109.713 466.752 109.713C466.911 109.713 467.099 109.719 467.314 109.73C467.536 109.741 467.709 109.756 467.834 109.773V112.21C467.732 112.182 467.55 112.151 467.289 112.116C467.028 112.077 466.766 112.057 466.505 112.057C465.903 112.057 465.366 112.185 464.894 112.44C464.428 112.69 464.059 113.04 463.786 113.489C463.513 113.932 463.377 114.437 463.377 115.006V123H460.829ZM474.013 123.264C472.723 123.264 471.612 122.989 470.681 122.438C469.754 121.881 469.038 121.099 468.533 120.094C468.033 119.082 467.783 117.898 467.783 116.54C467.783 115.199 468.033 114.017 468.533 112.994C469.038 111.972 469.743 111.173 470.646 110.599C471.556 110.026 472.618 109.739 473.834 109.739C474.573 109.739 475.288 109.861 475.982 110.105C476.675 110.349 477.297 110.733 477.848 111.256C478.399 111.778 478.834 112.457 479.152 113.293C479.47 114.122 479.629 115.131 479.629 116.318V117.222H469.223V115.312H477.132C477.132 114.642 476.996 114.048 476.723 113.531C476.45 113.009 476.067 112.597 475.573 112.295C475.084 111.994 474.51 111.844 473.851 111.844C473.135 111.844 472.51 112.02 471.976 112.372C471.448 112.719 471.038 113.173 470.749 113.736C470.465 114.293 470.323 114.898 470.323 115.551V117.043C470.323 117.918 470.476 118.662 470.783 119.276C471.095 119.889 471.53 120.358 472.087 120.682C472.644 121 473.294 121.159 474.038 121.159C474.521 121.159 474.962 121.091 475.36 120.955C475.757 120.812 476.101 120.602 476.391 120.324C476.681 120.045 476.902 119.702 477.056 119.293L479.467 119.727C479.274 120.437 478.928 121.06 478.428 121.594C477.933 122.122 477.311 122.534 476.561 122.83C475.817 123.119 474.967 123.264 474.013 123.264Z" fill="#1E1E1E"/>
<path d="M397.187 178.455V143.909H399.4V178.455H397.187ZM404.109 154.624C403.965 153.346 403.372 152.357 402.328 151.655C401.285 150.944 399.971 150.589 398.388 150.589C397.254 150.589 396.274 150.769 395.446 151.129C394.618 151.479 393.975 151.965 393.516 152.586C393.067 153.198 392.842 153.895 392.842 154.678C392.842 155.334 392.995 155.901 393.3 156.378C393.615 156.855 394.025 157.255 394.528 157.579C395.041 157.894 395.59 158.159 396.175 158.375C396.759 158.582 397.322 158.753 397.862 158.888L400.56 159.589C401.442 159.805 402.346 160.098 403.273 160.467C404.199 160.835 405.058 161.321 405.85 161.924C406.642 162.527 407.281 163.273 407.766 164.164C408.261 165.055 408.509 166.121 408.509 167.362C408.509 168.928 408.104 170.317 407.294 171.532C406.493 172.746 405.328 173.705 403.799 174.406C402.279 175.108 400.439 175.459 398.28 175.459C396.211 175.459 394.42 175.13 392.909 174.474C391.398 173.817 390.215 172.886 389.36 171.68C388.505 170.466 388.033 169.027 387.943 167.362H392.126C392.207 168.361 392.531 169.193 393.098 169.859C393.674 170.515 394.407 171.006 395.298 171.33C396.197 171.644 397.182 171.802 398.253 171.802C399.431 171.802 400.479 171.617 401.397 171.249C402.324 170.871 403.052 170.349 403.583 169.683C404.114 169.009 404.379 168.221 404.379 167.322C404.379 166.503 404.145 165.833 403.678 165.311C403.219 164.789 402.594 164.357 401.802 164.016C401.019 163.674 400.133 163.372 399.143 163.112L395.878 162.221C393.665 161.618 391.911 160.732 390.615 159.562C389.329 158.393 388.685 156.846 388.685 154.92C388.685 153.328 389.117 151.938 389.981 150.751C390.844 149.563 392.014 148.641 393.489 147.984C394.965 147.319 396.629 146.986 398.482 146.986C400.353 146.986 402.004 147.314 403.435 147.971C404.874 148.628 406.008 149.532 406.835 150.683C407.663 151.826 408.095 153.139 408.131 154.624H404.109ZM412.543 175V171.977L421.895 162.288C422.894 161.236 423.717 160.314 424.364 159.522C425.021 158.721 425.511 157.961 425.835 157.241C426.159 156.522 426.321 155.757 426.321 154.947C426.321 154.03 426.105 153.238 425.673 152.572C425.242 151.898 424.652 151.38 423.906 151.021C423.159 150.652 422.318 150.467 421.382 150.467C420.393 150.467 419.529 150.67 418.791 151.075C418.054 151.479 417.487 152.051 417.091 152.788C416.695 153.526 416.497 154.39 416.497 155.379H412.516C412.516 153.697 412.903 152.226 413.677 150.967C414.451 149.707 415.512 148.731 416.862 148.038C418.211 147.337 419.745 146.986 421.463 146.986C423.199 146.986 424.729 147.332 426.051 148.025C427.383 148.709 428.422 149.644 429.168 150.832C429.915 152.01 430.288 153.342 430.288 154.826C430.288 155.852 430.095 156.855 429.708 157.835C429.33 158.816 428.669 159.909 427.725 161.114C426.78 162.311 425.467 163.764 423.784 165.473L418.292 171.222V171.424H430.734V175H412.543ZM436.209 175L448.273 151.142V150.94H434.32V147.364H452.591V151.061L440.568 175H436.209ZM457.267 171.222L457.065 172.692C456.93 173.772 456.701 174.897 456.377 176.066C456.062 177.245 455.733 178.338 455.392 179.345C455.059 180.353 454.784 181.153 454.568 181.747H451.708C451.825 181.189 451.986 180.434 452.193 179.48C452.4 178.536 452.603 177.478 452.801 176.309C452.999 175.139 453.147 173.947 453.246 172.733L453.381 171.222H457.267ZM470.961 175.378C469.108 175.378 467.452 175.058 465.995 174.42C464.546 173.781 463.399 172.895 462.554 171.761C461.717 170.619 461.267 169.296 461.204 167.794H465.442C465.496 168.613 465.77 169.323 466.265 169.926C466.769 170.52 467.425 170.979 468.235 171.303C469.045 171.626 469.944 171.788 470.934 171.788C472.022 171.788 472.985 171.599 473.822 171.222C474.667 170.844 475.328 170.317 475.805 169.643C476.282 168.959 476.52 168.172 476.52 167.281C476.52 166.355 476.282 165.54 475.805 164.839C475.337 164.128 474.649 163.57 473.741 163.165C472.841 162.761 471.752 162.558 470.475 162.558H468.14V159.158H470.475C471.501 159.158 472.4 158.973 473.174 158.604C473.957 158.236 474.568 157.723 475.009 157.066C475.45 156.4 475.67 155.622 475.67 154.732C475.67 153.877 475.477 153.135 475.09 152.505C474.712 151.866 474.172 151.367 473.471 151.007C472.778 150.647 471.959 150.467 471.015 150.467C470.115 150.467 469.274 150.634 468.491 150.967C467.718 151.29 467.088 151.758 466.602 152.37C466.116 152.973 465.855 153.697 465.819 154.543H461.785C461.83 153.049 462.27 151.736 463.107 150.602C463.953 149.469 465.068 148.583 466.454 147.944C467.839 147.305 469.377 146.986 471.069 146.986C472.841 146.986 474.37 147.332 475.657 148.025C476.952 148.709 477.951 149.622 478.653 150.764C479.363 151.907 479.714 153.157 479.705 154.516C479.714 156.063 479.282 157.376 478.41 158.456C477.546 159.536 476.394 160.26 474.955 160.629V160.844C476.79 161.123 478.212 161.852 479.219 163.031C480.236 164.209 480.74 165.671 480.731 167.416C480.74 168.937 480.317 170.299 479.462 171.505C478.617 172.71 477.461 173.66 475.994 174.352C474.528 175.036 472.85 175.378 470.961 175.378ZM486.193 175L498.257 151.142V150.94H484.303V147.364H502.575V151.061L490.551 175H486.193ZM515.448 175.378C513.757 175.378 512.237 175.054 510.887 174.406C509.547 173.75 508.476 172.85 507.676 171.707C506.875 170.565 506.448 169.26 506.394 167.794H510.442C510.541 168.982 511.067 169.958 512.021 170.722C512.974 171.487 514.117 171.869 515.448 171.869C516.51 171.869 517.45 171.626 518.269 171.141C519.096 170.646 519.744 169.967 520.212 169.103C520.689 168.239 520.927 167.254 520.927 166.148C520.927 165.023 520.684 164.02 520.198 163.138C519.713 162.257 519.042 161.564 518.188 161.06C517.342 160.557 516.371 160.3 515.273 160.291C514.436 160.291 513.595 160.435 512.75 160.723C511.904 161.011 511.22 161.389 510.698 161.857L506.88 161.29L508.431 147.364H523.626V150.94H511.899L511.022 158.672H511.184C511.724 158.15 512.439 157.714 513.33 157.363C514.229 157.012 515.192 156.837 516.218 156.837C517.9 156.837 519.398 157.237 520.711 158.038C522.034 158.838 523.073 159.931 523.828 161.317C524.593 162.693 524.971 164.277 524.962 166.067C524.971 167.857 524.566 169.454 523.747 170.857C522.938 172.261 521.813 173.367 520.374 174.177C518.943 174.978 517.302 175.378 515.448 175.378ZM538.861 175V154.273H542.896V175H538.861ZM540.899 151.075C540.197 151.075 539.595 150.841 539.091 150.373C538.596 149.896 538.349 149.329 538.349 148.673C538.349 148.007 538.596 147.44 539.091 146.972C539.595 146.496 540.197 146.257 540.899 146.257C541.601 146.257 542.199 146.496 542.694 146.972C543.198 147.44 543.449 148.007 543.449 148.673C543.449 149.329 543.198 149.896 542.694 150.373C542.199 150.841 541.601 151.075 540.899 151.075ZM551.789 162.693V175H547.754V154.273H551.627V157.646H551.883C552.36 156.549 553.107 155.667 554.124 155.001C555.149 154.336 556.44 154.003 557.996 154.003C559.409 154.003 560.646 154.3 561.707 154.893C562.769 155.478 563.592 156.351 564.177 157.511C564.762 158.672 565.054 160.107 565.054 161.816V175H561.019V162.302C561.019 160.799 560.628 159.625 559.845 158.78C559.062 157.925 557.987 157.498 556.62 157.498C555.684 157.498 554.852 157.7 554.124 158.105C553.404 158.51 552.833 159.104 552.41 159.886C551.996 160.66 551.789 161.596 551.789 162.693ZM585.414 175.459C584.1 175.459 582.913 175.216 581.851 174.73C580.79 174.235 579.949 173.52 579.328 172.585C578.716 171.649 578.41 170.502 578.41 169.143C578.41 167.974 578.635 167.011 579.085 166.256C579.535 165.5 580.142 164.902 580.907 164.461C581.671 164.02 582.526 163.687 583.471 163.462C584.415 163.237 585.378 163.067 586.358 162.95C587.6 162.806 588.607 162.689 589.381 162.599C590.155 162.5 590.717 162.342 591.068 162.126C591.419 161.911 591.594 161.56 591.594 161.074V160.979C591.594 159.801 591.261 158.888 590.596 158.24C589.939 157.592 588.958 157.268 587.654 157.268C586.295 157.268 585.225 157.57 584.442 158.173C583.669 158.766 583.133 159.428 582.836 160.156L579.044 159.293C579.494 158.033 580.151 157.017 581.015 156.243C581.887 155.46 582.89 154.893 584.024 154.543C585.157 154.183 586.349 154.003 587.6 154.003C588.427 154.003 589.305 154.102 590.231 154.3C591.167 154.489 592.039 154.839 592.849 155.352C593.668 155.865 594.338 156.598 594.86 157.552C595.382 158.496 595.642 159.724 595.642 161.236V175H591.702V172.166H591.54C591.279 172.688 590.888 173.201 590.366 173.705C589.844 174.208 589.174 174.627 588.356 174.96C587.537 175.292 586.556 175.459 585.414 175.459ZM586.291 172.22C587.406 172.22 588.36 172 589.152 171.559C589.952 171.118 590.56 170.542 590.973 169.832C591.396 169.112 591.608 168.343 591.608 167.524V164.852C591.464 164.996 591.185 165.131 590.771 165.257C590.366 165.374 589.903 165.478 589.381 165.567C588.859 165.648 588.351 165.725 587.856 165.797C587.361 165.86 586.948 165.914 586.615 165.959C585.832 166.058 585.117 166.224 584.469 166.458C583.83 166.692 583.318 167.029 582.931 167.47C582.553 167.902 582.364 168.478 582.364 169.197C582.364 170.196 582.733 170.952 583.471 171.464C584.208 171.968 585.148 172.22 586.291 172.22ZM612.484 182.773C611.881 182.773 611.332 182.723 610.837 182.624C610.343 182.534 609.974 182.435 609.731 182.327L610.702 179.021C611.44 179.219 612.097 179.305 612.673 179.278C613.248 179.251 613.757 179.035 614.197 178.63C614.647 178.225 615.043 177.564 615.385 176.646L615.884 175.27L608.3 154.273H612.619L617.868 170.358H618.084L623.333 154.273H627.665L619.123 177.766C618.727 178.846 618.223 179.759 617.611 180.506C617 181.261 616.271 181.828 615.425 182.206C614.58 182.584 613.599 182.773 612.484 182.773ZM639.115 175.418C637.073 175.418 635.314 174.982 633.839 174.109C632.372 173.228 631.239 171.991 630.438 170.398C629.646 168.797 629.25 166.921 629.25 164.771C629.25 162.648 629.646 160.777 630.438 159.158C631.239 157.538 632.354 156.274 633.785 155.366C635.224 154.457 636.906 154.003 638.831 154.003C640.001 154.003 641.134 154.196 642.232 154.583C643.33 154.97 644.315 155.577 645.187 156.405C646.06 157.232 646.748 158.308 647.252 159.63C647.756 160.943 648.008 162.54 648.008 164.42V165.851H631.531V162.828H644.054C644.054 161.767 643.838 160.826 643.406 160.008C642.974 159.18 642.367 158.528 641.584 158.051C640.811 157.574 639.902 157.336 638.858 157.336C637.725 157.336 636.735 157.615 635.89 158.173C635.053 158.721 634.405 159.441 633.946 160.332C633.497 161.213 633.272 162.171 633.272 163.206V165.567C633.272 166.953 633.515 168.131 634 169.103C634.495 170.075 635.183 170.817 636.065 171.33C636.947 171.833 637.977 172.085 639.155 172.085C639.92 172.085 640.617 171.977 641.247 171.761C641.877 171.536 642.421 171.204 642.88 170.763C643.339 170.322 643.689 169.778 643.932 169.13L647.751 169.818C647.445 170.943 646.897 171.928 646.105 172.773C645.322 173.61 644.337 174.262 643.15 174.73C641.971 175.189 640.626 175.418 639.115 175.418ZM657.946 175.459C656.633 175.459 655.445 175.216 654.384 174.73C653.322 174.235 652.481 173.52 651.86 172.585C651.249 171.649 650.943 170.502 650.943 169.143C650.943 167.974 651.168 167.011 651.617 166.256C652.067 165.5 652.675 164.902 653.439 164.461C654.204 164.02 655.058 163.687 656.003 163.462C656.948 163.237 657.91 163.067 658.891 162.95C660.132 162.806 661.14 162.689 661.914 162.599C662.687 162.5 663.25 162.342 663.6 162.126C663.951 161.911 664.127 161.56 664.127 161.074V160.979C664.127 159.801 663.794 158.888 663.128 158.24C662.471 157.592 661.491 157.268 660.186 157.268C658.828 157.268 657.757 157.57 656.975 158.173C656.201 158.766 655.666 159.428 655.369 160.156L651.577 159.293C652.027 158.033 652.683 157.017 653.547 156.243C654.42 155.46 655.423 154.893 656.556 154.543C657.69 154.183 658.882 154.003 660.132 154.003C660.96 154.003 661.837 154.102 662.764 154.3C663.699 154.489 664.572 154.839 665.382 155.352C666.2 155.865 666.871 156.598 667.392 157.552C667.914 158.496 668.175 159.724 668.175 161.236V175H664.235V172.166H664.073C663.812 172.688 663.42 173.201 662.899 173.705C662.377 174.208 661.707 174.627 660.888 174.96C660.069 175.292 659.089 175.459 657.946 175.459ZM658.823 172.22C659.939 172.22 660.893 172 661.684 171.559C662.485 171.118 663.092 170.542 663.506 169.832C663.929 169.112 664.14 168.343 664.14 167.524V164.852C663.996 164.996 663.717 165.131 663.304 165.257C662.899 165.374 662.435 165.478 661.914 165.567C661.392 165.648 660.884 165.725 660.389 165.797C659.894 165.86 659.48 165.914 659.147 165.959C658.365 166.058 657.649 166.224 657.002 166.458C656.363 166.692 655.85 167.029 655.463 167.47C655.085 167.902 654.897 168.478 654.897 169.197C654.897 170.196 655.265 170.952 656.003 171.464C656.741 171.968 657.681 172.22 658.823 172.22ZM672.979 175V154.273H676.879V157.565H677.095C677.473 156.45 678.138 155.573 679.092 154.934C680.055 154.286 681.143 153.962 682.358 153.962C682.61 153.962 682.906 153.971 683.248 153.989C683.599 154.007 683.873 154.03 684.071 154.057V157.916C683.909 157.871 683.622 157.822 683.208 157.768C682.794 157.705 682.38 157.673 681.966 157.673C681.013 157.673 680.163 157.876 679.416 158.281C678.678 158.676 678.093 159.23 677.662 159.94C677.23 160.642 677.014 161.443 677.014 162.342V175H672.979Z" fill="#2D5551"/>
<path d="M165.551 3.54545V21H162.918V3.54545H165.551ZM179.999 9.05966C179.834 8.54261 179.613 8.07955 179.334 7.67045C179.061 7.25568 178.735 6.90341 178.354 6.61364C177.973 6.31818 177.539 6.09375 177.05 5.94034C176.567 5.78693 176.036 5.71023 175.456 5.71023C174.473 5.71023 173.587 5.96307 172.797 6.46875C172.007 6.97443 171.382 7.71591 170.922 8.69318C170.468 9.66477 170.24 10.8551 170.24 12.2642C170.24 13.679 170.47 14.875 170.931 15.8523C171.391 16.8295 172.022 17.571 172.823 18.0767C173.624 18.5824 174.536 18.8352 175.559 18.8352C176.507 18.8352 177.334 18.642 178.039 18.2557C178.749 17.8693 179.297 17.3239 179.684 16.6193C180.076 15.9091 180.272 15.0739 180.272 14.1136L180.953 14.2415H175.959V12.0682H182.82V14.054C182.82 15.5199 182.507 16.7926 181.882 17.8722C181.263 18.946 180.405 19.7756 179.309 20.3608C178.218 20.946 176.968 21.2386 175.559 21.2386C173.979 21.2386 172.593 20.875 171.399 20.1477C170.212 19.4205 169.286 18.3892 168.621 17.054C167.956 15.7131 167.624 14.1222 167.624 12.2812C167.624 10.8892 167.817 9.6392 168.203 8.53125C168.59 7.4233 169.132 6.48295 169.831 5.71023C170.536 4.93182 171.363 4.33807 172.311 3.92898C173.266 3.5142 174.309 3.30682 175.439 3.30682C176.382 3.30682 177.26 3.44602 178.073 3.72443C178.891 4.00284 179.618 4.39773 180.255 4.90909C180.897 5.42045 181.428 6.02841 181.848 6.73295C182.269 7.43182 182.553 8.20739 182.701 9.05966H179.999ZM192.748 3.54545V21H190.114V3.54545H192.748ZM197.727 13.2273V21H195.179V7.90909H197.625V10.0398H197.787C198.088 9.34659 198.559 8.78977 199.201 8.36932C199.849 7.94886 200.664 7.73864 201.647 7.73864C202.539 7.73864 203.321 7.92614 203.991 8.30114C204.662 8.67045 205.182 9.22159 205.551 9.95455C205.92 10.6875 206.105 11.5937 206.105 12.6733V21H203.557V12.9801C203.557 12.0312 203.309 11.2898 202.815 10.7557C202.321 10.2159 201.642 9.94602 200.778 9.94602C200.187 9.94602 199.662 10.0739 199.201 10.3295C198.747 10.5852 198.386 10.9602 198.119 11.4545C197.858 11.9432 197.727 12.5341 197.727 13.2273ZM213.223 21.2557C212.166 21.2557 211.223 20.9858 210.393 20.446C209.57 19.9006 208.922 19.125 208.45 18.1193C207.984 17.108 207.751 15.8949 207.751 14.4801C207.751 13.0653 207.987 11.8551 208.459 10.8494C208.936 9.84375 209.589 9.07386 210.419 8.53977C211.249 8.00568 212.189 7.73864 213.24 7.73864C214.053 7.73864 214.706 7.875 215.2 8.14773C215.7 8.41477 216.087 8.72727 216.359 9.08523C216.638 9.44318 216.854 9.75852 217.007 10.0312H217.161V3.54545H219.709V21H217.22V18.9631H217.007C216.854 19.2415 216.632 19.5597 216.342 19.9176C216.058 20.2756 215.666 20.5881 215.166 20.8551C214.666 21.1222 214.018 21.2557 213.223 21.2557ZM213.786 19.0824C214.518 19.0824 215.138 18.8892 215.643 18.5028C216.155 18.1108 216.541 17.5682 216.803 16.875C217.07 16.1818 217.203 15.375 217.203 14.4545C217.203 13.5455 217.072 12.75 216.811 12.0682C216.55 11.3864 216.166 10.8551 215.661 10.4744C215.155 10.0937 214.53 9.90341 213.786 9.90341C213.018 9.90341 212.379 10.1023 211.868 10.5C211.357 10.8977 210.97 11.4403 210.709 12.1278C210.453 12.8153 210.325 13.5909 210.325 14.4545C210.325 15.3295 210.456 16.1165 210.717 16.8153C210.979 17.5142 211.365 18.0682 211.876 18.4773C212.393 18.8807 213.03 19.0824 213.786 19.0824ZM227.788 21.2642C226.498 21.2642 225.387 20.9886 224.456 20.4375C223.529 19.8807 222.813 19.0994 222.308 18.0938C221.808 17.0824 221.558 15.8977 221.558 14.5398C221.558 13.1989 221.808 12.017 222.308 10.9943C222.813 9.97159 223.518 9.1733 224.421 8.59943C225.331 8.02557 226.393 7.73864 227.609 7.73864C228.348 7.73864 229.063 7.8608 229.757 8.10511C230.45 8.34943 231.072 8.73295 231.623 9.25568C232.174 9.77841 232.609 10.4574 232.927 11.2926C233.245 12.1222 233.404 13.1307 233.404 14.3182V15.2216H222.998V13.3125H230.907C230.907 12.642 230.771 12.0483 230.498 11.5312C230.225 11.0085 229.842 10.5966 229.348 10.2955C228.859 9.99432 228.285 9.84375 227.626 9.84375C226.91 9.84375 226.285 10.0199 225.751 10.3722C225.223 10.7187 224.813 11.1733 224.524 11.7358C224.24 12.2926 224.098 12.8977 224.098 13.5511V15.0426C224.098 15.9176 224.251 16.6619 224.558 17.2756C224.87 17.8892 225.305 18.358 225.862 18.6818C226.419 19 227.069 19.1591 227.813 19.1591C228.296 19.1591 228.737 19.0909 229.135 18.9545C229.532 18.8125 229.876 18.6023 230.166 18.3239C230.456 18.0455 230.677 17.7017 230.831 17.2926L233.242 17.7273C233.049 18.4375 232.703 19.0597 232.203 19.5938C231.708 20.1222 231.086 20.5341 230.336 20.8295C229.592 21.1193 228.742 21.2642 227.788 21.2642ZM236.738 7.90909L239.628 13.0057L242.542 7.90909H245.329L241.247 14.4545L245.363 21H242.577L239.628 16.108L236.687 21H233.892L237.966 14.4545L233.943 7.90909H236.738Z" fill="#1E1E1E"/>
<path d="M172.187 76.4545V41.9091H174.4V76.4545H172.187ZM179.109 52.6236C178.965 51.3461 178.372 50.3565 177.328 49.6548C176.285 48.9441 174.971 48.5888 173.388 48.5888C172.254 48.5888 171.274 48.7687 170.446 49.1285C169.618 49.4794 168.975 49.9652 168.516 50.5859C168.067 51.1977 167.842 51.8949 167.842 52.6776C167.842 53.3343 167.995 53.901 168.3 54.3778C168.615 54.8546 169.025 55.255 169.528 55.5788C170.041 55.8937 170.59 56.1591 171.175 56.375C171.759 56.5819 172.322 56.7528 172.862 56.8878L175.56 57.5895C176.442 57.8054 177.346 58.0978 178.273 58.4666C179.199 58.8355 180.058 59.3213 180.85 59.924C181.642 60.5268 182.281 61.2734 182.766 62.1641C183.261 63.0547 183.509 64.1207 183.509 65.3622C183.509 66.9276 183.104 68.3175 182.294 69.532C181.493 70.7464 180.328 71.7045 178.799 72.4062C177.279 73.108 175.439 73.4588 173.28 73.4588C171.211 73.4588 169.42 73.1304 167.909 72.4737C166.398 71.817 165.215 70.8859 164.36 69.6804C163.505 68.4659 163.033 67.0265 162.943 65.3622H167.126C167.207 66.3608 167.531 67.1929 168.098 67.8587C168.674 68.5154 169.407 69.0057 170.298 69.3295C171.197 69.6444 172.182 69.8018 173.253 69.8018C174.431 69.8018 175.479 69.6174 176.397 69.2486C177.324 68.8707 178.052 68.349 178.583 67.6832C179.114 67.0085 179.379 66.2214 179.379 65.3217C179.379 64.5031 179.145 63.8329 178.678 63.3111C178.219 62.7893 177.594 62.3575 176.802 62.0156C176.019 61.6738 175.133 61.3724 174.143 61.1115L170.878 60.2209C168.665 59.6181 166.911 58.732 165.615 57.5625C164.329 56.393 163.685 54.8456 163.685 52.9205C163.685 51.3281 164.117 49.9382 164.981 48.7507C165.844 47.5632 167.014 46.6411 168.489 45.9844C169.965 45.3187 171.629 44.9858 173.482 44.9858C175.353 44.9858 177.004 45.3142 178.435 45.9709C179.874 46.6276 181.008 47.5317 181.835 48.6832C182.663 49.8258 183.095 51.1392 183.131 52.6236H179.109ZM196.733 44.9858C197.966 44.9948 199.18 45.2197 200.377 45.6605C201.573 46.1013 202.653 46.821 203.615 47.8196C204.587 48.8182 205.36 50.1676 205.936 51.8679C206.521 53.5592 206.818 55.6643 206.827 58.1832C206.827 60.6032 206.584 62.7578 206.098 64.647C205.612 66.5272 204.915 68.1151 204.007 69.4105C203.107 70.706 202.014 71.6911 200.727 72.3658C199.441 73.0405 197.993 73.3778 196.382 73.3778C194.736 73.3778 193.274 73.054 191.997 72.4062C190.719 71.7585 189.68 70.8634 188.879 69.7209C188.079 68.5694 187.579 67.2469 187.382 65.7536H191.497C191.767 66.9411 192.316 67.9036 193.144 68.6413C193.98 69.37 195.06 69.7344 196.382 69.7344C198.406 69.7344 199.985 68.8527 201.119 67.0895C202.252 65.3172 202.824 62.8433 202.833 59.6676H202.617C202.149 60.4413 201.564 61.107 200.862 61.6648C200.17 62.2225 199.391 62.6544 198.528 62.9602C197.664 63.2661 196.742 63.419 195.761 63.419C194.169 63.419 192.721 63.0277 191.416 62.245C190.112 61.4624 189.073 60.3873 188.299 59.0199C187.525 57.6525 187.139 56.0916 187.139 54.3374C187.139 52.5921 187.534 51.0088 188.326 49.5874C189.127 48.166 190.242 47.0414 191.673 46.2138C193.112 45.3771 194.799 44.9678 196.733 44.9858ZM196.747 48.4943C195.694 48.4943 194.745 48.7552 193.899 49.277C193.063 49.7898 192.401 50.487 191.916 51.3686C191.43 52.2412 191.187 53.2128 191.187 54.2834C191.187 55.3539 191.421 56.3255 191.889 57.1982C192.365 58.0618 193.013 58.75 193.832 59.2628C194.659 59.7666 195.604 60.0185 196.666 60.0185C197.457 60.0185 198.195 59.8655 198.879 59.5597C199.562 59.2538 200.161 58.831 200.673 58.2912C201.186 57.7424 201.587 57.1217 201.874 56.429C202.162 55.7363 202.306 55.0076 202.306 54.2429C202.306 53.2263 202.063 52.2817 201.578 51.4091C201.101 50.5365 200.444 49.8348 199.607 49.304C198.771 48.7642 197.817 48.4943 196.747 48.4943ZM215.433 69.2216L215.231 70.6925C215.096 71.772 214.866 72.8965 214.542 74.0661C214.227 75.2446 213.899 76.3376 213.557 77.3452C213.224 78.3527 212.95 79.1534 212.734 79.7472H209.873C209.99 79.1894 210.152 78.4337 210.359 77.4801C210.566 76.5355 210.768 75.4785 210.966 74.3089C211.164 73.1394 211.313 71.9474 211.412 70.733L211.547 69.2216H215.433ZM227.652 45.3636V73H223.469V49.5469H223.307L216.695 53.8651V49.8707L223.59 45.3636H227.652ZM234.558 73V69.9773L243.91 60.2884C244.908 59.2358 245.731 58.3137 246.379 57.522C247.036 56.7214 247.526 55.9612 247.85 55.2415C248.174 54.5218 248.336 53.7571 248.336 52.9474C248.336 52.0298 248.12 51.2382 247.688 50.5724C247.256 49.8977 246.667 49.3804 245.92 49.0206C245.174 48.6518 244.332 48.4673 243.397 48.4673C242.407 48.4673 241.544 48.6697 240.806 49.0746C240.068 49.4794 239.501 50.0507 239.106 50.7884C238.71 51.526 238.512 52.3897 238.512 53.3793H234.531C234.531 51.697 234.918 50.2261 235.692 48.9666C236.465 47.7071 237.527 46.7311 238.876 46.0384C240.226 45.3366 241.76 44.9858 243.478 44.9858C245.214 44.9858 246.743 45.3321 248.066 46.0249C249.397 46.7086 250.436 47.6442 251.183 48.8317C251.93 50.0102 252.303 51.3416 252.303 52.826C252.303 53.8516 252.11 54.8546 251.723 55.8352C251.345 56.8158 250.684 57.9089 249.739 59.1143C248.795 60.3108 247.481 61.7637 245.799 63.473L240.307 69.2216V69.424H252.748V73H234.558ZM266.415 73.3778C264.724 73.3778 263.203 73.054 261.854 72.4062C260.513 71.7495 259.443 70.8499 258.642 69.7074C257.842 68.5649 257.414 67.2604 257.36 65.794H261.409C261.507 66.9815 262.034 67.9576 262.987 68.7223C263.941 69.487 265.083 69.8693 266.415 69.8693C267.476 69.8693 268.417 69.6264 269.235 69.1406C270.063 68.6458 270.711 67.9666 271.178 67.103C271.655 66.2393 271.894 65.2543 271.894 64.1477C271.894 63.0232 271.651 62.0201 271.165 61.1385C270.679 60.2569 270.009 59.5642 269.154 59.0604C268.309 58.5566 267.337 58.3002 266.239 58.2912C265.403 58.2912 264.562 58.4351 263.716 58.723C262.87 59.0109 262.187 59.3887 261.665 59.8565L257.846 59.2898L259.398 45.3636H274.592V48.9396H262.866L261.989 56.6719H262.151C262.69 56.1501 263.406 55.7138 264.296 55.3629C265.196 55.0121 266.159 54.8366 267.184 54.8366C268.866 54.8366 270.364 55.237 271.678 56.0376C273 56.8383 274.039 57.9313 274.795 59.3168C275.56 60.6932 275.937 62.2765 275.928 64.0668C275.937 65.857 275.533 67.4538 274.714 68.8572C273.904 70.2607 272.78 71.3672 271.34 72.1768C269.91 72.9775 268.268 73.3778 266.415 73.3778ZM289.828 73V52.2727H293.863V73H289.828ZM291.865 49.0746C291.164 49.0746 290.561 48.8407 290.057 48.3729C289.562 47.8961 289.315 47.3293 289.315 46.6726C289.315 46.0069 289.562 45.4401 290.057 44.9723C290.561 44.4955 291.164 44.2571 291.865 44.2571C292.567 44.2571 293.165 44.4955 293.66 44.9723C294.164 45.4401 294.416 46.0069 294.416 46.6726C294.416 47.3293 294.164 47.8961 293.66 48.3729C293.165 48.8407 292.567 49.0746 291.865 49.0746ZM302.756 60.6932V73H298.721V52.2727H302.594V55.6463H302.85C303.327 54.5488 304.073 53.6671 305.09 53.0014C306.116 52.3357 307.407 52.0028 308.963 52.0028C310.375 52.0028 311.612 52.2997 312.674 52.8935C313.735 53.4782 314.559 54.3509 315.143 55.5114C315.728 56.6719 316.02 58.1068 316.02 59.8161V73H311.986V60.3018C311.986 58.7995 311.594 57.6255 310.812 56.7798C310.029 55.9252 308.954 55.4979 307.586 55.4979C306.651 55.4979 305.819 55.7003 305.09 56.1051C304.37 56.5099 303.799 57.1037 303.376 57.8864C302.962 58.66 302.756 59.5956 302.756 60.6932ZM336.38 73.4588C335.067 73.4588 333.879 73.2159 332.818 72.7301C331.756 72.2353 330.915 71.5201 330.294 70.5845C329.683 69.6489 329.377 68.5019 329.377 67.1435C329.377 65.974 329.602 65.0114 330.051 64.2557C330.501 63.5 331.108 62.9018 331.873 62.4609C332.638 62.0201 333.492 61.6873 334.437 61.4624C335.382 61.2375 336.344 61.0665 337.325 60.9496C338.566 60.8056 339.574 60.6887 340.348 60.5987C341.121 60.4998 341.684 60.3423 342.034 60.1264C342.385 59.9105 342.561 59.5597 342.561 59.0739V58.9794C342.561 57.8009 342.228 56.8878 341.562 56.2401C340.905 55.5923 339.925 55.2685 338.62 55.2685C337.262 55.2685 336.191 55.5698 335.409 56.1726C334.635 56.7663 334.1 57.4276 333.803 58.1562L330.011 57.2926C330.461 56.0331 331.117 55.0166 331.981 54.2429C332.854 53.4602 333.857 52.8935 334.99 52.5426C336.124 52.1828 337.316 52.0028 338.566 52.0028C339.394 52.0028 340.271 52.1018 341.198 52.2997C342.133 52.4886 343.006 52.8395 343.816 53.3523C344.634 53.8651 345.305 54.5982 345.826 55.5518C346.348 56.4964 346.609 57.7244 346.609 59.2358V73H342.669V70.1662H342.507C342.246 70.688 341.854 71.2008 341.333 71.7045C340.811 72.2083 340.141 72.6267 339.322 72.9595C338.503 73.2924 337.523 73.4588 336.38 73.4588ZM337.257 70.2202C338.373 70.2202 339.327 69.9998 340.118 69.5589C340.919 69.1181 341.526 68.5424 341.94 67.8317C342.363 67.112 342.574 66.3428 342.574 65.5241V62.8523C342.43 62.9962 342.151 63.1312 341.738 63.2571C341.333 63.3741 340.869 63.4775 340.348 63.5675C339.826 63.6484 339.318 63.7249 338.823 63.7969C338.328 63.8598 337.914 63.9138 337.581 63.9588C336.799 64.0578 336.083 64.2242 335.436 64.4581C334.797 64.692 334.284 65.0294 333.897 65.4702C333.519 65.902 333.331 66.4777 333.331 67.1974C333.331 68.196 333.699 68.9517 334.437 69.4645C335.175 69.9683 336.115 70.2202 337.257 70.2202ZM363.45 80.7727C362.847 80.7727 362.299 80.7232 361.804 80.6243C361.309 80.5343 360.94 80.4354 360.697 80.3274L361.669 77.0213C362.407 77.2192 363.063 77.3047 363.639 77.2777C364.215 77.2507 364.723 77.0348 365.164 76.63C365.614 76.2251 366.01 75.5639 366.351 74.6463L366.851 73.2699L359.267 52.2727H363.585L368.834 68.358H369.05L374.3 52.2727H378.631L370.089 75.7663C369.694 76.8459 369.19 77.759 368.578 78.5057C367.966 79.2614 367.238 79.8281 366.392 80.206C365.546 80.5838 364.566 80.7727 363.45 80.7727ZM390.081 73.4183C388.039 73.4183 386.28 72.982 384.805 72.1094C383.339 71.2277 382.205 69.9908 381.404 68.3984C380.613 66.7971 380.217 64.9214 380.217 62.7713C380.217 60.6482 380.613 58.777 381.404 57.1577C382.205 55.5384 383.321 54.2744 384.751 53.3658C386.19 52.4571 387.873 52.0028 389.798 52.0028C390.967 52.0028 392.101 52.1963 393.198 52.5831C394.296 52.9699 395.281 53.5772 396.154 54.4048C397.026 55.2325 397.715 56.3075 398.218 57.63C398.722 58.9434 398.974 60.5402 398.974 62.4205V63.8509H382.497V60.8281H395.02C395.02 59.7666 394.804 58.8265 394.372 58.0078C393.941 57.1802 393.333 56.5279 392.551 56.0511C391.777 55.5743 390.868 55.3359 389.825 55.3359C388.691 55.3359 387.702 55.6148 386.856 56.1726C386.02 56.7214 385.372 57.4411 384.913 58.3317C384.463 59.2133 384.238 60.1714 384.238 61.206V63.5675C384.238 64.9529 384.481 66.1314 384.967 67.103C385.462 68.0746 386.15 68.8168 387.032 69.3295C387.913 69.8333 388.943 70.0852 390.122 70.0852C390.886 70.0852 391.584 69.9773 392.213 69.7614C392.843 69.5365 393.387 69.2036 393.846 68.7628C394.305 68.322 394.656 67.7777 394.899 67.13L398.718 67.8182C398.412 68.9427 397.863 69.9278 397.071 70.7734C396.289 71.6101 395.304 72.2623 394.116 72.7301C392.938 73.1889 391.593 73.4183 390.081 73.4183ZM408.913 73.4588C407.599 73.4588 406.412 73.2159 405.35 72.7301C404.289 72.2353 403.448 71.5201 402.827 70.5845C402.215 69.6489 401.909 68.5019 401.909 67.1435C401.909 65.974 402.134 65.0114 402.584 64.2557C403.034 63.5 403.641 62.9018 404.406 62.4609C405.17 62.0201 406.025 61.6873 406.97 61.4624C407.914 61.2375 408.877 61.0665 409.857 60.9496C411.099 60.8056 412.106 60.6887 412.88 60.5987C413.654 60.4998 414.216 60.3423 414.567 60.1264C414.918 59.9105 415.093 59.5597 415.093 59.0739V58.9794C415.093 57.8009 414.76 56.8878 414.095 56.2401C413.438 55.5923 412.457 55.2685 411.153 55.2685C409.794 55.2685 408.724 55.5698 407.941 56.1726C407.167 56.7663 406.632 57.4276 406.335 58.1562L402.543 57.2926C402.993 56.0331 403.65 55.0166 404.514 54.2429C405.386 53.4602 406.389 52.8935 407.523 52.5426C408.656 52.1828 409.848 52.0028 411.099 52.0028C411.926 52.0028 412.804 52.1018 413.73 52.2997C414.666 52.4886 415.538 52.8395 416.348 53.3523C417.167 53.8651 417.837 54.5982 418.359 55.5518C418.881 56.4964 419.141 57.7244 419.141 59.2358V73H415.201V70.1662H415.039C414.778 70.688 414.387 71.2008 413.865 71.7045C413.343 72.2083 412.673 72.6267 411.855 72.9595C411.036 73.2924 410.055 73.4588 408.913 73.4588ZM409.79 70.2202C410.905 70.2202 411.859 69.9998 412.651 69.5589C413.451 69.1181 414.059 68.5424 414.472 67.8317C414.895 67.112 415.107 66.3428 415.107 65.5241V62.8523C414.963 62.9962 414.684 63.1312 414.27 63.2571C413.865 63.3741 413.402 63.4775 412.88 63.5675C412.358 63.6484 411.85 63.7249 411.355 63.7969C410.86 63.8598 410.447 63.9138 410.114 63.9588C409.331 64.0578 408.616 64.2242 407.968 64.4581C407.329 64.692 406.817 65.0294 406.43 65.4702C406.052 65.902 405.863 66.4777 405.863 67.1974C405.863 68.196 406.232 68.9517 406.97 69.4645C407.707 69.9683 408.647 70.2202 409.79 70.2202ZM423.946 73V52.2727H427.845V55.5653H428.061C428.439 54.4498 429.105 53.5727 430.058 52.9339C431.021 52.2862 432.11 51.9624 433.324 51.9624C433.576 51.9624 433.873 51.9714 434.215 51.9893C434.566 52.0073 434.84 52.0298 435.038 52.0568V55.9162C434.876 55.8712 434.588 55.8217 434.174 55.7678C433.76 55.7048 433.347 55.6733 432.933 55.6733C431.979 55.6733 431.129 55.8757 430.382 56.2805C429.645 56.6764 429.06 57.2296 428.628 57.9403C428.196 58.642 427.98 59.4427 427.98 60.3423V73H423.946Z" fill="#FDB22D"/>
<defs>
<clipPath id="clip0_28_28528">
<rect x="569.684" y="205.909" width="108.316" height="108.316" rx="54.1578" fill="white"/>
</clipPath>
<clipPath id="clip1_28_28528">
<rect x="18.2598" y="-0.874603" width="108.316" height="108.316" rx="54.1578" fill="white"/>
</clipPath>
</defs>
</svg>
