<svg width="708" height="394" viewBox="0 0 708 394" fill="none" xmlns="http://www.w3.org/2000/svg">
<path d="M2 393.786H708.117" stroke="#040505" stroke-width="1.3323" stroke-miterlimit="10"/>
<path d="M291.729 210.043L347.659 230.722L255.099 393.786H186.564L291.729 210.043Z" fill="#040505" stroke="#040505" stroke-width="1.96937" stroke-miterlimit="10"/>
<path d="M347.662 230.722L434.315 393.786H255.102L347.662 230.722Z" fill="white" stroke="#040505" stroke-width="1.96937" stroke-miterlimit="10" stroke-linejoin="bevel"/>
<path d="M657.76 333.989L6.58008 88.8661L2.00094 101.031L653.181 346.154L657.76 333.989Z" fill="white" stroke="#040505" stroke-width="1.96937" stroke-miterlimit="10"/>
<path d="M96.3975 122.639L6.63672 88.8411L2.05627 101.006L91.817 134.804L96.3975 122.639Z" fill="#040505" stroke="#040505" stroke-width="1.96937" stroke-miterlimit="10"/>
<g clip-path="url(#clip0_369_1943)">
<circle cx="623.841" cy="260.067" r="49.2343" stroke="#2D5551" stroke-width="9.84687"/>
<circle cx="623.84" cy="260.067" r="43.3262" stroke="#111111" stroke-width="1.96937"/>
<path d="M638.425 265.286C637.511 263.664 636.274 262.247 634.79 261.122C633.306 259.998 631.608 259.189 629.799 258.747C628.102 258.238 626.38 257.818 624.639 257.487V239.625C628.1 239.996 631.401 241.273 634.21 243.327C634.404 243.499 634.63 243.631 634.875 243.716C635.12 243.801 635.38 243.836 635.638 243.821C635.897 243.805 636.15 243.739 636.384 243.625C636.617 243.512 636.825 243.354 636.997 243.16C637.169 242.966 637.301 242.74 637.386 242.495C637.471 242.25 637.506 241.991 637.491 241.732C637.475 241.473 637.409 241.22 637.295 240.987C637.182 240.754 637.024 240.545 636.83 240.373C633.305 237.659 629.073 236.018 624.639 235.647V229.542C624.639 229.019 624.432 228.518 624.062 228.149C623.693 227.78 623.192 227.572 622.67 227.572C622.148 227.572 621.647 227.78 621.277 228.149C620.908 228.518 620.701 229.019 620.701 229.542V235.45C612.035 235.647 607.25 239.96 605.792 243.682C604.82 246.079 604.728 248.742 605.532 251.201C606.336 253.659 607.984 255.753 610.184 257.113C613.387 259.065 616.975 260.302 620.701 260.737V278.776C615.559 278.517 610.634 276.627 606.639 273.38C606.461 273.168 606.24 272.996 605.991 272.875C605.741 272.754 605.469 272.687 605.192 272.678C604.915 272.67 604.64 272.72 604.383 272.825C604.127 272.93 603.896 273.089 603.705 273.289C603.514 273.49 603.367 273.729 603.275 273.99C603.182 274.252 603.146 274.529 603.169 274.806C603.191 275.082 603.271 275.35 603.404 275.593C603.537 275.836 603.72 276.048 603.941 276.216C608.652 280.182 614.548 282.468 620.701 282.715V288.623C620.701 289.145 620.908 289.646 621.277 290.015C621.647 290.385 622.148 290.592 622.67 290.592C623.192 290.592 623.693 290.385 624.062 290.015C624.432 289.646 624.639 289.145 624.639 288.623V282.715C630.193 282.341 636.593 280.568 639.016 273.341C639.454 272.025 639.627 270.637 639.526 269.254C639.425 267.872 639.05 266.523 638.425 265.286ZM612.409 253.804C610.971 252.948 609.886 251.607 609.348 250.023C608.81 248.438 608.855 246.713 609.475 245.159C609.692 244.568 611.897 239.625 620.701 239.389V256.719C617.763 256.341 614.938 255.348 612.409 253.804ZM635.274 272.001C633.856 276.216 630.705 278.244 624.639 278.697V261.505C625.9 261.78 627.199 262.095 628.578 262.509C629.88 262.805 631.109 263.362 632.189 264.148C633.269 264.933 634.178 265.93 634.86 267.078C635.633 268.603 635.781 270.369 635.274 272.001Z" fill="#111111"/>
</g>
<rect x="570.668" y="206.894" width="106.346" height="106.346" rx="53.1731" stroke="#111111" stroke-width="1.96937"/>
<g clip-path="url(#clip1_369_1943)">
<circle cx="72.4175" cy="53.2828" r="49.2343" stroke="#FDB22D" stroke-width="9.84687"/>
<circle cx="72.4164" cy="53.2828" r="43.3262" stroke="#111111" stroke-width="1.96937"/>
<path d="M87.0011 58.5016C86.087 56.8797 84.8499 55.4626 83.3662 54.3379C81.8825 53.2133 80.1838 52.4051 78.3752 51.9633C76.6783 51.4542 74.956 51.0335 73.2155 50.7029V32.8407C76.6759 33.2118 79.9772 34.4889 82.7866 36.5431C82.9806 36.7151 83.2065 36.8472 83.4515 36.9318C83.6966 37.0165 83.9559 37.0521 84.2146 37.0365C84.4734 37.021 84.7266 36.9546 84.9597 36.8412C85.1928 36.7278 85.4013 36.5696 85.5733 36.3757C85.7453 36.1817 85.8774 35.9558 85.962 35.7108C86.0467 35.4657 86.0823 35.2064 86.0667 34.9477C86.0512 34.6889 85.9848 34.4357 85.8714 34.2026C85.758 33.9695 85.5999 33.761 85.4059 33.589C81.8813 30.8744 77.6488 29.2334 73.2155 28.8625V22.7575C73.2155 22.2351 73.008 21.7342 72.6387 21.3649C72.2693 20.9956 71.7684 20.7881 71.2461 20.7881C70.7238 20.7881 70.2229 20.9956 69.8535 21.3649C69.4842 21.7342 69.2767 22.2351 69.2767 22.7575V28.6656C60.6115 28.8625 55.8259 33.1754 54.3686 36.8976C53.3964 39.2944 53.304 41.958 54.1078 44.4164C54.9117 46.8748 56.5598 48.9693 58.7603 50.3287C61.9633 52.2812 65.5509 53.5174 69.2767 53.9523V71.9918C64.1353 71.733 59.21 69.8429 55.2154 66.5957C55.0371 66.3836 54.8161 66.2114 54.5667 66.0905C54.3174 65.9697 54.0453 65.9028 53.7684 65.8942C53.4914 65.8857 53.2157 65.9357 52.9594 66.041C52.7031 66.1463 52.4719 66.3044 52.2809 66.5052C52.0898 66.706 51.9434 66.9448 51.851 67.206C51.7586 67.4673 51.7224 67.7451 51.7447 68.0213C51.767 68.2975 51.8474 68.5659 51.9805 68.8089C52.1137 69.0519 52.2966 69.2641 52.5174 69.4316C57.228 73.3975 63.1239 75.6838 69.2767 75.9305V81.8387C69.2767 82.361 69.4842 82.8619 69.8535 83.2312C70.2229 83.6006 70.7238 83.808 71.2461 83.808C71.7684 83.808 72.2693 83.6006 72.6387 83.2312C73.008 82.8619 73.2155 82.361 73.2155 81.8387V75.9305C78.7691 75.5564 85.1696 73.7839 87.5919 66.5563C88.0301 65.2412 88.2036 63.8523 88.1022 62.4699C88.0008 61.0874 87.6265 59.7387 87.0011 58.5016ZM60.9857 47.0201C59.5476 46.1641 58.4621 44.8232 57.9242 43.2385C57.3863 41.6537 57.4314 39.9291 58.0513 38.3746C58.2679 37.7838 60.4736 32.8407 69.2767 32.6043V49.9348C66.3389 49.5568 63.5138 48.5636 60.9857 47.0201ZM83.8501 65.2172C82.4321 69.4316 79.2811 71.4601 73.2155 71.913V54.7204C74.4759 54.9961 75.7757 55.3112 77.1542 55.7248C78.4565 56.0205 79.6849 56.5781 80.7649 57.3636C81.845 58.149 82.7539 59.1459 83.4365 60.2937C84.2089 61.8188 84.3573 63.5846 83.8501 65.2172Z" fill="#111111"/>
</g>
<rect x="19.2445" y="0.110083" width="106.346" height="106.346" rx="53.1731" stroke="#111111" stroke-width="1.96937"/>
<path d="M390.551 105.545V123H387.918V105.545H390.551ZM404.999 111.06C404.834 110.543 404.613 110.08 404.334 109.67C404.061 109.256 403.735 108.903 403.354 108.614C402.973 108.318 402.539 108.094 402.05 107.94C401.567 107.787 401.036 107.71 400.456 107.71C399.473 107.71 398.587 107.963 397.797 108.469C397.007 108.974 396.382 109.716 395.922 110.693C395.468 111.665 395.24 112.855 395.24 114.264C395.24 115.679 395.47 116.875 395.931 117.852C396.391 118.83 397.022 119.571 397.823 120.077C398.624 120.582 399.536 120.835 400.559 120.835C401.507 120.835 402.334 120.642 403.039 120.256C403.749 119.869 404.297 119.324 404.684 118.619C405.076 117.909 405.272 117.074 405.272 116.114L405.953 116.241H400.959V114.068H407.82V116.054C407.82 117.52 407.507 118.793 406.882 119.872C406.263 120.946 405.405 121.776 404.309 122.361C403.218 122.946 401.968 123.239 400.559 123.239C398.979 123.239 397.593 122.875 396.399 122.148C395.212 121.42 394.286 120.389 393.621 119.054C392.956 117.713 392.624 116.122 392.624 114.281C392.624 112.889 392.817 111.639 393.203 110.531C393.59 109.423 394.132 108.483 394.831 107.71C395.536 106.932 396.363 106.338 397.311 105.929C398.266 105.514 399.309 105.307 400.439 105.307C401.382 105.307 402.26 105.446 403.073 105.724C403.891 106.003 404.618 106.398 405.255 106.909C405.897 107.42 406.428 108.028 406.848 108.733C407.269 109.432 407.553 110.207 407.701 111.06H404.999ZM415.114 123V105.545H425.938V107.812H417.748V113.131H425.163V115.389H417.748V123H415.114ZM435.245 117.571V109.909H437.802V123H435.296V120.733H435.16C434.858 121.432 434.375 122.014 433.711 122.48C433.052 122.94 432.231 123.17 431.248 123.17C430.407 123.17 429.662 122.986 429.015 122.616C428.373 122.241 427.867 121.688 427.498 120.955C427.134 120.222 426.952 119.315 426.952 118.236V109.909H429.5V117.929C429.5 118.821 429.748 119.531 430.242 120.06C430.736 120.588 431.378 120.852 432.168 120.852C432.645 120.852 433.12 120.733 433.591 120.494C434.069 120.256 434.463 119.895 434.776 119.412C435.094 118.929 435.25 118.315 435.245 117.571ZM446.136 109.909V111.955H438.986V109.909H446.136ZM440.903 106.773H443.452V119.156C443.452 119.651 443.526 120.023 443.673 120.273C443.821 120.517 444.011 120.685 444.244 120.776C444.483 120.861 444.741 120.903 445.02 120.903C445.224 120.903 445.403 120.889 445.557 120.861C445.71 120.832 445.83 120.81 445.915 120.793L446.375 122.898C446.227 122.955 446.017 123.011 445.744 123.068C445.472 123.131 445.131 123.165 444.722 123.17C444.051 123.182 443.426 123.062 442.847 122.812C442.267 122.562 441.798 122.176 441.44 121.653C441.082 121.131 440.903 120.474 440.903 119.685V106.773ZM456.048 117.571V109.909H458.605V123H456.099V120.733H455.963C455.662 121.432 455.179 122.014 454.514 122.48C453.855 122.94 453.034 123.17 452.051 123.17C451.21 123.17 450.465 122.986 449.818 122.616C449.176 122.241 448.67 121.688 448.301 120.955C447.937 120.222 447.755 119.315 447.755 118.236V109.909H450.304V117.929C450.304 118.821 450.551 119.531 451.045 120.06C451.539 120.588 452.181 120.852 452.971 120.852C453.448 120.852 453.923 120.733 454.394 120.494C454.872 120.256 455.267 119.895 455.579 119.412C455.897 118.929 456.054 118.315 456.048 117.571ZM460.829 123V109.909H463.292V111.989H463.428C463.667 111.284 464.087 110.73 464.689 110.327C465.297 109.918 465.985 109.713 466.752 109.713C466.911 109.713 467.099 109.719 467.314 109.73C467.536 109.741 467.709 109.756 467.834 109.773V112.21C467.732 112.182 467.55 112.151 467.289 112.116C467.028 112.077 466.766 112.057 466.505 112.057C465.903 112.057 465.366 112.185 464.894 112.44C464.428 112.69 464.059 113.04 463.786 113.489C463.513 113.932 463.377 114.437 463.377 115.006V123H460.829ZM474.013 123.264C472.723 123.264 471.612 122.989 470.681 122.438C469.754 121.881 469.038 121.099 468.533 120.094C468.033 119.082 467.783 117.898 467.783 116.54C467.783 115.199 468.033 114.017 468.533 112.994C469.038 111.972 469.743 111.173 470.646 110.599C471.556 110.026 472.618 109.739 473.834 109.739C474.573 109.739 475.288 109.861 475.982 110.105C476.675 110.349 477.297 110.733 477.848 111.256C478.399 111.778 478.834 112.457 479.152 113.293C479.47 114.122 479.629 115.131 479.629 116.318V117.222H469.223V115.312H477.132C477.132 114.642 476.996 114.048 476.723 113.531C476.45 113.009 476.067 112.597 475.573 112.295C475.084 111.994 474.51 111.844 473.851 111.844C473.135 111.844 472.51 112.02 471.976 112.372C471.448 112.719 471.038 113.173 470.749 113.736C470.465 114.293 470.323 114.898 470.323 115.551V117.043C470.323 117.918 470.476 118.662 470.783 119.276C471.095 119.889 471.53 120.358 472.087 120.682C472.644 121 473.294 121.159 474.038 121.159C474.521 121.159 474.962 121.091 475.36 120.955C475.757 120.812 476.101 120.602 476.391 120.324C476.681 120.045 476.902 119.702 477.056 119.293L479.467 119.727C479.274 120.437 478.928 121.06 478.428 121.594C477.933 122.122 477.311 122.534 476.561 122.83C475.817 123.119 474.967 123.264 474.013 123.264Z" fill="#1E1E1E"/>
<path d="M397.187 178.455V143.909H399.4V178.455H397.187ZM404.109 154.624C403.965 153.346 403.372 152.357 402.328 151.655C401.285 150.944 399.971 150.589 398.388 150.589C397.254 150.589 396.274 150.769 395.446 151.129C394.618 151.479 393.975 151.965 393.516 152.586C393.067 153.198 392.842 153.895 392.842 154.678C392.842 155.334 392.995 155.901 393.3 156.378C393.615 156.855 394.025 157.255 394.528 157.579C395.041 157.894 395.59 158.159 396.175 158.375C396.759 158.582 397.322 158.753 397.862 158.888L400.56 159.589C401.442 159.805 402.346 160.098 403.273 160.467C404.199 160.835 405.058 161.321 405.85 161.924C406.642 162.527 407.281 163.273 407.766 164.164C408.261 165.055 408.509 166.121 408.509 167.362C408.509 168.928 408.104 170.317 407.294 171.532C406.493 172.746 405.328 173.705 403.799 174.406C402.279 175.108 400.439 175.459 398.28 175.459C396.211 175.459 394.42 175.13 392.909 174.474C391.398 173.817 390.215 172.886 389.36 171.68C388.505 170.466 388.033 169.027 387.943 167.362H392.126C392.207 168.361 392.531 169.193 393.098 169.859C393.674 170.515 394.407 171.006 395.298 171.33C396.197 171.644 397.182 171.802 398.253 171.802C399.431 171.802 400.479 171.617 401.397 171.249C402.324 170.871 403.052 170.349 403.583 169.683C404.114 169.009 404.379 168.221 404.379 167.322C404.379 166.503 404.145 165.833 403.678 165.311C403.219 164.789 402.594 164.357 401.802 164.016C401.019 163.674 400.133 163.372 399.143 163.112L395.878 162.221C393.665 161.618 391.911 160.732 390.615 159.562C389.329 158.393 388.685 156.846 388.685 154.92C388.685 153.328 389.117 151.938 389.981 150.751C390.844 149.563 392.014 148.641 393.489 147.984C394.965 147.319 396.629 146.986 398.482 146.986C400.353 146.986 402.004 147.314 403.435 147.971C404.874 148.628 406.008 149.532 406.835 150.683C407.663 151.826 408.095 153.139 408.131 154.624H404.109ZM411.963 169.602V166.229L423.906 147.364H426.564V152.33H424.877L416.335 165.851V166.067H432.704V169.602H411.963ZM425.066 175V168.577L425.093 167.038V147.364H429.047V175H425.066ZM446.951 147.364V175H442.767V151.547H442.606L435.993 155.865V151.871L442.889 147.364H446.951ZM457.564 171.222L457.362 172.692C457.227 173.772 456.997 174.897 456.674 176.066C456.359 177.245 456.03 178.338 455.688 179.345C455.356 180.353 455.081 181.153 454.865 181.747H452.004C452.121 181.189 452.283 180.434 452.49 179.48C452.697 178.536 452.9 177.478 453.098 176.309C453.295 175.139 453.444 173.947 453.543 172.733L453.678 171.222H457.564ZM471.258 175.459C469.126 175.45 467.304 174.888 465.792 173.772C464.281 172.656 463.125 171.033 462.324 168.901C461.524 166.768 461.123 164.2 461.123 161.195C461.123 158.2 461.524 155.64 462.324 153.517C463.134 151.394 464.295 149.775 465.806 148.659C467.326 147.544 469.144 146.986 471.258 146.986C473.372 146.986 475.184 147.548 476.696 148.673C478.207 149.788 479.363 151.407 480.164 153.531C480.974 155.645 481.378 158.2 481.378 161.195C481.378 164.209 480.978 166.782 480.177 168.914C479.377 171.037 478.221 172.661 476.709 173.786C475.198 174.901 473.381 175.459 471.258 175.459ZM471.258 171.856C473.129 171.856 474.591 170.943 475.643 169.116C476.705 167.29 477.236 164.65 477.236 161.195C477.236 158.901 476.993 156.963 476.507 155.379C476.03 153.787 475.342 152.581 474.442 151.763C473.552 150.935 472.49 150.521 471.258 150.521C469.395 150.521 467.934 151.439 466.872 153.274C465.81 155.109 465.275 157.75 465.266 161.195C465.266 163.498 465.505 165.446 465.981 167.038C466.467 168.622 467.155 169.823 468.046 170.641C468.937 171.451 470.007 171.856 471.258 171.856ZM495.217 175.459C493.085 175.45 491.263 174.888 489.752 173.772C488.24 172.656 487.084 171.033 486.284 168.901C485.483 166.768 485.083 164.2 485.083 161.195C485.083 158.2 485.483 155.64 486.284 153.517C487.093 151.394 488.254 149.775 489.765 148.659C491.286 147.544 493.103 146.986 495.217 146.986C497.331 146.986 499.144 147.548 500.655 148.673C502.167 149.788 503.323 151.407 504.123 153.531C504.933 155.645 505.338 158.2 505.338 161.195C505.338 164.209 504.937 166.782 504.137 168.914C503.336 171.037 502.18 172.661 500.669 173.786C499.157 174.901 497.34 175.459 495.217 175.459ZM495.217 171.856C497.088 171.856 498.55 170.943 499.603 169.116C500.664 167.29 501.195 164.65 501.195 161.195C501.195 158.901 500.952 156.963 500.466 155.379C499.989 153.787 499.301 152.581 498.402 151.763C497.511 150.935 496.449 150.521 495.217 150.521C493.355 150.521 491.893 151.439 490.831 153.274C489.77 155.109 489.234 157.75 489.225 161.195C489.225 163.498 489.464 165.446 489.941 167.038C490.426 168.622 491.115 169.823 492.005 170.641C492.896 171.451 493.966 171.856 495.217 171.856ZM519.176 175.459C517.044 175.45 515.222 174.888 513.711 173.772C512.2 172.656 511.044 171.033 510.243 168.901C509.442 166.768 509.042 164.2 509.042 161.195C509.042 158.2 509.442 155.64 510.243 153.517C511.053 151.394 512.213 149.775 513.725 148.659C515.245 147.544 517.062 146.986 519.176 146.986C521.29 146.986 523.103 147.548 524.614 148.673C526.126 149.788 527.282 151.407 528.082 153.531C528.892 155.645 529.297 158.2 529.297 161.195C529.297 164.209 528.897 166.782 528.096 168.914C527.295 171.037 526.139 172.661 524.628 173.786C523.117 174.901 521.299 175.459 519.176 175.459ZM519.176 171.856C521.047 171.856 522.509 170.943 523.562 169.116C524.623 167.29 525.154 164.65 525.154 161.195C525.154 158.901 524.911 156.963 524.426 155.379C523.949 153.787 523.261 152.581 522.361 151.763C521.47 150.935 520.409 150.521 519.176 150.521C517.314 150.521 515.852 151.439 514.791 153.274C513.729 155.109 513.194 157.75 513.185 161.195C513.185 163.498 513.423 165.446 513.9 167.038C514.386 168.622 515.074 169.823 515.965 170.641C516.855 171.451 517.926 171.856 519.176 171.856ZM543.055 175V154.273H547.09V175H543.055ZM545.092 151.075C544.391 151.075 543.788 150.841 543.284 150.373C542.789 149.896 542.542 149.329 542.542 148.673C542.542 148.007 542.789 147.44 543.284 146.972C543.788 146.496 544.391 146.257 545.092 146.257C545.794 146.257 546.392 146.496 546.887 146.972C547.391 147.44 547.643 148.007 547.643 148.673C547.643 149.329 547.391 149.896 546.887 150.373C546.392 150.841 545.794 151.075 545.092 151.075ZM555.982 162.693V175H551.948V154.273H555.82V157.646H556.077C556.554 156.549 557.3 155.667 558.317 155.001C559.342 154.336 560.633 154.003 562.19 154.003C563.602 154.003 564.839 154.3 565.901 154.893C566.962 155.478 567.785 156.351 568.37 157.511C568.955 158.672 569.247 160.107 569.247 161.816V175H565.213V162.302C565.213 160.799 564.821 159.625 564.038 158.78C563.256 157.925 562.181 157.498 560.813 157.498C559.878 157.498 559.046 157.7 558.317 158.105C557.597 158.51 557.026 159.104 556.603 159.886C556.189 160.66 555.982 161.596 555.982 162.693ZM589.607 175.459C588.294 175.459 587.106 175.216 586.045 174.73C584.983 174.235 584.142 173.52 583.521 172.585C582.909 171.649 582.604 170.502 582.604 169.143C582.604 167.974 582.828 167.011 583.278 166.256C583.728 165.5 584.335 164.902 585.1 164.461C585.865 164.02 586.719 163.687 587.664 163.462C588.609 163.237 589.571 163.067 590.552 162.95C591.793 162.806 592.801 162.689 593.574 162.599C594.348 162.5 594.91 162.342 595.261 162.126C595.612 161.911 595.788 161.56 595.788 161.074V160.979C595.788 159.801 595.455 158.888 594.789 158.24C594.132 157.592 593.152 157.268 591.847 157.268C590.489 157.268 589.418 157.57 588.636 158.173C587.862 158.766 587.327 159.428 587.03 160.156L583.238 159.293C583.688 158.033 584.344 157.017 585.208 156.243C586.081 155.46 587.084 154.893 588.217 154.543C589.351 154.183 590.543 154.003 591.793 154.003C592.621 154.003 593.498 154.102 594.425 154.3C595.36 154.489 596.233 154.839 597.042 155.352C597.861 155.865 598.531 156.598 599.053 157.552C599.575 158.496 599.836 159.724 599.836 161.236V175H595.895V172.166H595.734C595.473 172.688 595.081 173.201 594.56 173.705C594.038 174.208 593.368 174.627 592.549 174.96C591.73 175.292 590.75 175.459 589.607 175.459ZM590.484 172.22C591.6 172.22 592.553 172 593.345 171.559C594.146 171.118 594.753 170.542 595.167 169.832C595.59 169.112 595.801 168.343 595.801 167.524V164.852C595.657 164.996 595.378 165.131 594.964 165.257C594.56 165.374 594.096 165.478 593.574 165.567C593.053 165.648 592.544 165.725 592.05 165.797C591.555 165.86 591.141 165.914 590.808 165.959C590.025 166.058 589.31 166.224 588.663 166.458C588.024 166.692 587.511 167.029 587.124 167.47C586.746 167.902 586.557 168.478 586.557 169.197C586.557 170.196 586.926 170.952 587.664 171.464C588.402 171.968 589.342 172.22 590.484 172.22ZM616.677 182.773C616.074 182.773 615.525 182.723 615.031 182.624C614.536 182.534 614.167 182.435 613.924 182.327L614.896 179.021C615.633 179.219 616.29 179.305 616.866 179.278C617.442 179.251 617.95 179.035 618.391 178.63C618.841 178.225 619.236 177.564 619.578 176.646L620.078 175.27L612.494 154.273H616.812L622.061 170.358H622.277L627.526 154.273H631.858L623.316 177.766C622.92 178.846 622.417 179.759 621.805 180.506C621.193 181.261 620.464 181.828 619.619 182.206C618.773 182.584 617.793 182.773 616.677 182.773ZM643.308 175.418C641.266 175.418 639.507 174.982 638.032 174.109C636.566 173.228 635.432 171.991 634.631 170.398C633.84 168.797 633.444 166.921 633.444 164.771C633.444 162.648 633.84 160.777 634.631 159.158C635.432 157.538 636.548 156.274 637.978 155.366C639.417 154.457 641.1 154.003 643.025 154.003C644.194 154.003 645.328 154.196 646.425 154.583C647.523 154.97 648.508 155.577 649.381 156.405C650.253 157.232 650.941 158.308 651.445 159.63C651.949 160.943 652.201 162.54 652.201 164.42V165.851H635.724V162.828H648.247C648.247 161.767 648.031 160.826 647.599 160.008C647.168 159.18 646.56 158.528 645.778 158.051C645.004 157.574 644.095 157.336 643.052 157.336C641.918 157.336 640.929 157.615 640.083 158.173C639.246 158.721 638.599 159.441 638.14 160.332C637.69 161.213 637.465 162.171 637.465 163.206V165.567C637.465 166.953 637.708 168.131 638.194 169.103C638.689 170.075 639.377 170.817 640.258 171.33C641.14 171.833 642.17 172.085 643.349 172.085C644.113 172.085 644.811 171.977 645.44 171.761C646.07 171.536 646.614 171.204 647.073 170.763C647.532 170.322 647.883 169.778 648.126 169.13L651.945 169.818C651.639 170.943 651.09 171.928 650.298 172.773C649.516 173.61 648.53 174.262 647.343 174.73C646.164 175.189 644.82 175.418 643.308 175.418ZM662.14 175.459C660.826 175.459 659.639 175.216 658.577 174.73C657.516 174.235 656.674 173.52 656.054 172.585C655.442 171.649 655.136 170.502 655.136 169.143C655.136 167.974 655.361 167.011 655.811 166.256C656.261 165.5 656.868 164.902 657.633 164.461C658.397 164.02 659.252 163.687 660.196 163.462C661.141 163.237 662.104 163.067 663.084 162.95C664.326 162.806 665.333 162.689 666.107 162.599C666.881 162.5 667.443 162.342 667.794 162.126C668.145 161.911 668.32 161.56 668.32 161.074V160.979C668.32 159.801 667.987 158.888 667.321 158.24C666.665 157.592 665.684 157.268 664.38 157.268C663.021 157.268 661.951 157.57 661.168 158.173C660.394 158.766 659.859 159.428 659.562 160.156L655.77 159.293C656.22 158.033 656.877 157.017 657.74 156.243C658.613 155.46 659.616 154.893 660.75 154.543C661.883 154.183 663.075 154.003 664.326 154.003C665.153 154.003 666.031 154.102 666.957 154.3C667.893 154.489 668.765 154.839 669.575 155.352C670.394 155.865 671.064 156.598 671.586 157.552C672.107 158.496 672.368 159.724 672.368 161.236V175H668.428V172.166H668.266C668.005 172.688 667.614 173.201 667.092 173.705C666.57 174.208 665.9 174.627 665.081 174.96C664.263 175.292 663.282 175.459 662.14 175.459ZM663.017 172.22C664.132 172.22 665.086 172 665.878 171.559C666.678 171.118 667.285 170.542 667.699 169.832C668.122 169.112 668.334 168.343 668.334 167.524V164.852C668.19 164.996 667.911 165.131 667.497 165.257C667.092 165.374 666.629 165.478 666.107 165.567C665.585 165.648 665.077 165.725 664.582 165.797C664.087 165.86 663.673 165.914 663.341 165.959C662.558 166.058 661.843 166.224 661.195 166.458C660.556 166.692 660.044 167.029 659.657 167.47C659.279 167.902 659.09 168.478 659.09 169.197C659.09 170.196 659.459 170.952 660.196 171.464C660.934 171.968 661.874 172.22 663.017 172.22ZM677.172 175V154.273H681.072V157.565H681.288C681.666 156.45 682.332 155.573 683.285 154.934C684.248 154.286 685.337 153.962 686.551 153.962C686.803 153.962 687.1 153.971 687.442 153.989C687.792 154.007 688.067 154.03 688.265 154.057V157.916C688.103 157.871 687.815 157.822 687.401 157.768C686.987 157.705 686.573 157.673 686.16 157.673C685.206 157.673 684.356 157.876 683.609 158.281C682.872 158.676 682.287 159.23 681.855 159.94C681.423 160.642 681.207 161.443 681.207 162.342V175H677.172Z" fill="#2D5551"/>
<path d="M163.551 3.54545V21H160.918V3.54545H163.551ZM177.999 9.05966C177.834 8.54261 177.613 8.07955 177.334 7.67045C177.061 7.25568 176.735 6.90341 176.354 6.61364C175.973 6.31818 175.539 6.09375 175.05 5.94034C174.567 5.78693 174.036 5.71023 173.456 5.71023C172.473 5.71023 171.587 5.96307 170.797 6.46875C170.007 6.97443 169.382 7.71591 168.922 8.69318C168.468 9.66477 168.24 10.8551 168.24 12.2642C168.24 13.679 168.47 14.875 168.931 15.8523C169.391 16.8295 170.022 17.571 170.823 18.0767C171.624 18.5824 172.536 18.8352 173.559 18.8352C174.507 18.8352 175.334 18.642 176.039 18.2557C176.749 17.8693 177.297 17.3239 177.684 16.6193C178.076 15.9091 178.272 15.0739 178.272 14.1136L178.953 14.2415H173.959V12.0682H180.82V14.054C180.82 15.5199 180.507 16.7926 179.882 17.8722C179.263 18.946 178.405 19.7756 177.309 20.3608C176.218 20.946 174.968 21.2386 173.559 21.2386C171.979 21.2386 170.593 20.875 169.399 20.1477C168.212 19.4205 167.286 18.3892 166.621 17.054C165.956 15.7131 165.624 14.1222 165.624 12.2812C165.624 10.8892 165.817 9.6392 166.203 8.53125C166.59 7.4233 167.132 6.48295 167.831 5.71023C168.536 4.93182 169.363 4.33807 170.311 3.92898C171.266 3.5142 172.309 3.30682 173.439 3.30682C174.382 3.30682 175.26 3.44602 176.073 3.72443C176.891 4.00284 177.618 4.39773 178.255 4.90909C178.897 5.42045 179.428 6.02841 179.848 6.73295C180.269 7.43182 180.553 8.20739 180.701 9.05966H177.999ZM190.748 3.54545V21H188.114V3.54545H190.748ZM195.727 13.2273V21H193.179V7.90909H195.625V10.0398H195.787C196.088 9.34659 196.559 8.78977 197.201 8.36932C197.849 7.94886 198.664 7.73864 199.647 7.73864C200.539 7.73864 201.321 7.92614 201.991 8.30114C202.662 8.67045 203.182 9.22159 203.551 9.95455C203.92 10.6875 204.105 11.5937 204.105 12.6733V21H201.557V12.9801C201.557 12.0312 201.309 11.2898 200.815 10.7557C200.321 10.2159 199.642 9.94602 198.778 9.94602C198.187 9.94602 197.662 10.0739 197.201 10.3295C196.747 10.5852 196.386 10.9602 196.119 11.4545C195.858 11.9432 195.727 12.5341 195.727 13.2273ZM211.223 21.2557C210.166 21.2557 209.223 20.9858 208.393 20.446C207.57 19.9006 206.922 19.125 206.45 18.1193C205.984 17.108 205.751 15.8949 205.751 14.4801C205.751 13.0653 205.987 11.8551 206.459 10.8494C206.936 9.84375 207.589 9.07386 208.419 8.53977C209.249 8.00568 210.189 7.73864 211.24 7.73864C212.053 7.73864 212.706 7.875 213.2 8.14773C213.7 8.41477 214.087 8.72727 214.359 9.08523C214.638 9.44318 214.854 9.75852 215.007 10.0312H215.161V3.54545H217.709V21H215.22V18.9631H215.007C214.854 19.2415 214.632 19.5597 214.342 19.9176C214.058 20.2756 213.666 20.5881 213.166 20.8551C212.666 21.1222 212.018 21.2557 211.223 21.2557ZM211.786 19.0824C212.518 19.0824 213.138 18.8892 213.643 18.5028C214.155 18.1108 214.541 17.5682 214.803 16.875C215.07 16.1818 215.203 15.375 215.203 14.4545C215.203 13.5455 215.072 12.75 214.811 12.0682C214.55 11.3864 214.166 10.8551 213.661 10.4744C213.155 10.0937 212.53 9.90341 211.786 9.90341C211.018 9.90341 210.379 10.1023 209.868 10.5C209.357 10.8977 208.97 11.4403 208.709 12.1278C208.453 12.8153 208.325 13.5909 208.325 14.4545C208.325 15.3295 208.456 16.1165 208.717 16.8153C208.979 17.5142 209.365 18.0682 209.876 18.4773C210.393 18.8807 211.03 19.0824 211.786 19.0824ZM225.788 21.2642C224.498 21.2642 223.387 20.9886 222.456 20.4375C221.529 19.8807 220.813 19.0994 220.308 18.0938C219.808 17.0824 219.558 15.8977 219.558 14.5398C219.558 13.1989 219.808 12.017 220.308 10.9943C220.813 9.97159 221.518 9.1733 222.421 8.59943C223.331 8.02557 224.393 7.73864 225.609 7.73864C226.348 7.73864 227.063 7.8608 227.757 8.10511C228.45 8.34943 229.072 8.73295 229.623 9.25568C230.174 9.77841 230.609 10.4574 230.927 11.2926C231.245 12.1222 231.404 13.1307 231.404 14.3182V15.2216H220.998V13.3125H228.907C228.907 12.642 228.771 12.0483 228.498 11.5312C228.225 11.0085 227.842 10.5966 227.348 10.2955C226.859 9.99432 226.285 9.84375 225.626 9.84375C224.91 9.84375 224.285 10.0199 223.751 10.3722C223.223 10.7187 222.813 11.1733 222.524 11.7358C222.24 12.2926 222.098 12.8977 222.098 13.5511V15.0426C222.098 15.9176 222.251 16.6619 222.558 17.2756C222.87 17.8892 223.305 18.358 223.862 18.6818C224.419 19 225.069 19.1591 225.813 19.1591C226.296 19.1591 226.737 19.0909 227.135 18.9545C227.532 18.8125 227.876 18.6023 228.166 18.3239C228.456 18.0455 228.677 17.7017 228.831 17.2926L231.242 17.7273C231.049 18.4375 230.703 19.0597 230.203 19.5938C229.708 20.1222 229.086 20.5341 228.336 20.8295C227.592 21.1193 226.742 21.2642 225.788 21.2642ZM234.738 7.90909L237.628 13.0057L240.542 7.90909H243.329L239.247 14.4545L243.363 21H240.577L237.628 16.108L234.687 21H231.892L235.966 14.4545L231.943 7.90909H234.738Z" fill="#1E1E1E"/>
<path d="M172.143 45.3636V73H167.96V49.5469H167.798L161.186 53.8651V49.8707L168.082 45.3636H172.143ZM188.171 73.3778C186.48 73.3778 184.96 73.054 183.61 72.4062C182.27 71.7495 181.199 70.8499 180.399 69.7074C179.598 68.5649 179.171 67.2604 179.117 65.794H183.165C183.264 66.9815 183.79 67.9576 184.744 68.7223C185.698 69.487 186.84 69.8693 188.171 69.8693C189.233 69.8693 190.173 69.6264 190.992 69.1406C191.819 68.6458 192.467 67.9666 192.935 67.103C193.412 66.2393 193.65 65.2543 193.65 64.1477C193.65 63.0232 193.407 62.0201 192.921 61.1385C192.436 60.2569 191.765 59.5642 190.911 59.0604C190.065 58.5566 189.094 58.3002 187.996 58.2912C187.159 58.2912 186.318 58.4351 185.473 58.723C184.627 59.0109 183.943 59.3887 183.421 59.8565L179.603 59.2898L181.154 45.3636H196.349V48.9396H184.622L183.745 56.6719H183.907C184.447 56.1501 185.162 55.7138 186.053 55.3629C186.952 55.0121 187.915 54.8366 188.941 54.8366C190.623 54.8366 192.121 55.237 193.434 56.0376C194.757 56.8383 195.796 57.9313 196.551 59.3168C197.316 60.6932 197.694 62.2765 197.685 64.0668C197.694 65.857 197.289 67.4538 196.47 68.8572C195.661 70.2607 194.536 71.3672 193.097 72.1768C191.667 72.9775 190.025 73.3778 188.171 73.3778ZM206.345 69.2216L206.143 70.6925C206.008 71.772 205.778 72.8965 205.454 74.0661C205.14 75.2446 204.811 76.3376 204.469 77.3452C204.137 78.3527 203.862 79.1534 203.646 79.7472H200.785C200.902 79.1894 201.064 78.4337 201.271 77.4801C201.478 76.5355 201.681 75.4785 201.878 74.3089C202.076 73.1394 202.225 71.9474 202.324 70.733L202.459 69.2216H206.345ZM219.829 73.3778C217.895 73.3778 216.186 73.045 214.702 72.3793C213.226 71.7135 212.07 70.7959 211.234 69.6264C210.397 68.4569 209.983 67.1255 209.992 65.6321C209.983 64.4626 210.221 63.3875 210.707 62.407C211.202 61.4174 211.872 60.5942 212.718 59.9375C213.564 59.2718 214.508 58.849 215.552 58.669V58.5071C214.175 58.1742 213.073 57.4366 212.246 56.294C211.418 55.1515 211.009 53.8381 211.018 52.3537C211.009 50.9413 211.382 49.6818 212.138 48.5753C212.902 47.4598 213.95 46.5826 215.282 45.9439C216.613 45.3052 218.129 44.9858 219.829 44.9858C221.512 44.9858 223.014 45.3097 224.337 45.9574C225.668 46.5961 226.716 47.4732 227.481 48.5888C228.245 49.6953 228.632 50.9503 228.641 52.3537C228.632 53.8381 228.209 55.1515 227.373 56.294C226.536 57.4366 225.448 58.1742 224.107 58.5071V58.669C225.142 58.849 226.073 59.2718 226.9 59.9375C227.737 60.5942 228.403 61.4174 228.898 62.407C229.401 63.3875 229.658 64.4626 229.667 65.6321C229.658 67.1255 229.235 68.4569 228.398 69.6264C227.562 70.7959 226.401 71.7135 224.917 72.3793C223.441 73.045 221.746 73.3778 219.829 73.3778ZM219.829 69.9638C220.972 69.9638 221.962 69.7749 222.798 69.397C223.635 69.0102 224.283 68.4749 224.741 67.7912C225.2 67.0985 225.434 66.2888 225.443 65.3622C225.434 64.3996 225.182 63.5495 224.687 62.8118C224.202 62.0741 223.54 61.4938 222.704 61.071C221.867 60.6482 220.909 60.4368 219.829 60.4368C218.741 60.4368 217.774 60.6482 216.928 61.071C216.082 61.4938 215.417 62.0741 214.931 62.8118C214.445 63.5495 214.207 64.3996 214.216 65.3622C214.207 66.2888 214.427 67.0985 214.877 67.7912C215.336 68.4749 215.988 69.0102 216.834 69.397C217.679 69.7749 218.678 69.9638 219.829 69.9638ZM219.829 57.1037C220.747 57.1037 221.561 56.9193 222.272 56.5504C222.983 56.1816 223.54 55.6688 223.945 55.0121C224.359 54.3553 224.57 53.5862 224.579 52.7045C224.57 51.8409 224.364 51.0852 223.959 50.4375C223.563 49.7898 223.01 49.2905 222.299 48.9396C221.588 48.5798 220.765 48.3999 219.829 48.3999C218.876 48.3999 218.039 48.5798 217.319 48.9396C216.609 49.2905 216.056 49.7898 215.66 50.4375C215.264 51.0852 215.07 51.8409 215.079 52.7045C215.07 53.5862 215.268 54.3553 215.673 55.0121C216.078 55.6688 216.636 56.1816 217.346 56.5504C218.066 56.9193 218.894 57.1037 219.829 57.1037ZM243.553 73.4588C241.42 73.4498 239.599 72.8875 238.087 71.772C236.576 70.6565 235.42 69.0327 234.619 66.9006C233.819 64.7685 233.418 62.2 233.418 59.1953C233.418 56.1996 233.819 53.6402 234.619 51.517C235.429 49.3939 236.589 47.7746 238.101 46.6591C239.621 45.5436 241.438 44.9858 243.553 44.9858C245.667 44.9858 247.479 45.5481 248.991 46.6726C250.502 47.7881 251.658 49.4074 252.459 51.5305C253.268 53.6446 253.673 56.1996 253.673 59.1953C253.673 62.209 253.273 64.782 252.472 66.9141C251.672 69.0372 250.516 70.661 249.004 71.7855C247.493 72.901 245.676 73.4588 243.553 73.4588ZM243.553 69.8558C245.424 69.8558 246.886 68.9427 247.938 67.1165C249 65.2902 249.531 62.6499 249.531 59.1953C249.531 56.9013 249.288 54.9626 248.802 53.3793C248.325 51.7869 247.637 50.5814 246.737 49.7628C245.847 48.9351 244.785 48.5213 243.553 48.5213C241.69 48.5213 240.228 49.4389 239.167 51.2741C238.105 53.1094 237.57 55.7498 237.561 59.1953C237.561 61.4983 237.799 63.446 238.276 65.0384C238.762 66.6217 239.45 67.8227 240.341 68.6413C241.232 69.451 242.302 69.8558 243.553 69.8558ZM267.512 73.4588C265.38 73.4498 263.558 72.8875 262.047 71.772C260.535 70.6565 259.379 69.0327 258.579 66.9006C257.778 64.7685 257.378 62.2 257.378 59.1953C257.378 56.1996 257.778 53.6402 258.579 51.517C259.388 49.3939 260.549 47.7746 262.06 46.6591C263.581 45.5436 265.398 44.9858 267.512 44.9858C269.626 44.9858 271.439 45.5481 272.95 46.6726C274.461 47.7881 275.617 49.4074 276.418 51.5305C277.228 53.6446 277.633 56.1996 277.633 59.1953C277.633 62.209 277.232 64.782 276.432 66.9141C275.631 69.0372 274.475 70.661 272.964 71.7855C271.452 72.901 269.635 73.4588 267.512 73.4588ZM267.512 69.8558C269.383 69.8558 270.845 68.9427 271.898 67.1165C272.959 65.2902 273.49 62.6499 273.49 59.1953C273.49 56.9013 273.247 54.9626 272.761 53.3793C272.284 51.7869 271.596 50.5814 270.697 49.7628C269.806 48.9351 268.744 48.5213 267.512 48.5213C265.65 48.5213 264.188 49.4389 263.126 51.2741C262.065 53.1094 261.529 55.7498 261.52 59.1953C261.52 61.4983 261.759 63.446 262.236 65.0384C262.721 66.6217 263.41 67.8227 264.3 68.6413C265.191 69.451 266.261 69.8558 267.512 69.8558ZM291.39 73V52.2727H295.425V73H291.39ZM293.428 49.0746C292.726 49.0746 292.124 48.8407 291.62 48.3729C291.125 47.8961 290.878 47.3293 290.878 46.6726C290.878 46.0069 291.125 45.4401 291.62 44.9723C292.124 44.4955 292.726 44.2571 293.428 44.2571C294.13 44.2571 294.728 44.4955 295.223 44.9723C295.726 45.4401 295.978 46.0069 295.978 46.6726C295.978 47.3293 295.726 47.8961 295.223 48.3729C294.728 48.8407 294.13 49.0746 293.428 49.0746ZM304.318 60.6932V73H300.283V52.2727H304.156V55.6463H304.412C304.889 54.5488 305.636 53.6671 306.653 53.0014C307.678 52.3357 308.969 52.0028 310.525 52.0028C311.938 52.0028 313.175 52.2997 314.236 52.8935C315.298 53.4782 316.121 54.3509 316.706 55.5114C317.291 56.6719 317.583 58.1068 317.583 59.8161V73H313.548V60.3018C313.548 58.7995 313.157 57.6255 312.374 56.7798C311.591 55.9252 310.516 55.4979 309.149 55.4979C308.213 55.4979 307.381 55.7003 306.653 56.1051C305.933 56.5099 305.362 57.1037 304.939 57.8864C304.525 58.66 304.318 59.5956 304.318 60.6932ZM337.943 73.4588C336.629 73.4588 335.442 73.2159 334.38 72.7301C333.319 72.2353 332.478 71.5201 331.857 70.5845C331.245 69.6489 330.939 68.5019 330.939 67.1435C330.939 65.974 331.164 65.0114 331.614 64.2557C332.064 63.5 332.671 62.9018 333.436 62.4609C334.2 62.0201 335.055 61.6873 336 61.4624C336.944 61.2375 337.907 61.0665 338.887 60.9496C340.129 60.8056 341.136 60.6887 341.91 60.5987C342.684 60.4998 343.246 60.3423 343.597 60.1264C343.948 59.9105 344.123 59.5597 344.123 59.0739V58.9794C344.123 57.8009 343.79 56.8878 343.125 56.2401C342.468 55.5923 341.487 55.2685 340.183 55.2685C338.824 55.2685 337.754 55.5698 336.971 56.1726C336.197 56.7663 335.662 57.4276 335.365 58.1562L331.573 57.2926C332.023 56.0331 332.68 55.0166 333.544 54.2429C334.416 53.4602 335.419 52.8935 336.553 52.5426C337.686 52.1828 338.878 52.0028 340.129 52.0028C340.956 52.0028 341.834 52.1018 342.76 52.2997C343.696 52.4886 344.568 52.8395 345.378 53.3523C346.197 53.8651 346.867 54.5982 347.389 55.5518C347.911 56.4964 348.171 57.7244 348.171 59.2358V73H344.231V70.1662H344.069C343.808 70.688 343.417 71.2008 342.895 71.7045C342.373 72.2083 341.703 72.6267 340.885 72.9595C340.066 73.2924 339.085 73.4588 337.943 73.4588ZM338.82 70.2202C339.935 70.2202 340.889 69.9998 341.681 69.5589C342.481 69.1181 343.089 68.5424 343.502 67.8317C343.925 67.112 344.137 66.3428 344.137 65.5241V62.8523C343.993 62.9962 343.714 63.1312 343.3 63.2571C342.895 63.3741 342.432 63.4775 341.91 63.5675C341.388 63.6484 340.88 63.7249 340.385 63.7969C339.89 63.8598 339.477 63.9138 339.144 63.9588C338.361 64.0578 337.646 64.2242 336.998 64.4581C336.359 64.692 335.847 65.0294 335.46 65.4702C335.082 65.902 334.893 66.4777 334.893 67.1974C334.893 68.196 335.262 68.9517 336 69.4645C336.737 69.9683 337.677 70.2202 338.82 70.2202ZM365.013 80.7727C364.41 80.7727 363.861 80.7232 363.366 80.6243C362.872 80.5343 362.503 80.4354 362.26 80.3274L363.231 77.0213C363.969 77.2192 364.626 77.3047 365.202 77.2777C365.777 77.2507 366.286 77.0348 366.726 76.63C367.176 76.2251 367.572 75.5639 367.914 74.6463L368.413 73.2699L360.829 52.2727H365.148L370.397 68.358H370.613L375.862 52.2727H380.194L371.652 75.7663C371.256 76.8459 370.752 77.759 370.14 78.5057C369.529 79.2614 368.8 79.8281 367.954 80.206C367.109 80.5838 366.128 80.7727 365.013 80.7727ZM391.644 73.4183C389.602 73.4183 387.843 72.982 386.368 72.1094C384.901 71.2277 383.768 69.9908 382.967 68.3984C382.175 66.7971 381.779 64.9214 381.779 62.7713C381.779 60.6482 382.175 58.777 382.967 57.1577C383.768 55.5384 384.883 54.2744 386.314 53.3658C387.753 52.4571 389.435 52.0028 391.36 52.0028C392.53 52.0028 393.663 52.1963 394.761 52.5831C395.859 52.9699 396.844 53.5772 397.716 54.4048C398.589 55.2325 399.277 56.3075 399.781 57.63C400.285 58.9434 400.537 60.5402 400.537 62.4205V63.8509H384.06V60.8281H396.583C396.583 59.7666 396.367 58.8265 395.935 58.0078C395.503 57.1802 394.896 56.5279 394.113 56.0511C393.34 55.5743 392.431 55.3359 391.387 55.3359C390.254 55.3359 389.264 55.6148 388.419 56.1726C387.582 56.7214 386.934 57.4411 386.475 58.3317C386.026 59.2133 385.801 60.1714 385.801 61.206V63.5675C385.801 64.9529 386.044 66.1314 386.529 67.103C387.024 68.0746 387.712 68.8168 388.594 69.3295C389.476 69.8333 390.506 70.0852 391.684 70.0852C392.449 70.0852 393.146 69.9773 393.776 69.7614C394.406 69.5365 394.95 69.2036 395.409 68.7628C395.868 68.322 396.218 67.7777 396.461 67.13L400.28 67.8182C399.974 68.9427 399.426 69.9278 398.634 70.7734C397.851 71.6101 396.866 72.2623 395.679 72.7301C394.5 73.1889 393.155 73.4183 391.644 73.4183ZM410.475 73.4588C409.162 73.4588 407.974 73.2159 406.913 72.7301C405.851 72.2353 405.01 71.5201 404.389 70.5845C403.778 69.6489 403.472 68.5019 403.472 67.1435C403.472 65.974 403.697 65.0114 404.146 64.2557C404.596 63.5 405.203 62.9018 405.968 62.4609C406.733 62.0201 407.587 61.6873 408.532 61.4624C409.477 61.2375 410.439 61.0665 411.42 60.9496C412.661 60.8056 413.669 60.6887 414.443 60.5987C415.216 60.4998 415.779 60.3423 416.129 60.1264C416.48 59.9105 416.656 59.5597 416.656 59.0739V58.9794C416.656 57.8009 416.323 56.8878 415.657 56.2401C415 55.5923 414.02 55.2685 412.715 55.2685C411.357 55.2685 410.286 55.5698 409.504 56.1726C408.73 56.7663 408.195 57.4276 407.898 58.1562L404.106 57.2926C404.556 56.0331 405.212 55.0166 406.076 54.2429C406.949 53.4602 407.952 52.8935 409.085 52.5426C410.219 52.1828 411.411 52.0028 412.661 52.0028C413.489 52.0028 414.366 52.1018 415.293 52.2997C416.228 52.4886 417.101 52.8395 417.911 53.3523C418.729 53.8651 419.4 54.5982 419.921 55.5518C420.443 56.4964 420.704 57.7244 420.704 59.2358V73H416.764V70.1662H416.602C416.341 70.688 415.949 71.2008 415.428 71.7045C414.906 72.2083 414.236 72.6267 413.417 72.9595C412.598 73.2924 411.618 73.4588 410.475 73.4588ZM411.352 70.2202C412.468 70.2202 413.422 69.9998 414.213 69.5589C415.014 69.1181 415.621 68.5424 416.035 67.8317C416.458 67.112 416.669 66.3428 416.669 65.5241V62.8523C416.525 62.9962 416.246 63.1312 415.833 63.2571C415.428 63.3741 414.964 63.4775 414.443 63.5675C413.921 63.6484 413.413 63.7249 412.918 63.7969C412.423 63.8598 412.009 63.9138 411.676 63.9588C410.894 64.0578 410.178 64.2242 409.531 64.4581C408.892 64.692 408.379 65.0294 407.992 65.4702C407.614 65.902 407.426 66.4777 407.426 67.1974C407.426 68.196 407.794 68.9517 408.532 69.4645C409.27 69.9683 410.21 70.2202 411.352 70.2202ZM425.508 73V52.2727H429.408V55.5653H429.624C430.002 54.4498 430.667 53.5727 431.621 52.9339C432.584 52.2862 433.672 51.9624 434.887 51.9624C435.139 51.9624 435.435 51.9714 435.777 51.9893C436.128 52.0073 436.402 52.0298 436.6 52.0568V55.9162C436.438 55.8712 436.151 55.8217 435.737 55.7678C435.323 55.7048 434.909 55.6733 434.495 55.6733C433.542 55.6733 432.692 55.8757 431.945 56.2805C431.207 56.6764 430.622 57.2296 430.191 57.9403C429.759 58.642 429.543 59.4427 429.543 60.3423V73H425.508Z" fill="#FDB22D"/>
<defs>
<clipPath id="clip0_369_1943">
<rect x="569.684" y="205.909" width="108.316" height="108.316" rx="54.1578" fill="white"/>
</clipPath>
<clipPath id="clip1_369_1943">
<rect x="18.2598" y="-0.874603" width="108.316" height="108.316" rx="54.1578" fill="white"/>
</clipPath>
</defs>
</svg>
