<svg width="15" height="16" viewBox="0 0 15 16" fill="none" xmlns="http://www.w3.org/2000/svg">
<path d="M7.5 5.80273C7.01459 5.80273 6.62109 5.40923 6.62109 4.92383C6.62109 4.43842 7.01459 4.04492 7.5 4.04492C7.98541 4.04492 8.37891 4.43842 8.37891 4.92383C8.37891 5.40923 7.98541 5.80273 7.5 5.80273ZM7.5 11.5156C7.01459 11.5156 6.62109 11.1221 6.62109 10.6367V7.56055C6.62109 7.07514 7.01459 6.68164 7.5 6.68164C7.98541 6.68164 8.37891 7.07514 8.37891 7.56055V10.6367C8.37891 11.1221 7.98541 11.5156 7.5 11.5156Z" fill="#6C8180"/>
<path fill-rule="evenodd" clip-rule="evenodd" d="M7.5 13.9766C10.8008 13.9766 13.4766 11.3008 13.4766 8C13.4766 4.69924 10.8008 2.02344 7.5 2.02344C4.19924 2.02344 1.52344 4.69924 1.52344 8C1.52344 11.3008 4.19924 13.9766 7.5 13.9766ZM7.5 15.0312C11.3833 15.0312 14.5312 11.8833 14.5312 8C14.5312 4.11675 11.3833 0.96875 7.5 0.96875C3.61675 0.96875 0.46875 4.11675 0.46875 8C0.46875 11.8833 3.61675 15.0312 7.5 15.0312Z" fill="#6C8180"/>
</svg>
