<svg width="286" height="286" viewBox="0 0 286 286" fill="none" xmlns="http://www.w3.org/2000/svg">
<path d="M182.436 165.59V127.793H285.929V185.089C285.929 227.086 241.532 255.584 187.836 255.584C122.44 255.584 75.3438 215.687 75.3438 142.792C75.3438 69.8972 122.44 30 187.836 30C239.732 30 272.13 53.9983 285.329 86.396L234.932 99.5951C229.233 89.6958 216.634 73.7969 187.836 73.7969C153.938 73.7969 130.54 99.8951 130.54 142.792C130.54 185.689 153.938 211.787 187.836 211.787C212.134 211.787 230.733 199.188 230.733 185.689V165.59H182.436Z" fill="#FFF6E0"/>
<path d="M0 250.785V34.8008H55.1961V250.785H0Z" fill="#FFF6E0"/>
</svg>
