<svg width="227" height="40" viewBox="0 0 227 40" fill="none" xmlns="http://www.w3.org/2000/svg">
<path d="M203.324 39.5761V9.16717H210.46V12.2486C211.311 10.789 213.379 8.76172 217.109 8.76172C223.191 8.76172 227.002 13.1811 227.002 19.5062C227.002 25.8312 223.191 30.2507 217.109 30.2507C213.379 30.2507 211.311 28.2234 210.46 26.7638V39.5761H203.324ZM215.122 24.7365C218.082 24.7365 219.826 22.5471 219.826 19.5062C219.826 16.4653 218.082 14.2759 215.122 14.2759C212.163 14.2759 210.46 16.4653 210.46 19.5062C210.46 22.5471 212.163 24.7365 215.122 24.7365Z" fill="white"/>
<path d="M192.953 29.8421V26.9229C192.142 28.4636 190.44 30.2476 186.953 30.2476C180.587 30.2476 178.195 26.0714 178.195 19.7869V9.16406H185.372V19.7869C185.372 22.6251 186.223 24.7334 188.98 24.7334C191.818 24.7334 192.953 22.544 192.953 19.7058V9.16406H200.13V29.8421H192.953Z" fill="white"/>
<path d="M164.153 30.3308C156.936 30.3308 152.273 26.033 152.273 19.5053C152.273 12.9775 156.936 8.67969 164.153 8.67969C171.41 8.67969 176.073 12.9775 176.073 19.5053C176.073 26.033 171.41 30.3308 164.153 30.3308ZM164.153 24.8572C167.194 24.8572 168.896 22.5867 168.896 19.5053C168.896 16.4238 167.194 14.1533 164.153 14.1533C161.153 14.1533 159.45 16.4238 159.45 19.5053C159.45 22.5867 161.153 24.8572 164.153 24.8572Z" fill="white"/>
<path d="M136.562 29.8452V9.16717H143.739V12.1675C144.144 11.1944 145.685 8.76172 149.009 8.76172C150.266 8.76172 151.199 8.9239 152.01 9.16717V14.6002C151.037 14.3975 150.023 14.2759 148.685 14.2759C145.482 14.2759 143.739 16.2626 143.739 19.5467V29.8452H136.562Z" fill="white"/>
<path d="M119.806 18.3264V13.2177H133.794V20.9619C133.794 26.6382 127.793 30.49 120.536 30.49C111.697 30.49 105.332 25.0975 105.332 15.245C105.332 5.39251 111.697 0 120.536 0C127.55 0 131.929 3.24362 133.713 7.6225L126.901 9.40649C126.131 8.0685 124.428 5.9196 120.536 5.9196C115.955 5.9196 112.792 9.44703 112.792 15.245C112.792 21.043 115.955 24.5704 120.536 24.5704C123.82 24.5704 126.334 22.8675 126.334 21.043V18.3264H119.806Z" fill="white"/>
<path d="M98.934 30.3283C92.6497 30.3283 90.7442 26.7197 90.7442 20.7191V14.6778H87.0547V9.16367H90.7442V3.40625H97.8799V9.16367H103.353V14.6778H97.8799V20.7191C97.8799 23.3545 98.2448 24.8547 100.313 24.8547C101.448 24.8547 102.624 24.4087 102.624 24.4087L104.043 29.0308C104.043 29.0308 102.38 30.3283 98.934 30.3283Z" fill="white"/>
<path d="M78.8899 29.8452V27.4125C78.0384 28.9532 75.768 30.2507 72.9299 30.2507C68.1052 30.2507 65.2266 28.0612 65.2266 24.0067C65.2266 17.3978 73.6597 17.3978 78.8899 17.4384C78.8493 15.2895 77.9168 14.1137 74.9571 14.1137C72.4839 14.1137 70.3756 14.884 68.4701 15.6139L65.7536 11.4377C67.2132 10.5052 70.7405 8.76172 75.8085 8.76172C84.2416 8.76172 86.0256 12.7351 86.0256 18.6142V29.8452H78.8899ZM78.8899 20.7226C75.6463 20.682 72.3623 21.0875 72.3623 23.5607C72.3623 24.9393 73.3353 25.7907 75.1598 25.7907C77.633 25.7907 78.8899 24.25 78.8899 22.1822V20.7226Z" fill="white"/>
<path d="M49.4727 29.8452V9.16717H56.6489V12.1675C57.0544 11.1944 58.595 8.76172 61.9196 8.76172C63.1765 8.76172 64.109 8.9239 64.9199 9.16717V14.6002C63.9468 14.3975 62.9332 14.2759 61.5953 14.2759C58.3923 14.2759 56.6489 16.2626 56.6489 19.5467V29.8452H49.4727Z" fill="white"/>
<path d="M11.2852 29.8452V9.16717H18.4209V11.9648C18.7858 11.4782 20.367 8.76172 24.1781 8.76172C27.9892 8.76172 30.2192 10.4241 31.3138 12.8162C32.1247 11.5593 34.233 8.76172 38.2874 8.76172C44.2879 8.76172 46.5583 12.7757 46.5583 19.2224V29.8452H39.4226V19.2224C39.4226 16.3437 38.5712 14.2759 36.098 14.2759C33.5843 14.2759 32.4896 16.3437 32.4896 19.2224V29.8452H25.3539V19.2224C25.3539 16.3437 24.5025 14.2759 22.0293 14.2759C19.475 14.2759 18.4209 16.3437 18.4209 19.2224V29.8452H11.2852Z" fill="white"/>
<path d="M0 29.841V0.648438H7.46008V29.841H0Z" fill="white"/>
</svg>
