<svg width="161" height="29" viewBox="0 0 161 29" fill="none" xmlns="http://www.w3.org/2000/svg">
<path d="M144.16 28.5008V6.98608H149.209V9.16624C149.811 8.13353 151.274 6.69922 153.913 6.69922C158.216 6.69922 160.912 9.82602 160.912 14.3011C160.912 18.7761 158.216 21.903 153.913 21.903C151.274 21.903 149.811 20.4686 149.209 19.4359V28.5008H144.16ZM152.508 18.0016C154.602 18.0016 155.835 16.4526 155.835 14.3011C155.835 12.1496 154.602 10.6006 152.508 10.6006C150.414 10.6006 149.209 12.1496 149.209 14.3011C149.209 16.4526 150.414 18.0016 152.508 18.0016Z" fill="#2D5551"/>
<path d="M136.82 21.6144V19.549C136.247 20.6391 135.042 21.9012 132.575 21.9012C128.071 21.9012 126.379 18.9466 126.379 14.5002V6.98438H131.456V14.5002C131.456 16.5082 132.059 17.9999 134.009 17.9999C136.017 17.9999 136.82 16.4509 136.82 14.4428V6.98438H141.898V21.6144H136.82Z" fill="#2D5551"/>
<path d="M116.444 21.9591C111.338 21.9591 108.039 18.9184 108.039 14.2999C108.039 9.68137 111.338 6.64062 116.444 6.64062C121.578 6.64062 124.877 9.68137 124.877 14.2999C124.877 18.9184 121.578 21.9591 116.444 21.9591ZM116.444 18.0865C118.595 18.0865 119.8 16.48 119.8 14.2999C119.8 12.1197 118.595 10.5133 116.444 10.5133C114.321 10.5133 113.116 12.1197 113.116 14.2999C113.116 16.48 114.321 18.0865 116.444 18.0865Z" fill="#2D5551"/>
<path d="M96.9219 21.6161V6.98608H101.999V9.10887C102.286 8.4204 103.376 6.69922 105.728 6.69922C106.617 6.69922 107.277 6.81396 107.851 6.98608V10.83C107.163 10.6866 106.445 10.6006 105.499 10.6006C103.233 10.6006 101.999 12.0062 101.999 14.3298V21.6161H96.9219Z" fill="#2D5551"/>
<path d="M85.0687 13.4662V9.85173H94.9651V15.3308C94.9651 19.3469 90.7197 22.0721 85.5851 22.0721C79.3317 22.0721 74.8281 18.2568 74.8281 11.286C74.8281 4.31528 79.3317 0.5 85.5851 0.5C90.5476 0.5 93.6456 2.7949 94.9078 5.89302L90.0887 7.15522C89.5436 6.20857 88.3389 4.6882 85.5851 4.6882C82.3436 4.6882 80.1062 7.18391 80.1062 11.286C80.1062 15.3882 82.3436 17.8839 85.5851 17.8839C87.9086 17.8839 89.6871 16.6791 89.6871 15.3882V13.4662H85.0687Z" fill="#2D5551"/>
<path d="M70.2993 21.9618C65.8531 21.9618 64.5049 19.4087 64.5049 15.1631V10.8889H61.8945V6.98752H64.5049V2.91406H69.5535V6.98752H73.426V10.8889H69.5535V15.1631C69.5535 17.0277 69.8117 18.0891 71.2746 18.0891C72.0778 18.0891 72.9097 17.7736 72.9097 17.7736L73.9136 21.0438C73.9136 21.0438 72.7375 21.9618 70.2993 21.9618Z" fill="#2D5551"/>
<path d="M56.12 21.6161V19.8949C55.5177 20.985 53.9113 21.903 51.9033 21.903C48.4898 21.903 46.4531 20.3539 46.4531 17.4853C46.4531 12.8094 52.4197 12.8094 56.12 12.8381C56.0914 11.3177 55.4316 10.4858 53.3376 10.4858C51.5878 10.4858 50.0961 11.0308 48.7479 11.5472L46.826 8.59251C47.8587 7.93273 50.3543 6.69922 53.94 6.69922C59.9065 6.69922 61.1686 9.51048 61.1686 13.67V21.6161H56.12ZM56.12 15.1617C53.8252 15.133 51.5017 15.4199 51.5017 17.1697C51.5017 18.145 52.1902 18.7475 53.481 18.7475C55.2308 18.7475 56.12 17.6574 56.12 16.1944V15.1617Z" fill="#2D5551"/>
<path d="M35.3086 21.6161V6.98608H40.3859V9.10887C40.6727 8.4204 41.7628 6.69922 44.115 6.69922C45.0042 6.69922 45.664 6.81396 46.2377 6.98608V10.83C45.5492 10.6866 44.8321 10.6006 43.8855 10.6006C41.6193 10.6006 40.3859 12.0062 40.3859 14.3298V21.6161H35.3086Z" fill="#2D5551"/>
<path d="M8.28906 21.6161V6.98608H13.3377V8.96544C13.5958 8.6212 14.7146 6.69922 17.411 6.69922C20.1074 6.69922 21.6851 7.87536 22.4596 9.56785C23.0333 8.67857 24.5249 6.69922 27.3934 6.69922C31.6388 6.69922 33.2452 9.53916 33.2452 14.1003V21.6161H28.1966V14.1003C28.1966 12.0636 27.5942 10.6006 25.8444 10.6006C24.0659 10.6006 23.2914 12.0636 23.2914 14.1003V21.6161H18.2428V14.1003C18.2428 12.0636 17.6404 10.6006 15.8906 10.6006C14.0835 10.6006 13.3377 12.0636 13.3377 14.1003V21.6161H8.28906Z" fill="#2D5551"/>
<path d="M0.304688 21.6151V0.960938H5.58277V21.6151H0.304688Z" fill="#2D5551"/>
</svg>
