<svg width="45" height="44" viewBox="0 0 45 44" fill="none" xmlns="http://www.w3.org/2000/svg">
<g clip-path="url(#clip0_804_11857)">
<path d="M37.1428 15.3217C37.1422 15.1021 37.1371 14.8824 37.1275 14.663V2.2092L33.7715 5.6522C31.0245 2.20307 26.846 0 22.1655 0C17.2948 0 12.9676 2.38502 10.2324 6.07885L15.7335 11.7815C16.2721 10.7607 17.0351 9.88251 17.9619 9.21656C18.9223 8.44782 20.2831 7.81902 22.1655 7.81902C22.393 7.81902 22.5686 7.84643 22.6974 7.89764C25.0299 8.08662 27.0515 9.40698 28.2417 11.3235L24.3477 15.3181C29.2799 15.2983 34.8516 15.2868 37.1424 15.3208" fill="#1C3AA9"/>
<path d="M22.078 0C21.8639 0.000623252 21.6498 0.00585391 21.4359 0.0156885H9.29607L12.6523 3.45869C9.2901 6.27649 7.14258 10.5632 7.14258 15.3647C7.14258 20.3615 9.46746 24.8007 13.0682 27.6068L18.6271 21.9634C17.6319 21.4108 16.7759 20.628 16.1268 19.6772C15.3774 18.6921 14.7645 17.296 14.7645 15.3648C14.7645 15.1317 14.7912 14.9515 14.8411 14.8192C15.0253 12.4266 16.3124 10.3526 18.1806 9.13162L22.0745 13.1262C22.0552 8.06625 22.0437 2.35039 22.0771 0.000360656" fill="#4285F4"/>
<path d="M7.14258 15.3672C7.14328 15.5879 7.1482 15.8074 7.15787 16.0259V28.4797L10.5141 25.0367C13.2608 28.4859 17.4395 30.6889 22.1198 30.6889C26.9907 30.6889 31.3179 28.3039 34.0533 24.6101L28.5522 18.9074C28.0135 19.9283 27.2505 20.8064 26.3237 21.4724C25.3634 22.2411 24.0025 22.8699 22.12 22.8699C21.8927 22.8699 21.7171 22.8425 21.5881 22.7911C19.2558 22.6023 17.2342 21.2818 16.044 19.3654L19.9379 15.3706C15.0054 15.3904 9.43371 15.4022 7.14293 15.3681" fill="#ABABAB"/>
<path d="M9.67025 36.6369C9.30551 36.6369 8.97838 36.7078 8.68904 36.8497C8.40187 36.9867 8.14985 37.1906 7.95305 37.4451C7.75494 37.7032 7.60236 38.0162 7.49549 38.3839C7.39178 38.7485 7.33975 39.1566 7.33975 39.6083V40.9103C7.33975 41.3651 7.39178 41.7748 7.49549 42.1394C7.60236 42.504 7.75336 42.8153 7.94848 43.0735C8.14342 43.3314 8.37914 43.5299 8.656 43.6686C8.93268 43.8075 9.24416 43.8769 9.5901 43.8769C9.94553 43.8769 10.2568 43.8235 10.5242 43.7171C10.7947 43.6107 11.0211 43.4574 11.2034 43.2573C11.3859 43.054 11.5258 42.809 11.6234 42.5217C11.7241 42.2346 11.7837 41.9086 11.8027 41.5442H10.9299C10.9079 41.8247 10.8701 42.0653 10.8167 42.2653C10.7633 42.462 10.6845 42.625 10.5808 42.754C10.4801 42.8798 10.3481 42.9734 10.1844 43.0348C10.0241 43.0928 9.82582 43.1218 9.5901 43.1218C9.33855 43.1218 9.12463 43.0654 8.9485 42.9523C8.77236 42.8362 8.62928 42.6782 8.51924 42.4781C8.41236 42.2781 8.33361 42.0442 8.28334 41.7764C8.23623 41.5086 8.2125 41.2199 8.2125 40.9101V39.5986C8.2125 39.2663 8.2408 38.9646 8.2974 38.6935C8.35717 38.4227 8.44682 38.1919 8.56635 38.0016C8.68588 37.8112 8.83687 37.6644 9.01934 37.5611C9.20162 37.4547 9.41871 37.4015 9.67025 37.4015C9.88102 37.4015 10.0619 37.4338 10.2127 37.4983C10.3619 37.5581 10.4924 37.6585 10.5901 37.7887C10.6908 37.9176 10.7678 38.0822 10.8213 38.2822C10.8749 38.4824 10.9109 38.7209 10.9299 38.9985H11.8027C11.7868 38.6178 11.7288 38.2808 11.6281 37.987C11.5274 37.6934 11.3875 37.4466 11.2082 37.2466C11.0289 37.0464 10.8104 36.8949 10.5525 36.7916C10.2976 36.6885 10.0037 36.6369 9.67025 36.6369ZM30.9749 36.6369C30.61 36.6369 30.2829 36.7078 29.9936 36.8497C29.7064 36.9867 29.4544 37.1906 29.2576 37.4451C29.0595 37.7032 28.9071 38.0162 28.8 38.3839C28.6963 38.7485 28.6444 39.1566 28.6444 39.6083V40.9103C28.6444 41.3651 28.6963 41.7748 28.8 42.1394C28.9069 42.504 29.0579 42.8153 29.253 43.0735C29.4479 43.3314 29.6837 43.5299 29.9605 43.6686C30.2374 43.8075 30.5487 43.8769 30.8946 43.8769C31.25 43.8769 31.5613 43.8235 31.8287 43.7171C32.0992 43.6107 32.3256 43.4574 32.5081 43.2573C32.6904 43.054 32.8303 42.809 32.9279 42.5217C33.0286 42.2346 33.0884 41.9086 33.1072 41.5442H32.2344C32.2124 41.8247 32.1746 42.0653 32.1212 42.2653C32.0678 42.462 31.9892 42.625 31.8853 42.754C31.7848 42.8798 31.6526 42.9734 31.4891 43.0348C31.3286 43.0928 31.1305 43.1218 30.8946 43.1218C30.6431 43.1218 30.4291 43.0654 30.253 42.9523C30.0769 42.8362 29.9338 42.6782 29.8237 42.4781C29.7169 42.2781 29.6383 42.0442 29.5879 41.7764C29.5407 41.5086 29.5172 41.2199 29.5172 40.9101V39.5986C29.5172 39.2663 29.5453 38.9646 29.6021 38.6935C29.6619 38.4227 29.7515 38.1919 29.871 38.0016C29.9906 37.8112 30.1414 37.6644 30.3238 37.5611C30.5063 37.4547 30.7232 37.4015 30.9748 37.4015C31.1857 37.4015 31.3664 37.4338 31.5174 37.4983C31.6682 37.5596 31.7941 37.6563 31.8948 37.7887C31.9954 37.9176 32.0723 38.0822 32.126 38.2822C32.1794 38.4824 32.2156 38.7209 32.2344 38.9985H33.1072C33.0913 38.6178 33.0333 38.2808 32.9326 37.987C32.8319 37.6934 32.692 37.4466 32.5127 37.2466C32.3334 37.0464 32.1149 36.8949 31.857 36.7916C31.6021 36.6885 31.3082 36.6367 30.9748 36.6367L30.9749 36.6369ZM14.6429 36.7337L12.4304 43.78H13.3172L13.8503 41.9409H16.1713L16.7138 43.78H17.6008L15.3835 36.7337H14.6429ZM18.5347 36.7337V43.78H19.398V41.0214H20.7236C21.0538 41.0214 21.3463 40.9745 21.6011 40.8811C21.8559 40.7843 22.0697 40.6456 22.2427 40.4649C22.4188 40.2842 22.5508 40.0615 22.6389 39.797C22.7303 39.5292 22.7758 39.226 22.7758 38.8872C22.7758 38.5742 22.7301 38.2871 22.6389 38.0258C22.551 37.7612 22.4204 37.5337 22.2474 37.3434C22.0744 37.1497 21.8589 36.9997 21.6011 36.8933C21.3462 36.7869 21.0538 36.7336 20.7236 36.7336L18.5347 36.7337ZM23.4362 36.7337V37.4983H25.2383V43.78H26.1014V37.4983H27.9084V36.7337H23.4362ZM34.2724 36.7337V43.78H35.1355V40.523H37.9002V43.78H38.7682V36.7337H37.9002V39.7632H35.1357V36.7337H34.2724ZM42.042 36.7337L39.8296 43.78H40.7166L41.2495 41.9409H43.5705L44.1132 43.78H45L42.7827 36.7337H42.042ZM19.3978 37.4983H20.7236C20.9343 37.4983 21.1134 37.5369 21.2614 37.6145C21.4123 37.692 21.535 37.7951 21.6294 37.9243C21.729 38.058 21.8012 38.211 21.8415 38.3742C21.8888 38.5419 21.9124 38.7163 21.9124 38.8969C21.9124 39.0971 21.8888 39.2809 21.8415 39.4488C21.8011 39.606 21.7288 39.7527 21.6294 39.8794C21.535 39.9988 21.4123 40.0922 21.2613 40.16C21.1136 40.2278 20.9343 40.2617 20.7234 40.2617H19.398L19.3978 37.4983ZM15.0107 37.9726L15.9495 41.1763H14.0767L15.0107 37.9726ZM42.41 37.9726L43.3487 41.1763H41.4759L42.41 37.9726ZM1.77381 38.4468C1.55672 38.4468 1.36951 38.5033 1.21236 38.6164C1.0582 38.7292 0.929355 38.8825 0.825645 39.076L0.811406 38.5437H0V43.78H0.834961V40.0341C0.913711 39.8114 1.02533 39.6356 1.17 39.5066C1.31766 39.3775 1.50486 39.313 1.73127 39.313C1.80369 39.313 1.8682 39.3162 1.92463 39.3227C1.98141 39.3259 2.04275 39.3339 2.10867 39.3469L2.1041 38.5145C2.08437 38.5056 2.06373 38.4991 2.04258 38.495C2.01502 38.4846 1.98669 38.4765 1.95785 38.4708C1.92508 38.4642 1.89198 38.4594 1.85871 38.4564C1.83079 38.4503 1.80235 38.4471 1.77381 38.4467V38.4468ZM4.58068 38.4468C4.33846 38.4468 4.10432 38.4905 3.87773 38.5776C3.65133 38.6647 3.45006 38.8082 3.27393 39.0082C3.10096 39.2051 2.96104 39.4632 2.85416 39.7825C2.74711 40.0988 2.69367 40.4876 2.69367 40.9489V41.5393C2.69367 41.9394 2.73938 42.2862 2.83061 42.5798C2.92166 42.8734 3.05209 43.1172 3.22207 43.3107C3.39559 43.5014 3.61062 43.6473 3.84961 43.7366C4.09482 43.8302 4.36992 43.8769 4.67508 43.8769C4.89516 43.8769 5.09168 43.8543 5.26482 43.8091C5.44096 43.764 5.59652 43.7059 5.73188 43.6349C5.85843 43.567 5.97579 43.4824 6.08098 43.3833C6.1736 43.2954 6.25734 43.1981 6.33094 43.093L5.89693 42.5509C5.82768 42.638 5.75385 42.7186 5.67527 42.7927C5.59652 42.8638 5.51004 42.9267 5.41582 42.9816C5.31722 43.0348 5.21261 43.0755 5.10434 43.1026C4.97922 43.133 4.85094 43.1477 4.72236 43.1462C4.33547 43.1462 4.03822 43.0187 3.83063 42.7639C3.62619 42.5089 3.52406 42.1008 3.52406 41.5395V41.4183H6.37348V40.9199C6.37348 40.5199 6.34043 40.1665 6.27434 39.8601C6.20824 39.5535 6.10295 39.2955 5.95828 39.0858C5.81749 38.8793 5.62522 38.7156 5.40158 38.6115C5.17518 38.5017 4.90148 38.4468 4.58068 38.4468ZM4.58068 39.1826C4.76314 39.1826 4.91414 39.2163 5.03367 39.2841C5.15191 39.3506 5.24987 39.4494 5.31668 39.5696C5.38893 39.6922 5.44096 39.839 5.47242 40.0101C5.50688 40.1778 5.52902 40.3634 5.53834 40.5666V40.6827H3.52863C3.54129 40.3892 3.57592 40.1455 3.63234 39.9519C3.68912 39.7584 3.76295 39.6051 3.85418 39.4922C3.94857 39.3761 4.05703 39.2955 4.17973 39.2502C4.30855 39.204 4.44421 39.181 4.58068 39.1824V39.1826Z" fill="#A6A6A6"/>
</g>
<defs>
<clipPath id="clip0_804_11857">
<rect width="45" height="44" fill="white"/>
</clipPath>
</defs>
</svg>
