<svg width="18" height="18" viewBox="0 0 18 18" fill="none" xmlns="http://www.w3.org/2000/svg">
<path d="M8.81877 0.38833C8.89059 0.234439 9.10941 0.23444 9.18123 0.38833L11.833 6.07032C11.8529 6.11289 11.8871 6.14711 11.9297 6.16697L17.6117 8.81877C17.7656 8.89059 17.7656 9.10941 17.6117 9.18123L11.9297 11.833C11.8871 11.8529 11.8529 11.8871 11.833 11.9297L9.18123 17.6117C9.10941 17.7656 8.89059 17.7656 8.81877 17.6117L6.16697 11.9297C6.14711 11.8871 6.11289 11.8529 6.07032 11.833L0.38833 9.18123C0.234439 9.10941 0.23444 8.89059 0.38833 8.81877L6.07032 6.16697C6.11289 6.14711 6.14711 6.11289 6.16697 6.07032L8.81877 0.38833Z" fill="#2D5551"/>
</svg>
