<svg width="29" height="28" viewBox="0 0 29 28" fill="none" xmlns="http://www.w3.org/2000/svg">
<g clip-path="url(#clip0_949_44678)">
<path d="M14.199 -0.00390625C6.47097 -0.00390625 0.198975 6.26809 0.198975 13.9961C0.198975 21.7241 6.47097 27.9961 14.199 27.9961C21.927 27.9961 28.199 21.7241 28.199 13.9961C28.199 6.26809 21.927 -0.00390625 14.199 -0.00390625ZM20.695 9.51609C20.485 11.7281 19.575 17.1041 19.113 19.5821C18.917 20.6321 18.525 20.9821 18.161 21.0241C17.349 21.0941 16.733 20.4921 15.949 19.9741C14.717 19.1621 14.017 18.6581 12.827 17.8741C11.441 16.9641 12.337 16.4601 13.135 15.6481C13.345 15.4381 16.929 12.1761 16.999 11.8821C17.0087 11.8376 17.0074 11.7913 16.9952 11.7474C16.983 11.7035 16.9603 11.6632 16.929 11.6301C16.845 11.5601 16.733 11.5881 16.635 11.6021C16.509 11.6301 14.549 12.9321 10.727 15.5081C10.167 15.8861 9.66297 16.0821 9.21497 16.0681C8.71097 16.0541 7.75897 15.7881 7.04497 15.5501C6.16297 15.2701 5.47697 15.1161 5.53297 14.6261C5.56097 14.3741 5.91097 14.1221 6.56897 13.8561C10.657 12.0781 13.373 10.9021 14.731 10.3421C18.623 8.71809 19.421 8.43809 19.953 8.43809C20.065 8.43809 20.331 8.46609 20.499 8.60609C20.639 8.71809 20.681 8.87209 20.695 8.98409C20.681 9.06809 20.709 9.32009 20.695 9.51609Z" fill="#2D5551"/>
</g>
<defs>
<clipPath id="clip0_949_44678">
<rect width="28" height="28" fill="white" transform="translate(0.199951)"/>
</clipPath>
</defs>
</svg>
