<svg width="20" height="20" viewBox="0 0 20 20" fill="none" xmlns="http://www.w3.org/2000/svg">
<g clip-path="url(#clip0_959_2889)">
<path d="M19.869 5.81211C19.869 4.0543 18.576 2.64023 16.9784 2.64023C14.8143 2.53906 12.6073 2.5 10.3518 2.5H9.64868C7.39868 2.5 5.18774 2.53906 3.02368 2.64062C1.42993 2.64062 0.136956 4.0625 0.136956 5.82031C0.0393001 7.21055 -0.00210621 8.60117 0.000237542 9.9918C-0.00366871 11.3824 0.0406022 12.7743 0.13305 14.1676C0.13305 15.9254 1.42602 17.3512 3.01977 17.3512C5.29321 17.4566 7.62524 17.5035 9.99634 17.4996C12.3713 17.5074 14.6969 17.4579 16.9729 17.3512C18.5706 17.3512 19.8635 15.9254 19.8635 14.1676C19.9573 12.773 20.0002 11.3824 19.9963 9.98789C20.0052 8.59726 19.9627 7.20534 19.869 5.81211ZM8.08618 13.8238V6.14805L13.7502 9.98398L8.08618 13.8238Z" fill="white"/>
</g>
<defs>
<clipPath id="clip0_959_2889">
<rect width="20" height="20" fill="white"/>
</clipPath>
</defs>
</svg>
