<svg width="29" height="28" viewBox="0 0 29 28" fill="none" xmlns="http://www.w3.org/2000/svg">
<g clip-path="url(#clip0_949_44676)">
<path d="M28.0175 8.13305C28.0175 5.67211 26.2074 3.69242 23.9706 3.69242C20.941 3.55078 17.8511 3.49609 14.6935 3.49609H13.7091C10.5591 3.49609 7.46376 3.55078 4.43407 3.69297C2.20282 3.69297 0.392667 5.68359 0.392667 8.14453C0.255948 10.0909 0.197979 12.0377 0.20126 13.9846C0.195792 15.9315 0.257771 17.8802 0.387198 19.8307C0.387198 22.2916 2.19736 24.2877 4.42861 24.2877C7.61142 24.4354 10.8763 24.501 14.1958 24.4955C17.5208 24.5065 20.7765 24.4372 23.963 24.2877C26.1997 24.2877 28.0099 22.2916 28.0099 19.8307C28.1411 17.8784 28.2013 15.9315 28.1958 13.9791C28.2082 12.0323 28.1488 10.0836 28.0175 8.13305ZM11.5216 19.3495V8.60336L19.4513 13.9737L11.5216 19.3495Z" fill="#2D5551"/>
</g>
<defs>
<clipPath id="clip0_949_44676">
<rect width="28" height="28" fill="white" transform="translate(0.199951)"/>
</clipPath>
</defs>
</svg>
